<svg height="512pt" viewBox="-6 0 512 512.00161" width="512pt" xmlns="http://www.w3.org/2000/svg"><path d="m474.625 192.421875c-8.769531-28.527344-20.757812-55.285156-33.4375-81.886719-4.3125-9.042968-.910156-19.882812 7.800781-24.832031l31.789063-18.050781c7.605468-4.320313 10.203125-14.027344 5.765625-21.566406l-18.167969-30.886719c-4.433594-7.539063-14.183594-9.988281-21.652344-5.4375l-74.679687 45.476562c-13.691407 8.339844-18.832031 25.414063-12.730469 39.75 2.359375 5.539063 4.332031 11.234375 6.285156 16.933594 11.34375 33.078125 21.46875 66.683594 28.003906 101.078125 9.414063 49.546875 18.523438 112.414062-15.183593 155.167969-26.527344 33.644531-73.097657 42.128906-113.433594 44.253906-10.132813.441406-20.082031.53125-30.214844 0-40.335937-2.125-86.90625-10.609375-113.429687-44.253906-33.710938-42.753907-24.597656-105.621094-15.183594-155.167969 6.53125-34.390625 16.65625-67.996094 28-101.078125 1.953125-5.695313 3.929688-11.394531 6.285156-16.933594 6.101563-14.335937.960938-31.410156-12.726562-39.75l-74.679688-45.476562c-7.472656-4.550781-17.222656-2.101563-21.65625 5.4375l-18.167968 30.882812c-4.433594 7.542969-1.839844 17.25 5.765624 21.570313l31.789063 18.050781c8.714844 4.949219 12.113281 15.789063 7.800781 24.832031-12.679687 26.601563-24.667968 53.359375-33.4375 81.886719-22.175781 72.109375-29.265625 157.246094 13.945313 223.300781 43.375 66.8125 126.460937 88.8125 201.945312 88.8125 5.90625 0 11.8125-.015625 17.714844 0 75.484375 0 158.570313-22 201.945313-88.8125 43.210937-66.054687 36.121093-151.191406 13.945312-223.300781zm0 0" fill="#ffe76c"/><g fill="#ffb44d"><path d="m92.609375 158.761719c0 7.777343-6.308594 14.085937-14.089844 14.085937s-14.085937-6.308594-14.085937-14.085937c0-7.78125 6.304687-14.089844 14.085937-14.089844s14.089844 6.308594 14.089844 14.089844zm0 0"/><path d="m68.554688 265.332031c0 7.78125-6.308594 14.085938-14.089844 14.085938s-14.085938-6.304688-14.085938-14.085938 6.304688-14.089843 14.085938-14.089843 14.089844 6.308593 14.089844 14.089843zm0 0"/><path d="m77.519531 361.359375c0 7.78125-6.308593 14.085937-14.085937 14.085937-7.78125 0-14.089844-6.304687-14.089844-14.085937s6.308594-14.089844 14.089844-14.089844c7.777344 0 14.085937 6.308594 14.085937 14.089844zm0 0"/><path d="m435.324219 158.761719c0 7.777343-6.308594 14.085937-14.089844 14.085937s-14.085937-6.308594-14.085937-14.085937c0-7.78125 6.304687-14.089844 14.085937-14.089844s14.089844 6.308594 14.089844 14.089844zm0 0"/><path d="m459.375 265.332031c0 7.78125-6.304688 14.085938-14.085938 14.085938s-14.089843-6.304688-14.089843-14.085938 6.308593-14.089843 14.089843-14.089843 14.085938 6.308593 14.085938 14.089843zm0 0"/><path d="m450.410156 361.359375c0 7.78125-6.308594 14.085937-14.085937 14.085937-7.78125 0-14.089844-6.304687-14.089844-14.085937s6.308594-14.089844 14.089844-14.089844c7.777343 0 14.085937 6.308594 14.085937 14.089844zm0 0"/></g><path d="m358.515625 114.320312c11.613281 33.871094 19.632813 61.761719 25.238281 87.78125.871094 4.046876 4.859375 6.625 8.910156 5.753907 4.050782-.875 6.625-4.863281 5.753907-8.914063-5.730469-26.609375-13.902344-55.042968-25.710938-89.488281-2.136719-6.226563-4.097656-11.835937-6.480469-17.4375-4.71875-11.082031-.535156-24.152344 9.726563-30.402344 0 0 74.601563-45.433593 74.679687-45.480469 3.890626-2.367187 8.984376-1.082031 11.289063 2.835938 0 0 18.167969 30.882812 18.167969 30.886719 2.269531 3.859375.996094 9.078125-3.007813 11.242187l-31.785156 18.050782c-12.070313 6.851562-16.84375 22.042968-10.871094 34.582031 11.960938 25.089843 24.242188 52.253906 33.042969 80.863281 34.066406 110.773438 11.703125 179.144531-13.070312 217.011719-20.703126 31.890625-73.652344 85.394531-195.632813 85.394531-5.910156 0-11.824219 0-17.734375 0-46.972656 0-133.402344-9.132812-184.492188-70.289062-2.65625-3.175782-7.386718-3.601563-10.566406-.945313-3.179687 2.65625-3.601562 7.386719-.945312 10.566406 55.003906 65.839844 146.410156 75.667969 196.003906 75.667969h17.714844c42.292968 0 82.3125-6.867188 115.730468-19.859375 40.40625-15.707031 71.527344-40.054687 92.492188-72.34375 20.742188-31.707031 31.746094-69.832031 32.714844-113.324219.800781-35.988281-5.214844-75.117187-17.875-116.289062-9.082032-29.535156-21.632813-57.300782-33.839844-82.910156-2.605469-5.46875-.527344-12.09375 4.734375-15.082032 0 0 31.722656-18.011718 31.789063-18.050781 11.078124-6.289063 14.984374-20.921875 8.527343-31.894531 0 0-18.136719-30.835938-18.167969-30.886719-6.476562-11.015625-21.105468-14.6875-32.019531-8.042969l-74.679687 45.480469c-16.582032 10.097656-23.34375 31.203125-15.730469 49.089844 2.1875 5.144531 4.054687 10.484375 6.09375 16.433593zm0 0"/><path d="m17.96875 190.183594c-18.734375 60.925781-32.289062 148.71875 9.53125 220.976562 2.074219 3.585938 6.664062 4.808594 10.25 2.734375s4.808594-6.664062 2.734375-10.25c-21.585937-37.296875-40.53125-103.84375-8.175781-209.050781 8.796875-28.605469 21.078125-55.769531 33.042968-80.863281 5.976563-12.539063 1.199219-27.730469-10.871093-34.582031 0 0-31.738281-18.023438-31.785157-18.050782-3.902343-2.21875-5.28125-7.378906-3.007812-11.246094 0 0 18.132812-30.824218 18.167969-30.882812 2.28125-3.878906 7.453125-5.171875 11.289062-2.835938l74.679688 45.480469c10.261719 6.246094 14.445312 19.320313 9.730469 30.402344-2.382813 5.589844-4.34375 11.203125-6.480469 17.4375-13.578125 39.597656-22.566407 72.042969-28.277344 102.113281-4.976563 26.1875-9.476563 54.214844-8.707031 81.738282.917968 32.992187 9.21875 58.988281 25.371094 79.472656 30.105468 38.1875 82.292968 45.167968 118.925781 47.097656 10.308593.546875 20.695312.554688 31.007812 0 36.632813-1.929688 88.820313-8.910156 118.925781-47.097656 32.230469-40.878906 27.480469-98.53125 19.742188-144.191406-.691406-4.085938-4.5625-6.835938-8.648438-6.144532-4.085937.695313-6.832031 4.566406-6.140624 8.652344 7.21875 42.601562 11.84375 96.152344-16.734376 132.398438-20.042968 25.421874-54.339843 38.578124-107.867187 41.398437-11.03125.480469-20.402344.484375-29.492187.003906-53.59375-2.824219-87.890626-15.980469-107.9375-41.402343-14.082032-17.863282-21.328126-40.957032-22.15625-70.601563-.726563-26.101563 3.632812-53.164063 8.449218-78.527344 5.578125-29.347656 14.390625-61.136719 27.730469-100.042969 2.042969-5.953124 3.910156-11.300781 6.09375-16.429687 7.613281-17.890625.847656-38.996094-15.730469-49.09375 0 0-74.621094-45.441406-74.679687-45.476563-10.914063-6.648437-25.558594-2.945312-32.023438 8.039063 0 0-18.15625 30.871094-18.167969 30.886719-6.46875 11-2.53125 25.613281 8.53125 31.898437l31.785157 18.050781c5.261719 2.988282 7.339843 9.613282 4.730469 15.082032-12.207032 25.609375-24.753907 53.378906-33.835938 82.90625zm0 0"/><path d="m170.25 454.847656v-15.769531c0-4.140625-3.359375-7.5-7.5-7.5-4.144531 0-7.5 3.359375-7.5 7.5v15.769531c0 4.144532 3.355469 7.503906 7.5 7.503906 4.140625 0 7.5-3.359374 7.5-7.503906zm0 0"/><path d="m344.527344 454.847656v-15.769531c0-4.140625-3.355469-7.5-7.5-7.5-4.140625 0-7.5 3.359375-7.5 7.5v15.769531c0 4.144532 3.359375 7.503906 7.5 7.503906 4.144531 0 7.5-3.359374 7.5-7.503906zm0 0"/><path d="m249.890625 470.769531c10.542969 0 20.441406-4.402343 27.152344-12.082031 2.726562-3.117188 2.410156-7.855469-.710938-10.582031-3.121093-2.726563-7.859375-2.410157-10.585937.710937-3.859375 4.414063-9.640625 6.949219-15.859375 6.949219-6.214844 0-11.996094-2.535156-15.859375-6.949219-2.726563-3.121094-7.460938-3.4375-10.582032-.714844-3.121093 2.726563-3.4375 7.46875-.710937 10.585938 6.710937 7.679688 16.605469 12.082031 27.15625 12.082031zm0 0"/><path d="m100.121094 158.726562c0-11.902343-9.6875-21.589843-21.589844-21.589843s-21.589844 9.6875-21.589844 21.589843c0 11.902344 9.6875 21.589844 21.589844 21.589844s21.589844-9.683594 21.589844-21.589844zm-28.175782 0c0-3.632812 2.953126-6.585937 6.585938-6.585937s6.585938 2.953125 6.585938 6.585937c0 3.632813-2.953126 6.585938-6.585938 6.585938s-6.585938-2.953125-6.585938-6.585938zm0 0"/><path d="m32.890625 265.296875c0 11.90625 9.683594 21.589844 21.585937 21.589844 11.90625 0 21.589844-9.683594 21.589844-21.589844 0-11.902344-9.683594-21.585937-21.589844-21.585937-11.902343 0-21.585937 9.683593-21.585937 21.585937zm28.171875 0c0 3.632813-2.953125 6.589844-6.585938 6.589844-3.632812 0-6.585937-2.957031-6.585937-6.589844 0-3.628906 2.957031-6.585937 6.585937-6.585937 3.632813 0 6.585938 2.957031 6.585938 6.585937zm0 0"/><path d="m63.441406 382.914062c11.90625 0 21.589844-9.683593 21.589844-21.589843 0-11.902344-9.683594-21.585938-21.589844-21.585938-11.902344 0-21.585937 9.683594-21.585937 21.585938 0 11.90625 9.683593 21.589843 21.585937 21.589843zm0-28.175781c3.632813 0 6.585938 2.957031 6.585938 6.585938 0 3.632812-2.953125 6.589843-6.585938 6.589843-3.628906 0-6.585937-2.957031-6.585937-6.589843 0-3.628907 2.957031-6.585938 6.585937-6.585938zm0 0"/><path d="m421.246094 137.140625c-11.902344 0-21.589844 9.683594-21.589844 21.585937 0 11.90625 9.6875 21.589844 21.589844 21.589844s21.589844-9.683594 21.589844-21.589844c0-11.902343-9.6875-21.585937-21.589844-21.585937zm0 28.171875c-3.632813 0-6.585938-2.953125-6.585938-6.585938 0-3.628906 2.953125-6.585937 6.585938-6.585937 3.632812 0 6.585937 2.957031 6.585937 6.585937 0 3.632813-2.953125 6.585938-6.585937 6.585938zm0 0"/><path d="m423.710938 265.296875c0 11.90625 9.683593 21.589844 21.589843 21.589844 11.902344 0 21.589844-9.683594 21.589844-21.589844 0-11.902344-9.683594-21.585937-21.589844-21.585937s-21.589843 9.683593-21.589843 21.585937zm21.589843-6.585937c3.632813 0 6.585938 2.957031 6.585938 6.585937 0 3.632813-2.953125 6.589844-6.585938 6.589844-3.632812 0-6.585937-2.957031-6.585937-6.589844 0-3.628906 2.953125-6.585937 6.585937-6.585937zm0 0"/><path d="m436.332031 382.914062c11.90625 0 21.589844-9.683593 21.589844-21.589843 0-11.902344-9.683594-21.585938-21.589844-21.585938-11.902343 0-21.585937 9.683594-21.585937 21.585938 0 11.90625 9.683594 21.589843 21.585937 21.589843zm0-28.175781c3.632813 0 6.589844 2.957031 6.589844 6.585938 0 3.632812-2.957031 6.589843-6.589844 6.589843-3.628906 0-6.585937-2.957031-6.585937-6.589843 0-3.628907 2.957031-6.585938 6.585937-6.585938zm0 0"/></svg>