<svg height="512pt" viewBox="0 -31 512.001 512" width="512pt" xmlns="http://www.w3.org/2000/svg"><path d="m481.160156 53.078125c-47.441406 23.378906-94.890625 21.878906-142.332031 11.21875l-22.496094 176.222656 22.496094 195.820313c51.183594 11.5 102.371094 12.339844 153.550781-17.222656 7.542969-4.347657 12.121094-12.46875 12.121094-21.179688v-330.359375c0-11.988281-12.578125-19.800781-23.339844-14.5zm0 0" fill="#ff7f5a"/><path d="m173.171875 14.699219c-51.183594-11.5-102.371094-12.339844-153.550781 17.21875-7.542969 4.351562-12.121094 12.46875-12.121094 21.179687v330.359375c0 11.992188 12.578125 19.800781 23.339844 14.5 47.441406-23.378906 94.890625-21.878906 142.332031-11.21875l33.160156-183.277343zm0 0" fill="#1fd7c3"/><path d="m47.5 18.71875c-9.292969 3.480469-18.585938 7.832031-27.878906 13.199219-7.542969 4.351562-12.121094 12.46875-12.121094 21.179687v330.359375c0 11.992188 12.578125 19.800781 23.339844 14.5 5.554687-2.734375 11.105468-5.117187 16.660156-7.199219zm0 0" fill="#00bbc9"/><path d="m338.828125 64.296875v372.042969c-55.21875-12.402344-110.4375-37.203125-165.65625-49.601563v-372.039062c55.21875 12.398437 110.4375 37.199219 165.65625 49.597656zm0 0" fill="#fff3e4"/><path d="m119.039062 231.878906v-23.144531c0-4.144531-3.359374-7.5-7.5-7.5-4.144531 0-7.5 3.355469-7.5 7.5v23.144531c0 4.140625 3.355469 7.5 7.5 7.5 4.140626 0 7.5-3.359375 7.5-7.5zm0 0"/><path d="m392.960938 208.734375v23.144531c0 4.140625 3.359374 7.5 7.5 7.5 4.144531 0 7.5-3.359375 7.5-7.5v-23.144531c0-4.144531-3.355469-7.5-7.5-7.5-4.140626 0-7.5 3.355469-7.5 7.5zm0 0"/><path d="m256 250.332031c10.773438 0 20.886719-4.496093 27.742188-12.339843 2.726562-3.117188 2.40625-7.855469-.710938-10.582032-3.121094-2.726562-7.859375-2.40625-10.585938.710938-4.003906 4.582031-10 7.210937-16.445312 7.210937s-12.441406-2.628906-16.445312-7.210937c-2.730469-3.121094-7.464844-3.4375-10.585938-.710938-3.117188 2.726563-3.4375 7.464844-.710938 10.582032 6.855469 7.84375 16.96875 12.339843 27.742188 12.339843zm0 0"/><path d="m11.230469 403.710938c6.902343 4.417968 15.582031 4.855468 22.925781 1.238281 39.996094-19.710938 82.363281-22.988281 137.375-10.628907 56.34375 12.652344 109.308594 36.941407 165.660156 49.601563 54.257813 12.191406 109.910156 10.273437 158.9375-18.042969 9.789063-5.648437 15.871094-16.253906 15.871094-27.675781v-49.273437c0-4.144532-3.355469-7.5-7.5-7.5-4.140625 0-7.5 3.355468-7.5 7.5v49.273437c0 6.078125-3.207031 11.707031-8.371094 14.683594-41.417968 23.925781-85.507812 29.445312-142.296875 17.664062v-356.738281c53.621094 10.605469 97.722657 6.179688 138.140625-13.742188 5.703125-2.8125 12.527344 1.4375 12.527344 7.773438v251.085938c0 4.140624 3.359375 7.5 7.5 7.5s7.5-3.359376 7.5-7.5c0 0 0-250.609376 0-251.085938 0-17.222656-18.703125-28.839844-34.15625-21.226562-39.996094 19.710937-82.363281 22.988281-137.375 10.628906-81.195312-18.234375-159.265625-63.378906-244.671875-56.546875-28.636719 2.289062-54.78125 10.464843-79.925781 24.984375-9.789063 5.652344-15.871094 16.257812-15.871094 27.679687v53.566407c0 4.140624 3.359375 7.5 7.5 7.5s7.5-3.359376 7.5-7.5v-53.566407c0-6.082031 3.207031-11.707031 8.371094-14.6875 41.417968-23.921875 85.511718-29.441406 142.300781-17.664062v356.738281c-53.621094-10.601562-97.722656-6.175781-138.144531 13.742188-5.691406 2.808593-12.527344-1.453126-12.527344-7.769532v-246.792968c0-4.144532-3.359375-7.5-7.5-7.5s-7.5 3.355468-7.5 7.5v246.792968c0 8.234375 4.558594 15.722656 11.230469 19.988282zm320.097656-333.191407v356.597657c-24.300781-6.039063-48.976563-14.355469-72.933594-22.421876-25.425781-8.566406-51.65625-17.398437-77.722656-23.652343v-356.597657c24.300781 6.042969 48.976563 14.355469 72.933594 22.425782 25.425781 8.5625 51.65625 17.398437 77.722656 23.648437zm0 0"/></svg>