<svg height="512pt" viewBox="0 -34 512 512" width="512pt" xmlns="http://www.w3.org/2000/svg"><path d="m377.777344 71.761719c-7.589844-34.695313-43.367188-55.351563-77.203125-44.574219-23.917969-26.25-65.230469-26.25-89.148438 0-33.835937-10.777344-69.613281 9.878906-77.203125 44.574219-34.691406 7.585937-55.347656 43.363281-44.570312 77.203125h332.695312c10.777344-33.839844-9.878906-69.617188-44.570312-77.203125zm0 0" fill="#ffe76c"/><path d="m256 7.5c-16.308594 0-32.613281 6.5625-44.574219 19.6875-33.835937-10.777344-69.613281 9.878906-77.203125 44.574219-33.199218 7.257812-53.523437 40.335937-45.769531 72.824219h60.757813c41.035156-99.816407 106.789062-137.085938 106.789062-137.085938zm0 0" fill="#ffb44d"/><path d="m490.003906 227.832031h-53.613281v43.847657h53.613281c8.007813 0 14.496094-6.488282 14.496094-14.496094v-14.855469c0-8.007813-6.488281-14.496094-14.496094-14.496094zm0 0" fill="#546370"/><path d="m21.996094 227.832031h53.613281v43.847657h-53.613281c-8.007813 0-14.496094-6.488282-14.496094-14.496094v-14.855469c0-8.007813 6.488281-14.496094 14.496094-14.496094zm0 0" fill="#546370"/><path d="m422.472656 174.402344-166.472656-24.773438-166.472656 24.773438s-43.195313 33.058594-43.195313 105.78125c0 72.71875 43.195313 105.777344 43.195313 105.777344l166.472656 24.773437 166.472656-24.773437s43.195313-33.058594 43.195313-105.78125c0-72.71875-43.195313-105.777344-43.195313-105.777344zm0 0" fill="#4a5660"/><path d="m446.675781 204.402344c-11.59375-20.339844-24.203125-30-24.203125-30l-166.472656-24.773438-166.472656 24.773438s-12.609375 9.660156-24.203125 30zm0 0" fill="#3d4851"/><path d="m422.472656 124.851562h-332.945312c-13.683594 0-24.777344 11.089844-24.777344 24.777344 0 13.683594 11.09375 24.773438 24.777344 24.773438h332.945312c13.683594 0 24.777344-11.089844 24.777344-24.773438 0-13.6875-11.09375-24.777344-24.777344-24.777344zm0 0" fill="#546370"/><path d="m422.472656 385.960938h-332.945312c-13.683594 0-24.777344 11.089843-24.777344 24.773437 0 13.6875 11.09375 24.777344 24.777344 24.777344h332.945312c13.683594 0 24.777344-11.089844 24.777344-24.777344 0-13.683594-11.09375-24.773437-24.777344-24.773437zm0 0" fill="#546370"/><path d="m156.710938 283.371094c4.144531 0 7.5-3.359375 7.5-7.5v-17.96875c0-4.144532-3.355469-7.5-7.5-7.5-4.140626 0-7.5 3.355468-7.5 7.5v17.96875c0 4.140625 3.359374 7.5 7.5 7.5zm0 0"/><path d="m355.289062 283.371094c4.140626 0 7.5-3.359375 7.5-7.5v-17.96875c0-4.144532-3.359374-7.5-7.5-7.5-4.144531 0-7.5 3.355468-7.5 7.5v17.96875c0 4.140625 3.355469 7.5 7.5 7.5zm0 0"/><path d="m256 292.960938c11.714844 0 22.703125-4.886719 30.152344-13.40625 2.726562-3.117188 2.40625-7.855469-.710938-10.582032-3.121094-2.726562-7.855468-2.40625-10.582031.710938-4.597656 5.261718-11.472656 8.277344-18.859375 8.277344s-14.261719-3.015626-18.859375-8.277344c-2.726563-3.117188-7.464844-3.4375-10.582031-.710938-3.121094 2.726563-3.4375 7.464844-.710938 10.582032 7.445313 8.519531 18.4375 13.40625 30.152344 13.40625zm0 0"/><path d="m21.996094 279.183594h16.847656c-.003906.332031-.007812.664062-.007812 1 0 53.425781 22.285156 86.566406 35.945312 101.855468-10.398438 5.367188-17.53125 16.210938-17.53125 28.695313 0 17.796875 14.480469 32.277344 32.277344 32.277344h332.945312c17.796875 0 32.277344-14.476563 32.277344-32.277344 0-12.484375-7.132812-23.332031-17.53125-28.695313 13.660156-15.292968 35.945312-48.429687 35.945312-101.855468 0-.335938-.003906-.667969-.007812-1h16.847656c12.128906 0 21.996094-9.871094 21.996094-22v-14.855469c0-12.128906-9.867188-21.996094-21.996094-21.996094h-27.445312c-7.601563-19.773437-17.773438-33.632812-25.296875-42.027343 10.375-5.375 17.488281-16.207032 17.488281-28.675782 0-14.621094-9.773438-26.996094-23.128906-30.949218-4.527344-25.351563-22.917969-45.867188-47.683594-53.085938-4.882812-16.652344-16.050781-30.9375-31.167969-39.664062-15.121093-8.730469-33.078125-11.257813-49.941406-7.160157-12.554687-11.980469-29.367187-18.769531-46.828125-18.769531-17.457031 0-34.273438 6.789062-46.828125 18.769531-16.863281-4.097656-34.820313-1.570312-49.941406 7.160157-15.117188 8.726562-26.285157 23.011718-31.167969 39.664062-24.765625 7.21875-43.15625 27.734375-47.683594 53.085938-13.355468 3.953124-23.128906 16.328124-23.128906 30.949218 0 12.46875 7.113281 23.300782 17.488281 28.675782-7.523437 8.394531-17.695312 22.253906-25.296875 42.027343h-27.445312c-12.128906 0-21.996094 9.867188-21.996094 21.996094v14.855469c0 12.128906 9.867188 22 21.996094 22zm468.007812-43.851563c3.855469 0 6.996094 3.140625 6.996094 6.996094v14.855469c0 3.859375-3.140625 7-6.996094 7h-17.527344c-.914062-10.53125-2.691406-20.136719-5.039062-28.851563zm-400.476562-102.980469h235.792968c3.761719 0 7.082032-2.992187 7.460938-6.734374.445312-4.359376-3.074219-8.265626-7.460938-8.265626h-229.316406c4.933594-19.054687 20.109375-33.953124 39.820313-38.265624 2.863281-.625 5.101562-2.859376 5.726562-5.722657 3.167969-14.480469 12.34375-27.035156 25.179688-34.445312 12.835937-7.410157 28.296875-9.082031 42.417969-4.582031 2.792968.886718 5.847656.070312 7.820312-2.097657 9.984375-10.953125 24.210938-17.238281 39.03125-17.238281s29.046875 6.285156 39.027344 17.238281c1.976562 2.167969 5.027344 2.984375 7.820312 2.097657 14.121094-4.5 29.582032-2.828126 42.417969 4.582031 12.835937 7.410156 22.015625 19.964843 25.183594 34.445312.625 2.863281 2.859375 5.097657 5.722656 5.726563 19.714844 4.308594 34.886719 19.210937 39.820313 38.261718 0 0-60.636719 0-60.671876 0-4.351562 0-7.898437 3.945313-7.460937 8.265626.375 3.730468 3.722656 6.734374 7.460937 6.734374h67.152344c9.523438 0 17.277344 7.75 17.277344 17.277344s-7.75 17.277344-17.277344 17.277344h-332.945312c-9.527344 0-17.277344-7.75-17.277344-17.277344s7.75-17.277344 17.277344-17.277344zm2.761718 49.550782h327.433594c5.351563 4.824218 21.332032 21.027344 30.921875 49.878906 5.164063 15.539062 7.519531 32.042969 7.519531 48.402344 0 35.425781-10.914062 60.644531-20.070312 75.5625-7.460938 12.15625-15.015625 19.671875-18.382812 22.714844h-248.390626c-4.027343 0-7.5 3.464843-7.5 7.5 0 4.140624 3.359376 7.5 7.5 7.5h251.152344c9.527344 0 17.277344 7.75 17.277344 17.277343 0 9.527344-7.75 17.277344-17.277344 17.277344h-332.945312c-9.527344 0-17.277344-7.75-17.277344-17.277344 0-9.527343 7.75-17.277343 17.277344-17.277343h51.792968c4.144532 0 7.5-3.359376 7.5-7.5 0-4.035157-3.457031-7.5-7.5-7.5h-49.03125c-3.367187-3.042969-10.921874-10.558594-18.382812-22.714844-9.15625-14.917969-20.070312-40.136719-20.070312-75.5625 0-26.355469 6.214843-53 20.082031-75.582032 7.464843-12.15625 15.015625-19.667968 18.371093-22.699218zm-77.289062 60.425781c0-3.855469 3.140625-6.996094 6.996094-6.996094h22.566406c-2.347656 8.710938-4.125 18.320313-5.039062 28.851563h-17.527344c-3.855469 0-6.996094-3.140625-6.996094-7zm0 0"/></svg>