<svg height="512pt" viewBox="-37 0 512 512" width="512pt" xmlns="http://www.w3.org/2000/svg"><path d="m373.136719 76.734375c1.125-36.976563-37.546875-61.832031-70.71875-45.449219-19.046875-31.714844-65.015625-31.714844-84.0625 0-33.171875-16.382812-71.84375 8.472656-70.71875 45.449219-36.761719 4.152344-55.859375 45.964844-34.921875 76.46875l147.671875 13.765625 147.671875-13.765625c20.9375-30.503906 1.839844-72.316406-34.921875-76.46875zm0 0" fill="#fff3e4"/><path d="m430.015625 482.925781c-7.144531-20.566406-21.957031-33.988281-21.957031-33.988281l-147.671875-22.675781-147.671875 22.675781s-14.8125 13.421875-21.957032 33.988281c-3.667968 10.554688 4.203126 21.574219 15.378907 21.574219h308.503906c11.171875 0 19.042969-11.019531 15.375-21.574219zm0 0" fill="#fff3e4"/><path d="m163.628906 415.089844h-63.09375c-51.3125 0-93.058594-41.746094-93.058594-93.058594v-41.921875c0-51.3125 41.746094-93.058594 93.058594-93.058594h63.09375v47.898438h-63.09375c-24.902344 0-45.160156 20.261719-45.160156 45.160156v41.921875c0 24.898438 20.257812 45.15625 45.160156 45.15625h63.09375zm0 0" fill="#ffb44d"/><path d="m82.714844 188.769531v49.851563c5.46875-2.355469 11.492187-3.671875 17.820312-3.671875h63.09375v-47.898438h-63.09375c-6.09375 0-12.050781.597657-17.820312 1.71875zm0 0" fill="#e7a25d"/><path d="m163.628906 415.089844v-47.902344h-63.09375c-6.328125 0-12.351562-1.3125-17.820312-3.671875v49.855469c5.769531 1.121094 11.726562 1.71875 17.820312 1.71875zm0 0" fill="#e7a25d"/><path d="m112.714844 153.203125h295.34375v295.734375h-295.34375zm0 0" fill="#ffb44d"/><g fill="#fff3e4"><path d="m260.386719 193.757812c-12.949219 0-23.445313 10.496094-23.445313 23.445313v167.734375c0 12.949219 10.496094 23.445312 23.445313 23.445312s23.445312-10.496093 23.445312-23.445312v-167.734375c0-12.949219-10.496093-23.445313-23.445312-23.445313zm0 0"/><path d="m172.503906 193.757812c-12.949218 0-23.445312 10.496094-23.445312 23.445313v167.734375c0 12.949219 10.496094 23.445312 23.445312 23.445312 12.949219 0 23.445313-10.496093 23.445313-23.445312v-167.734375c0-12.949219-10.496094-23.445313-23.445313-23.445313zm0 0"/><path d="m348.269531 193.757812c12.949219 0 23.445313 10.496094 23.445313 23.445313v167.734375c0 12.949219-10.496094 23.445312-23.445313 23.445312s-23.449219-10.496093-23.449219-23.445312v-167.734375c0-12.949219 10.5-23.445313 23.449219-23.445313zm0 0"/></g><path d="m195.015625 109.242188c4.140625 0 7.5-3.359376 7.5-7.5v-11.835938c0-4.144531-3.359375-7.5-7.5-7.5s-7.5 3.355469-7.5 7.5v11.832031c0 4.144531 3.359375 7.503907 7.5 7.503907zm0 0"/><path d="m325.804688 109.242188c4.140624 0 7.5-3.359376 7.5-7.5v-11.835938c0-4.144531-3.359376-7.5-7.5-7.5-4.144532 0-7.5 3.355469-7.5 7.5v11.832031c0 4.144531 3.355468 7.503907 7.5 7.503907zm0 0"/><path d="m260.410156 115.558594c8.453125 0 16.394532-3.539063 21.785156-9.707032 2.726563-3.117187 2.410157-7.855468-.710937-10.582031-3.117187-2.726562-7.855469-2.40625-10.582031.710938-2.542969 2.910156-6.367188 4.578125-10.492188 4.578125s-7.949218-1.667969-10.492187-4.578125c-2.726563-3.121094-7.464844-3.4375-10.582031-.710938-3.121094 2.726563-3.4375 7.464844-.714844 10.582031 5.394531 6.167969 13.332031 9.707032 21.789062 9.707032zm0 0"/><path d="m229.464844 217.203125v167.730469c0 17.066406 13.882812 30.949218 30.945312 30.949218s30.945313-13.882812 30.945313-30.949218v-167.730469c0-17.0625-13.882813-30.945313-30.945313-30.945313s-30.945312 13.882813-30.945312 30.945313zm46.890625 0v167.730469c0 8.792968-7.152344 15.949218-15.945313 15.949218-8.792968 0-15.945312-7.15625-15.945312-15.949218v-167.730469c0-8.792969 7.152344-15.945313 15.945312-15.945313 8.792969 0 15.945313 7.152344 15.945313 15.945313zm0 0"/><path d="m141.582031 217.203125v167.730469c0 17.066406 13.882813 30.949218 30.945313 30.949218 17.066406 0 30.949218-13.882812 30.949218-30.949218v-167.730469c0-17.0625-13.882812-30.945313-30.949218-30.945313-17.0625 0-30.945313 13.882813-30.945313 30.945313zm46.890625 0v167.730469c0 8.792968-7.152344 15.949218-15.945312 15.949218-8.792969 0-15.945313-7.15625-15.945313-15.949218v-167.730469c0-8.792969 7.152344-15.945313 15.945313-15.945313 8.792968 0 15.945312 7.152344 15.945312 15.945313zm0 0"/><path d="m317.34375 217.203125v167.730469c0 17.066406 13.882812 30.949218 30.945312 30.949218 17.066407 0 30.949219-13.882812 30.949219-30.949218v-167.730469c0-17.0625-13.882812-30.945313-30.949219-30.945313-17.0625 0-30.945312 13.882813-30.945312 30.945313zm46.894531 0v167.730469c0 8.792968-7.152343 15.949218-15.949219 15.949218-8.789062 0-15.945312-7.15625-15.945312-15.949218v-167.730469c0-8.792969 7.152344-15.945313 15.945312-15.945313 8.796876 0 15.949219 7.152344 15.949219 15.945313zm0 0"/><path d="m120.234375 160.703125h280.347656v198.164063c0 4.144531 3.359375 7.5 7.5 7.5 4.144531 0 7.5-3.355469 7.5-7.5v-203.4375c10.144531-16.164063 11.484375-35.96875 3.5-53.457032-7.402343-16.207031-21.550781-27.667968-38.59375-31.585937-1.074219-12.957031-6.5-24.984375-15.625-34.394531-10.691406-11.023438-25.535156-17.34375-40.71875-17.34375-6.492187 0-12.851562 1.117187-18.976562 3.332031-10.644531-13.875-26.941407-21.980469-44.757813-21.980469-17.8125 0-34.113281 8.105469-44.757812 21.980469-6.125-2.214844-12.484375-3.332031-18.976563-3.332031-15.1875 0-30.027343 6.320312-40.71875 17.34375-9.128906 9.40625-14.550781 21.433593-15.625 34.394531-17.042969 3.917969-31.191406 15.378906-38.59375 31.585937-7.984375 17.488282-6.644531 37.289063 3.5 53.457032v24.121093h-4.679687c-19.070313 0-37.644532 5.390625-53.71875 15.585938-3.5 2.21875-4.535156 6.851562-2.316406 10.351562 2.21875 3.496094 6.851562 4.535157 10.351562 2.316407 13.667969-8.671876 29.464844-13.253907 45.683594-13.253907h4.679687v32.898438h-4.679687c-29.035156 0-52.65625 23.625-52.65625 52.660156v41.917969c0 29.035156 23.621094 52.660156 52.65625 52.660156h4.679687v32.898438h-4.679687c-47.175782 0-85.558594-38.382813-85.558594-85.558594v-41.917969c0-19.578125 6.816406-38.726563 19.195312-53.929687 2.613282-3.210938 2.132813-7.9375-1.082031-10.550782-3.210937-2.617187-7.933593-2.132812-10.550781 1.078125-14.550781 17.867188-22.5625 40.386719-22.5625 63.402344v41.917969c0 55.449218 45.109375 100.558594 100.558594 100.558594h4.679687v23.21875c-4.839843 5.027343-15.585937 17.507812-21.542969 34.660156-5.222656 15.039062 6.324219 31.535156 22.460938 31.535156h308.503906c16.035156 0 27.730469-16.375 22.464844-31.535156-5.957031-17.148438-16.699219-29.628906-21.542969-34.65625v-56.941406c0-4.140626-3.355469-7.5-7.5-7.5-4.140625 0-7.5 3.359374-7.5 7.5v52.570312h-280.347656zm284.761719 295.734375c3.964844 4.148438 13 14.679688 17.957031 28.949219 1.953125 5.617187-2.386719 11.613281-8.289063 11.613281 0 0-307.808593 0-308.503906 0-5.929687 0-10.246094-5.996094-8.292968-11.613281 4.917968-14.164063 14.003906-24.773438 17.96875-28.949219zm-289.613282-348.234375c6.113282-13.386719 18.496094-22.363281 33.117188-24.015625 3.878906-.441406 6.773438-3.78125 6.65625-7.679688-.34375-11.347656 3.761719-22.027343 11.566406-30.070312 7.882813-8.128906 18.800782-12.789062 29.953125-12.789062 6.335938 0 12.519531 1.464843 18.378907 4.363281 3.5 1.726562 7.742187.480469 9.75-2.863281 7.578124-12.617188 20.890624-20.148438 35.605468-20.148438s28.027344 7.53125 35.601563 20.148438c2.011719 3.34375 6.25 4.589843 9.753906 2.863281 5.859375-2.898438 12.042969-4.363281 18.378906-4.363281 11.152344 0 22.066407 4.660156 29.953125 12.789062 7.804688 8.042969 11.914063 18.722656 11.566406 30.070312-.117187 3.898438 2.777344 7.238282 6.65625 7.679688 14.621094 1.648438 27.003907 10.628906 33.117188 24.015625 5.578125 12.210937 4.964844 25.964844-1.511719 37.496094h-287.03125c-6.476562-11.527344-7.089843-25.28125-1.511719-37.496094zm-14.824218 251.484375c-20.765625 0-37.660156-16.894531-37.660156-37.660156v-41.917969c0-20.765625 16.894531-37.660156 37.660156-37.660156h4.679687v117.238281zm0 0"/></svg>