<svg height="511pt" viewBox="-52 0 511 511.99843" width="511pt" xmlns="http://www.w3.org/2000/svg"><path d="m208.953125 264.625-31.480469 13.289062c.117188.273438 11.507813 67.894532 11.269532 101.914063-.277344 40.128906-16.183594 71.90625-47.308594 94.589844-4.269532 3.109375-5.460938 8.953125-2.636719 13.417969l7.636719 12.082031c3.078125 4.867187 9.609375 6.082031 14.285156 2.71875 40.742188-29.328125 62.195312-71.933594 62.195312-123.859375 0-40.75-13.390624-112.808594-13.960937-114.152344zm0 0" fill="#1fd7c3"/><path d="m177.472656 277.914062c.113282.273438 11.503906 67.894532 11.269532 101.914063-.066407 9.46875-1.011719 18.464844-2.8125 26.992187 2.636718-2.207031 5.21875-4.566406 7.738281-7.082031 3.738281-3.742187 7.144531-7.519531 10.242187-11.390625 3.101563 3.871094 6.507813 7.648438 10.25 11.390625 2.175782 2.175781 4.402344 4.230469 6.667969 6.175781 1.378906-8.730468 2.085937-17.78125 2.085937-27.136718 0-40.75-13.390624-112.808594-13.960937-114.152344zm0 0" fill="#00bbc9"/><path d="m379.058594 234.835938c-11.578125-11.578126-23.707032-19.296876-40.890625-24.25-10.238281-2.953126-24.792969-5.316407-40.699219-7.195313 15.871094-1.878906 30.421875-4.246094 40.714844-7.210937 17.1875-4.953126 29.296875-12.691407 40.875-24.269532 28.617187-28.613281 25.398437-63.167968 3.964844-84.601562-21.078126-21.074219-43.074219-15.113282-51.425782-11.621094 3.5-8.34375 9.429688-30.378906-11.644531-51.457031-21.433594-21.433594-55.964844-24.617188-84.578125 4-11.578125 11.582031-19.292969 23.703125-24.25 40.894531-2.953125 10.234375-5.3125 24.789062-7.195312 40.695312-1.878907-15.875-4.246094-30.425781-7.210938-40.71875-4.957031-17.183593-12.691406-29.289062-24.269531-40.871093-28.613281-28.617188-63.171875-25.398438-84.605469-3.964844-21.074219 21.074219-15.109375 43.070313-11.617188 51.421875-8.347656-3.492188-30.382812-9.429688-51.457031 11.644531-21.429687 21.433594-24.617187 55.964844 4 84.578125 11.582031 11.578125 23.703125 19.300782 40.890625 24.257813 10.234375 2.949219 24.785156 5.308593 40.6875 7.1875-15.871094 1.878906-30.417968 4.246093-40.707031 7.210937-17.183594 4.960938-29.289063 12.691406-40.871094 24.269532-28.617187 28.613281-25.398437 63.167968-3.964843 84.609374 21.074218 21.074219 43.070312 15.105469 51.421874 11.613282-3.492187 8.351562-9.425781 30.378906 11.648438 51.453125 21.433594 21.433593 55.960938 24.621093 84.574219-3.992188 11.578125-11.578125 19.300781-23.707031 24.257812-40.890625 2.949219-10.234375 5.308594-24.785156 7.1875-40.691406 1.878907 15.871094 4.246094 30.414062 7.210938 40.707031 4.960937 17.1875 12.691406 29.296875 24.269531 40.875 28.613281 28.613281 63.171875 25.402344 84.609375 3.96875 21.074219-21.082031 15.105469-43.078125 11.613281-51.429687 8.351563 3.5 30.378906 9.429687 51.457032-11.648438 21.433593-21.429687 24.621093-55.960937-3.996094-84.574218zm0 0" fill="#1fd7c3"/><path d="m127.992188 170.777344c4.144531 0 7.503906-3.359375 7.503906-7.5v-13.742188c0-4.140625-3.359375-7.5-7.503906-7.5-4.140626 0-7.5 3.359375-7.5 7.5v13.742188c0 4.140625 3.359374 7.5 7.5 7.5zm0 0"/><path d="m279.832031 170.777344c4.144531 0 7.5-3.359375 7.5-7.5v-13.742188c0-4.140625-3.355469-7.5-7.5-7.5-4.140625 0-7.5 3.359375-7.5 7.5v13.742188c0 4.140625 3.359375 7.5 7.5 7.5zm0 0"/><path d="m203.914062 178.109375c9.46875 0 18.355469-3.957031 24.386719-10.851563 2.726563-3.121093 2.40625-7.859374-.710937-10.585937-3.121094-2.726563-7.859375-2.40625-10.585938.710937-3.179687 3.636719-7.953125 5.726563-13.089844 5.726563-5.136718 0-9.910156-2.089844-13.089843-5.726563-2.726563-3.121093-7.464844-3.4375-10.585938-.710937-3.117187 2.726563-3.4375 7.464844-.710937 10.585937 6.03125 6.894532 14.917968 10.851563 24.386718 10.851563zm0 0"/><path d="m67.546875 203.402344c-17.417969 5.035156-31.015625 13.105468-44.078125 26.167968-14.902344 14.898438-22.839844 32.277344-22.953125 50.253907-.101563 16.648437 6.640625 32.617187 18.984375 44.964843 11.347656 11.347657 24.878906 17.34375 39.128906 17.34375 2.511719 0 4.890625-.179687 7.117188-.484374-1.597656 12.113281.210937 29.597656 16.824218 46.207031 12.234376 12.234375 28.050782 18.972656 44.539063 18.972656 18.109375 0 35.621094-7.941406 50.644531-22.964844 1.207032-1.207031 2.355469-2.417969 3.480469-3.636719-.367187 37.382813-15.238281 67.046876-44.21875 88.164063-7.453125 5.433594-9.457031 15.75-4.5625 23.492187l7.640625 12.082032c5.273438 8.34375 16.9375 10.609375 25.003906 4.796875 14.945313-10.753907 27.585938-23.40625 37.566406-37.597657 2.382813-3.390624 1.566407-8.070312-1.824218-10.453124-3.386719-2.382813-8.066406-1.566407-10.449219 1.820312-9.015625 12.820312-20.472656 24.28125-34.058594 34.058594-1.148437.824218-2.792969.566406-3.558593-.640625l-7.640626-12.082031c-.699218-1.105469-.390624-2.546876.714844-3.351563 33.144532-24.152344 50.097656-58 50.390625-100.597656.039063-5.386719-.207031-11.90625-.726562-19.394531.933593-1.714844 1.808593-3.464844 2.644531-5.257813 2.324219-4.996094 4.214844-10.191406 5.742188-15.488281.785156 2.722656 1.679687 5.410156 2.664062 8.066406 1.636719 4.417969 3.582031 8.71875 5.835938 12.855469.007812.015625.015624.03125.027343.050781.820313 1.5 1.667969 2.976562 2.5625 4.421875.28125 5.011719.421875 9.59375.421875 13.644531 0 21.441406-3.84375 41.371094-11.421875 59.242188-1.617187 3.8125.164063 8.214844 3.976563 9.832031 3.816406 1.621094 8.21875-.164063 9.835937-3.976563 7.734375-18.238281 11.9375-38.332031 12.53125-59.796874 14.953125 14.84375 32.363281 22.695312 50.371094 22.695312 16.503906 0 32.335937-6.742188 44.582031-18.984375 16.589844-16.597656 18.390625-34.074219 16.789063-46.1875 2.214843.300781 4.585937.480469 7.085937.480469 14.277344 0 27.832032-6.003906 39.191406-17.367188 12.34375-12.34375 19.082032-28.308594 18.96875-44.949218-.121093-17.960938-8.058593-35.335938-22.960937-50.234376-13.046875-13.046874-26.648437-21.113281-44.097656-26.144531 17.417969-5.023437 31.019531-13.09375 44.097656-26.171875 14.898437-14.898437 22.835937-32.277344 22.949219-50.253906.105468-16.644531-6.636719-32.613281-18.984375-44.957031-11.351563-11.351563-24.886719-17.347657-39.140625-17.347657-2.507813 0-4.882813.179688-7.101563.480469 1.601563-12.109375-.210937-29.589843-16.832031-46.210937-12.226562-12.230469-28.042969-18.964844-44.53125-18.964844-18.109375 0-35.625 7.941406-50.648438 22.96875-13.050781 13.050781-21.113281 26.652344-26.144531 44.09375-5.023437-17.417969-13.097656-31.019531-26.171875-44.09375-15.011718-15.015625-32.519531-22.953125-50.632812-22.953125-16.503906 0-32.335938 6.742187-44.578125 18.988281-16.59375 16.589844-18.398438 34.070313-16.796875 46.183594-2.214844-.300781-4.585938-.480469-7.089844-.480469-14.277344 0-27.828125 6.003907-39.1875 17.363281-12.34375 12.34375-19.082031 28.308594-18.96875 44.949219.121094 17.964844 8.066406 35.335938 22.96875 50.234375 13.050781 13.054688 26.648438 21.121094 44.078125 26.148438zm-37.46875-110.722656c8.601563-8.609376 18.21875-12.972657 28.578125-12.972657 6.65625 0 12.050781 1.84375 14.671875 2.941407 6.054687 2.53125 12.351563-3.757813 9.820313-9.8125-2.945313-7.042969-7.867188-25.355469 10.003906-43.226563 9.410156-9.410156 21.472656-14.589844 33.96875-14.589844 14.046875 0 27.886718 6.417969 40.023437 18.558594 11.339844 11.335937 18.027344 22.59375 22.367188 37.640625 2.582031 8.957031 4.925781 22.253906 6.972656 39.519531 1.015625 8.589844 13.882813 8.578125 14.898437 0 2.042969-17.304687 4.382813-30.59375 6.953126-39.5 4.347656-15.082031 11.03125-26.347656 22.34375-37.664062 12.148437-12.148438 25.996093-18.570313 40.039062-18.570313 12.480469 0 24.53125 5.175782 33.929688 14.570313 17.910156 17.914062 12.980468 36.214843 10.03125 43.253906-2.539063 6.050781 3.75 12.355469 9.8125 9.820313 2.636718-1.101563 8.046874-2.949219 14.695312-2.949219 10.335938 0 19.9375 4.359375 28.535156 12.953125 9.484375 9.488281 14.667969 21.652344 14.585938 34.257812-.085938 13.945313-6.503906 27.6875-18.554688 39.734375-11.339844 11.339844-22.597656 18.03125-37.648437 22.367188-8.957031 2.582031-22.253907 4.925781-39.519531 6.972656-8.558594 1.011719-8.601563 13.878906 0 14.898437 17.308593 2.042969 30.597656 4.382813 39.503906 6.953126 15.085937 4.347656 26.351562 11.03125 37.664062 22.34375 20.449219 20.449218 25.898438 52.0625 3.996094 73.96875-8.609375 8.605468-18.226562 12.972656-28.585938 12.972656-6.65625 0-12.046874-1.839844-14.667968-2.941406-6.085938-2.550782-12.355469 3.746093-9.820313 9.8125 11.925781 28.519531-15.625 57.820312-43.972656 57.820312-14.046875 0-27.886719-6.417969-40.027344-18.554688-10.484375-10.488281-18.230469-23.351562-22.351562-37.613281-.003907-.011719-.007813-.023437-.011719-.039062-2.582031-8.953125-4.925781-22.246094-6.96875-39.507813-.996094-8.398437-13.882812-8.59375-14.902344 0-1.558594 13.21875-3.25 26.671875-6.945312 39.496094-4.121094 14.289062-11.84375 27.152344-22.351563 37.664062-20.554687 20.554688-52.125 25.835938-73.96875 3.992188-17.894531-17.898438-12.976562-36.214844-10.03125-43.257812 2.464844-5.890626-3.621093-12.402344-9.816406-9.816407-2.632813 1.105469-8.050781 2.957031-14.703125 2.957031-10.328125 0-19.925781-4.359374-28.515625-12.949218-17.429687-17.4375-22.964844-47.082032 3.964844-74.003906 11.328125-11.328126 22.585937-18.019532 37.640625-22.367188 8.957031-2.578125 22.25-4.925781 39.507812-6.96875 8.566406-1.011719 8.589844-13.882812 0-14.898438-17.300781-2.042968-30.585937-4.382812-39.484375-6.949218-15.078125-4.34375-26.34375-11.027344-37.664062-22.351563-12.054688-12.050781-18.476563-25.789062-18.574219-39.726562-.082031-12.597657 5.09375-24.757813 14.578125-34.238281zm0 0"/></svg>