<svg height="512pt" viewBox="0 -9 512 512" width="512pt" xmlns="http://www.w3.org/2000/svg"><path d="m457.558594 75.421875-31.207032 237.578125-170.351562 30.5-170.351562-30.5-31.207032-237.578125c-1.230468-8.882813 3.089844-17.613281 10.886719-22.042969 44.011719-24.9375 106.132813-45.878906 190.671875-45.878906s146.660156 20.941406 190.671875 45.878906c7.796875 4.429688 12.117187 13.160156 10.886719 22.042969zm0 0" fill="#1fd7c3"/><path d="m125.648438 313-35.335938-272.332031c-8.902344 4.054687-17.230469 8.316406-24.984375 12.710937-7.796875 4.429688-12.117187 13.160156-10.886719 22.042969l31.207032 237.578125 170.351562 30.5 20-3.582031zm0 0" fill="#00bbc9"/><path d="m426.351562 313-17.351562 132.128906h-306l-17.351562-132.128906zm0 0" fill="#546370"/><path d="m85.648438 313 17.351562 132.128906h40l-17.351562-132.128906zm0 0" fill="#4a5660"/><path d="m312.800781 272.589844h-113.601562c-11.429688 0-20.695313 9.265625-20.695313 20.695312v111.125h154.992188v-111.125c0-11.429687-9.265625-20.695312-20.695313-20.695312zm0 0" fill="#ffe76c"/><path d="m213.503906 307.589844h84.992188v137.542968h-84.992188zm0 0" fill="#546370"/><path d="m486.398438 404.410156h-460.796876c-10 0-18.101562 8.105469-18.101562 18.101563v45.242187c0 10 8.105469 18.101563 18.101562 18.101563h460.796876c10 0 18.101562-8.105469 18.101562-18.101563v-45.242187c0-9.996094-8.105469-18.101563-18.101562-18.101563zm0 0" fill="#1fd7c3"/><path d="m47.5 467.757812v-45.246093c0-9.996094 8.105469-18.101563 18.101562-18.101563h-40c-10 0-18.101562 8.105469-18.101562 18.101563v45.246093c0 9.996094 8.105469 18.097657 18.101562 18.097657h40c-9.996093 0-18.101562-8.101563-18.101562-18.097657zm0 0" fill="#00bbc9"/><path d="m235.621094 337.609375h-18.644532c-10.15625 0-18.386718 8.234375-18.386718 18.390625s8.230468 18.390625 18.386718 18.390625h18.644532c4.8125 0 8.710937-3.902344 8.710937-8.714844v-19.355469c0-4.808593-3.898437-8.710937-8.710937-8.710937zm0 0" fill="#ffb44d"/><path d="m161.371094 158.109375v15.769531c0 4.140625 3.359375 7.5 7.5 7.5 4.144531 0 7.5-3.359375 7.5-7.5v-15.769531c0-4.144531-3.355469-7.5-7.5-7.5-4.140625 0-7.5 3.355469-7.5 7.5zm0 0"/><path d="m335.628906 158.109375v15.769531c0 4.140625 3.355469 7.5 7.5 7.5 4.140625 0 7.5-3.359375 7.5-7.5v-15.769531c0-4.144531-3.359375-7.5-7.5-7.5-4.144531 0-7.5 3.355469-7.5 7.5zm0 0"/><path d="m271.855469 167.84375c-3.859375 4.417969-9.640625 6.949219-15.855469 6.949219s-11.996094-2.53125-15.859375-6.949219c-2.722656-3.117188-7.460937-3.4375-10.582031-.710938-3.117188 2.726563-3.4375 7.464844-.710938 10.582032 6.710938 7.675781 16.605469 12.082031 27.152344 12.082031 10.542969 0 20.441406-4.402344 27.148438-12.078125 2.726562-3.121094 2.410156-7.859375-.710938-10.585938-3.117188-2.726562-7.855469-2.40625-10.582031.710938zm0 0"/><path d="m25.601562 493.355469h460.796876c14.117187 0 25.601562-11.484375 25.601562-25.597657v-45.246093c0-14.117188-11.484375-25.601563-25.601562-25.601563h-63.503907l32.273438-245.699218c.539062-4.105469-2.351563-7.871094-6.457031-8.414063-4.109376-.539063-7.875 2.355469-8.414063 6.460937l-20.527344 156.242188h-78.773437v-12.214844c0-15.359375-12.847656-28.195312-28.195313-28.195312 0 0-113.558593 0-113.601562 0-15.269531 0-28.195313 12.945312-28.195313 28.195312v12.214844h-78.773437l-6.734375-51.242188c-.539063-4.109374-4.304688-7-8.410156-6.460937-4.109376.542969-7 4.308594-6.460938 8.414063l18.480469 140.699218h-63.503907c-14.117187 0-25.601562 11.484375-25.601562 25.601563v45.246093c0 14.113282 11.484375 25.597657 25.601562 25.597657zm392.199219-172.855469-10.035156 76.410156h-66.769531v-76.410156zm-231.796875-27.214844c0-7.191406 6.015625-13.195312 13.195313-13.195312h113.601562c7.105469 0 13.195313 6.082031 13.195313 13.195312v103.625h-20v-89.320312c0-4.144532-3.355469-7.5-7.5-7.5h-84.992188c-4.144531 0-7.5 3.355468-7.5 7.5v24.96875c-8.804687 4.140625-14.914062 13.089844-14.914062 23.441406s6.109375 19.300781 14.914062 23.441406v17.46875h-20zm20.085938 62.714844c0-5.933594 4.976562-10.890625 10.886718-10.890625h18.644532c.667968 0 1.210937.546875 1.210937 1.214844v19.351562c0 .632813-.53125 1.214844-1.210937 1.214844 0 0-18.636719 0-18.644532 0-5.925781 0-10.886718-4.964844-10.886718-10.890625zm14.914062 25.890625h14.617188c8.753906 0 16.210937-7.351563 16.210937-16.214844v-19.351562c0-8.941407-7.273437-16.214844-16.210937-16.214844h-14.621094v-15.019531h69.996094v81.820312h-69.996094v-15.019531zm-126.804687-61.390625h76.804687v76.410156h-66.769531zm392.199219 91.410156c5.847656 0 10.601562 4.757813 10.601562 10.601563v45.246093c0 5.84375-4.753906 10.597657-10.601562 10.597657h-460.796876c-5.84375 0-10.601562-4.753907-10.601562-10.597657v-45.246093c0-5.84375 4.753906-10.601563 10.601562-10.601563zm0 0"/><path d="m444.238281 119.257812c-.542969 4.105469 2.351563 7.875 6.457031 8.414063 4.109376.539063 7.875-2.355469 8.414063-6.460937l5.878906-44.761719c1.660157-11.988281-4.074219-23.605469-14.621093-29.59375-54.863282-31.089844-120.257813-46.855469-194.367188-46.855469s-139.503906 15.765625-194.375 46.859375c-10.539062 5.984375-16.273438 17.601563-14.621094 29.539063l19.679688 149.8125c.496094 3.773437 3.71875 6.523437 7.429687 6.523437.324219 0 .652344-.019531.984375-.066406 4.105469-.539063 7-4.304688 6.460938-8.410157l-19.691406-149.867187c-.8125-5.867187 2-11.554687 7.160156-14.484375 52.582031-29.796875 115.488281-44.90625 186.972656-44.90625s134.390625 15.109375 186.964844 44.902344c5.167968 2.933594 7.980468 8.621094 7.160156 14.539062zm0 0"/></svg>