<svg height="512pt" viewBox="-4 0 512 512" width="512pt" xmlns="http://www.w3.org/2000/svg"><path d="m436.808594 177.949219v297.105469c0 16.261718-13.171875 29.445312-29.433594 29.445312h-370.4375c-16.261719 0-29.433594-13.183594-29.433594-29.445312v-297.105469zm0 0" fill="#ececee"/><path d="m436.808594 475.054688v-297.105469h-429.304688v195.492187c9.515625 27.371094 22.035156 53.722656 38.511719 76.046875 15.980469 21.652344 41.582031 34.578125 68.492187 34.578125h320.890626c.914062-2.839844 1.410156-5.867187 1.410156-9.011718zm0 0" fill="#dadadc"/><path d="m492.980469 422.308594c-58.636719-90.257813-56.171875-244.359375-56.171875-244.359375l-214.652344-22.683594-214.652344 22.683594s-2.648437 165.246093 62.652344 253.726562c10.390625 14.082031 26.851562 22.390625 44.351562 22.390625h361.398438c16.3125.003906 25.960938-18.078125 17.074219-31.757812zm0 0" fill="#ececee"/><path d="m155.730469 256.386719-8.5625 5.3125c-2.65625 1.773437-5.316407 2.363281-7.382813 2.363281-8.5625 0-14.464844-9.152344-14.464844-18.304688 0-6.199218 2.65625-12.101562 8.5625-15.644531l38.96875-23.621093c2.363282-1.472657 5.3125-2.066407 8.5625-2.066407 9.445313 0 20.371094 5.609375 20.371094 14.46875v187.765625c0 9.445313-11.515625 14.167969-23.027344 14.167969-11.515624 0-23.03125-4.722656-23.03125-14.167969v-150.273437zm0 0" fill="#ff7f5a"/><path d="m378.160156 256.089844c0 7.675781-4.722656 19.191406-9.445312 28.046875l-69.085938 132.265625c-2.359375 4.425781-6.789062 6.199218-12.988281 6.199218-14.464844 0-29.230469-10.039062-29.230469-23.324218 0-2.65625.59375-5.019532 2.070313-7.675782l72.625-125.769531v-20.664062h-52.847657v19.777343c0 7.972657-11.21875 14.171876-23.320312 14.171876-12.402344 0-22.734375-6.199219-22.734375-14.171876v-45.757812c0-7.085938 10.039063-14.171875 20.074219-14.171875h104.808594c8.855468 0 20.074218 7.085937 20.074218 14.171875zm0 0" fill="#ff7f5a"/><path d="m436.808594 177.949219v-96.632813c0-16.261718-13.171875-29.445312-29.433594-29.445312h-370.4375c-16.261719 0-29.433594 13.183594-29.433594 29.445312v96.632813zm0 0" fill="#1fd7c3"/><path d="m90.074219 121.246094c28.113281 0 50.984375-22.867188 50.984375-50.980469v-18.398437h-101.96875v18.398437c0 28.113281 22.871094 50.980469 50.984375 50.980469zm0 0" fill="#00bbc9"/><path d="m90.074219 7.5c-14.351563 0-25.984375 11.632812-25.984375 25.984375v36.78125c0 14.347656 11.632812 25.980469 25.984375 25.980469 14.351562 0 25.984375-11.632813 25.984375-25.980469v-36.78125c0-14.351563-11.632813-25.984375-25.984375-25.984375zm0 0" fill="#ffe76c"/><path d="m354.238281 121.246094c28.113281 0 50.984375-22.867188 50.984375-50.980469v-18.398437h-101.96875v18.398437c0 28.113281 22.871094 50.980469 50.984375 50.980469zm0 0" fill="#00bbc9"/><path d="m354.238281 7.5c14.351563 0 25.984375 11.632812 25.984375 25.984375v36.78125c0 14.347656-11.632812 25.980469-25.984375 25.980469-14.351562 0-25.984375-11.632813-25.984375-25.980469v-36.78125c0-14.351563 11.632813-25.984375 25.984375-25.984375zm0 0" fill="#ffe76c"/><path d="m142.820312 103.914062c-4.140624 0-7.5 3.359376-7.5 7.5v14.363282c0 4.140625 3.359376 7.5 7.5 7.5 4.144532 0 7.5-3.359375 7.5-7.5v-14.363282c0-4.140624-3.355468-7.5-7.5-7.5zm0 0"/><path d="m301.519531 103.914062c-4.140625 0-7.5 3.359376-7.5 7.5v14.363282c0 4.140625 3.359375 7.5 7.5 7.5s7.5-3.359375 7.5-7.5v-14.363282c0-4.140624-3.359375-7.5-7.5-7.5zm0 0"/><path d="m246.691406 119.128906c-3.117187-2.726562-7.855468-2.40625-10.582031.710938-3.390625 3.878906-8.46875 6.101562-13.9375 6.101562-5.472656 0-10.550781-2.222656-13.941406-6.101562-2.722657-3.117188-7.460938-3.4375-10.582031-.710938-3.117188 2.726563-3.4375 7.464844-.710938 10.585938 6.238281 7.132812 15.433594 11.226562 25.230469 11.226562s18.996093-4.09375 25.230469-11.226562c2.730468-3.121094 2.410156-7.859375-.707032-10.585938zm0 0"/><path d="m178.769531 428.328125c17.976563 0 30.53125-8.910156 30.53125-21.671875v-187.765625c0-13.566406-14.46875-21.964844-27.871093-21.964844-4.890626 0-9.089844 1.066407-12.488282 3.175781l-38.90625 23.578126c-7.753906 4.652343-12.199218 12.703124-12.199218 22.078124 0 12.410157 8.394531 25.804688 21.964843 25.804688 2.132813 0 5.136719-.367188 8.441407-1.886719v136.980469c0 12.761719 12.554687 21.671875 30.527343 21.671875zm-35.542969-173c-.070312.042969-.136718.085937-.207031.132813-6.164062 4.109374-10.183593-4.554688-10.183593-9.703126 0-2.859374.851562-6.777343 4.945312-9.234374l38.972656-23.617188c.027344-.015625.054688-.035156.085938-.050781 4.101562-2.464844 17.457031-.195313 17.457031 6.035156v187.765625c0 3.617188-7.109375 6.671875-15.527344 6.671875s-15.527343-3.054687-15.527343-6.671875c0 0 0-150.027344 0-150.269531 0-5.761719-6.546876-9.421875-11.453126-6.375zm0 0"/><path d="m253 387.851562c-.023438.035157-.042969.070313-.0625.105469-2.054688 3.699219-3.011719 7.292969-3.011719 11.320313 0 8.640625 4.316407 16.671875 12.160157 22.617187 6.875 5.214844 15.828124 8.207031 24.570312 8.207031 9.410156 0 16.007812-3.421874 19.636719-10.230468l69.054687-132.203125c3.105469-5.824219 10.328125-20.5625 10.328125-31.578125v-36.902344c0-12.003906-15.085937-21.671875-27.574219-21.671875h-104.808593c-15.78125 0-27.574219 11.441406-27.574219 21.671875v45.757812c0 12.152344 13.277344 21.671876 30.230469 21.671876 7.289062 0 14.394531-1.824219 20.011719-5.136719 6.871093-4.050781 10.8125-10.078125 10.8125-16.535157v-12.277343h37.847656v11.15625zm79.117188-150.183593h-52.84375c-4.140626 0-7.5 3.355469-7.5 7.5v19.777343c0 1.980469-6.140626 6.671876-15.824219 6.671876-9.449219 0-15.230469-4.316407-15.230469-6.671876v-45.757812c0-1.5625 5.359375-6.671875 12.574219-6.671875h104.804687c5.949219 0 12.234375 4.863281 12.578125 6.671875v36.902344c0 5.136718-3.363281 14.761718-8.597656 24.574218l-69.050781 132.207032c-.386719.722656-1.1875 2.230468-6.375 2.230468-11.167969 0-21.726563-7.691406-21.726563-15.824218 0-1.230469.183594-2.332032 1.09375-3.984375l72.59375-125.707031c.65625-1.140626 1.003907-2.4375 1.003907-3.75v-20.667969c0-4.140625-3.355469-7.5-7.5-7.5zm0 0"/><path d="m7.515625 428.363281c-4.140625 0-7.5 3.355469-7.5 7.5v39.191407c0 20.371093 16.570313 36.945312 36.9375 36.945312h370.4375c20.367187 0 36.933594-16.574219 36.933594-36.945312v-13.484376h31.597656c10.402344 0 19.570313-5.449218 24.527344-14.578124 4.917969-9.066407 4.472656-20.089844-1.164063-28.769532-23.046875-35.476562-39.84375-87.480468-48.578125-150.394531-.570312-4.101563-4.359375-6.964844-8.460937-6.394531-4.101563.570312-6.964844 4.355468-6.394532 8.460937 9.160157 66.003907 26.269532 118.660157 50.851563 156.5 2.683594 4.125 2.890625 9.148438.5625 13.441407-2.289063 4.214843-6.53125 6.730468-11.34375 6.730468h-361.398437c-14.957032 0-29.4375-7.308594-38.320313-19.34375-6.167969-8.359375-11.511719-17.25-16.371094-26.421875-.015625-.03125-.03125-.0625-.050781-.09375-39.996094-76.542969-44.3125-186.050781-44.734375-215.261719h414.289063c.121093 10.105469.679687 29.527344 2.992187 54.117188.386719 4.125 4.050781 7.15625 8.167969 6.765625 4.125-.386719 7.152344-4.046875 6.765625-8.167969-3.285157-34.953125-2.941407-59.847656-2.9375-60.09375 0-.019531 0-.039062 0-.058594 0-.019531 0-.039062 0-.0625v-96.628906c0-20.375-16.566407-36.949218-36.933594-36.949218h-19.652344v-10.882813c-.003906-18.464844-15.023437-33.484375-33.484375-33.484375-18.464844 0-33.484375 15.019531-33.484375 33.484375v10.882813h-197.195312v-10.882813c0-18.464844-15.023438-33.484375-33.484375-33.484375-18.464844 0-33.484375 15.019531-33.484375 33.484375v10.882813h-19.652344c-20.367187 0-36.9375 16.574218-36.9375 36.949218 0 0-.0351562 99.429688 0 103.292969v221.253906c0 4.140625 3.359375 7.5 7.5 7.5s7.5-3.359375 7.5-7.5v-88.433593c8.589844 38.648437 20.496094 71.363281 35.59375 97.8125 4.113281 7.207031 8.597656 14.207031 13.527344 20.886718 11.753906 15.929688 30.589843 25.4375 50.386719 25.4375h314.800781v13.488282c0 12.097656-9.839844 21.945312-21.9375 21.945312h-370.433594c-12.097656 0-21.9375-9.847656-21.9375-21.945312v-39.195313c0-4.140625-3.359375-7.496094-7.5-7.496094zm328.253906-394.878906c0-10.191406 8.289063-18.484375 18.484375-18.484375 10.191406 0 18.480469 8.292969 18.480469 18.484375v36.78125c0 10.027344-8.472656 18.480469-18.484375 18.480469-10.0625 0-18.484375-8.417969-18.484375-18.480469v-36.78125zm-264.164062 0c0-10.191406 8.292969-18.484375 18.484375-18.484375s18.484375 8.292969 18.484375 18.484375v36.78125c0 10.027344-8.472657 18.480469-18.484375 18.480469-10.058594 0-18.484375-8.417969-18.484375-18.480469zm-56.589844 47.832031c0-12.101562 9.839844-21.949218 21.9375-21.949218h19.652344v10.898437c0 18.191406 15.300781 33.480469 33.484375 33.480469 18.082031 0 33.484375-15.195313 33.484375-33.480469v-10.898437h197.191406v10.898437c0 18.210937 15.28125 33.480469 33.484375 33.480469 18.089844 0 33.484375-15.195313 33.484375-33.480469v-10.898437h19.652344c12.097656 0 21.9375 9.847656 21.9375 21.949218v89.132813h-414.308594zm0 0"/></svg>