<svg height="512pt" viewBox="-30 0 512 512.0015" width="512pt" xmlns="http://www.w3.org/2000/svg"><path d="m328.148438 463.128906-101.90625 30.910156-101.90625-30.910156c9.597656-22.34375 23.160156-37.96875 23.160156-37.96875h157.496094s13.5625 15.628906 23.15625 37.96875zm0 0" fill="#ffe76c"/><path d="m160.203125 474.007812c1.242187-3.765624 2.636719-7.40625 4.132813-10.878906 9.597656-22.339844 23.160156-37.96875 23.160156-37.96875h-40s-2.597656 2.992188-6.320313 8.230469c-1.597656 2.242187-3.398437 4.898437-5.292969 7.90625-3.789062 6.019531-7.945312 13.453125-11.546874 21.832031zm0 0" fill="#ffb44d"/><path d="m337.519531 504.5h-222.550781c0-14.828125 4.082031-29.113281 9.371094-41.371094l101.90625 15.691406 101.90625-15.691406c5.285156 12.257813 9.367187 26.542969 9.367187 41.371094zm0 0" fill="#1fd7c3"/><path d="m154.96875 504.5c0-12.546875 2.925781-24.703125 7.03125-35.574219l-37.660156-5.800781c-2.316406 5.367188-4.398438 11.117188-6.007813 17.128906-.691406 2.578125-1.292969 5.207032-1.792969 7.871094-.996093 5.328125-1.570312 10.8125-1.570312 16.375zm0 0" fill="#00bbc9"/><path d="m430.167969 291.777344c.996093-8.246094 1.503906-16.605469 1.503906-25.042969 0-12.574219-1.121094-24.976563-3.316406-37.09375l-202.109375-35.726563-202.113282 35.730469c-2.195312 12.117188-3.316406 24.515625-3.316406 37.089844 0 8.4375.507813 16.796875 1.503906 25.046875h407.847657zm0 0" fill="#8597a5"/><path d="m82.953125 291.777344c0 20.835937-16.890625 37.726562-37.726563 37.726562-20.835937 0-37.726562-16.890625-37.726562-37.726562 0-20.832032 16.890625-37.722656 37.726562-37.722656 20.835938 0 37.726563 16.890624 37.726563 37.722656zm0 0" fill="#ffcabd"/><path d="m444.988281 291.777344c0 20.835937-16.890625 37.726562-37.726562 37.726562-20.835938 0-37.726563-16.890625-37.726563-37.726562 0-20.832032 16.890625-37.722656 37.726563-37.722656 20.835937 0 37.726562 16.890624 37.726562 37.722656zm0 0" fill="#ffcabd"/><path d="m403.140625 266.734375c0 97.695313-79.199219 176.898437-176.898437 176.898437-97.695313 0-176.894532-79.203124-176.894532-176.898437 0-97.699219 79.199219-176.898437 176.894532-176.898437 97.699218 0 176.898437 79.199218 176.898437 176.898437zm0 0" fill="#a5b0bc"/><path d="m365.0625 263.609375c-1.652344-74.738281-62.960938-135.140625-137.710938-135.726563-77.070312-.601562-139.960937 61.917969-139.960937 138.851563 0 13.160156 1.839844 25.898437 5.28125 37.96875 2.882813 10.128906 12.617187 16.699219 23.109375 15.832031 52.921875-4.378906 54.773438-28.757812 110.460938-28.757812 55.691406 0 57.539062 24.378906 110.460937 28.757812 10.5.867188 20.234375-5.710937 23.117187-15.847656 3.707032-13.019531 5.558594-26.816406 5.242188-41.078125zm0 0" fill="#ffdcce"/><path d="m42.109375 175.433594-14.078125-51.402344c-2.476562-9.042969.355469-18.714844 7.34375-24.964844 24.867188-22.230468 90.066406-72.75 186.363281-91.140625 2.972657-.566406 6.039063-.566406 9.011719 0 96.292969 18.390625 161.496094 68.910157 186.359375 91.140625 6.992187 6.25 9.824219 15.921875 7.347656 24.964844l-14.078125 51.402344-46.203125 18.480468h-275.863281zm0 0" fill="#1fd7c3"/><path d="m251.316406 51.789062-25.070312 2.058594-25.074219-2.058594c-65.492187 18.152344-111.910156 51.480469-134.238281 70.265626l21.378906 71.859374h275.867188l21.378906-71.859374c-22.332032-18.785157-68.746094-52.117188-134.242188-70.265626zm0 0" fill="#00bbc9"/><path d="m226.242188 45.808594c-8.644532 1.71875-16.996094 3.742187-25.070313 5.980468v142.125h50.144531v-142.125c-8.074218-2.238281-16.425781-4.261718-25.074218-5.980468zm0 0" fill="#ececee"/><path d="m428.351562 229.644531h-404.21875c3.433594-18.917969 9.484376-37.132812 17.976563-54.210937h368.277344c8.484375 17.078125 14.535156 35.292968 17.964843 54.210937zm0 0" fill="#ffe76c"/><path d="m42.109375 175.433594c-8.492187 17.078125-14.542969 35.292968-17.976563 54.207031h40c3.433594-18.914063 9.484376-37.128906 17.976563-54.207031zm0 0" fill="#ffb44d"/><path d="m317.613281 291c4.144531 0 7.5-3.359375 7.5-7.5v-16.816406c0-4.140625-3.355469-7.5-7.5-7.5-4.140625 0-7.5 3.359375-7.5 7.5v16.816406c0 4.140625 3.359375 7.5 7.5 7.5zm0 0"/><path d="m134.871094 291c4.144531 0 7.5-3.359375 7.5-7.5v-16.816406c0-4.140625-3.355469-7.5-7.5-7.5-4.140625 0-7.5 3.359375-7.5 7.5v16.816406c0 4.140625 3.359375 7.5 7.5 7.5zm0 0"/><path d="m247.523438 315.703125c-3.117188-2.726563-7.859376-2.410156-10.585938.710937-2.589844 2.964844-6.488281 4.667969-10.695312 4.667969-4.203126 0-8.101563-1.703125-10.695313-4.667969-2.722656-3.121093-7.464844-3.4375-10.582031-.710937-3.121094 2.726563-3.4375 7.464844-.710938 10.582031 5.441406 6.222656 13.457032 9.792969 21.988282 9.792969 8.535156 0 16.550781-3.570313 21.988281-9.792969 2.730469-3.117187 2.410156-7.855468-.707031-10.582031zm0 0"/><path d="m397.183594 335.863281c3.285156.75 6.652344 1.140625 10.078125 1.140625 24.9375 0 45.226562-20.285156 45.226562-45.222656 0-12.5625-5.152343-23.941406-13.449219-32.144531-.339843-10.386719-1.414062-20.734375-3.21875-30.824219-.042968-.363281-.101562-.722656-.191406-1.074219-3.394531-18.40625-9.199218-36.238281-17.269531-53.058593l13.332031-48.664063c3.253906-11.878906-.417968-24.347656-9.582031-32.539063-10.324219-9.230468-27.546875-23.316406-50.972656-38-3.507813-2.199218-8.136719-1.136718-10.335938 2.371094-2.199219 3.511719-1.140625 8.140625 2.371094 10.339844 22.53125 14.125 39.050781 27.628906 48.941406 36.472656 4.894531 4.375 6.851563 11.039063 5.109375 17.394532l-12.566406 45.878906h-24.925781l13.015625-43.738282c.851562-2.863281-.078125-5.957031-2.363282-7.878906-24.992187-21.027344-76.648437-57.621094-149.664062-75.007812-4.316406-1.035156-8.65625-1.992188-13.011719-2.855469-.964843-.191406-1.957031-.191406-2.925781 0-2.125.421875-4.261719.871094-6.410156 1.339844-34.359375 7.5-67.699219 20.109375-99.191406 37.542969-3.625 2.003906-4.9375 6.570312-2.929688 10.191406 2.007812 3.625 6.570312 4.9375 10.195312 2.929687 21.605469-11.957031 44.113282-21.546875 67.226563-28.675781v106.152344h-105.265625l-12.871094-43.261719c8.328125-6.773437 17.34375-13.371094 26.863282-19.660156 3.457031-2.285157 4.410156-6.9375 2.125-10.390625-2.28125-3.457032-6.933594-4.410156-10.390626-2.125-11.457031 7.566406-22.234374 15.582031-32.03125 23.824218-2.28125 1.921876-3.210937 5.015626-2.359374 7.875l13.011718 43.738282h-24.921875l-12.570312-45.878906c-1.738281-6.355469.21875-13.019532 5.113281-17.394532 23.289062-20.820312 87.722656-71.210937 182.769531-89.363281 2.054688-.394531 4.140625-.394531 6.199219 0 37.476562 7.15625 73.925781 20.003906 108.339844 38.191406 3.664062 1.9375 8.199218.539063 10.132812-3.125 1.9375-3.660156.539063-8.199219-3.125-10.132812-35.730468-18.886719-73.59375-32.230469-112.53125-39.667969-3.925781-.75-7.90625-.75-11.832031 0-98.730469 18.855469-165.730469 71.257812-189.949219 92.914062-9.164062 8.191407-12.835937 20.660157-9.582031 32.539063l13.332031 48.675781c-8.148437 16.976563-13.996094 34.992188-17.375 53.613282-1.855468 10.25-2.960937 20.773437-3.304687 31.335937-8.296875 8.203125-13.449219 19.578125-13.449219 32.140625 0 24.9375 20.289062 45.226562 45.226562 45.226562 3.425782 0 6.792969-.394531 10.078126-1.144531 15.800781 38.929688 44.523437 71.277344 80.820312 91.695313-5.070312 6.96875-12.59375 18.460937-18.671875 32.601562-6.625 15.355469-9.980469 30.273438-9.980469 44.339844 0 4.144531 3.355469 7.5 7.5 7.5h222.566406c4.140626 0 7.5-3.355469 7.5-7.5 0-.191406-.007812-.386719-.023437-.574219-.089844-13.753906-3.378906-28.308593-9.777344-43.285156-.117187-.335937-.25-.664063-.414062-.976563-6.011719-13.851562-13.441407-25.191406-18.46875-32.101562 36.300781-20.417969 65.027343-52.769531 80.828125-91.699219zm-39.617188-72.089843c.292969 13.207031-1.375 26.285156-4.957031 38.863281-1.867187 6.558593-8.535156 10.988281-15.285156 10.425781-23.496094-1.945312-35.90625-7.855469-49.042969-14.109375-15.148438-7.214844-30.816406-14.671875-62.035156-14.671875-31.222656 0-46.886719 7.457031-62.039063 14.671875-13.136719 6.253906-25.546875 12.164063-49.042969 14.109375-6.800781.554688-13.394531-3.792969-15.28125-10.410156-3.3125-11.632813-4.992187-23.71875-4.992187-35.917969 0-9.984375 1.132813-19.914063 3.371094-29.589844h255.964843c2.019532 8.710938 3.140626 17.644531 3.339844 26.628907zm-324.238281-41.628907c3.101563-13.53125 7.621094-26.671875 13.488281-39.210937h358.859375c5.867188 12.542968 10.382813 25.6875 13.484375 39.210937zm373.933594 99.859375c-1.667969 0-3.3125-.132812-4.933594-.398437 3.191406-10.246094 5.464844-20.726563 6.820313-31.371094.007812-.046875.011718-.097656.019531-.148437.996093-7.734376 1.472656-15.550782 1.472656-23.351563 0-1.664063-.023437-3.328125-.070313-4.988281 1.542969.167968 3.070313.453125 4.566407.855468 13.027343 3.519532 22.347656 15.6875 22.347656 29.179688.003906 16.664062-13.554687 30.222656-30.222656 30.222656zm14.734375-72.976562c-3.367188-1.171875-6.890625-1.925782-10.4375-2.261719-.671875-.066406-1.347656-.117187-2.019532-.152344-.199218-1.796875-1.058593-8.109375-1.28125-9.46875h13.730469c.609375 4.101563 1.089844 8.246094 1.445313 12.40625-.039063-.015625-.996094-.371093-1.4375-.523437zm-57.914063-81.09375h-105.265625v-106.164063c55.382813 17.050781 95.773438 44.703125 118.136719 62.902344zm-155.410156-110.394532c5.800781-1.507812 11.644531-2.863281 17.519531-4.070312.019532 0 .035156-.003906.054688-.007812.039062.007812.078125.015624.117187.023437 5.851563 1.171875 11.675781 2.554687 17.453125 4.054687v110.394532h-35.144531zm-179.621094 192.011719c.355469-4.160156.839844-8.304687 1.449219-12.40625h13.726562c-.148437.917969-1.03125 7.230469-1.28125 9.46875-.128906.003907-.257812.019531-.386718.027344-4.613282.277344-9.191406 1.253906-13.507813 2.910156zm21.109375 72.054688c-1.621094.265625-3.269531.398437-4.933594.398437-16.667968 0-30.226562-13.558594-30.226562-30.226562 0-14.824219 11.34375-27.875 26.023438-29.925782.296874-.039062.59375-.074218.890624-.109374-.253906 9.464843.195313 18.953124 1.40625 28.34375.003907.046874.011719.097656.015626.148437 1.359374 10.644531 3.632812 21.125 6.824218 31.371094zm72.679688 175.394531c.796875-8.1875 2.878906-16.742188 6.21875-25.554688 0 0 96.039062 14.789063 96.042968 14.789063.753907.117187 1.527344.117187 2.28125 0l96.046876-14.789063c3.339843 8.8125 5.417968 17.367188 6.214843 25.554688zm179.992187-62.488281c3.492188 4.644531 9.070313 12.664062 14.25 22.734375l-90.839843 13.988281-90.835938-13.988281c5.179688-10.070313 10.757812-18.089844 14.25-22.734375 21.214844 9.71875 43.710938 15.207031 67.070312 16.378906 3.167969.164063 6.34375.242187 9.515626.242187 3.171874 0 6.351562-.082031 9.519531-.242187 23.355469-1.171875 45.855469-6.660156 67.070312-16.378906zm-59.152343.726562c-5.789063.597657-11.613282.894531-17.4375.894531-5.832032 0-11.625-.894531-17.433594-.894531-79.492188-8.164062-142.867188-71.519531-151.0625-151-1-9.695312-1.152344-19.605469-.472656-29.378906.410156-5.878906 1.164062-11.855469 2.171874-17.714844h23.460938c-2.003906 9.710938-3.019531 19.625-3.019531 29.589844 0 13.589844 1.875 27.054687 5.570312 40.027344 3.792969 13.328125 17.1875 22.386719 30.941407 21.25 26.230468-2.171875 40.476562-8.957031 54.257812-15.515625 14.269531-6.796875 27.753906-13.214844 55.585938-13.214844 27.832031 0 41.3125 6.417969 55.585937 13.214844 13.777344 6.558594 28.023437 13.34375 54.253906 15.511718 13.84375 1.148438 27.132813-7.855468 30.949219-21.261718 3.996094-14.027344 5.851562-28.59375 5.527344-43.304688-.195313-8.851562-1.203125-17.660156-2.992188-26.296875h23.472656l.105469.621094c3.65625 14.621094 3.125 31.597656 1.59375 46.472656-8.191406 79.480469-71.566406 142.835938-151.058593 151zm0 0"/></svg>