<svg height="512pt" viewBox="0 -30 512 512" width="512pt" xmlns="http://www.w3.org/2000/svg"><path d="m286.179688 361.933594-4.828126-19.40625h-50.703124l-4.828126 19.40625c-1.710937 6.867187 3.488282 13.515625 10.566407 13.515625h39.226562c7.078125 0 12.277344-6.648438 10.566407-13.515625zm0 0" fill="#1fd7c3"/><path d="m423.40625 291.570312-4.828125-19.402343h-50.707031l-4.824219 19.402343c-1.710937 6.871094 3.484375 13.519532 10.566406 13.519532h39.226563c7.078125 0 12.277344-6.648438 10.566406-13.519532zm0 0" fill="#ff6e42"/><path d="m88.59375 291.570312 4.828125-19.402343h50.707031l4.824219 19.402343c1.710937 6.871094-3.484375 13.519532-10.566406 13.519532h-39.226563c-7.078125 0-12.277344-6.648438-10.566406-13.519532zm0 0" fill="#fff3e4"/><path d="m504.5 118.738281c0 61.453125-49.820312 158.941407-111.273438 158.941407-61.457031 0-111.273437-97.488282-111.273437-158.941407 0-61.457031 49.820313-111.273437 111.273437-111.273437 61.453126 0 111.273438 49.816406 111.273438 111.273437zm0 0" fill="#ff7f5a"/><path d="m311.953125 118.738281c0-56.367187 41.914063-102.9375 96.273437-110.265625-4.90625-.660156-9.910156-1.007812-15-1.007812-61.453124 0-111.273437 49.816406-111.273437 111.273437 0 61.453125 49.820313 158.941407 111.273437 158.941407 5.089844 0 10.09375-.683594 15-1.941407-54.359374-13.96875-96.273437-100.632812-96.273437-157zm0 0" fill="#ff5d29"/><path d="m7.5 118.738281c0 61.453125 49.820312 158.941407 111.273438 158.941407 61.457031 0 111.273437-97.488282 111.273437-158.941407 0-61.457031-49.816406-111.273437-111.273437-111.273437-61.453126 0-111.273438 49.816406-111.273438 111.273437zm0 0" fill="#fff3e4"/><path d="m37.5 118.738281c0-56.367187 41.914062-102.9375 96.273438-110.265625-4.90625-.660156-9.910157-1.007812-15-1.007812-61.453126 0-111.273438 49.816406-111.273438 111.273437 0 61.453125 49.820312 158.941407 111.273438 158.941407 5.089843 0 10.09375-.683594 15-1.941407-54.359376-13.96875-96.273438-100.632812-96.273438-157zm0 0" fill="#ffdebb"/><path d="m367.273438 189.097656c0 61.453125-49.820313 158.941406-111.273438 158.941406s-111.273438-97.488281-111.273438-158.941406c0-61.457031 49.820313-111.273437 111.273438-111.273437s111.273438 49.816406 111.273438 111.273437zm0 0" fill="#1fd7c3"/><path d="m174.726562 189.097656c0-56.367187 41.914063-102.941406 96.273438-110.265625-4.90625-.660156-9.910156-1.011719-15-1.011719-61.453125 0-111.273438 49.820313-111.273438 111.277344 0 61.453125 49.820313 158.941406 111.273438 158.941406 5.089844 0 10.09375-.683593 15-1.941406-54.359375-13.96875-96.273438-100.632812-96.273438-157zm0 0" fill="#00bbc9"/><path d="m199.453125 198.921875c-4.140625 0-7.5 3.355469-7.5 7.5v10.230469c0 4.144531 3.359375 7.5 7.5 7.5 4.144531 0 7.5-3.355469 7.5-7.5v-10.230469c0-4.144531-3.355469-7.5-7.5-7.5zm0 0"/><path d="m312.546875 224.152344c4.140625 0 7.5-3.355469 7.5-7.5v-10.230469c0-4.144531-3.359375-7.5-7.5-7.5-4.144531 0-7.5 3.355469-7.5 7.5v10.230469c0 4.144531 3.355469 7.5 7.5 7.5zm0 0"/><path d="m256 229.617188c7.601562 0 14.746094-3.183594 19.601562-8.738282 2.726563-3.117187 2.410157-7.855468-.707031-10.582031-3.121093-2.726563-7.859375-2.410156-10.585937.710937-2.003906 2.292969-5.035156 3.609376-8.308594 3.609376s-6.304688-1.316407-8.308594-3.609376c-2.726562-3.121093-7.464844-3.4375-10.582031-.710937-3.121094 2.726563-3.4375 7.464844-.710937 10.582031 4.851562 5.554688 11.996093 8.738282 19.601562 8.738282zm0 0"/><path d="m84.660156 276.34375s-3.34375 13.445312-3.347656 13.453125c-2.839844 11.425781 6.101562 22.832031 17.847656 22.832031h7.527344c.898438 4.898438 3.101562 9.523438 6.453125 13.339844 4.226563 4.808594 4.226563 12.0625 0 16.871094-9.191406 10.457031-9.191406 26.226562 0 36.679687 2.699219 3.074219 7.515625 3.378907 10.585937.683594 3.109376-2.734375 3.414063-7.476563.679688-10.585937-4.226562-4.808594-4.226562-12.0625 0-16.871094 9.191406-10.457032 9.191406-26.226563 0-36.679688-.90625-1.035156-1.632812-2.199218-2.160156-3.4375h16.140625c11.773437 0 20.6875-11.40625 17.847656-22.832031l-3.359375-13.496094c1.894531-1 3.78125-2.085937 5.660156-3.253906 3.734375 7.785156 7.894532 15.371094 12.433594 22.589844 15.125 24.078125 32.546875 41.414062 50.921875 51.066406 0 0-3.347656 13.445313-3.347656 13.453125-2.84375 11.425781 6.105469 22.832031 17.84375 22.832031h7.527343c.898438 4.898438 3.101563 9.527344 6.453126 13.339844 4.230468 4.808594 4.230468 12.0625 0 16.871094-9.191407 10.457031-9.191407 26.226562 0 36.683593 2.617187 2.972657 7.449218 3.4375 10.585937.679688 3.109375-2.734375 3.414063-7.472656.679687-10.585938-4.226562-4.808593-4.226562-12.0625 0-16.871093 9.191407-10.457031 9.191407-26.226563 0-36.679688-.90625-1.035156-1.632812-2.195312-2.160156-3.4375h16.140625c11.765625 0 20.6875-11.417969 17.847657-22.832031l-3.347657-13.453125c18.375-9.652344 35.796875-26.988281 50.921875-51.0625 4.535156-7.222656 8.695313-14.808594 12.429688-22.59375 1.882812 1.167969 3.769531 2.253906 5.664062 3.253906 0 0-3.359375 13.492188-3.359375 13.5-2.84375 11.429688 6.089844 22.828125 17.84375 22.828125h7.53125c.894531 4.898438 3.097657 9.527344 6.449219 13.339844 4.230469 4.808594 4.230469 12.0625 0 16.875-9.191406 10.453125-9.191406 26.222656 0 36.679688 1.484375 1.6875 3.554688 2.546874 5.636719 2.546874 1.757812 0 3.523437-.617187 4.949219-1.867187 3.109374-2.734375 3.417968-7.476563.679687-10.585937-4.226563-4.808594-4.226563-12.0625 0-16.871094 9.195313-10.457032 9.195313-26.226563 0-36.679688-.90625-1.035156-1.628906-2.199218-2.160156-3.4375h16.144531c11.769531 0 20.683594-11.40625 17.84375-22.832031l-3.355469-13.492187c12.222657-6.445313 24.082031-16.320313 35.203125-29.4375 2.679688-3.160157 2.289063-7.890626-.871094-10.570313-3.15625-2.679687-7.890624-2.289063-10.570312.871094-8.664062 10.21875-20.835938 21.757812-35.460938 28.140625-.015624.003906-.035156.011718-.050781.019531-14.453125 6.191406-30.265625 6.410156-44.691406 0-.011719-.007813-.027344-.011719-.039063-.015625-3.761718-1.640625-7.519531-3.679688-11.265624-6.140625 22.386718-55.425781 21.117187-121.039063-28.207032-161.761719-9.921875-8.191406-21.472656-14.914062-33.582031-19.472656 16.222656-37.941406 53.667969-62.9375 95.429687-62.9375 57.21875 0 103.773438 46.550781 103.773438 103.773438 0 28.300781-11.125 64.539062-29.03125 94.574218-2.121094 3.558594-.957031 8.164063 2.601562 10.285156 3.558594 2.121094 8.160157.957032 10.28125-2.601562 19.214844-32.226562 31.148438-71.40625 31.148438-102.257812 0-65.492188-53.28125-118.773438-118.773438-118.773438-48.34375 0-91.617187 29.289062-109.832031 73.554688-8.796875-2.085938-17.96875-3.195313-27.394531-3.195313s-18.597656 1.109375-27.394531 3.195313c-18.214844-44.265626-61.488281-73.554688-109.832031-73.554688-14.890626 0-29.421876 2.726562-43.191407 8.105469-3.859375 1.503906-5.765625 5.855469-4.257812 9.710937 1.507812 3.859375 5.855469 5.765625 9.714843 4.257813 12.019532-4.695313 24.71875-7.074219 37.734376-7.074219 41.761718 0 79.207031 25 95.429687 62.9375-.378906.144531-.753906.304688-1.128906.453125-20.441407 7.96875-38.65625 21.691406-51.886719 39.199219-21.003906 27.792968-27.4375 62.359375-21.761719 96.355468 2.488281 14.929688 6.792969 29.546876 12.347657 43.617188.210937.539062.425781 1.074219.640624 1.613281-3.742187 2.457031-7.5 4.496094-11.261718 6.136719-.015625.003906-.03125.007812-.042969.015625-14.503906 6.214844-30.210937 6.304687-44.6875 0-.257813-.109375-.519531-.207031-.785156-.289063-45.574219-20.328124-80.636719-96.070312-80.636719-146.265624 0-32.558594 14.851562-62.605469 40.742188-82.433594 3.285156-2.519532 3.910156-7.226563 1.394531-10.515625-2.519531-3.289063-7.226563-3.914063-10.515625-1.394531-29.628906 22.691406-46.621094 57.078124-46.621094 94.34375 0 32.566406 12.929688 73.375 33.738281 106.503906 15.128907 24.078125 32.550781 41.414062 50.921875 51.066406zm331.46875 17.078125c.527344 2.113281-1.125 4.207031-3.289062 4.207031h-39.226563c-2.179687-.003906-3.8125-2.101562-3.289062-4.210937l2.808593-11.28125c6.492188 1.992187 13.296876 3.078125 20.09375 3.078125 6.800782 0 13.597657-1.082032 20.097657-3.078125 0 0 2.804687 11.28125 2.804687 11.285156zm-137.226562 70.355469c.527344 2.121094-1.113282 4.207031-3.289063 4.207031h-39.226562c-2.179688 0-3.8125-2.101563-3.289063-4.207031l2.804688-11.269532c6.484375 1.980469 13.308594 3.066407 20.097656 3.066407 6.679688 0 13.617188-1.089844 20.097656-3.066407zm7.625-273.507813c39.140625 11.746094 68.109375 46.78125 72.605468 87.363281 1.929688 17.417969-.785156 34.972657-5.371093 51.777344-11.515625 42.222656-41.503907 103.5-90.601563 110.636719-45.664062 6.636719-78.914062-45.046875-94.382812-80.566406-11.113282-25.519531-19.023438-53.835938-15.910156-81.882813 2.957031-26.589844 15.992187-50.183594 35.199218-66.851562 27.304688-23.695313 65.105469-30.488282 98.460938-20.476563zm-144.851563 203.148438c.527344 2.117187-1.121093 4.210937-3.289062 4.210937h-39.226563c-2.175781 0-3.8125-2.105468-3.289062-4.210937l2.804687-11.269531c2.421875.738281 4.851563 1.335937 7.292969 1.808593 7.597656 1.484375 15.179688 1.492188 22.835938.480469.023437-.003906.046874-.007812.066406-.007812 3.347656-.511719 6.679687-1.277344 10-2.292969zm0 0"/></svg>