<svg height="512pt" viewBox="0 -46 512 512" width="512pt" xmlns="http://www.w3.org/2000/svg"><path d="m42.15625 120.308594h31.964844v65.871094h-31.964844zm0 0" fill="#8597a5"/><path d="m75.984375 104.195312h-35.691406c-8.898438 0-16.113281 7.214844-16.113281 16.113282 0 8.902344 7.214843 16.113281 16.113281 16.113281h35.691406c8.898437 0 16.113281-7.210937 16.113281-16.113281 0-8.898438-7.214844-16.113282-16.113281-16.113282zm0 0" fill="#ffb44d"/><path d="m60.078125 165.628906c-29.039063 0-52.578125 23.539063-52.578125 52.578125v11.039063c0 5.242187 4.246094 9.488281 9.488281 9.488281h19.832031c5.242188 0 9.488282-4.246094 9.488282-9.488281v-11.039063c0-7.605469 6.167968-13.769531 13.769531-13.769531h72.660156v-38.808594zm0 0" fill="#a5b0bc"/><path d="m486.789062 49.691406c-12.261718-6.691406-25.445312-12.707031-39.40625-17.957031l.003907.003906-35.019531 6.464844-35.003907-25.046875c-22.183593-3.6875-45.441406-5.65625-69.421875-5.65625-23.976562 0-47.238281 1.96875-69.417968 5.65625l-35.003907 21.714844-35.015625-3.136719.003906-.003906c-13.960937 5.253906-27.144531 11.265625-39.402343 17.960937-10.914063 5.957032-17.710938 17.390625-17.710938 29.824219v38.972656h393.105469v-38.96875c0-12.4375-6.796875-23.871093-17.710938-29.828125zm0 0" fill="#dd9882"/><path d="m445.71875 381.925781c-10.945312-3.3125-18.433594-13.402343-18.433594-24.839843v-25.492188c0-8.238281-6.679687-14.917969-14.917968-14.917969-8.238282 0-14.917969 6.679688-14.917969 14.917969v25.492188c0 11.4375-7.484375 21.527343-18.433594 24.839843-10.945313 3.3125-18.433594 13.402344-18.433594 24.839844 0 3.292969 2.671875 5.964844 5.96875 5.964844h91.636719c3.296875 0 5.964844-2.671875 5.964844-5.964844 0-11.441406-7.488282-21.527344-18.433594-24.839844zm0 0" fill="#a5b0bc"/><path d="m170.164062 381.925781c10.949219-3.3125 18.433594-13.402343 18.433594-24.839843v-25.492188c0-8.238281 6.679688-14.917969 14.917969-14.917969s14.917969 6.679688 14.917969 14.917969v25.492188c0 11.4375 7.488281 21.527343 18.433594 24.839843 10.945312 3.3125 18.433593 13.402344 18.433593 24.839844 0 3.292969-2.671875 5.964844-5.964843 5.964844h-91.640626c-3.292968 0-5.964843-2.671875-5.964843-5.964844 0-11.441406 7.488281-21.527344 18.433593-24.839844zm0 0" fill="#a5b0bc"/><path d="m486.789062 320.371094c10.914063-5.957032 17.710938-17.390625 17.710938-29.824219v-38.972656h-393.105469v38.972656c0 12.433594 6.796875 23.867187 17.707031 29.824219 48.199219 26.316406 110.628907 42.191406 178.839844 42.191406 68.210938 0 130.644532-15.875 178.847656-42.191406zm0 0" fill="#d86f42"/><path d="m307.941406 278.554688c-72.195312 0-139.574218-9.875-196.546875-26.972657v-66.550781l196.550781-30.800781 196.554688 30.800781v66.550781c-56.972656 17.097657-124.351562 26.972657-196.558594 26.972657zm0 0" fill="#dd9882"/><path d="m504.5 185.03125h-393.105469v-66.546875c56.972657-17.101563 124.351563-26.976563 196.546875-26.976563 72.207032 0 139.585938 9.875 196.558594 26.976563zm0 0" fill="#d86f42"/><path d="m225.554688 374.914062c-4.457032-4.707031-7.121094-11.023437-7.121094-17.828124v-25.492188c0-8.238281-6.679688-14.917969-14.917969-14.917969s-14.917969 6.679688-14.917969 14.917969v25.492188c0 2.972656-.515625 5.847656-1.453125 8.542968 12.460938 3.675782 25.292969 6.785156 38.410157 9.285156zm0 0" fill="#8597a5"/><path d="m168.503906 31.734375v306.59375c21.640625 8.140625 45.152344 14.453125 70.03125 18.585937v-343.765624c-24.878906 4.132812-48.390625 10.445312-70.03125 18.585937zm0 0" fill="#ffb44d"/><path d="m428.742188 365.628906c-.941407-2.695312-1.457032-5.570312-1.457032-8.542968v-25.492188c0-8.238281-6.679687-14.917969-14.917968-14.917969-8.238282 0-14.917969 6.679688-14.917969 14.917969v25.492188c0 6.804687-2.664063 13.121093-7.117188 17.828124 13.113281-2.5 25.945313-5.609374 38.410157-9.285156zm0 0" fill="#8597a5"/><path d="m377.351562 13.148438v343.765624c24.878907-4.132812 48.390626-10.445312 70.035157-18.585937v-306.589844c-21.644531-8.144531-45.15625-14.457031-70.035157-18.589843zm0 0" fill="#ffb44d"/><path d="m85.515625 165.628906h25.878906v38.808594h-25.878906zm0 0" fill="#8597a5"/><path d="m512 79.519531c0-15.179687-8.285156-29.132812-21.617188-36.410156-55.34375-30.207031-119.757812-43.109375-182.441406-43.109375-62.738281 0-127.042968 12.867188-182.433594 43.109375-13.332031 7.277344-21.617187 21.230469-21.617187 36.40625v78.609375h-22.269531v-14.886719c10.308594-2.535156 17.976562-11.851562 17.976562-22.929687 0-13.019532-10.59375-23.613282-23.613281-23.613282h-35.691406c-13.023438 0-23.613281 10.59375-23.613281 23.613282 0 11.078125 7.667968 20.394531 17.976562 22.929687v20.550781c-20.453125 9.59375-34.65625 30.371094-34.65625 54.417969v11.039063c0 9.367187 7.621094 16.988281 16.988281 16.988281h19.832031c9.367188 0 16.988282-7.621094 16.988282-16.988281v-11.039063c0-3.460937 2.8125-6.269531 6.269531-6.269531h43.816406v78.609375c0 15.179687 8.28125 29.128906 21.613281 36.410156 17.714844 9.671875 36.40625 17.472657 55.589844 23.707031v6.421876c0 8.191406-5.265625 15.289062-13.105468 17.660156-14.210938 4.300781-23.761719 17.167968-23.761719 32.019531 0 7.421875 6.042969 13.464844 13.464843 13.464844h91.640626c7.425781 0 13.464843-6.042969 13.464843-13.464844 0-14.851563-9.546875-27.71875-23.761719-32.019531-6.078124-1.839844-10.59375-6.523438-12.324218-12.351563 3.511718.679688 7.039062 1.328125 10.59375 1.917969.03125.007812.0625.003906.097656.007812 46.871094 7.046876 94.234375 7.777344 141.078125 0 .03125-.003906.0625 0 .09375-.007812 3.554687-.589844 7.078125-1.238281 10.59375-1.917969-1.730469 5.828125-6.25 10.511719-12.328125 12.351563-14.210938 4.300781-23.761719 17.167968-23.761719 32.019531 0 7.421875 6.039063 13.464844 13.464844 13.464844h91.640625c7.425781 0 13.464844-6.042969 13.464844-13.464844 0-14.851563-9.546875-27.71875-23.761719-32.019531-7.839844-2.371094-13.105469-9.46875-13.105469-17.660156v-6.421876c19.1875-6.234374 37.878906-14.035156 55.597656-23.707031 13.332032-7.28125 21.617188-21.234375 21.617188-36.410156zm-393.105469 44.582031c.179688-.050781.359375-.105468.539063-.160156 13.726562-3.925781 27.597656-7.335937 41.570312-10.273437v63.863281h-42.109375zm32.699219 130.242188c-10.917969-2.460938-21.894531-5.277344-32.699219-8.378906v-53.433594h42.109375v63.863281c-.449218-.09375-6.734375-1.445312-9.410156-2.050781zm-32.699219 36.203125v-28.980469c6.609375 1.859375 13.261719 3.554688 19.933594 5.195313 3.316406.804687 18.097656 4.125 22.175781 4.960937v55.574219c-9.894531-4.109375-19.375-8.632813-28.304687-13.507813-8.515625-4.648437-13.804688-13.554687-13.804688-23.242187zm115.800781 98.558594c7.34375 2.222656 12.433594 8.59375 13.042969 16.125h-88.445312c.613281-7.53125 5.699219-13.902344 13.046875-16.125 14.210937-4.304688 23.761718-17.167969 23.761718-32.019531v-1.90625c.121094.035156 10.019532 2.691406 14.886719 3.839843.789063 14.023438 10.113281 25.96875 23.707031 30.085938zm11.339844-38.605469v-66.890625c.085938.007813.171875.011719.253906.019531 2.738282.214844 5.480469.453125 8.222657.601563 17.796875.976562 35.601562 1.824219 53.429687 1.824219 4.960938 0 9.925782-.191407 14.882813-.191407 3.769531 0 6.660156-4.074219 6.597656-7.582031-.074219-4.140625-3.496094-7.441406-7.632813-7.363281-5.097656.09375-9.628906.136719-13.847656.136719-17.636718 0-35.285156-.609376-52.882812-1.824219-3.003906-.207031-6.019532-.433594-9.019532-.679688v-76.019531h123.8125v76.027344c-6.113281.496094-12.230468.917968-18.351562 1.265625-4.136719.234375-7.300781 3.777343-7.0625 7.914062.234375 4.136719 3.773438 7.300781 7.910156 7.0625 5.839844-.332031 11.675782-.726562 17.503906-1.191406v66.890625c-20.214843 3.027344-41.007812 4.5625-61.910156 4.5625-20.898437 0-41.691406-1.535156-61.90625-4.5625zm173.75 4.679688v1.90625c0 14.847656 9.546875 27.714843 23.761719 32.019531 7.34375 2.222656 12.433594 8.59375 13.042969 16.125h-88.445313c.609375-7.53125 5.699219-13.902344 13.042969-16.125 13.59375-4.117188 22.917969-16.0625 23.707031-30.085938 2.316407-.546875 12.238281-3.089843 14.890625-3.839843zm44.523438-239.488282c10.988281 2.4375 21.875 5.304688 32.691406 8.410156v53.429688h-42.113281v-63.867188c3.140625.660157 6.285156 1.328126 9.421875 2.027344zm23.171875 132.925782c-10.785157 2.902343-21.660157 5.492187-32.59375 7.78125v-63.867188h42.113281v53.433594c0 .453125-8.609375 2.40625-9.519531 2.652344zm9.519531 41.929687c0 9.6875-5.289062 18.59375-13.804688 23.242187-8.929687 4.871094-18.410156 9.394532-28.308593 13.507813v-55.574219c.179687-.035156.359375-.078125.542969-.117187 13.964843-2.867188 27.839843-6.195313 41.570312-10.039063zm0-211.027344v28.976563c-.453125-.125-.917969-.242188-1.371094-.367188-13.464844-3.726562-27.058594-6.984375-40.742187-9.789062v-55.574219c9.890625 4.105469 19.375 8.632813 28.308593 13.507813 8.515626 4.648437 13.804688 13.554687 13.804688 23.246093zm-57.113281 253.574219c-4.777344 1.710938-9.636719 3.320312-14.554688 4.839844-.085937.023437-.171875.035156-.257812.0625-13.203125 4.070312-26.648438 7.394531-40.222657 9.96875v-325.867188c19.121094 3.625 37.578126 8.613282 55.035157 14.875zm-70.035157-313.53125v66.890625c-.097656-.007813-.195312-.015625-.289062-.019531-24.296875-1.972656-48.710938-2.691406-73.082031-2.332032-4.140625.058594-7.449219 3.464844-7.386719 7.609376.054688 4.042968 3.449219 7.390624 7.496094 7.390624h.109375c24.425781 0 48.796875.433594 73.152343 2.410157v76.019531h-123.816406v-76.027344c2.054688-.164062 4.125-.320312 6.203125-.472656 4.914063-.351562 9.832031-.664062 14.75-.925781 4.136719-.222657 7.3125-3.753907 7.089844-7.890625-.21875-4.136719-3.761719-7.3125-7.886719-7.089844-6.71875.367188-13.449218.800781-20.15625 1.332031v-66.894531c20.214844-3.027344 41.007813-4.5625 61.90625-4.5625 20.902344 0 41.695313 1.535156 61.910156 4.5625zm-138.816406 328.402344c-13.582031-2.574219-27.007812-5.933594-40.226562-9.96875-.085938-.027344-.171875-.039063-.257813-.0625-4.917969-1.519532-9.773437-3.128906-14.546875-4.839844v-296.121094c17.453125-6.261718 35.910156-11.25 55.03125-14.875zm-112.140625-268.449219c0-9.6875 5.289063-18.59375 13.804688-23.242187 8.925781-4.875 18.410156-9.398438 28.304687-13.503907v55.574219c-.183594.035156-.367187.078125-.550781.117188-13.960937 2.867187-27.835937 6.183593-41.558594 10.039062zm-87.214843 40.792969c0-4.746094 3.863281-8.613282 8.613281-8.613282h35.691406c4.75 0 8.613281 3.867188 8.613281 8.613282 0 4.75-3.863281 8.613281-8.613281 8.613281h-35.691406c-4.75 0-8.613281-3.863281-8.613281-8.613281zm17.976562 38.722656v-15.109375h16.964844v14.207031h-6.542969c-3.484375 0-6.988281.296875-10.421875.902344zm-10.847656 59.175781v11.039063c0 1.097656-.890625 1.988281-1.988282 1.988281h-19.832031c-1.097656 0-1.988281-.890625-1.988281-1.988281v-11.039063c0-20.957031 14.371094-38.617187 33.777344-43.644531 3.679687-.953125 7.5-1.4375 11.300781-1.4375h43.816406v23.808594h-43.816406c-11.726563.003906-21.269531 9.542968-21.269531 21.273437zm0 0"/></svg>