<svg height="511pt" viewBox="1 -10 511.999 511" width="511pt" xmlns="http://www.w3.org/2000/svg"><path d="m199 357.753906v-88.519531l-54.667969-74.03125h-73.332031l-63.5-25.179687 30.832031-42.582032-30.832031-17.882812 25.5-35.449219-25.5-23.292969 20.167969-23.375h141.332031l22.796875-19.441406 90.566406 20.109375 104.636719 100.664063 51.332031 148v80.980468zm0 0" fill="#ff7f5a"/><path d="m462.0625 318.273438c0 21.671874-1.753906 43.078124-5.253906 64.128906h-57.527344c4.066406-20.75 6.195312-42.195313 6.195312-64.128906 0-141.671876-88.753906-262.617188-213.679687-310.273438h115.667969c14.324218 10.820312 27.941406 22.671875 40.796875 35.527344 35.65625 35.667968 63.664062 77.21875 83.242187 123.484375 20.277344 47.945312 30.558594 98.835937 30.558594 151.261719zm0 0" fill="#ff7f5a"/><path d="m405.476562 318.273438c0 21.933593-2.128906 43.378906-6.195312 64.128906h-57.859375c4.933594-20.769532 7.46875-42.25 7.46875-64.128906 0-73.5625-28.648437-142.707032-80.660156-194.71875-52.011719-52.007813-121.15625-80.660157-194.714844-80.660157-22.539063 0-44.671875 2.6875-66.015625 7.921875v-42.816406h184.296875c124.929687 47.65625 213.679687 168.601562 213.679687 310.273438zm0 0" fill="#ffb44d"/><path d="m7.5 50.816406c21.34375-5.234375 43.476562-7.921875 66.015625-7.921875 73.558594 0 142.707031 28.652344 194.714844 80.660157 52.011719 52.011718 80.660156 121.15625 80.660156 194.71875 0 21.878906-2.535156 43.363281-7.46875 64.128906h-58.609375c6.25-20.511719 9.496094-42.070313 9.496094-64.128906 0-58.441407-22.757813-113.386719-64.082032-154.710938-41.328124-41.328125-96.269531-64.082031-154.710937-64.082031-22.730469 0-44.9375 3.441406-66.015625 10.078125zm0 0" fill="#ffe76c"/><path d="m7.5 109.558594c21.078125-6.636719 43.285156-10.078125 66.015625-10.078125 58.441406 0 113.386719 22.753906 154.710937 64.082031 41.324219 41.324219 64.082032 96.269531 64.082032 154.710938 0 22.058593-3.246094 43.617187-9.496094 64.128906h-60.214844c8.609375-19.992188 13.125-41.710938 13.125-64.128906 0-43.324219-16.871094-84.058594-47.511718-114.699219-30.640626-30.640625-71.371094-47.511719-114.695313-47.511719-23.125 0-45.511719 4.8125-66.015625 13.957031zm0 0" fill="#1fd7c3"/><path d="m7.5 235.808594c18.671875-15.011719 41.710938-23.160156 66.015625-23.160156 28.214844 0 54.734375 10.984374 74.679687 30.941406 19.957032 19.945312 30.945313 46.464844 30.945313 74.683594 0 23.488281-7.613281 45.804687-21.691406 64.128906h65.148437c8.609375-19.996094 13.125-41.714844 13.125-64.128906 0-43.328126-16.871094-84.058594-47.511718-114.699219-30.640626-30.640625-71.371094-47.511719-114.695313-47.511719-23.125 0-45.511719 4.808594-66.015625 13.957031zm0 0" fill="#5bd6fd"/><path d="m456.808594 382.402344c3.5-21.050782 5.253906-42.457032 5.253906-64.128906 0-3.613282-.054688-7.214844-.152344-10.808594-8.238281-22.722656-22.25-43.167969-40.824218-59.152344-8.476563-7.292969-17.730469-13.496094-27.546876-18.542969 7.777344 28.179688 11.9375 57.855469 11.9375 88.503907 0 21.933593-2.128906 43.378906-6.195312 64.128906zm0 0" fill="#ff5d29"/><path d="m348.894531 318.273438c0 21.878906-2.539062 43.359374-7.46875 64.128906h57.855469c4.066406-20.75 6.195312-42.195313 6.195312-64.128906 0-30.648438-4.160156-60.324219-11.9375-88.5-19.890624-10.230469-42.078124-15.6875-64.765624-15.6875-.070313 0-.136719 0-.207032 0 13.332032 32.632812 20.328125 67.871093 20.328125 104.1875zm0 0" fill="#e7a25d"/><path d="m341.425781 382.402344c4.929688-20.769532 7.46875-42.25 7.46875-64.128906 0-36.316407-6.996093-71.554688-20.328125-104.1875-19.902344.03125-39.085937 4.203124-56.582031 11.847656 13.304687 28.550781 20.324219 59.902344 20.324219 92.339844 0 22.054687-3.242188 43.613281-9.496094 64.128906zm0 0" fill="#ffb44d"/><path d="m282.8125 382.402344c6.253906-20.511719 9.496094-42.070313 9.496094-64.128906 0-32.4375-7.019532-63.789063-20.324219-92.339844-17.847656 7.800781-33.921875 19.222656-47.1875 33.578125 7.171875 18.488281 10.925781 38.335937 10.925781 58.761719 0 22.417968-4.515625 44.136718-13.125 64.128906zm0 0" fill="#00bbc9"/><path d="m222.597656 382.402344c8.609375-19.992188 13.125-41.710938 13.125-64.128906 0-20.425782-3.753906-40.273438-10.925781-58.761719-6.511719 7.042969-12.351563 14.777343-17.382813 23.148437-11.167968 1.207032-21.863281 4.003906-31.867187 8.148438 2.363281 8.847656 3.589844 18.0625 3.589844 27.464844 0 23.492187-7.609375 45.804687-21.691407 64.128906zm0 0" fill="#00acfb"/><path d="m430.78125 484.882812c40.714844 0 73.71875-33.003906 73.71875-73.71875 0-37.949218-28.679688-69.1875-65.542969-73.253906-8.511719-53.1875-54.597656-93.824218-110.183593-93.824218-46.207032 0-85.851563 28.082031-102.804688 68.109374-1.972656-.136718-3.957031-.207031-5.960938-.207031-47.746093 0-86.449218 38.703125-86.449218 86.445313 0 47.746094 38.703125 86.449218 86.449218 86.449218zm0 0" fill="#ececee"/><path d="m257.800781 344.710938c-4.140625 0-7.5 3.359374-7.5 7.5v11.082031c0 4.144531 3.359375 7.5 7.5 7.5 4.144531 0 7.5-3.355469 7.5-7.5v-11.082031c0-4.140626-3.359375-7.5-7.5-7.5zm0 0"/><path d="m380.257812 344.710938c-4.144531 0-7.5 3.359374-7.5 7.5v11.082031c0 4.144531 3.355469 7.5 7.5 7.5 4.140626 0 7.5-3.355469 7.5-7.5v-11.082031c0-4.140626-3.359374-7.5-7.5-7.5zm0 0"/><path d="m339.074219 356.875c-3.117188-2.722656-7.855469-2.40625-10.582031.710938-2.289063 2.621093-5.738282 4.121093-9.464844 4.121093-3.726563 0-7.175782-1.5-9.464844-4.121093-2.726562-3.117188-7.464844-3.4375-10.582031-.710938-3.121094 2.726562-3.4375 7.464844-.710938 10.582031 5.136719 5.878907 12.703125 9.25 20.757813 9.25 8.054687 0 15.621094-3.371093 20.757812-9.25 2.726563-3.117187 2.410156-7.855469-.710937-10.582031zm0 0"/><path d="m0 235.808594c0 6.171875 7.390625 9.71875 12.199219 5.847656 17.5-14.070312 38.703125-21.507812 61.316406-21.507812 26.210937 0 50.847656 10.207031 69.378906 28.746093 18.453125 18.445313 28.648438 42.949219 28.742188 69.027344-27.289063 16.457031-45.578125 46.386719-45.578125 80.511719 0 51.804687 42.144531 93.949218 93.945312 93.949218h210.777344c44.785156 0 81.21875-36.433593 81.21875-81.21875 0-30.878906-17.21875-58.003906-43.011719-71.71875.375-7.105468.574219-14.207031.574219-21.171874 0-53.4375-10.480469-105.308594-31.152344-154.183594-19.957031-47.167969-48.503906-89.515625-84.847656-125.867188-13.03125-13.03125-27.023438-25.214844-41.582031-36.207031-1.300781-.984375-2.886719-1.515625-4.519531-1.515625h-299.960938c-4.140625 0-7.5 3.359375-7.5 7.5zm186.390625 74.886718c-1.796875-27.367187-13.316406-52.84375-32.886719-72.40625-21.363281-21.371093-49.769531-33.140624-79.988281-33.140624-21.019531 0-40.984375 5.578124-58.515625 16.246093v-46.414062c.140625-.058594.277344-.113281.417969-.171875 14.40625-5.820313 29.6875-9.441406 45.171875-10.710938 4.128906-.335937 7.199218-3.960937 6.859375-8.085937-.328125-3.984375-4.105469-7.199219-8.09375-6.863281-15.113281 1.28125-30.113281 4.503906-44.355469 9.738281 0 0 0-43.679688 0-43.738281 0-.167969 2.800781-.789063 2.992188-.839844 18.074218-4.886719 36.800781-7.328125 55.523437-7.328125 56.4375 0 109.5 21.976562 149.40625 61.882812 22.730469 22.734375 40.21875 50.730469 50.660156 81.132813.011719.03125.023438.0625.035157.097656-13.339844 6.960938-25.292969 16.417969-35.175782 27.925781-.015625-.074219-.039062-.152343-.058594-.226562-7.304687-29.988281-23.058593-57.710938-44.867187-79.519531-14.917969-14.914063-31.957031-26.675782-50.542969-35.007813-16.398437-7.351563-34.003906-12.035156-52.417968-13.859375-4.007813-.402344-7.808594 2.707031-8.203126 6.722656-.394531 4.019532 2.710938 7.808594 6.722657 8.203125 35.792969 3.550781 68.238281 18.953125 93.832031 44.546875 23.121094 23.121094 38.5 53.273438 43.496094 85.589844.011718.085938.023437.171875.035156.257812-1.371094 2.304688-4.800781 8.863282-5.230469 9.765626-.402343-.003907-.804687-.007813-1.226562-.007813-9.980469.003906-19.953125 1.597656-29.429688 4.734375-1.398437.464844-2.785156.949219-4.160156 1.476562zm310.609375 100.46875c0 36.511719-29.703125 66.21875-66.21875 66.21875h-210.773438c-43.535156 0-78.949218-35.417968-78.949218-78.949218 0-33.929688 21.519531-62.925782 51.625-74.066406 10.4375-3.863282 21.671875-5.449219 32.777344-4.691407 3.109374.214844 6.1875-1.679687 7.414062-4.554687 2.132812-5.035156 4.730469-10.003906 7.730469-14.769532 19.5625-31.105468 56.105469-50.308593 92.855469-48.660156 40.117187 1.796875 76.699218 28.035156 91.875 65.125 2.929687 7.171875 4.992187 14.632813 6.214843 22.28125.535157 3.332032 3.230469 5.898438 6.585938 6.269532.015625 0 .035156.003906.054687.007812 7.046875.78125 14.148438 2.679688 20.5625 5.734375 22.78125 10.570313 38.246094 33.625 38.246094 60.054687zm-192.0625-395.664062c13.289062 10.179688 26.070312 21.382812 38.019531 33.328125 34.972657 34.980469 62.4375 75.726563 81.640625 121.105469 19.882813 47.015625 29.964844 96.921875 29.964844 148.339844 0 4.988281-.101562 10.054687-.304688 15.140624-2.917968-.878906-5.898437-1.613281-8.902343-2.148437-.054688-.257813-.121094-.507813-.175781-.765625-1.140626-5.265625-2.640626-10.433594-4.484376-15.496094-6.152343-16.871094-16.136718-32.304687-29.035156-44.800781-.792968-.769531-1.589844-1.542969-2.402344-2.296875-.085937-.566406-.179687-1.128906-.269531-1.695312-.394531-2.566407-.8125-5.125-1.265625-7.679688-7.949218-44.789062-25.046875-87.859375-49.914062-125.941406-32.363282-49.5625-77.808594-90.289063-130.585938-117.089844zm-289.9375 0h175.382812c.730469.285156 1.464844.574219 2.195313.859375 65.554687 25.863281 121.777344 73.226563 158.363281 133.460937 19.207032 31.628907 32.933594 66.558594 40.375 102.8125.132813.632813.257813 1.269532.386719 1.902344-14.230469-8.894531-30.125-14.632812-46.910156-16.882812-.152344-.519532-3.722657-11.765625-5.558594-16.800782-12.335937-33.816406-31.351563-65.117187-55.472656-91.824218-2.726563-3.023438-7.566407-3.277344-10.59375-.542969-3.109375 2.800781-3.144531 7.714844-.394531 10.757813 24.613281 27.332031 43.539062 59.597656 55.074218 94.542968.304688.929688.605469 1.863282.90625 2.796875-8.550781.003907-16.988281 1-25.351562 2.714844-.011719 0-.023438.003906-.035156.007813-5.425782 1.179687-10.792969 2.722656-15.992188 4.667968.769531-.285156-9.824219-23.734375-10.914062-25.933594-10.953126-22.066406-25.511719-42.363281-42.929688-59.78125-42.742188-42.742187-99.570312-66.28125-160.015625-66.28125-19.726563 0-39.449219 2.535157-58.515625 7.597657v-42.800781c.1875-.039063.378906-.082032.566406-.125 19.003906-4.171876 38.492188-6.253907 57.949219-6.253907 66.101563 0 129.523437 24.230469 178.582031 68.226563 3.082032 2.765625 7.824219 2.507812 10.589844-.574219 2.726562-3.042969 2.457031-7.871094-.574219-10.59375-19.429687-17.425781-40.996093-31.914063-64.039062-43.21875-38.410157-18.84375-80.929688-28.839844-124.558594-28.839844-19.542969 0-39.378906 2.03125-58.515625 6.027344zm0 0"/></svg>