<svg height="512pt" viewBox="0 -54 512 511" width="512pt" xmlns="http://www.w3.org/2000/svg"><path d="m361.730469 396.953125c-179.585938 0-222.679688-99.480469-243.164063-186.898437l20.304688-49.570313 34.59375-4.476563c13.183594 25.472657 28.984375 44.550782 55.917968 44.550782zm0 0" fill="#dd9882"/><path d="m229.382812 200.558594c-11.285156 0-20.609374-3.359375-28.613281-9.128906-7.734375 19.84375-11.804687 41.105468-11.804687 62.757812 0 47.050781 18.914062 89.765625 49.53125 120.953125 31.695312 13.664063 71.875 21.8125 123.234375 21.8125zm0 0" fill="#d86f42"/><path d="m469.445312 160.484375-107.714843-21.667969-107.710938 21.667969c-21.832031 25.074219-35.054687 57.84375-35.054687 93.703125 0 78.847656 63.917968 142.769531 142.769531 142.769531 78.847656 0 142.769531-63.921875 142.769531-142.769531-.003906-35.859375-13.226562-68.628906-35.058594-93.703125zm0 0" fill="#dd9882"/><path d="m469.445312 117.148438h-215.429687c-11.964844 0-21.667969 9.699218-21.667969 21.667968 0 11.964844 9.703125 21.667969 21.667969 21.667969h215.429687c11.96875 0 21.667969-9.703125 21.667969-21.667969 0-11.96875-9.699219-21.667968-21.667969-21.667968zm0 0" fill="#ffe76c"/><path d="m262.347656 138.816406c0-11.96875 9.703125-21.667968 21.667969-21.667968h-30c-11.964844 0-21.667969 9.699218-21.667969 21.667968 0 11.964844 9.703125 21.667969 21.667969 21.667969h30c-11.964844 0-21.667969-9.703125-21.667969-21.667969zm0 0" fill="#ffb44d"/><path d="m173.464844 156.007812-54.898438 54.046876c-16.078125-68.539063-18.246094-129.660157-61.371094-129.660157l-24.84375-26.277343 24.84375-26.269532c73.980469 0 89.8125 76.992188 116.269532 128.160156zm0 0" fill="#4a5660"/><path d="m43.085938 8h-21.46875c-7.796876 0-14.117188 6.320312-14.117188 14.117188v64.007812c0 7.796875 6.320312 14.113281 14.117188 14.113281h21.46875c7.792968 0 14.113281-6.316406 14.113281-14.113281v-64.007812c0-7.796876-6.320313-14.117188-14.113281-14.117188zm0 0" fill="#ffe76c"/><path d="m43.085938 70.242188h-21.46875c-7.796876 0-14.117188-6.320313-14.117188-14.117188v30c0 7.796875 6.320312 14.117188 14.117188 14.117188h21.46875c7.792968 0 14.113281-6.320313 14.113281-14.117188v-30c0 7.796875-6.320313 14.117188-14.113281 14.117188zm0 0" fill="#ffb44d"/><path d="m291.546875 248.21875c4.144531 0 7.5-3.359375 7.5-7.5v-12.703125c0-4.144531-3.355469-7.5-7.5-7.5-4.140625 0-7.5 3.355469-7.5 7.5v12.703125c0 4.140625 3.359375 7.5 7.5 7.5zm0 0"/><path d="m431.914062 248.21875c4.140626 0 7.5-3.359375 7.5-7.5v-12.703125c0-4.144531-3.359374-7.5-7.5-7.5-4.140624 0-7.5 3.355469-7.5 7.5v12.703125c0 4.140625 3.359376 7.5 7.5 7.5zm0 0"/><path d="m361.730469 255c8.917969 0 17.289062-3.730469 22.96875-10.230469 2.726562-3.117187 2.410156-7.855469-.710938-10.582031-3.117187-2.726562-7.855469-2.40625-10.582031.710938-2.832031 3.242187-7.089844 5.101562-11.675781 5.101562-4.585938 0-8.839844-1.859375-11.675781-5.101562-2.726563-3.117188-7.460938-3.4375-10.582032-.710938-3.117187 2.726562-3.4375 7.464844-.710937 10.582031 5.679687 6.5 14.054687 10.230469 22.96875 10.230469zm0 0"/><path d="m21.617188 107.738281h21.46875c11.035156 0 20.164062-8.316406 21.453124-19.015625 13.492188 3.25 22.132813 16.386719 29.5625 43.863282 1.082032 4 5.195313 6.363281 9.199219 5.28125 3.996094-1.082032 6.359375-5.199219 5.28125-9.195313-6.84375-25.3125-17.460937-51.136719-43.882812-55.21875v-37.800781c49.21875 4.085937 68.5625 48.566406 87.292969 91.644531 4.136718 9.511719 8.082031 18.582031 12.316406 27.203125l-41.382813 40.738281c-1.789062-8.308593-6.589843-32.296875-7.371093-36.109375-.828126-4.058594-4.792969-6.675781-8.851563-5.847656s-6.675781 4.792969-5.84375 8.851562c.773437 3.792969 7.328125 36.53125 10.402344 49.632813 9.371093 39.988281 25.085937 90.859375 63.742187 129.636719 19.765625 19.824218 44.277344 35.144531 72.863282 45.527344 31.773437 11.542968 69.777343 17.433593 112.964843 17.515624.300781 0 .597657.011719.898438.011719 82.859375 0 150.269531-67.410156 150.269531-150.269531 0-32.28125-10.386719-63.570312-29.441406-89.328125 9.511718-4.808594 16.054687-14.675781 16.054687-26.042969 0-16.082031-13.085937-29.167968-29.167969-29.167968h-30.074218c-4.140625 0-7.5 3.355468-7.5 7.5 0 4.140624 3.359375 7.5 7.5 7.5h30.074218c7.8125 0 14.167969 6.355468 14.167969 14.167968s-6.355469 14.167969-14.167969 14.167969h-215.429687c-7.8125 0-14.167969-6.355469-14.167969-14.167969s6.355469-14.167968 14.167969-14.167968h155.355469c4.144531 0 7.5-3.359376 7.5-7.5 0-4.144532-3.355469-7.5-7.5-7.5h-155.355469c-16.082031 0-29.167969 13.082031-29.167969 29.167968 0 11.367188 6.542969 21.234375 16.054688 26.042969-6.464844 8.742187-11.933594 18.113281-16.335938 27.953125-17.617187-1.796875-30.769531-13.839844-44.4375-40.25 0-.003906 0-.003906 0-.003906-4.980468-9.628906-9.546875-20.128906-14.378906-31.242188-19.769531-45.460937-42.078125-96.742187-101.109375-100.710937-.777344-11.21875-10.148437-20.105469-21.554687-20.105469h-21.46875c-11.921876 0-21.617188 9.695312-21.617188 21.617188v64.007812c0 11.917969 9.695312 21.613281 21.617188 21.613281zm444.359374 60.246094c20.03125 24.203125 31.023438 54.679687 31.023438 86.203125 0 74.585938-60.683594 135.269531-135.269531 135.269531-5.757813 0-11.527344-.363281-17.238281-1.09375-64.132813-8.195312-114.371094-61.472656-117.835938-126.953125-.285156-5.390625-.246094-10.796875.105469-16.183594 1.875-28.300781 12.597656-55.339843 30.726562-77.242187zm-247.003906 39.167969c-4.253906 12.902344-6.710937 26.285156-7.339844 39.957031-.246093 5.019531-.222656 10.0625.042969 15.082031 1.929688 36.976563 17.203125 71.503906 43.5 97.949219 8.046875 8.089844 16.851563 15.152344 26.261719 21.121094-39.59375-9.097657-71.257812-25.820313-95.808594-50.449219-18.550781-18.601562-41.878906-48.839844-58.785156-118.378906l44.8125-44.117188c10.203125 17.503906 24.582031 34.753906 47.316406 38.835938zm-203.972656-185.035156c0-3.648438 2.96875-6.617188 6.617188-6.617188h21.46875c3.644531 0 6.613281 2.96875 6.613281 6.617188v64.007812c0 3.648438-2.96875 6.613281-6.613281 6.613281h-21.46875c-3.648438 0-6.617188-2.964843-6.617188-6.613281zm0 0"/></svg>