<svg height="512pt" viewBox="0 0 512 512" width="512pt" xmlns="http://www.w3.org/2000/svg"><path d="m467.980469 256c0 58.53125-23.722657 111.53125-62.09375 149.886719-38.355469 38.367187-91.355469 62.09375-149.886719 62.09375s-111.53125-23.726563-149.886719-62.09375c-38.367187-38.355469-62.09375-91.355469-62.09375-149.886719s23.722657-111.53125 62.09375-149.886719c38.355469-38.367187 91.355469-62.09375 149.886719-62.09375s111.53125 23.726563 149.886719 62.09375c38.371093 38.355469 62.09375 91.355469 62.09375 149.886719zm0 0" fill="#ffe76c"/><path d="m148.132812 393.867188c-35.289062-35.28125-57.113281-84.03125-57.113281-137.867188s21.824219-102.585938 57.113281-137.867188c31.972657-31.984374 75.007813-52.902343 122.867188-56.542968-4.949219-.378906-9.953125-.570313-15-.570313-53.835938 0-102.585938 21.824219-137.867188 57.113281-35.289062 35.28125-57.113281 84.03125-57.113281 137.867188s21.824219 102.585938 57.113281 137.867188c35.28125 35.289062 84.03125 57.113281 137.867188 57.113281 5.046875 0 10.050781-.191407 15-.570313-47.859375-3.640625-90.894531-24.558594-122.867188-56.542968zm0 0" fill="#ffb44d"/><path d="m504.5 256-26 15-28.519531-15c0-53.558594-21.710938-102.058594-56.820313-137.160156l10.339844-29.839844 28.21875-8.71875c44.960938 44.980469 72.78125 107.097656 72.78125 175.71875zm0 0" fill="#1fd7c3"/><path d="m431.71875 431.71875c-44.980469 44.960938-107.097656 72.78125-175.71875 72.78125l-15-28 15-26.519531c53.558594 0 102.058594-21.710938 137.160156-56.820313l27.339844 7.339844zm0 0" fill="#1fd7c3"/><path d="m118.839844 393.160156-9.339844 29.839844-29.21875 8.71875c-44.960938-44.980469-72.78125-107.097656-72.78125-175.71875l27-10 27.519531 10c0 53.558594 21.710938 102.058594 56.820313 137.160156zm0 0" fill="#1fd7c3"/><path d="m256 7.5c-68.621094 0-130.738281 27.820312-175.71875 72.78125l5.71875 34.71875 32.839844 3.839844c35.101562-35.109375 83.601562-56.820313 137.160156-56.820313l15-29.019531zm0 0" fill="#1fd7c3"/><g fill="#00bbc9"><path d="m431.71875 80.28125-38.558594 38.558594c-35.101562-35.109375-83.601562-56.820313-137.160156-56.820313v-54.519531c68.621094 0 130.738281 27.820312 175.71875 72.78125zm0 0"/><path d="m504.5 256c0 68.621094-27.820312 130.738281-72.78125 175.71875l-38.558594-38.558594c35.109375-35.101562 56.820313-83.601562 56.820313-137.160156zm0 0"/><path d="m256 449.980469v54.519531c-68.621094 0-130.738281-27.820312-175.71875-72.78125l38.558594-38.558594c35.101562 35.109375 83.601562 56.820313 137.160156 56.820313zm0 0"/><path d="m118.839844 118.839844c-35.109375 35.101562-56.820313 83.601562-56.820313 137.160156h-54.519531c0-68.621094 27.820312-130.738281 72.78125-175.71875zm0 0"/><path d="m277.96875 373.085938-16.46875-137.710938h-11l-16.46875 137.710938c-.816406 6.804687 4.5 12.789062 11.351562 12.789062h21.234376c6.851562 0 12.167968-5.984375 11.351562-12.789062zm0 0"/></g><path d="m257.828125 282.007812c86.375 126.191407 183.632813 45.429688 123.242187-3.371093 49.03125-39.625-5.851562-100.300781-74.457031-54.207031 52.6875-70.925782-10.015625-129.773438-50.613281-79.539063-40.597656-50.234375-103.300781 8.609375-50.613281 79.539063-68.605469-46.09375-123.488281 14.582031-74.457031 54.207031-60.390626 48.800781 36.867187 129.5625 123.242187 3.371093.410156-.601562 1.097656-.96875 1.828125-.96875s1.417969.367188 1.828125.96875zm0 0" fill="#1fd7c3"/><path d="m405.050781 231.539062c-6.695312-18.929687-26.390625-31.164062-50.179687-31.164062-9.277344 0-18.910156 1.847656-28.578125 5.433594 9.894531-22.167969 10.75-44.257813 1.796875-62.0625-7.914063-15.730469-22.230469-25.125-38.304688-25.125-11.933594 0-23.695312 5.320312-33.785156 15.136718-10.089844-9.816406-21.851562-15.136718-33.785156-15.136718-16.074219 0-30.394532 9.394531-38.308594 25.125-8.953125 17.804687-8.097656 39.894531 1.800781 62.0625-9.667969-3.585938-19.300781-5.433594-28.578125-5.433594-23.789062 0-43.488281 12.230469-50.183594 31.164062-5.625 15.914063-.820312 33.046876 12.855469 47.097657-13.671875 14.046875-18.480469 31.179687-12.851562 47.097656 6.695312 18.929687 26.390625 31.164063 50.183593 31.164063 15.957032 0 44.148438-5.574219 75.714844-37.074219 0 0-6.261718 52.34375-6.261718 52.367187-1.328126 11.105469 7.632812 21.183594 18.796874 21.183594h21.234376c11.179687 0 20.125-10.082031 18.800781-21.183594l-6.265625-52.367187c31.5625 31.492187 59.753906 37.074219 75.726562 37.074219 23.785156 0 43.480469-12.226563 50.175782-31.15625 5.628906-15.917969.820312-33.054688-12.855469-47.105469 13.671875-14.046875 18.476562-31.179688 12.851562-47.097657zm-135.511719 145.496094c-.722656.816406-1.769531 1.339844-2.921874 1.339844h-21.234376c-2.335937 0-4.183593-2.09375-3.90625-4.398438l8.851563-73.996093c1.882813-2.414063 3.777344-4.925781 5.671875-7.542969 1.894531 2.617188 3.789062 5.128906 5.671875 7.542969 0 0 8.839844 73.878906 8.851563 73.996093.136718 1.144532-.261719 2.246094-.984376 3.058594zm121.371094-56.292968c-4.542968 12.855468-18.6875 21.160156-36.042968 21.160156-29.683594-.007813-62.597657-23.136719-90.394532-63.476563-1.984375-2.878906-4.859375-4.886719-8.472656-4.886719-3.949219 0-6.816406 2.496094-8.960938 5.582032-27.695312 39.914062-60.398437 62.78125-89.90625 62.78125-17.347656 0-31.496093-8.308594-36.042968-21.167969-4.28125-12.113281 1.023437-25.328125 14.550781-36.265625 3.667969-2.960938 3.664063-8.707031 0-11.664062-13.53125-10.9375-18.835937-24.15625-14.554687-36.265626 4.546874-12.855468 18.691406-21.160156 36.042968-21.160156 13.957032 0 29.195313 5.28125 44.070313 15.273438 6.777343 4.554687 15.109375-4.09375 10.207031-10.695313-27.128906-36.523437-17.648438-62.40625-14.097656-69.46875 5.308594-10.558593 14.621094-16.863281 24.90625-16.863281 9.695312 0 19.621094 5.675781 27.949218 15.980469 2.960938 3.664062 8.703126 3.667969 11.667969 0 8.328125-10.304688 18.253907-15.980469 27.953125-15.980469 10.28125 0 19.589844 6.304688 24.902344 16.863281 3.550781 7.0625 13.03125 32.949219-14.09375 69.46875-4.882812 6.574219 3.363281 15.292969 10.203125 10.699219 14.875-9.996094 30.113281-15.277344 44.070313-15.277344 17.347656 0 31.496093 8.308594 36.039062 21.164063 4.285156 12.109375-1.019531 25.328125-14.550781 36.261719-3.660157 2.957031-3.644531 8.71875 0 11.667968 13.535156 10.933594 18.839843 24.15625 14.554687 36.269532zm0 0"/><path d="m0 256c0 68.363281 26.628906 132.652344 74.976562 181.023438 0 0 .003907 0 .003907.003906 48.371093 48.347656 112.65625 74.972656 181.019531 74.972656s132.652344-26.625 181.023438-74.976562c48.347656-48.371094 74.976562-112.660157 74.976562-181.023438s-26.628906-132.652344-74.976562-181.023438c0 0-.003907 0-.003907-.003906-48.367187-48.34375-112.65625-74.972656-181.015625-74.972656h-.003906c-41.671875 0-83.0625 10.261719-119.695312 29.671875-3.660157 1.9375-5.054688 6.480469-3.113282 10.140625 1.9375 3.660156 6.480469 5.054688 10.136719 3.113281 32.28125-17.105469 68.492187-26.660156 105.171875-27.808593v39.539062c-48.519531 1.765625-94.019531 20.613281-129.5625 53.671875l-27.964844-27.964844c8.375-7.859375 17.363282-15.171875 26.800782-21.789062 3.390624-2.378907 4.210937-7.058594 1.832031-10.449219-2.378907-3.390625-7.054688-4.210938-10.445313-1.832031-12.203125 8.558593-23.703125 18.207031-34.183594 28.683593-48.347656 48.371094-74.976562 112.660157-74.976562 181.023438zm80.359375-165.03125 27.96875 27.964844c-33.058594 35.546875-51.910156 81.046875-53.671875 129.566406h-39.542969c1.792969-59.054688 24.75-114.480469 65.246094-157.53125zm-25.703125 172.53125c1.761719 48.519531 20.609375 94.019531 53.671875 129.566406l-27.96875 27.964844c-40.496094-43.050781-63.453125-98.476562-65.246094-157.53125zm193.84375 233.386719c-59.054688-1.792969-114.480469-24.75-157.53125-65.25l27.96875-27.964844c35.542969 33.0625 81.042969 51.910156 129.5625 53.671875zm15 0v-39.542969c48.519531-1.761719 94.019531-20.609375 129.5625-53.671875l27.96875 27.964844c-43.050781 40.5-98.476562 63.457031-157.53125 65.25zm168.136719-75.855469-27.96875-27.96875c6.382812-6.878906 12.316406-14.246094 17.707031-21.972656 2.367188-3.398438 1.535156-8.074219-1.863281-10.441406-3.398438-2.371094-8.070313-1.535157-10.441407 1.863281-6.324218 9.066406-13.460937 17.59375-21.214843 25.34375v.003906c-35.214844 35.222656-82.039063 54.621094-131.855469 54.621094s-96.640625-19.398438-131.855469-54.621094c0 0 0 0 0-.003906h-.003906c-35.222656-35.214844-54.621094-82.039063-54.621094-131.855469s19.398438-96.640625 54.625-131.855469c35.214844-35.226562 82.039063-54.625 131.855469-54.625 49.8125 0 96.640625 19.398438 131.851562 54.621094.003907 0 .003907.003906.003907.003906 35.226562 35.214844 54.625 82.039063 54.625 131.855469 0 29.136719-6.542969 57.054688-19.449219 82.980469-1.847656 3.707031-.335938 8.210937 3.371094 10.054687 3.707031 1.847656 8.210937.335938 10.058594-3.371094 12.835937-25.785156 19.847656-53.390624 20.886718-82.164062h39.539063c-1.792969 59.054688-24.75 114.480469-65.25 157.53125zm-38.574219-312.703125c-35.542969-33.058594-81.042969-51.910156-129.5625-53.671875v-39.542969c59.054688 1.792969 114.480469 24.75 157.53125 65.25zm64.28125 140.171875c-1.761719-48.519531-20.609375-94.019531-53.671875-129.5625l27.964844-27.96875c40.5 43.050781 63.457031 98.476562 65.25 157.53125zm0 0"/></svg>