<svg height="512pt" viewBox="-62 0 512 512" width="512pt" xmlns="http://www.w3.org/2000/svg"><path d="m193.605469 356.835938c-90.007813 0-163.234375-73.226563-163.234375-163.234376 0-90.003906 73.226562-163.230468 163.234375-163.230468 90.003906 0 163.230469 73.226562 163.230469 163.230468 0 90.007813-73.226563 163.234376-163.230469 163.234376zm0-281.539063c-65.234375 0-118.308594 53.070313-118.308594 118.304687 0 65.234376 53.074219 118.308594 118.308594 118.308594s118.304687-53.074218 118.304687-118.308594c0-65.234374-53.070312-118.304687-118.304687-118.304687zm0 0" fill="#a5b0bc"/><g fill="#ececee"><path d="m241.023438 7.5h-94.835938c-14.589844 0-25.570312 13.289062-22.820312 27.621094l23.980468 124.792968h92.515625l23.976563-124.792968c2.753906-14.332032-8.226563-27.621094-22.816406-27.621094zm0 0"/><path d="m241.023438 504.5h-94.835938c-14.589844 0-25.570312-13.289062-22.820312-27.621094l23.980468-249.589844h92.515625l23.976563 249.589844c2.753906 14.332032-8.226563 27.621094-22.816406 27.621094zm0 0"/><path d="m7.503906 146.183594v94.835937c0 14.589844 13.289063 25.570313 27.617188 22.820313l124.796875-23.980469v-92.515625l-124.796875-23.976562c-14.328125-2.753907-27.617188 8.226562-27.617188 22.816406zm0 0"/><path d="m379.707031 146.183594v94.835937c0 14.589844-13.292969 25.570313-27.621093 22.820313l-124.796876-23.980469v-92.515625l124.796876-23.976562c14.328124-2.753907 27.621093 8.226562 27.621093 22.816406zm0 0"/></g><path d="m176.214844 124.972656-15.859375-82.53125h66.496093l-15.859374 82.53125zm0 0" fill="#1fd7c3"/><path d="m176.214844 262.230469-15.859375 207.328125h66.496093l-15.859374-207.328125zm0 0" fill="#1fd7c3"/><path d="m124.976562 210.992188-82.53125 15.859374v-66.496093l82.53125 15.859375zm0 0" fill="#1fd7c3"/><path d="m262.234375 210.992188 82.53125 15.859374v-66.496093l-82.53125 15.859375zm0 0" fill="#1fd7c3"/><path d="m79.199219 193.601562c0 21.425782 5.925781 41.492188 16.214843 58.652344l64.503907-12.394531v-92.515625l-64.503907-12.394531c-10.289062 17.164062-16.214843 37.230469-16.214843 58.652343zm0 0" fill="#dadadc"/><path d="m140.832031 295.085938c15.800781 8.25 33.75 12.921874 52.773438 12.921874 19.023437 0 36.96875-4.671874 52.769531-12.921874l-6.511719-67.796876h-92.515625zm0 0" fill="#dadadc"/><path d="m227.289062 239.859375 64.503907 12.394531c10.292969-17.160156 16.214843-37.226562 16.214843-58.652344 0-21.421874-5.921874-41.488281-16.214843-58.648437l-64.503907 12.394531zm0 0" fill="#dadadc"/><path d="m134.953125 95.410156 12.394531 64.503906h92.515625l12.394531-64.503906c-17.164062-10.289062-37.230468-16.214844-58.652343-16.214844-21.425781 0-41.492188 5.925782-58.652344 16.214844zm0 0" fill="#dadadc"/><path d="m79.199219 193.601562c0 8.808594 1.003906 17.386719 2.894531 25.628907l42.882812-8.238281v-34.777344l-42.882812-8.242188c-1.890625 8.242188-2.894531 16.820313-2.894531 25.628906zm0 0" fill="#00bbc9"/><path d="m172.859375 306.117188c6.730469 1.238281 13.660156 1.890624 20.746094 1.890624 7.082031 0 14.015625-.652343 20.746093-1.890624l-3.359374-43.886719h-34.777344zm0 0" fill="#00bbc9"/><path d="m262.234375 210.992188 42.878906 8.238281c1.894531-8.242188 2.894531-16.820313 2.894531-25.628907 0-8.808593-1-17.386718-2.894531-25.628906l-42.878906 8.242188zm0 0" fill="#00bbc9"/><path d="m176.214844 124.972656h34.777344l8.242187-42.878906c-8.242187-1.894531-16.820313-2.894531-25.628906-2.894531-8.808594 0-17.386719 1-25.628907 2.894531zm0 0" fill="#00bbc9"/><path d="m278.007812 193.601562c0 46.617188-37.789062 84.40625-84.402343 84.40625-46.617188 0-84.40625-37.789062-84.40625-84.40625 0-46.613281 37.789062-84.402343 84.40625-84.402343 46.613281 0 84.402343 37.789062 84.402343 84.402343zm0 0" fill="#1fd7c3"/><path d="m146.179688 174.667969c-4.140626 0-7.5 3.355469-7.5 7.5v8.582031c0 4.140625 3.359374 7.5 7.5 7.5 4.144531 0 7.5-3.359375 7.5-7.5v-8.582031c0-4.144531-3.355469-7.5-7.5-7.5zm0 0"/><path d="m241.027344 174.667969c-4.140625 0-7.5 3.355469-7.5 7.5v8.582031c0 4.140625 3.359375 7.5 7.5 7.5s7.5-3.359375 7.5-7.5v-8.582031c0-4.144531-3.359375-7.5-7.5-7.5zm0 0"/><path d="m210.246094 184.507812c-3.121094-2.726562-7.859375-2.410156-10.585938.707032-1.449218 1.664062-3.660156 2.617187-6.054687 2.617187-2.398438 0-4.609375-.953125-6.058594-2.617187-2.726563-3.117188-7.464844-3.4375-10.585937-.710938-3.117188 2.726563-3.4375 7.464844-.707032 10.585938 4.300782 4.917968 10.625 7.742187 17.351563 7.742187 6.722656 0 13.046875-2.824219 17.347656-7.742187 2.726563-3.121094 2.410156-7.859375-.707031-10.582032zm0 0"/><path d="m346.082031 270.320312s4.589844.882813 4.589844.882813c18.652344 3.585937 36.535156-11.226563 36.535156-30.183594 0 0 0-94.78125 0-94.835937 0-18.886719-18.011719-33.742188-36.535156-30.183594l-4.578125.878906c-5.777344-11.425781-12.84375-22.21875-21.074219-32.132812-2.644531-3.1875-7.375-3.628906-10.5625-.984375s-3.628906 7.375-.980469 10.5625c6.589844 7.941406 12.367188 16.492187 17.242188 25.511719l-31.175781 5.988281c-9.820313-15.296875-22.871094-28.347657-38.160157-38.164063l5.988282-31.171875c9.167968 4.953125 17.847656 10.835938 25.890625 17.554688 3.179687 2.652343 7.910156 2.226562 10.566406-.949219 2.652344-3.179688 2.226563-7.910156-.949219-10.566406-10.027344-8.371094-20.957031-15.554688-32.554687-21.414063 0 0 .878906-4.578125.878906-4.582031 3.59375-18.679688-11.191406-36.53125-30.183594-36.53125 0 0-94.785156 0-94.832031 0-19.003906 0-33.769531 17.871094-30.183594 36.535156l.878906 4.582032c-32.671874 16.5-59.265624 43.097656-75.761718 75.765624-3.460938-.664062-6.890625-1.441406-10.433594-1.441406-16.921875 0-30.6875 13.792969-30.6875 30.746094v94.832031c0 16.953125 13.765625 30.746094 30.6875 30.746094 3.539062 0 6.972656-.777344 10.429688-1.441406 7.546874 14.945312 17.242187 28.691406 28.890624 40.921875 2.855469 3 7.601563 3.117187 10.601563.261718 3-2.855468 3.117187-7.605468.261719-10.605468-9.636719-10.117188-17.808594-21.363282-24.382813-33.53125l31.171875-5.988282c11.261719 17.566407 26.613282 32.003907 44.824219 42.15625l-3.066406 31.9375c-9.453125-4.296874-18.484375-9.550781-26.945313-15.679687-3.355468-2.429687-8.046875-1.679687-10.476562 1.675781-2.429688 3.351563-1.679688 8.042969 1.675781 10.472656 10.667969 7.726563 22.164063 14.183594 34.234375 19.238282 0 0-11.960938 124.527344-11.972656 124.652344-1.792969 18.664062 10.375 36.164062 30.253906 36.164062h94.835938c18.847656 0 33.582031-17.609375 30.25-36.164062l-11.976563-124.667969c37.324219-15.648438 68.488281-44.683594 86.785156-80.847657zm7.417969-139.589843c9.570312-1.835938 18.707031 5.703125 18.707031 15.453125v94.835937c0 9.613281-9.078125 17.304688-18.707031 15.453125l-81.082031-15.578125c3.574219-5.917969 6.429687-12.167969 8.558593-18.664062 0 0 62.242188 11.957031 62.371094 11.984375 4.554688.875 8.917969-2.742188 8.917969-7.367188 0 0 0-66.414062 0-66.492187 0-4.636719-4.363281-8.242188-8.917969-7.367188l-62.371094 11.984375c-2.128906-6.496094-4.984374-12.746094-8.558593-18.664062zm-98.585938 108.8125c-14.441406 19.253906-37.941406 31.179687-62.058593 30.945312-41.257813-.40625-76.15625-35.585937-76.15625-76.886719 0-41.894531 35.917969-77.390624 77.847656-76.878906 41.015625.496094 75.960937 35.925782 75.960937 76.878906 0 16.789063-5.789062 32.875-15.59375 45.941407zm-36.160156 222.515625h-50.300781l13.558594-177.277344c.5.066406 1.003906.117188 1.507812.171875 7.207031.78125 14.484375.726563 21.675781-.171875zm-49.320312-412.117188h48.339844l-10.148438 52.820313c-2.039062-.3125-4.09375-.550781-6.164062-.726563-5.183594-.433594-10.492188-.4375-15.714844 0-2.070313.175782-4.125.414063-6.160156.726563zm115.734375 151.554688c.613281-7.308594.378906-14.664063-.722657-21.914063l52.820313-10.148437v48.339844l-52.820313-10.152344c.308594-2.023438.546876-4.066406.722657-6.125zm-152.238281-76.863282c-2.9375 2.589844-5.707032 5.359376-8.292969 8.296876l-20.929688-4.023438c6.992188-9.683594 15.515625-18.203125 25.203125-25.199219zm-30.886719 61.074219c-.449219 5.253907-.449219 10.535157 0 15.789063.171875 2.058594.414062 4.101562.71875 6.125l-52.816407 10.152344v-48.339844l52.816407 10.148437c-.308594 2.023438-.546875 4.066407-.71875 6.125zm181.457031-56.800781-20.929688 4.023438c-2.585937-2.9375-5.355468-5.707032-8.292968-8.296876l4.019531-20.929687c9.683594 6.992187 18.207031 15.515625 25.203125 25.203125zm-149.378906-108.140625c2.878906-3.480469 7.203125-5.765625 12.066406-5.765625h94.835938c9.707031 0 17.285156 9.171875 15.453124 18.703125l-15.582031 81.085937c-5.914062-3.574218-12.167969-6.429687-18.664062-8.558593 0 0 11.96875-62.285157 11.988281-62.371094.875-4.566406-2.726562-8.917969-7.367188-8.917969 0 0-66.386718 0-66.492187 0-4.628906 0-8.242187 4.375-7.367187 8.917969l11.984374 62.371094c-6.496093 2.128906-12.746093 4.984375-18.660156 8.558593 0 0-15.570312-81.023437-15.582031-81.082031-.921875-4.785156.511719-9.460937 3.386719-12.941406zm-14.285156 35.71875 5.988281 31.179687c-15.292969 9.820313-28.347657 22.871094-38.164063 38.160157l-31.171875-5.988281c14.480469-26.816407 36.53125-48.871094 63.347657-63.351563zm-86.117188 200.082031c-9.605469 1.175782-18.714844-5.398437-18.714844-15.546875 0 0 0-94.734375 0-94.835937 0-9.6875 9.210938-17.277344 18.703125-15.453125l81.082031 15.582031c-3.574218 5.914062-6.429687 12.164062-8.554687 18.664062 0 0-62.324219-11.976562-62.375-11.984374-4.554687-.875-8.914063 2.734374-8.914063 7.363281v66.496093c0 4.632813 4.359376 8.238282 8.914063 7.363282l62.375-11.984375c2.125 6.496093 4.980469 12.746093 8.554687 18.664062 0 0-77.636718 15.25-81.070312 15.671875zm69.996094 1.730469 20.921875-4.023437c3.515625 3.996093 7.375 7.679687 11.523437 11.011718l-2.085937 21.722656c-11.851563-7.566406-22.128907-17.289062-30.359375-28.710937zm149.4375 232.988281c-2.945313 3.605469-7.484375 5.714844-12.128906 5.714844 0 0-94.785157 0-94.835938 0-4.671875 0-9.238281-2.164062-12.191406-5.785156-3.191406-3.90625-3.628906-8.769532-3.160156-13.617188l19.492187-202.90625c5.398437 2.894532 11.050781 5.214844 16.878906 6.960938 0 0-14.316406 187.183594-14.328125 187.332031-.328125 4.292969 3.179688 8.074219 7.480469 8.074219h66.511719c4.472656 0 8.085937-4.203125 7.417968-8.628906l-14.285156-186.773438c5.828125-1.75 11.480469-4.070312 16.878906-6.964844 0 0 19.464844 202.628906 19.492188 202.90625.460938 4.804688-.066406 9.824219-3.222656 13.6875zm-2.105469-225.996094c4.152344-3.335937 8.007813-7.019531 11.523437-11.011718l20.921876 4.019531c-8.230469 11.421875-18.507813 21.144531-30.359376 28.710937zm6.742187 70.183594-3.066406-31.933594c18.210938-10.152343 33.558594-24.589843 44.824219-42.15625l31.164063 5.984376c-16.171876 29.859374-42.066407 54.042968-72.921876 68.105468zm0 0"/></svg>