<svg height="512pt" viewBox="0 -31 512 512" width="512pt" xmlns="http://www.w3.org/2000/svg"><path d="m256 441.714844c-58.484375 0-113.613281-18.804688-147.472656-50.300782l48.144531-51.757812c20.800781 19.347656 58.859375 31.367188 99.328125 31.367188 50.152344 0 85.066406-17.046876 101.015625-32.996094l49.988281 49.984375c-33.628906 33.625-90.078125 53.703125-151.003906 53.703125zm0 0" fill="#ffb44d"/><path d="m395.285156 320.878906c23.988282-27.617187 38.527344-63.648437 38.527344-103.011718 0-31.613282-9.382812-62.148438-27.132812-88.304688l-9.46875-13.957031c-15.898438-23.429688-42.292969-37.417969-70.605469-37.417969-3.417969 0-6.808594.210938-10.15625.609375l-48.832031-11.902344-11.621094-42.507812c21.554687-10.945313 45.671875-16.886719 70.609375-16.886719 51.769531 0 100.03125 25.574219 129.101562 68.414062l9.46875 13.957032c25.726563 37.914062 39.324219 82.175781 39.324219 127.996094 0 60.890624-23.710938 118.136718-66.765625 161.191406-.855469.855468-1.726563 1.691406-2.59375 2.53125l-44.316406-17.804688zm0 0" fill="#ffb44d"/><path d="m339.320312 59.070312c-12.832031-18.910156-28.808593-34.992187-46.964843-47.753906-12.667969 2.847656-24.878907 7.242188-36.359375 13.070313l11.621094 42.507812 48.832031 11.902344c3.347656-.398437 6.738281-.609375 10.15625-.609375 10.097656 0 19.953125 1.789062 29.175781 5.144531zm0 0" fill="#e7a25d"/><path d="m357.191406 138.84375-42.699218-62.929688c-29.066407-42.839843-77.328126-68.414062-129.097657-68.414062s-100.03125 25.574219-129.097656 68.414062l-9.472656 13.957032c-25.726563 37.917968-39.324219 82.175781-39.324219 127.996094 0 60.890624 23.710938 118.136718 66.769531 161.191406.855469.855468 1.726563 1.691406 2.59375 2.53125l49.378907-19.371094-9.527344-41.339844c-23.988282-27.617187-38.527344-63.648437-38.527344-103.011718 0-31.613282 9.382812-62.148438 27.132812-88.304688l9.46875-13.957031c15.898438-23.429688 42.292969-37.417969 70.605469-37.417969 28.316407 0 54.707031 13.988281 70.605469 37.417969l10.566406 50.101562 32.132813 12.824219c10.957031 16.15625 32.941406 20.363281 49.089843 9.402344 16.15625-10.957032 20.363282-32.9375 9.402344-49.089844zm0 0" fill="#ffb44d"/><path d="m55.449219 357.789062c5.789062 7.410157 12.066406 14.515626 18.820312 21.269532.855469.855468 1.726563 1.691406 2.59375 2.53125l49.378907-19.371094-9.527344-41.339844c-7.003906-8.066406-13.195313-16.851562-18.460938-26.222656l-42.183594 62.164062c-.214843.320313-.410156.644532-.621093.96875zm0 0" fill="#e7a25d"/><path d="m208.296875 365.238281c-21.167969-5.355469-39.386719-14.199219-51.625-25.582031l-48.144531 51.757812c15.558594 14.472657 35.613281 26.253907 58.414062 34.773438zm0 0" fill="#e7a25d"/><path d="m226.699219 158.785156-145.800781 214.878906c-10.960938 16.152344-6.753907 38.132813 9.398437 49.09375 6.082031 4.125 12.984375 6.101563 19.816406 6.101563 11.320313 0 22.441407-5.429687 29.277344-15.503906l116.609375-171.851563v-53.4375zm0 0" fill="#ffb44d"/><path d="m256 115.605469 175.101562 258.058593c10.960938 16.152344 6.753907 38.132813-9.398437 49.09375-6.082031 4.125-12.984375 6.101563-19.816406 6.101563-11.320313 0-22.441407-5.429687-29.277344-15.503906l-135.414063-199.566407c-21.917968-32.304687-13.5-76.261718 18.804688-98.183593zm0 0" fill="#e7a25d"/><path d="m326.605469 0c-24.339844 0-48.660157 5.539062-70.59375 16.03125-21.71875-10.398438-45.78125-16.03125-70.617188-16.03125-54.257812 0-104.839843 26.804688-135.304687 71.703125l-9.472656 13.960937c-26.570313 39.160157-40.617188 84.875-40.617188 132.203126 0 32.476562 6.453125 63.890624 19.183594 93.359374 1.640625 3.800782 6.054687 5.554688 9.859375 3.910157 3.800781-1.640625 5.554687-6.054688 3.910156-9.859375-11.914063-27.582032-17.953125-56.992188-17.953125-87.410156 0-44.3125 13.152344-87.117188 38.03125-123.785157l9.46875-13.957031c27.671875-40.777344 73.613281-65.125 122.894531-65.125 23.738281 0 46.695313 5.660156 67.214844 16.074219 22.347656 11.34375 41.601563 28.304687 55.679687 49.054687l42.699219 62.925782c4.175781 6.152343 5.703125 13.566406 4.304688 20.871093-1.398438 7.304688-5.558594 13.625-11.710938 17.800781-12.707031 8.621094-30.054687 5.296876-38.675781-7.40625l-42.699219-62.925781c-17.292969-25.488281-46.007812-40.707031-76.8125-40.707031-30.800781 0-59.515625 15.214844-76.808593 40.707031l-9.472657 13.957031c-18.59375 27.40625-28.421875 59.394532-28.421875 92.511719 0 37.703125 12.96875 74.222657 36.636719 103.488281l-32.347656 47.675782c-10.621094-11.265625-20.035157-23.59375-28.039063-36.722656-2.15625-3.535157-6.769531-4.65625-10.308594-2.5-3.535156 2.15625-4.65625 6.773437-2.5 10.308593 9.625 15.785157 21.164063 30.476563 34.292969 43.691407-3.875 16.753906 2.601563 34.9375 17.664063 45.160156 17.152344 11.640625 40.847656 9.0625 55.109375-5.960938 32.835937 16.929688 73.320312 26.207032 114.800781 26.207032 41.613281 0 82.105469-9.265626 114.835938-26.175782 8.019531 8.433594 19.191406 13.320313 31.050781 13.320313 8.589843 0 16.894531-2.554688 24.027343-7.394531 15.058594-10.21875 21.539063-28.402344 17.664063-45.15625 44.125-44.40625 68.421875-103.304688 68.421875-165.9375 0-24.84375-3.871094-49.339844-11.5-72.804688-1.28125-3.941406-5.511719-6.09375-9.453125-4.816406-3.9375 1.28125-6.09375 5.515625-4.8125 9.453125 7.144531 21.964843 10.765625 44.902343 10.765625 68.167969 0 56.6875-21.246094 110.105468-59.980469 151.160156l-32.347656-47.675782c23.667969-29.261718 36.640625-65.785156 36.640625-103.484374 0-33.117188-9.832031-65.109376-28.425781-92.515626l-9.46875-13.957031c-18.496094-27.253906-50.007813-42.800781-83.257813-40.480469-2.070312-3.011718-10.789062-14.050781-13.046875-16.5625-10.179687-11.367187-21.820312-21.15625-34.535156-29.171874 17.164063-6.6875 35.589844-10.175782 54.027344-10.175782 49.28125 0 95.222656 24.34375 122.894531 65.125l9.46875 13.957032c5.710938 8.414062 10.890625 17.316406 15.398438 26.460937 1.832031 3.714844 6.328124 5.242187 10.042968 3.410156s5.242188-6.328125 3.410156-10.042969c-4.8125-9.761718-10.34375-19.265624-16.4375-28.25l-9.472656-13.957031c-30.464844-44.902343-81.046875-71.707031-135.304687-71.707031zm-240.917969 217.867188c0-30.105469 8.933594-59.183594 25.835938-84.09375l9.472656-13.957032c14.5-21.371094 38.574218-34.128906 64.398437-34.128906 23.441407 0 45.433594 10.511719 60.140625 28.429688-13.199218 11.023437-21.960937 25.722656-25.796875 41.574218l-103.5625 152.628906c-19.722656-25.964843-30.488281-57.71875-30.488281-90.453124zm24.425781 203.359374c-5.433593.027344-10.898437-1.484374-15.601562-4.675781-12.46875-8.460937-15.859375-26.21875-7.410157-38.675781l131.070313-193.164062c1.246094 9.195312 4.160156 18.121093 8.660156 26.4375.007813.015624.015625.027343.023438.039062 2.796875 5.023438 20.082031 30.316406 20.082031 30.316406s-113.746094 167.625-113.828125 167.742188c-5.261719 7.734375-14.089844 11.929687-22.996094 11.980468zm211.5-69.667968c-14.691406 6.070312-36.460937 11.964844-65.613281 11.964844-23.683594 0-46.621094-4.21875-65.601562-11.980469l65.601562-96.683594zm-65.613281 82.652344c-38.226562 0-75.441406-8.285157-105.789062-23.445313l31.597656-46.566406c21.34375 9.265625 47.402344 14.324219 74.191406 14.324219 33.382812 0 58.066406-7.25 74.195312-14.316407l31.617188 46.597657c-30.242188 15.132812-67.464844 23.40625-105.8125 23.40625zm161.492188-17.660157c-12.519532 8.492188-30.039063 5.167969-38.585938-7.28125-.007812-.011719-.011719-.019531-.019531-.03125-.03125-.042969-.085938-.121093-.136719-.1875 0 0-135.339844-199.457031-135.347656-199.472656-9.632813-14.191406-12.898438-32.457031-9.378906-49.199219 2.761718-13.128906 10.105468-25.238281 20.226562-33.992187 0 0 167.832031 247.339843 167.859375 247.382812 9.457031 13.933594 10.980469 32.195313-4.617187 42.78125zm-26.488282-296.734375 9.472656 13.957032c16.902344 24.910156 25.835938 53.992187 25.835938 84.09375 0 32.734374-10.765625 64.488281-30.484375 90.453124l-72.664063-107.085937c9.8125 1.109375 20.046876-1.128906 28.835938-7.09375 9.472656-6.425781 15.871094-16.152344 18.023438-27.394531 2.152343-11.238282-.199219-22.644532-6.625-32.113282l-33.144532-48.851562c24.429688 1.140625 46.9375 13.675781 60.75 34.035156zm0 0"/></svg>