<svg height="511pt" viewBox="-10 0 511 511.9976" width="511pt" xmlns="http://www.w3.org/2000/svg"><g fill="#ffe76c"><path d="m51.128906 404.71875c-11.691406 11.695312-24.570312 10.769531-35.324218 12.074219-7.433594.898437-10.5 10.046875-5.203126 15.339843l48.683594 48.6875c5.292969 5.292969 14.441406 2.226563 15.339844-5.207031 1.304688-10.753906.378906-23.628906 12.074219-35.324219l-5.929688-29.640624zm0 0"/><path d="m90.476562 277.769531c-5.578124 5.578125-5.578124 14.625 0 20.203125l12.15625 12.15625 17.511719-2.691406 2.691407-17.511719-12.15625-12.15625c-5.578126-5.578125-14.621094-5.578125-20.203126 0zm0 0"/><path d="m168.738281 199.511719c5.578125-5.582031 14.625-5.582031 20.203125 0l12.15625 12.152343-2.691406 17.511719-17.511719 2.691407-12.15625-12.15625c-5.578125-5.578126-5.578125-14.621094 0-20.199219zm0 0"/><path d="m129.609375 238.640625c-5.578125 5.578125-5.578125 14.625 0 20.203125l12.152344 12.152344 17.511719-2.691406 2.691406-17.511719-12.152344-12.152344c-5.582031-5.578125-14.625-5.578125-20.203125 0zm0 0"/></g><path d="m102.628906 310.128906 20.203125-20.203125 153.160157 153.160157-20.203126 20.203124zm0 0" fill="#ffb44d"/><path d="m141.757812 270.996094 20.203126-20.203125 153.160156 153.160156-20.203125 20.203125zm0 0" fill="#ffb44d"/><path d="m180.890625 231.867188 20.203125-20.203126 153.160156 153.160157-20.203125 20.203125zm0 0" fill="#ffb44d"/><path d="m235.582031 246.148438-27.492187 12.917968 81.929687 81.925782 20.203125-20.199219zm0 0" fill="#e7a25d"/><path d="m230.933594 319.761719-19.3125 21.09375 39.269531 39.269531 20.203125-20.203125zm0 0" fill="#e7a25d"/><path d="m150.035156 317.125-12.917968 27.488281 74.644531 74.640625 20.199219-20.203125zm0 0" fill="#e7a25d"/><path d="m258.183594 268.75-66.988282 31.472656-31.476562 66.992188c-31.492188 31.492187-31.492188 82.734375 0 114.226562 31.492188 31.488282 82.734375 31.488282 114.226562 0l98.464844-98.464844c31.492188-31.492187 31.492188-82.734374 0-114.226562-31.492187-31.492188-82.734375-31.492188-114.226562 0zm83.445312 83.445312-98.464844 98.464844c-14.519531 14.523438-38.144531 14.519532-52.667968 0-14.519532-14.519531-14.519532-38.144531 0-52.664062l98.464844-98.464844c14.519531-14.523438 38.148437-14.519531 52.667968 0 14.519532 14.519531 14.519532 38.144531 0 52.664062zm0 0" fill="#ffe76c"/><path d="m296.320312 47.546875-12.203124 68.007813c-8 44.574218-29.453126 85.632812-61.476563 117.65625l-171.511719 171.507812 35.566406 35.570312 171.511719-171.511718c32.023438-32.023438 73.082031-53.476563 117.65625-61.476563l68.007813-12.203125-55.308594-92.242187zm0 0" fill="#ffb44d"/><path d="m289.851562 83.601562 117.964844 117.964844 36.054688-6.46875-55.308594-92.242187-92.242188-55.308594zm0 0" fill="#e7a25d"/><path d="m315.519531 10.613281-19.199219 19.199219c-4.898437 4.898438-4.898437 12.835938 0 17.734375l147.550782 147.550781c4.898437 4.898438 12.835937 4.898438 17.734375 0l19.199219-19.199218c4.898437-4.898438 4.898437-12.839844 0-17.738282l-147.546876-147.546875c-4.898437-4.898437-12.839843-4.898437-17.738281 0zm0 0" fill="#ffe76c"/><path d="m382.515625 49.792969c-2.933594-2.933594-7.695313-2.933594-10.628906 0-2.9375 2.9375-2.9375 7.695312 0 10.632812l103.539062 103.539063c1.960938 1.957031 1.960938 5.148437 0 7.105468l-19.199219 19.199219c-1.957031 1.960938-5.148437 1.960938-7.105468 0l-147.550782-147.546875c-1.957031-1.960937-1.957031-5.148437 0-7.109375l19.199219-19.195312c1.960938-1.960938 5.148438-1.960938 7.109375 0l22.746094 22.746093c2.9375 2.9375 7.695312 2.9375 10.628906 0 2.9375-2.933593 2.9375-7.695312 0-10.628906 0 0-22.734375-22.738281-22.746094-22.75-7.722656-7.71875-20.660156-7.707031-28.367187 0l-19.199219 19.199219c-6.789062 6.789063-7.675781 17.269531-2.675781 25.035156l-11.613281 64.695313c-7.320313 40.800781-26 78.070312-54.171875 108.257812 0 0-28.269531-28.269531-28.289063-28.289062-8.394531-8.394532-22.453125-8.382813-30.832031 0-8.5 8.5-8.5 22.332031 0 30.832031l28.382813 28.382813-8.296876 8.300781s-28.367187-28.367188-28.382812-28.386719c-8.402344-8.402344-22.445312-8.386719-30.832031 0-8.503907 8.5-8.503907 22.332031 0 30.832031l28.382812 28.386719-8.296875 8.296875s-28.363281-28.363281-28.386718-28.382813c-8.40625-8.40625-22.433594-8.398437-30.832032 0-8.5 8.5-8.5 22.332032 0 30.832032l28.386719 28.382812-67.734375 67.734375c-7.890625 7.890625-16.378906 8.617188-25.367188 9.382813-1.820312.15625-3.703124.316406-5.546874.539062-13.421876 1.625-19.132813 18.601563-9.617188 28.121094 0 0 48.648438 48.644531 48.6875 48.683594 9.535156 9.535156 26.496094 3.800781 28.117188-9.613282.222656-1.84375.386718-3.726562.542968-5.546874.765625-8.988282 1.492188-17.476563 9.386719-25.371094l38.203125-38.207032c-1.113281 5.761719-1.671875 11.675782-1.621094 17.671876.183594 23.324218 9.351563 45.234374 25.804688 61.6875 12.007812 12.007812 27.140625 20.246093 43.757812 23.816406 4.058594.871094 8.058594-1.710938 8.929688-5.769532.875-4.058593-1.710938-8.058593-5.769532-8.929687-13.78125-2.960937-26.328124-9.792969-36.285156-19.746094-13.648437-13.648437-21.25-31.824219-21.40625-51.179687-.152344-19.308594 7.113282-37.566406 20.460938-51.421875l100.976562-100.945313c13.875-13.089844 32.046875-20.152344 51.21875-19.914062 19.214844.25 37.257813 7.851562 50.808594 21.398437 28.5625 28.5625 28.5625 75.035157 0 103.597657l-98.464844 98.460937c-10.917968 10.917969-24.757812 17.992187-40.027344 20.453125-4.097656.664062-6.886718 4.523438-6.226562 8.621094.652344 4.027344 4.601562 6.867187 8.621094 6.222656 18.410156-2.96875 35.097656-11.5 48.261718-24.664062l98.464844-98.464844c16.652344-16.648438 25.820313-38.820313 25.820313-62.425782 0-23.609374-9.167969-45.78125-25.820313-62.429687-16.335937-16.335937-38.085937-25.5-61.242187-25.800781-1.507813-.019532-3.007813.003906-4.503907.058594 20.179688-11.074219 42.132813-18.851563 65.214844-22.992188l64.691406-11.613281c3.210938 2.078125 6.945313 3.199219 10.855469 3.199219 5.355469 0 10.394531-2.085938 14.183594-5.875l19.195313-19.199219c7.824218-7.820313 7.824218-20.546875 0-28.367188zm-208.527344 155.519531c2.617188-2.617188 6.964844-2.609375 9.574219 0l6.839844 6.839844-9.574219 9.570312-6.839844-6.839844c-2.636719-2.636718-2.636719-6.929687 0-9.570312zm17.472657 27.042969 9.570312-9.574219 10.917969 10.917969-9.574219 9.570312zm-56.601563 12.085937c2.613281-2.613281 6.960937-2.609375 9.570313 0l6.839843 6.839844-9.570312 9.574219-6.839844-6.839844c-2.640625-2.640625-2.640625-6.933594 0-9.574219zm17.46875 27.042969 9.574219-9.570313 10.914062 10.914063-9.574218 9.574219zm-56.597656 12.089844c2.617187-2.617188 6.957031-2.613281 9.570312 0l6.839844 6.839843-9.570313 9.570313s-6.824218-6.824219-6.839843-6.839844c-2.613281-2.609375-2.605469-6.96875 0-9.570312zm17.46875 27.042969 9.570312-9.574219 10.914063 10.914062-9.570313 9.574219zm-45.617188 159.5625c-.148437 1.769531-.292969 3.441406-.480469 5.019531-.152343 1.242187-1.738281 1.621093-2.566406.792969 0 0-48.683594-48.6875-48.6875-48.6875-.84375-.84375-.441406-2.414063.792969-2.5625 1.582031-.191407 3.253906-.332032 5.023437-.484376 8.578126-.730468 18.917969-1.617187 28.980469-8.839843l25.78125 25.78125c-7.226562 10.0625-8.109375 20.402343-8.84375 28.980469zm306.890625-269.789063c-45.542968 8.171875-86.96875 29.570313-119.972656 61.917969l-167.867188 167.835937-24.9375-24.9375 166.195313-166.195312c33.269531-33.269531 55.25-75.335938 63.558594-121.644531l9.664062-53.84375 127.203125 127.203124zm0 0"/><path d="m346.878906 358c17.453125-17.449219 17.453125-45.847656 0-63.296875-17.449218-17.449219-45.839844-17.453125-63.296875 0 0 0-98.417969 98.421875-98.464843 98.464844-17.234376 17.234375-17.222657 46.074219 0 63.296875 17.125 17.121094 46.027343 17.273437 63.300781 0zm-136.242187 30.910156 42.035156 42.035156-9.570313 9.574219-42.035156-42.039062zm10.628906-10.628906 8.300781-8.300781 42.035156 42.039062-8.296874 8.296875zm47.429687-47.429688 42.039063 42.035157-8.300781 8.296875-42.035156-42.035156zm52.667969 31.40625-42.039062-42.035156 9.574219-9.574218 42.035156 42.035156zm-39.132812 39.128907-42.035157-42.035157 9.570313-9.570312 42.039063 42.035156zm33-104.746094c7.613281 0 15.222656 2.898437 21.019531 8.691406 9.753906 9.753907 11.296875 24.65625 4.632812 36.039063l-40.671874-40.671875c4.621093-2.703125 9.820312-4.058594 15.019531-4.058594zm-119.480469 149.191406c-5.605469-5.601562-8.691406-13.066406-8.691406-21.015625 0-5.371094 1.414062-10.519531 4.054687-15.023437l40.671875 40.671875c-11.382812 6.664062-26.28125 5.121094-36.035156-4.632813zm0 0"/></svg>