<svg height="512pt" viewBox="-20 0 511 512" width="512pt" xmlns="http://www.w3.org/2000/svg"><path d="m188.222656 438.101562 22.859375 33.199219-22.859375 33.199219h-78.527344c0-32.800781 39.511719-66.398438 39.511719-66.398438zm0 0" fill="#1fd7c3"/><path d="m284.640625 438.101562-22.863281 33.199219 22.863281 33.199219h78.523437c0-32.800781-39.511718-66.398438-39.511718-66.398438zm0 0" fill="#1fd7c3"/><path d="m323.65625 438.101562h-39.015625l-22.863281 33.199219 9.566406 13.890625c28.703125-7.34375 53.296875-15.050781 74.261719-23.339844-10.554688-14.054687-21.949219-23.75-21.949219-23.75zm0 0" fill="#00bbc9"/><path d="m149.207031 438.101562s-11.398437 9.695313-21.953125 23.75c20.96875 8.289063 45.5625 15.996094 74.261719 23.339844h.003906l9.5625-13.890625-22.859375-33.199219zm0 0" fill="#00bbc9"/><path d="m188.222656 438.101562h96.417969v66.398438h-96.417969zm0 0" fill="#fff3e4"/><path d="m462.308594 227.726562c-.953125-5.203124-5.878906-8.683593-11.101563-7.847656-13.824219 2.210938-39.476562 11.285156-52.8125 47.550782l11.277344 58.632812s69.085937-8.640625 52.636719-98.335938zm0 0" fill="#ffcabd"/><path d="m10.550781 227.726562c.953125-5.203124 5.878907-8.683593 11.105469-7.847656 13.820312 2.210938 39.472656 11.285156 52.8125 47.550782l-11.28125 58.632812s-69.085938-8.640625-52.636719-98.335938zm0 0" fill="#ffcabd"/><path d="m284.640625 438.101562h-96.417969v43.574219c4.335938 1.179688 8.753906 2.351563 13.292969 3.515625 11.398437 2.917969 23.148437 4.394532 34.914063 4.394532 11.769531 0 23.515624-1.476563 34.914062-4.394532 4.539062-1.160156 8.957031-2.335937 13.296875-3.515625zm0 0" fill="#ffdebb"/><path d="m410.402344 247.550781c0-95.929687-78.042969-173.972656-173.972656-173.972656-95.929688 0-173.972657 78.042969-173.972657 173.972656 0 91.664063-65.097656 154.433594 146.496094 208.578125 18.023437 4.609375 36.929687 4.609375 54.953125 0 211.59375-54.144531 146.496094-116.914062 146.496094-208.578125zm0 0" fill="#ff7f5a"/><path d="m62.878906 235.523438h347.101563c-2.914063-42.476563-21.140625-80.800782-49.1875-109.5h-248.722657c-28.046874 28.699218-46.273437 67.027343-49.191406 109.5zm0 0" fill="#ff5d29"/><path d="m238.421875 103.410156c-79.929687-1.082031-145.039063 62.195313-146.132813 142.125-.9375 68.785156 46.308594 126.691406 110.136719 142.125 7.949219 1.925782 16.359375-.207031 22.433594-5.679687.113281-.101563.222656-.203125.335937-.304688 6.335938-5.800781 16.136719-5.800781 22.472657 0 .109375.101563.222656.203125.335937.304688 6.082032 5.484375 14.507813 7.597656 22.46875 5.671875 63.183594-15.296875 110.113282-72.214844 110.113282-140.101563-.003907-78.949219-63.46875-143.074219-142.164063-144.140625zm0 0" fill="#ffdcce"/><path d="m326.539062 304.25h-21.070312c-4.144531 0-7.5-3.359375-7.5-7.5s3.355469-7.5 7.5-7.5h21.070312c4.144532 0 7.5 3.359375 7.5 7.5s-3.355468 7.5-7.5 7.5zm0 0" fill="#ff8997"/><path d="m167.394531 304.25h-21.074219c-4.140624 0-7.5-3.359375-7.5-7.5s3.359376-7.5 7.5-7.5h21.074219c4.140625 0 7.5 3.359375 7.5 7.5s-3.359375 7.5-7.5 7.5zm0 0" fill="#ff8997"/><path d="m92.777344 235.523438h287.304687c-3.804687-46.03125-29.230469-85.921876-66.101562-109.5h-155.371094c-36.757813 23.496093-62.058594 63.25-65.832031 109.5zm0 0" fill="#ffcabd"/><path d="m380.609375 7.5h-288.359375c-14.632812 0-26.089844 12.59375-24.710938 27.164062l6.929688 73.230469 161.960938 16.402344 161.960937-16.402344 6.929687-73.230469c1.382813-14.570312-10.078124-27.164062-24.710937-27.164062zm0 0" fill="#1fd7c3"/><path d="m104.46875 107.894531-6.929688-73.230469c-1.378906-14.570312 10.082032-27.164062 24.710938-27.164062h-30c-14.632812 0-26.089844 12.59375-24.710938 27.164062l6.929688 73.230469 161.960938 16.402344 15-1.519531zm0 0" fill="#00bbc9"/><path d="m398.390625 107.894531-6.894531 72.878907h-310.128906l-6.898438-72.878907zm0 0" fill="#4a5660"/><path d="m74.46875 107.894531 6.898438 72.878907h30l-6.898438-72.878907zm0 0" fill="#3d4851"/><path d="m269.195312 88.691406h-65.53125c-9.65625 0-17.484374 7.828125-17.484374 17.484375v74.597657h100.5v-74.597657c0-9.65625-7.828126-17.484375-17.484376-17.484375zm0 0" fill="#ffe76c"/><path d="m216 118.511719h40.859375v62.261719h-40.859375zm0 0" fill="#4a5660"/><path d="m419.601562 156.027344h-366.34375c-6.148437 0-11.132812 4.984375-11.132812 11.128906v27.234375c0 6.148437 4.984375 11.132813 11.132812 11.132813h366.34375c6.148438 0 11.132813-4.984376 11.132813-11.132813v-27.234375c0-6.148438-4.984375-11.128906-11.132813-11.128906zm0 0" fill="#1fd7c3"/><path d="m72.125 194.390625v-27.234375c0-6.144531 4.984375-11.128906 11.132812-11.128906h-30c-6.148437 0-11.132812 4.980468-11.132812 11.128906v27.234375c0 6.148437 4.984375 11.132813 11.132812 11.132813h30c-6.148437 0-11.132812-4.984376-11.132812-11.132813zm0 0" fill="#00bbc9"/><path d="m316.003906 281.507812c4.144532 0 7.5-3.359374 7.5-7.5v-15.472656c0-4.140625-3.355468-7.5-7.5-7.5-4.140625 0-7.5 3.359375-7.5 7.5v15.472656c0 4.140626 3.359375 7.5 7.5 7.5zm0 0"/><path d="m156.855469 281.507812c4.144531 0 7.5-3.359374 7.5-7.5v-15.472656c0-4.140625-3.355469-7.5-7.5-7.5-4.140625 0-7.5 3.359375-7.5 7.5v15.472656c0 4.140626 3.359375 7.5 7.5 7.5zm0 0"/><path d="m236.429688 303.375c7.710937 0 14.957031-3.230469 19.878906-8.859375 2.726562-3.121094 2.410156-7.859375-.710938-10.582031-3.117187-2.726563-7.855468-2.410156-10.582031.710937-2.074219 2.371094-5.203125 3.730469-8.585937 3.730469-3.382813 0-6.511719-1.359375-8.585938-3.730469-2.726562-3.121093-7.460938-3.441406-10.582031-.710937-3.117188 2.722656-3.4375 7.460937-.710938 10.582031 4.921875 5.628906 12.167969 8.859375 19.878907 8.859375zm0 0"/><path d="m363.164062 512c4.144532 0 7.5-3.359375 7.5-7.5 0-25.75-20.847656-50.949219-33.238281-63.652344 37.425781-14.84375 61.964844-31.417968 75.488281-50.667968 13.539063-19.273438 15.582032-39.84375 13.917969-61.402344 20.753907-8.738282 55.421875-33.863282 42.855469-102.402344-1.5-8.183594-8.621094-14.121094-16.933594-14.121094-12.488281 0-26.519531 7.507813-35.980468 15.238282-.539063-4.851563-1.269532-9.679688-2.195313-14.46875h5.023437c10.273438 0 18.632813-8.359376 18.632813-18.632813v-27.234375c0-10.273438-8.359375-18.628906-18.632813-18.628906h-17.519531s10.703125-113.113282 10.707031-113.152344c1.769532-18.707031-13.40625-35.375-32.179687-35.375h-208.539063c-4.140624 0-7.5 3.359375-7.5 7.5s3.359376 7.5 7.5 7.5h208.539063c10.097656 0 18.199219 8.925781 17.246094 18.960938l-6.285157 66.433593h-98.066406c-2.570312-10.957031-13.078125-19.203125-24.308594-19.203125 0 0-65.476562 0-65.53125 0-11.195312 0-21.742187 8.277344-24.308593 19.203125h-98.0625s-6.277344-66.339843-6.285157-66.433593c-.953124-10.050782 7.164063-18.960938 17.242188-18.960938h49.820312c4.140626 0 7.5-3.359375 7.5-7.5s-3.359374-7.5-7.5-7.5c0 0-49.792968 0-49.820312 0-18.765625 0-33.945312 16.695312-32.175781 35.371094l10.707031 113.15625h-17.523438c-10.273437 0-18.632812 8.355468-18.632812 18.628906v27.234375c0 10.273437 8.359375 18.632813 18.632812 18.632813h5.023438c-.925781 4.789062-1.65625 9.617187-2.195312 14.46875-9.535157-7.796876-23.316407-15.238282-35.980469-15.238282-8.308594 0-15.429688 5.9375-16.929688 14.121094-12.570312 68.539062 22.101563 93.664062 42.855469 102.402344-1.664062 21.5625.375 42.128906 13.914062 61.402344 13.523438 19.25 38.066407 35.824218 75.492188 50.667968-12.394531 12.703125-33.242188 37.902344-33.242188 63.652344 0 4.140625 3.359376 7.5 7.5 7.5zm-93.96875-415.808594c6.660157 0 9.984376 5.742188 9.984376 11.703125v40.632813h-14.816407v-30.015625c0-4.144531-3.359375-7.5-7.5-7.5h-40.863281c-4.140625 0-7.5 3.355469-7.5 7.5v30.015625h-14.820312v-40.632813c0-6.011719 3.257812-11.703125 9.984374-11.703125zm-19.832031 52.335938h-25.863281v-22.515625h25.863281zm-166.652343-33.132813h95.96875v33.132813h-92.832032zm247.359374 48.132813c4.144532 0 7.5-3.359375 7.5-7.5 0-4.144532-3.355468-7.5-7.5-7.5h-35.890624v-33.132813h95.96875l-3.136719 33.132813h-26.941407c-4.140624 0-7.5 3.355468-7.5 7.5 0 4.140625 3.359376 7.5 7.5 7.5h59.53125c2.003907 0 3.632813 1.628906 3.632813 3.628906v27.234375c0 2.003906-1.628906 3.632813-3.632813 3.632813h-366.34375c-2.003906 0-3.632812-1.628907-3.632812-3.632813v-27.234375c0-2 1.628906-3.628906 3.632812-3.628906zm43.011719 84.023437c0 31.273438-10.277343 60.699219-29.726562 85.097657-18.878907 23.6875-45.390625 40.632812-74.648438 47.714843-5.679687 1.375-11.683593-.316406-15.976562-4.21875-9.128907-8.296875-23.492188-8.339843-32.605469.003907-4.242188 3.882812-10.261719 5.59375-15.9375 4.222656-29.574219-7.148438-56.289062-24.339844-75.222656-48.402344-19.519532-24.808594-29.609375-54.660156-29.175782-86.328125.152344-11.070313 1.609376-22.019531 4.339844-32.617187h264.550782c2.925781 11.230468 4.402343 22.816406 4.402343 34.527343zm-325.328125 65.539063c-18.324218-9.210938-39.492187-31.289063-29.828125-84.011719.195313-1.054687 1.113281-1.824219 2.179688-1.824219.121093 0 .242187.011719.367187.027344 9.585938 1.535156 23.160156 6.308594 34.484375 20.214844v.054687c0 16.789063-2.378906 33.445313-4.90625 50.003907-.789062 5.175781-1.585937 10.347656-2.296875 15.535156zm87.414063 150.769531c6.050781-7.6875 12.183593-13.816406 15.757812-17.1875 8.609375 3.023437 29.148438 9.328125 29.796875 9.519531v40.808594h-62.746094c2.476563-12.3125 10.378907-24.484375 17.191407-33.140625zm60.554687-3.457031c13.296875 3.59375 26.859375 6.683594 40.707032 6.683594 13.976562 0 27.300781-3.058594 40.710937-6.683594v36.597656h-81.417969zm126.210938-13.730469c3.578125 3.371094 9.707031 9.503906 15.757812 17.1875 6.8125 8.65625 14.714844 20.828125 17.191406 33.140625h-62.742187v-40.8125c.644531-.1875 21.1875-6.496094 29.792969-9.515625zm78.707031-65.117187c-13.09375 18.640624-38.804687 34.75-79.34375 49.433593-.070313.023438-.140625.035157-.210937.0625-19.316407 7.035157-39.128907 12.714844-59.039063 17.8125-16.726563 4.277344-34.507813 4.277344-51.234375 0-19.90625-5.09375-39.726562-10.777343-59.039062-17.8125-.070313-.027343-.140626-.039062-.210938-.0625-40.539062-14.683593-66.25-30.792969-79.34375-49.433593-12.140625-17.28125-12.964844-36.515626-10.640625-57.992188 2.84375-26.285156 8.003906-52.027344 8.414063-78.570312.164062-10.757813 1.355468-21.476563 3.578124-31.96875h15.128907c-2.4375 10.582031-3.757813 21.441406-3.90625 32.414062-.472657 34.636719 11.027343 68.664062 32.382812 95.808594 21.003907 26.691406 50.652344 45.769531 83.488281 53.707031 10.277344 2.488281 21.371094-.328125 29.222657-7.40625 3.886719-3.5 9.222656-3.515625 13.09375.007813 7.8125 7.101562 19.015625 9.871093 29.257812 7.390624 32.480469-7.863281 61.902344-26.667968 82.847657-52.945312 21.589843-27.082031 33-59.742188 33-94.445312 0-11.679688-1.347657-23.25-3.972657-34.53125h15.179688c2.222656 10.492187 3.414062 21.210937 3.578125 31.972656-.050782 26.546875 5.578125 52.296875 8.410156 78.570312 2.324219 21.472656 1.5 40.707032-10.640625 57.988282zm24.464844-68.464844c-2.503907-18.375-5.96875-36.65625-6.925781-55.207032-.175782-3.351562-.273438-6.902343-.273438-10.332031 0-.019531 0-.035156 0-.054687 11.324219-13.90625 24.898438-18.679688 34.484375-20.214844 1.21875-.191406 2.328125.621094 2.542969 1.796875 9.667968 52.722656-11.503906 74.800781-29.828125 84.011719zm0 0"/></svg>