<svg height="511pt" viewBox="-53 0 511 511.99912" width="511pt" xmlns="http://www.w3.org/2000/svg"><path d="m355.867188 190.007812 28.816406.597657c11.539062 1.257812 17.820312 14.121093 11.71875 23.992187l-21.308594 24.789063-31.144531-11.050781zm0 0" fill="#ffb44d"/><path d="m330.5 152.988281-108.496094 8.328125-94.597656 55.0625c.742188 5.207032 1.128906 10.53125 1.128906 15.945313 0 61.933593-50.203125 112.140625-112.136718 112.140625-.035157 0-.074219 0-.109376 0-5.453124-.007813-9.425781 5.097656-8.007812 10.363281 23.28125 86.539063 96.421875 149.710937 183.054688 149.710937 105.378906 0 190.804687-93.460937 190.804687-208.753906 0-55.238281-19.621094-105.460937-51.640625-142.796875zm0 0" fill="#1fd7c3"/><path d="m299.179688 245.15625c-3.097657 0-5.992188-1.929688-7.078126-5.019531-1.371093-3.90625.683594-8.1875 4.59375-9.5625l17.625-6.1875c3.910157-1.375 8.191407.679687 9.5625 4.589843 1.375 3.910157-.683593 8.191407-4.589843 9.5625l-17.625 6.191407c-.824219.289062-1.664063.425781-2.488281.425781zm0 0" fill="#ff8997"/><path d="m273.964844 8.40625-181.675782 56.703125c-9.691406 3.027344-15.089843 12.234375-11.5625 19.726563l17.726563 38.84375 109.078125-8.714844 94.671875-54.878906-7.515625-42.03125c-1.359375-8.167969-11.03125-12.671876-20.722656-9.648438zm0 0" fill="#4a5660"/><path d="m343.515625 169.878906c-4.070313-5.878906-8.410156-11.519531-13.015625-16.890625l-108.496094 8.328125-94.597656 55.0625c.742188 5.207032 1.132812 10.53125 1.132812 15.945313 0 1.570312-.042968 3.132812-.105468 4.6875zm0 0" fill="#00bbc9"/><path d="m337.761719 99.652344-26.996094 8.425781.011719-.007813-103.242188 6.894532-88.835937 53.058594h.011719l-26.992188 8.421874c-7.609375 2.378907-11.855469 10.476563-9.480469 18.089844l5.921875 18.964844c2.375 7.613281 10.472656 11.859375 18.085938 9.480469l246.039062-76.792969c7.613282-2.378906 11.859375-10.476562 9.484375-18.085938l-5.921875-18.96875c-2.378906-7.613281-10.476562-11.855468-18.085937-9.480468zm0 0" fill="#4a5660"/><path d="m133.222656 214.558594c-7.613281 2.378906-15.710937-1.867188-18.085937-9.480469l-5.921875-18.96875c-2.367188-7.589844 1.847656-15.664063 9.421875-18.0625l-26.917969 8.402344c-7.613281 2.375-11.855469 10.472656-9.480469 18.085937l5.917969 18.964844c2.378906 7.613281 10.476562 11.859375 18.089844 9.484375zm0 0" fill="#3d4851"/><path d="m256.433594 346.382812c-13.644532-34.753906-52.761719-52.136718-87.757813-38.84375-37.332031 14.175782-44.0625 68.054688-84.554687 93.117188-4.5 2.785156-5.121094 9.105469-1.15625 12.609375 17.636718 15.597656 64.09375 47.160156 131.421875 22.90625 36.546875-13.164063 56.246093-53.632813 42.046875-89.789063zm0 0" fill="#00bbc9"/><path d="m134.582031 120.792969-27.523437-60.292969s-14.734375 4.601562-14.769532 4.609375c-7.890624 2.464844-15.601562 11.152344-11.5625 19.726563l17.730469 38.84375zm0 0" fill="#3d4851"/><path d="m302.203125 60.085938 8.574219 47.984374-192.078125 59.953126-20.246094-44.34375zm0 0" fill="#ffe76c"/><path d="m131.230469 113.449219-32.773438 10.230469 20.242188 44.34375 32.769531-10.230469zm0 0" fill="#ffb44d"/><path d="m319.792969 191.203125c-1.371094-3.90625-5.652344-5.964844-9.5625-4.589844-3.90625 1.371094-5.964844 5.652344-4.589844 9.5625 0 0 4.539063 12.929688 4.542969 12.941407 1.347656 3.832031 5.734375 5.933593 9.5625 4.59375 3.910156-1.375 5.964844-5.65625 4.59375-9.566407zm0 0"/><path d="m223.59375 302.042969c-18.359375-8.136719-38.8125-8.6875-57.585938-1.558594-21.667968 8.226563-33.464843 27.253906-45.957031 47.394531-10.726562 17.292969-21.816406 35.175782-39.882812 46.359375-8.640625 5.347657-9.816407 17.855469-2.175781 24.609375 10.246093 9.0625 32.054687 25.171875 62.925781 31.214844 4.066406.796875 8.007812-1.855469 8.804687-5.917969.796875-4.066406-1.855468-8.007812-5.921875-8.800781-27.390625-5.363281-46.761719-19.679688-55.871093-27.734375-.054688-.050781-.113282-.097656-.097657-.253906.019531-.226563.171875-.324219.230469-.359375 21.0625-13.039063 33.640625-33.316406 44.738281-51.210938 11.59375-18.699218 21.609375-34.851562 38.53125-41.277344 30.96875-11.757812 66.007813 3.753907 78.113281 34.574219 5.917969 15.074219 5.445313 31.617188-1.339843 46.585938-6.996094 15.449219-20.21875 27.625-36.265625 33.40625-13.453125 4.847656-26.878906 7.625-39.898438 8.265625-4.140625.203125-7.328125 3.722656-7.128906 7.859375.199219 4.046875 3.8125 7.332031 7.859375 7.125 14.511719-.710938 29.398437-3.785157 44.25-9.136719 19.84375-7.144531 36.1875-22.210938 44.851563-41.328125 8.46875-18.691406 9.050781-39.382813 1.636718-58.257813-7.332031-18.667968-21.472656-33.425781-39.816406-41.558593zm0 0"/><path d="m402.777344 218.5c4.226562-6.839844 4.640625-15.234375 1.113281-22.460938-3.40625-6.972656-11.074219-12.832031-19.058594-12.976562l-24.507812-.507812c-5.066407-8.972657-10.753907-17.578126-17.039063-25.742188l11.226563-3.503906c11.550781-3.605469 18.011719-15.933594 14.410156-27.484375 0 0-5.917969-18.949219-5.921875-18.96875-3.546875-11.363281-16.117188-17.953125-27.480469-14.40625l-18.859375 5.886719s-14.558594-81.421876-14.582031-81.558594c-2.488281-13.917969-17.960937-19.441406-30.355469-15.574219 0 0-181.617187 56.6875-181.675781 56.707031-12.039063 3.753906-22.195313 17.171875-16.152344 29.996094l34.441407 75.453125-18.859376 5.886719c-11.546874 3.601562-18.011718 15.933594-14.40625 27.480468 0 0 5.914063 18.949219 5.917969 18.96875 3.558594 11.394532 16.101563 17.960938 27.484375 14.40625l12.367188-3.859374c.113281 2.015624.1875 4.03125.1875 6.039062 0 57.699219-46.941406 104.640625-104.636719 104.640625-.019531 0-.097656 0-.117187 0-10.207032-.003906-17.902344 9.929687-15.246094 19.8125 11.792968 43.832031 36.734375 83.300781 70.222656 111.128906 34.746094 28.875 76.269531 44.136719 120.078125 44.136719 53.097656 0 102.980469-22.582031 140.457031-63.585938 37.304688-40.8125 57.847656-95.035156 57.847656-152.671874 0-18.5625-2.167968-36.828126-6.351562-54.429688.003906.003906 19.289062-22.476562 19.496094-22.8125zm-315.15625-140.683594c1.097656-2.492187 3.671875-4.582031 6.894531-5.585937l181.675781-56.707031c3.507813-1.09375 10.308594-.949219 11.105469 3.808593l6.351563 35.523438-38.535157 12.023437c-3.953125 1.234375-6.160156 5.441406-4.925781 9.398438 1.234375 3.953125 5.445312 6.160156 9.398438 4.925781l36.722656-11.460937 5.914062 33.097656-179.453125 56.011718-13.96875-30.585937 122.449219-38.21875c3.953125-1.234375 6.15625-5.4375 4.925781-9.394531-1.234375-3.953125-5.445312-6.160156-9.398437-4.925782l-124.253906 38.78125-15.019532-32.910156c-.53125-1.125-.488281-2.398437.117188-3.78125zm16.378906 137.964844c-3.621094 1.128906-7.558594-.933594-8.691406-4.554688l-5.917969-18.96875c-1.140625-3.652343.902344-7.550781 4.554687-8.691406l246.042969-76.796875c3.621094-1.128906 7.558594.933594 8.691407 4.558594l5.917968 18.96875c1.140625 3.652344-.902344 7.550781-4.554687 8.691406zm87.328125 281.214844c-40.261719 0-78.46875-14.0625-110.488281-40.671875-31.128906-25.863281-54.328125-62.617188-65.324219-103.488281-.152344-.570313.375-.914063.875-.914063 65.96875 0 119.640625-53.671875 119.640625-119.640625 0-3.535156-.160156-7.09375-.472656-10.632812l192.394531-60.050782c8.066406 9.894532 15.148437 20.542969 21.210937 31.777344.027344.058594.050782.117188.082032.171875 16.941406 31.152344 25.386718 66.804687 25.386718 102.195313 0 110.972656-82.230468 201.253906-183.304687 201.253906zm198.933594-286.8125s-11.835938 13.765625-11.84375 13.742187c-2.890625-8.96875-6.316407-17.722656-10.277344-26.203125 0 0 15.996094.332032 16 .332032 5.742187.121093 8.589844 7.582031 6.121094 12.128906zm0 0"/></svg>