<svg height="512pt" viewBox="0 -8 512.00067 512" width="512pt" xmlns="http://www.w3.org/2000/svg"><path d="m504.523438 383.027344-22.742188 22.742187h-109.527344l-62.597656 59.652344h-219.878906l-42.425782-26.386719-28.453124-109.164062 5.6875-36.699219c5.984374-14.402344 24.574218-18.273437 35.761718-7.398437 25.246094 24.53125 68.582032 60.335937 106.472656 60.335937 40.097657 0 70.609376-25.714844 85.46875-85.324219l116.324219-38.007812 113.808594 38.007812c8.765625 47.523438 22.101563 65.992188 22.101563 122.242188zm0 0" fill="#1fd7c3"/><path d="m368.617188 222.777344-116.328126 38.007812c-5.546874 22.246094-13.273437 39.765625-22.863281 52.996094 9.550781 5.945312 20.8125 9.390625 32.867188 9.390625h69.816406c34.398437 0 62.382813-27.984375 62.382813-62.382813v-29.371093zm0 0" fill="#00bbc9"/><path d="m482.421875 260.785156h-230.132813c6.496094-26.078125 10.007813-58.648437 10.007813-98.394531l106.316406-35.117187 106.328125 35.117187c0 44.949219 3.1875 75.144531 7.480469 98.394531zm0 0" fill="#4a5660"/><path d="m504.523438 383.027344c0 37.34375-10.925782 68.777344-23.03125 92.152344-4.003907 7.738281-11.953126 12.621093-20.664063 12.621093h-43.386719c-9.425781 0-17.910156-5.6875-21.492187-14.410156l-12.179688-29.738281c-3.308593-8.070313-13.894531-9.933594-19.75-3.476563l-22.671875 24.988281c-13.078125 14.421876-31.640625 22.640626-51.105468 22.640626h-185.679688c-28.632812 0-55.648438-13.691407-72.222656-37.054688-21.894532-30.867188-39.0625-82.085938-7.75-157.578125-9.363282 35.761719 23.910156 108.820313 41.511718 133.632813 8.710938 12.28125 23.085938 19.609374 38.460938 19.609374h185.679688c7.769531 0 15.230468-3.300781 20.445312-9.054687l27.503906-32.820313c11.421875-13.636718 28.300782-21.511718 46.085938-21.511718zm0 0" fill="#3d4851"/><path d="m262.296875 162.390625c0 39.746094-3.507813 72.316406-10.007813 98.394531h142.203126v-66.007812c0-29.132813-20.074219-53.660156-47.117188-60.488282zm0 0" fill="#3d4851"/><path d="m332.109375 162.394531h-69.816406c-17.882813 0-32.382813 14.496094-32.382813 32.382813v66.011718c0 17.882813 14.5 32.382813 32.382813 32.382813h69.816406c17.882813 0 32.378906-14.5 32.378906-32.382813v-66.011718c0-17.886719-14.496093-32.382813-32.378906-32.382813zm0 0" fill="#ffe76c"/><path d="m322.640625 193.4375h-50.878906c-5.972657 0-10.808594 4.835938-10.808594 10.804688v47.078124c0 5.972657 4.835937 10.808594 10.808594 10.808594h50.875c5.972656 0 10.8125-4.839844 10.8125-10.808594v-47.078124c0-5.96875-4.839844-10.804688-10.808594-10.804688zm0 0" fill="#4a5660"/><path d="m474.9375 7.5h-212.644531c-16.339844 0-29.582031 13.246094-29.582031 29.582031v95.730469c0 16.335938 13.242187 29.582031 29.582031 29.582031h212.644531c16.339844 0 29.585938-13.242187 29.585938-29.582031v-95.730469c0-16.335937-13.246094-29.582031-29.585938-29.582031zm0 0" fill="#1fd7c3"/><path d="m262.714844 132.8125v-95.730469c0-16.335937 13.242187-29.582031 29.582031-29.582031h-30.003906c-16.335938 0-29.582031 13.246094-29.582031 29.582031v95.730469c0 16.335938 13.242187 29.582031 29.582031 29.582031h30.003906c-16.339844 0-29.582031-13.246093-29.582031-29.582031zm0 0" fill="#00bbc9"/><path d="m284.238281 74.28125v13.910156c0 4.140625 3.359375 7.5 7.503907 7.5 4.140624 0 7.5-3.359375 7.5-7.5v-13.910156c0-4.144531-3.359376-7.5-7.5-7.5-4.144532 0-7.503907 3.355469-7.503907 7.5zm0 0"/><path d="m452.945312 88.191406v-13.910156c0-4.144531-3.359374-7.5-7.5-7.5-4.144531 0-7.5 3.355469-7.5 7.5v13.910156c0 4.140625 3.355469 7.5 7.5 7.5 4.140626 0 7.5-3.359375 7.5-7.5zm0 0"/><path d="m381.914062 82.285156c-3.238281 3.703125-8.09375 5.828125-13.320312 5.828125s-10.085938-2.125-13.320312-5.828125c-2.726563-3.117187-7.464844-3.4375-10.585938-.710937-3.121094 2.726562-3.4375 7.464843-.710938 10.585937 6.085938 6.960938 15.058594 10.953125 24.617188 10.953125 9.554688 0 18.527344-3.992187 24.613281-10.953125 2.726563-3.121094 2.410157-7.859375-.710937-10.585937-3.117188-2.726563-7.855469-2.40625-10.582032.710937zm0 0"/><path d="m271.738281 269.628906h50.878907c10.09375 0 18.308593-8.210937 18.308593-18.308594v-47.078124c0-10.09375-8.214843-18.308594-18.308593-18.308594h-50.878907c-10.097656 0-18.308593 8.214844-18.308593 18.308594v47.078124c0 10.097657 8.210937 18.308594 18.308593 18.308594zm-3.308593-65.386718c0-1.824219 1.484374-3.304688 3.308593-3.304688h50.878907c1.824218 0 3.308593 1.480469 3.308593 3.304688v47.078124c0 1.824219-1.484375 3.308594-3.308593 3.308594h-50.878907c-1.824219 0-3.308593-1.484375-3.308593-3.308594zm0 0"/><path d="m290.21875 495.304688c21.546875 0 42.195312-9.152344 56.660156-25.101563 0 0 22.671875-24.988281 22.675782-24.992187 2.128906-2.347657 6.0625-1.625 7.253906 1.28125l12.179687 29.742187c4.753907 11.585937 15.914063 19.070313 28.429688 19.070313h43.386719c11.53125 0 22-6.390626 27.324218-16.675782 15.839844-30.585937 23.871094-62.753906 23.871094-95.601562 0-37.78125-6.003906-59.519532-12.363281-82.53125-3.382813-12.257813-6.886719-24.929688-9.863281-41.074219-4.726563-25.585937-7.074219-54.425781-7.332032-90.296875 16.851563-3.488281 29.554688-18.441406 29.554688-36.3125v-95.730469c0-20.445312-16.632813-37.082031-37.082032-37.082031h-32.226562c-4.144531 0-7.5 3.359375-7.5 7.5 0 4.144531 3.355469 7.5 7.5 7.5h32.226562c12.175782 0 22.082032 9.90625 22.082032 22.082031v95.730469c0 12.175781-9.90625 22.082031-22.082032 22.082031h-212.644531c-12.175781 0-22.082031-9.90625-22.082031-22.082031v-95.730469c0-12.175781 9.90625-22.082031 22.082031-22.082031h150.417969c4.140625 0 7.5-3.355469 7.5-7.5 0-4.140625-3.359375-7.5-7.5-7.5h-150.417969c-20.449219 0-37.082031 16.636719-37.082031 37.082031v95.730469c0 11.871094 5.613281 22.453125 14.320312 29.242188-10.339843 7.214843-17.121093 19.1875-17.121093 32.722656v66.011718c0 11.273438 4.707031 21.457032 12.246093 28.71875-7.25 16.074219-16.472656 28.335938-27.46875 36.472657-11.324218 8.378906-24.902343 12.628906-40.367187 12.628906-35.96875 0-78.871094-36.472656-101.246094-58.210937-14.757812-14.34375-40.050781-9.035157-47.914062 9.902343-18.234375 43.964844-31.550781 108.242188 8.558593 164.789063 17.867188 25.179687 47.152344 40.214844 78.34375 40.214844zm177.226562-325.410157c.257813 32.425781 2.207032 59.324219 6.050782 83.386719h-101.527344v-58.503906c0-8.796875-3.039062-17.410156-8.359375-24.390625-.125-.164063-.25-.332031-.378906-.492188zm-230.058593 24.882813c0-13.722656 11.164062-24.882813 24.882812-24.882813h69.816407c13.417968 0 24.878906 11.476563 24.878906 24.882813v66.011718c0 13.71875-11.160156 24.882813-24.878906 24.882813 0 0-69.808594 0-69.816407 0-13.4375 0-24.882812-11.300781-24.882812-24.882813zm-198.953125 251.632812c-25.554688-36.023437-26.835938-76.035156-19.460938-110.695312 2.441406 10.960937 5.84375 21.699218 9.183594 30.929687 8.097656 22.378907 17.976562 45.007813 31.804688 64.5 10.113281 14.257813 26.777343 22.769531 44.578124 22.769531h35.136719c4.140625 0 7.5-3.359374 7.5-7.5 0-4.144531-3.359375-7.5-7.5-7.5h-35.136719c-12.949218 0-25.039062-6.148437-32.34375-16.449218-11.875-16.738282-20.25-35.660156-27.625-54.722656-.011718-.03125-.023437-.058594-.035156-.089844-7.441406-19.394532-13.144531-39.8125-13.992187-56.121094-.222657-4.484375-.761719-11.960938 1.28125-16.226562 4.226562-8.832032 16.253906-10.972657 23.273437-4.152344 53.121094 51.621094 90.0625 62.457031 111.699219 62.457031 18.746094 0 35.328125-5.238281 49.289063-15.570313 12.582031-9.308593 23.074218-22.828124 31.265624-40.253906.320313.128906.644532.246094.96875.367188 4.449219 1.664062 9.199219 2.519531 13.945313 2.519531h69.816406.082031c18.734376-.003906 35.613282-13.976563 39.09375-32.386719h104.949219c2.808594 13.894532 5.933594 25.214844 8.96875 36.203125 5.886719 21.304688 11.027344 39.914063 11.738281 71.039063h-112.65625c-20.0625 0-38.957031 8.816406-51.835937 24.191406 0 0-27.511719 32.804688-27.566406 32.859375-3.707031 3.917969-9.097657 6.335937-14.632813 6.335937h-120.542968c-4.144532 0-7.503907 3.355469-7.503907 7.5 0 4.140626 3.359375 7.5 7.503907 7.5h120.539062c9.890625 0 19.371094-4.199218 26.003906-11.515624.066406-.074219 27.695313-33.042969 27.695313-33.042969 10.023437-11.964844 24.726562-18.828125 40.335937-18.828125h112.59375c-1.125 27.828125-8.527344 55.109375-22.042968 81.203125-2.734376 5.285156-8.097657 8.570312-14 8.570312h-43.386719c-6.40625 0-12.117188-3.832031-14.546875-9.757812 0 0-12.171875-29.714844-12.183594-29.742188-5.300781-12.941406-22.847656-16.027343-32.246094-5.667969l-22.671875 24.992188c-11.625 12.820312-28.230469 20.175781-45.546875 20.175781h-185.683594c-26.335937 0-51.046874-12.667969-66.105468-33.890625zm0 0"/></svg>