<svg height="512pt" viewBox="0 -9 512.001 512" width="512pt" xmlns="http://www.w3.org/2000/svg"><path d="m331.5 78.8125-57.347656 156.324219c-2.792969 7.613281-10.042969 12.675781-18.152344 12.675781s-15.359375-5.0625-18.152344-12.675781l-57.347656-156.324219 75.5 2.5zm0 0" fill="#fff3e4"/><path d="m174.675781 78.8125-96.742187 135.527344c-4.710938 6.597656-13.039063 9.558594-20.859375 7.40625-7.820313-2.148438-13.46875-8.949219-14.140625-17.03125l-13.855469-165.9375 72.136719 22.429687zm0 0" fill="#1fd7c3"/><path d="m337.324219 78.8125 96.742187 135.527344c4.710938 6.597656 13.039063 9.558594 20.859375 7.40625 7.820313-2.148438 13.46875-8.949219 14.140625-17.03125l13.855469-165.9375-72.136719 22.425781zm0 0" fill="#ff7f5a"/><path d="m331.5 317.886719-57.347656 156.328125c-2.792969 7.613281-10.042969 12.671875-18.152344 12.671875s-15.359375-5.058594-18.152344-12.671875l-57.347656-156.328125 75.5 2.5zm0 0" fill="#1fd7c3"/><path d="m174.675781 317.886719-96.742187 135.527343c-4.710938 6.601563-13.039063 9.558594-20.859375 7.410157-7.820313-2.148438-13.46875-8.953125-14.140625-17.03125l-13.855469-165.9375 72.136719 22.425781zm0 0" fill="#ff7f5a"/><path d="m337.324219 317.886719 96.742187 135.527343c4.710938 6.601563 13.039063 9.558594 20.859375 7.410157 7.820313-2.148438 13.46875-8.953125 14.140625-17.03125l13.855469-165.9375-72.136719 22.425781zm0 0" fill="#fff3e4"/><path d="m479 85.757812 3.921875-46.980468-72.136719 22.429687-73.460937 17.605469 26.792969 37.535156c24.824218-3.925781 48.804687-9.179687 71.429687-15.746094 15.171875-4.402343 29.683594-9.367187 43.453125-14.84375zm0 0" fill="#ff5d29"/><path d="m180.5 78.8125 15.917969 43.394531c19.613281 1.652344 39.546875 2.496094 59.582031 2.496094 20.039062 0 39.96875-.84375 59.582031-2.496094l15.917969-43.394531-75.5 2.5zm0 0" fill="#ffdebb"/><path d="m29.078125 38.777344 3.921875 46.980468c13.765625 5.480469 28.28125 10.441407 43.453125 14.84375 22.625 6.566407 46.605469 11.820313 71.429687 15.746094l26.792969-37.535156-73.460937-17.605469zm0 0" fill="#00bbc9"/><path d="m256 65.582031c-98.117188 0-189.597656-21.796875-248.5-58.09375v33.496094c22.542969 12.0625 48.589844 22.46875 77.316406 30.804687 51.652344 14.992188 110.847656 22.914063 171.183594 22.914063s119.53125-7.921875 171.183594-22.914063c28.726562-8.335937 54.773437-18.742187 77.316406-30.804687v-33.496094c-58.902344 36.296875-150.382812 58.09375-248.5 58.09375zm0 0" fill="#4a5660"/><path d="m479 324.835938 3.921875-46.980469-72.136719 22.425781-73.460937 17.605469 26.792969 37.535156c24.824218-3.921875 48.804687-9.179687 71.429687-15.742187 15.171875-4.40625 29.6875-9.367188 43.453125-14.84375zm0 0" fill="#ffdebb"/><path d="m180.5 317.886719 15.917969 43.398437c19.613281 1.648438 39.546875 2.496094 59.582031 2.496094 20.039062 0 39.96875-.847656 59.582031-2.496094l15.917969-43.394531-75.5 2.496094zm0 0" fill="#00bbc9"/><path d="m29.078125 277.855469 3.921875 46.980469c13.769531 5.476562 28.28125 10.4375 43.453125 14.839843 22.625 6.566407 46.605469 11.824219 71.429687 15.746094l26.792969-37.535156-73.460937-17.605469zm0 0" fill="#ff5d29"/><path d="m256 304.660156c-98.117188 0-189.597656-21.796875-248.5-58.09375v33.496094c22.542969 12.0625 48.589844 22.464844 77.316406 30.804688 51.652344 14.988281 110.847656 22.914062 171.183594 22.914062s119.53125-7.925781 171.183594-22.914062c28.726562-8.335938 54.773437-18.742188 77.316406-30.804688v-33.496094c-58.902344 36.296875-150.382812 58.09375-248.5 58.09375zm0 0" fill="#4a5660"/><path d="m103.691406 54.542969c4.007813 1.039062 8.101563-1.367188 9.144532-5.375 1.042968-4.007813-1.363282-8.105469-5.375-9.144531-37.691407-9.796876-70-22.894532-96.027344-38.933594-4.914063-3.027344-11.433594.625-11.433594 6.386718v33.496094c0 2.765625 1.523438 5.308594 3.960938 6.613282 6.136718 3.28125 12.519531 6.433593 19.117187 9.457031l12.378906 148.28125c.933594 11.171875 8.820313 20.671875 19.628907 23.644531 10.726562 2.949219 22.488281-1.226562 28.953124-10.285156l86.9375-121.792969c2.839844.359375 5.6875.707031 8.546876 1.03125l51.285156 139.785156c3.859375 10.523438 13.984375 17.59375 25.191406 17.59375s21.332031-7.070312 25.191406-17.59375l51.285156-139.785156c2.859376-.324219 5.707032-.671875 8.546876-1.03125 0 0 86.878906 121.710937 86.9375 121.792969 6.453124 9.042968 18.253906 13.226562 28.953124 10.285156 10.808594-2.972656 18.695313-12.472656 19.628907-23.644531l12.378906-148.277344c6.597656-3.023437 12.976563-6.175781 19.117187-9.460937 2.4375-1.304688 3.960938-3.847657 3.960938-6.613282 0 0 0-33.460937 0-33.496094 0-5.753906-6.527344-9.410156-11.433594-6.382812-57.902344 35.675781-149.328125 56.976562-244.566406 56.976562-41.390625 0-81.734375-3.863281-119.90625-11.484374-4.058594-.808594-8.011719 1.824218-8.820312 5.886718-.8125 4.0625 1.824218 8.011719 5.886718 8.824219 39.132813 7.8125 80.464844 11.773437 122.839844 11.773437 81.542969 0 168.648438-12.867187 241-52.5625v15.9375c-5.898438 3.046876-12.027344 5.972657-18.355469 8.78125-48.0625 21.308594-100.273437 32.78125-152.394531 38.28125-23.328125 2.460938-46.789062 3.683594-70.25 3.683594-20.511719 0-40.980469-1.027344-61.410156-2.8125-.074219-.007812-.148438-.015625-.222656-.019531-36.308594-3.335937-72.425782-9.621094-107.460938-19.785156-24.746094-7.183594-49-16.292969-71.90625-28.132813v-15.921875c25.082031 13.804688 54.847656 25.226563 88.691406 34.023438zm50.511719 40.027343s-82.28125 115.273438-82.371094 115.398438c-2.84375 3.984375-8.054687 5.832031-12.769531 4.535156-4.765625-1.3125-8.246094-5.5-8.65625-10.425781l-11.714844-140.296875c.097656.039062.199219.078125.296875.117188 33.957031 13.765624 69.640625 23.046874 105.738281 29.144531 3.140626.53125 6.300782 1.042969 9.476563 1.527343zm112.90625 137.972657c-1.703125 4.636719-6.167969 7.757812-11.109375 7.757812s-9.40625-3.121093-11.109375-7.757812l-48.78125-132.96875c2.296875.203125 4.597656.390625 6.90625.566406 17.621094 1.359375 35.308594 2.050781 52.984375 2.050781 17.683594 0 35.363281-.695312 52.996094-2.050781 2.300781-.175781 4.597656-.363281 6.894531-.5625zm206.199219-168.761719-11.714844 140.296875c-.410156 4.925781-3.890625 9.113281-8.65625 10.425781-4.585938 1.261719-9.878906-.488281-12.765625-4.535156l-82.375-115.398438c38.941406-5.964843 77.546875-15.539062 114.144531-30.238281.367188-.148437.734375-.296875 1.101563-.445312.085937-.035157.175781-.070313.265625-.105469zm0 0"/><path d="m3.960938 286.660156c6.136718 3.285156 12.519531 6.4375 19.117187 9.460938l12.378906 148.28125c.933594 11.167968 8.820313 20.667968 19.628907 23.640625 10.730468 2.949219 22.488281-1.226563 28.953124-10.285157l86.9375-121.789062c2.84375.355469 5.6875.703125 8.550782 1.027344l51.28125 139.785156c3.859375 10.523438 13.984375 17.59375 25.191406 17.59375 11.210938 0 21.332031-7.070312 25.191406-17.59375l51.285156-139.785156c2.859376-.324219 5.707032-.671875 8.546876-1.027344 0 0 86.882812 121.714844 86.9375 121.789062 6.453124 9.039063 18.253906 13.226563 28.953124 10.285157 10.808594-2.972657 18.695313-12.472657 19.628907-23.640625l12.378906-148.285156c6.597656-3.019532 12.980469-6.171876 19.117187-9.457032 2.4375-1.304687 3.960938-3.847656 3.960938-6.613281 0 0 0-33.414063 0-33.496094 0-5.769531-6.515625-9.414062-11.433594-6.382812-23.292968 14.351562-51.761718 26.40625-84.613281 35.828125-3.980469 1.140625-6.28125 5.292968-5.140625 9.277344 1.140625 3.980468 5.292969 6.28125 9.277344 5.140624 29.003906-8.316406 54.8125-18.664062 76.910156-30.820312v15.925781c-5.898438 3.046875-12.023438 5.972657-18.355469 8.78125-42.785156 18.96875-88.847656 30.066407-135.125 36.242188-28.992187 3.867187-58.273437 5.726562-87.515625 5.726562-29.238281 0-58.5625-1.808593-87.542968-5.730469-46.246094-6.167968-92.308594-17.289062-135.066407-36.222656-6.34375-2.8125-12.484375-5.742187-18.394531-8.796875v-15.9375c27.914062 15.316407 62.292969 27.992188 100.328125 36.929688 43.527344 10.230469 92.171875 15.636719 140.675781 15.636719 47.101563 0 92.640625-4.855469 135.355469-14.429688 4.039063-.90625 6.582031-4.917969 5.675781-8.960938-.90625-4.042968-4.914062-6.582031-8.957031-5.679687-41.636719 9.335937-86.074219 14.066406-132.074219 14.066406-95.242187 0-186.667968-21.296875-244.566406-56.976562-4.925781-3.03125-11.4375.628906-11.4375 6.386719v33.496093c0 2.765625 1.523438 5.308594 3.960938 6.609375zm150.242187 46.988282s-82.332031 115.339843-82.375 115.398437c-2.847656 3.988281-8.046875 5.835937-12.765625 4.53125-4.765625-1.308594-8.246094-5.5-8.65625-10.421875l-11.714844-140.296875c.105469.039063.210938.082031.3125.125 36.097656 14.777344 74.386719 24.257813 112.859375 30.300781.25.039063 2.234375.511719 2.339844.363282zm112.90625 137.96875c-1.703125 4.640624-6.167969 7.757812-11.109375 7.757812s-9.40625-3.117188-11.109375-7.757812l-48.78125-132.964844c2.296875.203125 4.597656.390625 6.90625.566406 17.621094 1.367188 35.308594 2.050781 52.984375 2.050781 19.984375 0 39.980469-.875 59.890625-2.617187zm206.199219-168.757813-11.714844 140.296875c-.410156 4.921875-3.890625 9.113281-8.65625 10.421875-4.730469 1.304687-9.914062-.53125-12.765625-4.53125l-82.375-115.398437c6.515625-1 13.007813-2.105469 19.484375-3.316407 32.667969-6.097656 64.910156-14.867187 95.734375-27.359375.09375-.035156.195313-.074218.292969-.113281zm0 0"/></svg>