<svg height="511pt" viewBox="0 0 511.99947 511" width="511pt" xmlns="http://www.w3.org/2000/svg"><path d="m316.96875 371.53125-85.183594 85.1875-97.308594-78.714844-78.714843-97.308594 85.1875-85.183593 67.542969-26.636719 109.082031 26.03125 26.03125 104.125zm0 0" fill="#fff3e4"/><path d="m343.605469 299.03125-26.027344-104.125-16.921875-4.039062 21.734375 86.949218-26.636719 72.5-85.183594 85.183594-85.582031-69.222656 9.488281 11.726562 97.308594 78.714844 85.183594-85.1875zm0 0" fill="#ffdebb"/><path d="m345.46875 343.035156-9.90625 9.902344-39.671875-39.671875c26.347656-26.730469 26.234375-69.742187-.347656-96.328125-13.289063-13.289062-30.683594-19.964844-48.109375-20.019531-17.414063-.0625-34.855469 6.496093-48.21875 19.671875l-39.671875-39.671875 9.902343-9.902344c39.597657-39.601563 89.90625-39.742187 115.144532-36.667969 11.003906 1.34375 22.097656-1.605468 31.007812-8.1875l11.347656-8.375 52.609376 19.140625 19.140624 52.605469-8.375 11.347656c-6.582031 8.914063-9.535156 20.007813-8.1875 31.007813 3.074219 25.242187 2.933594 75.550781-36.664062 115.148437zm0 0" fill="#1fd7c3"/><path d="m382.132812 227.890625c-1.34375-11 1.605469-22.09375 8.1875-31.007813l8.375-11.347656-19.140624-52.609375-15.554688-5.660156 13.480469 37.054687-8.375 11.347657c-6.582031 8.910156-9.53125 20.003906-8.1875 31.007812 3.074219 25.238281 2.929687 75.546875-36.667969 115.144531l-9.902344 9.902344 21.214844 21.214844 9.902344-9.902344c39.601562-39.597656 39.742187-89.90625 36.667968-115.144531zm0 0" fill="#00bbc9"/><path d="m213.191406 475.3125-18.878906 18.878906c-14.417969 14.414063-37.796875 14.414063-52.210938 0l-123.808593-123.8125c-14.417969-14.414062-14.417969-37.792968 0-52.210937l18.875-18.878907 97.308593 78.714844zm0 0" fill="#1fd7c3"/><path d="m134.476562 378.003906-11.726562-9.488281 69.226562 85.582031-18.878906 18.878906c-14.417968 14.414063-37.792968 14.414063-52.210937 0l21.214843 21.214844c14.414063 14.414063 37.792969 14.414063 52.210938 0l18.878906-18.878906zm0 0" fill="#00bbc9"/><path d="m398.695312 185.535156-71.75-71.75 76.328126-56.308594 49.417968 2.3125 2.3125 49.417969zm0 0" fill="#fff3e4"/><path d="m455.003906 109.207031-2.3125-49.417969-20.269531-.945312 1.367187 29.148438-56.308593 76.328124 21.214843 21.214844zm0 0" fill="#ffdebb"/><path d="m335.5625 352.9375-18.59375 18.59375-51.035156-51.03125c-3.929688-3.929688-3.945313-10.296875-.046875-14.253906l10.765625-10.917969c16.175781-16.410156 16.546875-43.644531.203125-59.890625-7.894531-7.84375-18.371094-12.183594-29.515625-12.21875-11.175782-.042969-21.710938 4.257812-29.664063 12.097656l-11.441406 11.277344c-3.953125 3.90625-10.324219 3.882812-14.253906-.046875l-51.035157-51.035156 18.59375-18.59375 39.675782 39.671875c13.359375-13.175782 30.800781-19.734375 48.21875-19.671875 17.421875.054687 34.820312 6.730469 48.109375 20.019531 26.582031 26.585938 26.691406 69.597656.34375 96.328125zm0 0" fill="#ff7f5a"/><path d="m295.75 350.316406 18.59375-18.59375 21.214844 21.214844-18.59375 18.59375zm0 0" fill="#ff5d29"/><path d="m37.167969 299.289062 18.59375-18.59375 176.019531 176.019532-18.59375 18.59375zm0 0" fill="#ff7f5a"/><path d="m191.972656 454.09375 18.589844-18.59375 21.214844 21.214844-18.589844 18.59375zm0 0" fill="#ff5d29"/><path d="m257.609375 254.683594c-6.847656-6.847656-17.949219-6.847656-24.796875 0l-11.085938 11.085937c-6.851562 6.847657-6.851562 17.953125 0 24.800781 6.847657 6.847657 17.949219 6.847657 24.796876 0l11.085937-11.085937c6.851563-6.847656 6.851563-17.953125 0-24.800781zm0 0" fill="#ffb44d"/><path d="m483.570312 107.335938 16.695313-21.753907c6.292969-8.195312 5.53125-19.789062-1.773437-27.09375l-44.5-44.5c-7.304688-7.304687-18.898438-8.066406-27.09375-1.773437l-21.757813 16.695312c-9.121094 7-10.003906 20.433594-1.871094 28.566406l51.734375 51.730469c8.132813 8.132813 21.566406 7.253907 28.566406-1.871093zm0 0" fill="#ffb44d"/><path d="m483.570312 107.335938 16.695313-21.753907c6.292969-8.195312 5.53125-19.789062-1.773437-27.09375l-21.214844-21.214843c7.304687 7.304687 8.0625 18.898437 1.773437 27.09375l-16.695312 21.753906c-7 9.125-20.433594 10.003906-28.566407 1.871094l21.214844 21.214843c8.132813 8.132813 21.566406 7.253907 28.566406-1.871093zm0 0" fill="#e7a25d"/><path d="m138.222656 263.882812-9.023437 9.023438c-2.929688 2.929688-2.929688 7.675781 0 10.605469 2.894531 2.894531 7.71875 2.890625 10.609375 0l9.023437-9.023438c2.929688-2.929687 2.929688-7.679687 0-10.609375-2.929687-2.925781-7.679687-2.925781-10.609375.003906zm0 0"/><path d="m237.953125 363.609375-9.027344 9.023437c-2.925781 2.929688-2.925781 7.679688 0 10.609376 2.820313 2.816406 7.679688 2.929687 10.609375 0l9.023438-9.023438c2.929687-2.929688 2.929687-7.679688 0-10.609375-2.929688-2.929687-7.679688-2.929687-10.605469 0zm0 0"/><path d="m173.191406 307.65625c-4.128906-.28125-7.710937 2.847656-7.988281 6.980469-.582031 8.644531 2.714844 17.230469 9.042969 23.558593 5.847656 5.847657 13.628906 9.109376 21.601562 9.109376 4.734375 0 9.296875-2.707032 8.9375-8.054688-.277344-4.132812-3.839844-7.261719-7.988281-6.980469-4.316406.289063-8.679687-1.414062-11.941406-4.679687-3.269531-3.269532-4.972657-7.621094-4.683594-11.949219.277344-4.132813-2.847656-7.707031-6.980469-7.984375zm0 0"/><path d="m262.917969 284.746094c4.730469-4.730469 7.332031-11.019532 7.332031-17.707032s-2.601562-12.972656-7.332031-17.703124c-4.730469-4.730469-11.015625-7.332032-17.703125-7.332032s-12.976563 2.601563-17.703125 7.332032l-11.085938 11.085937c-9.761719 9.761719-9.761719 25.644531 0 35.40625 4.726563 4.730469 11.015625 7.335937 17.703125 7.335937s12.972656-2.605468 17.703125-7.335937zm-28.789063 3.414062c-2.679687 0-5.203125-1.042968-7.097656-2.9375-3.914062-3.914062-3.914062-10.28125 0-14.195312l11.085938-11.082032c1.894531-1.894531 4.414062-2.941406 7.097656-2.941406 2.679687 0 5.199218 1.046875 7.097656 2.941406 1.894531 1.894532 2.9375 4.414063 2.9375 7.09375 0 2.683594-1.042969 5.203126-2.9375 7.097657l-11.085938 11.085937c-1.898437 1.894532-4.417968 2.9375-7.097656 2.9375zm0 0"/><path d="m459.300781 8.640625c-9.847656-9.847656-25.929687-10.890625-36.964843-2.417969 0 0-21.742188 16.683594-21.757813 16.695313-9.933594 7.621093-13.175781 21.59375-7.628906 32.8125 0 0-70.453125 51.976562-70.457031 51.980469l-11.347657 8.371093c-7.425781 5.484375-16.53125 7.890625-25.644531 6.777344-12.867188-1.566406-25.8125-1.648437-38.480469-.238281-4.117187.460937-7.082031 4.167968-6.621093 8.285156.457031 4.117188 4.167968 7.085938 8.28125 6.625 14.339843-1.59375 26.953124-.761719 35.003906.21875 12.933594 1.582031 25.851562-1.828125 36.371094-9.597656l6.15625-4.542969 62.617187 62.621094-4.539063 6.152343c-7.769531 10.523438-11.179687 23.441407-9.597656 36.371094 3.015625 24.773438 2.542969 71.863282-34.527344 108.933594l-4.597656 4.601562-29.363281-29.359374c2.964844-3.667969 5.582031-7.609376 7.808594-11.765626 15.542969-29.019531 10.113281-66.296874-13.164063-89.570312-27.035156-27.035156-71.648437-29.453125-101.339844-5.359375l-29.355468-29.359375 4.597656-4.597656c12.945312-12.945313 28.265625-22.515625 45.535156-28.445313 3.917969-1.347656 6.003906-5.613281 4.65625-9.53125-1.34375-3.917969-5.609375-6.003906-9.527344-4.65625-19.449218 6.679688-36.695312 17.453125-51.269531 32.023438l-151.15625 151.15625c-17.316406 17.316406-17.316406 45.496093 0 62.816406l123.808594 123.808594c8.390625 8.390625 19.546875 13.011719 31.410156 13.011719 11.867188 0 23.019531-4.621094 31.410157-13.011719l61.519531-61.515625c2.929687-2.929688 2.929687-7.679688 0-10.609375-2.929688-2.929688-7.679688-2.929688-10.605469 0l-18.746094 18.742187-165.410156-165.414062 74.574219-74.574219s45.683593 45.683594 45.730469 45.730469c6.621093 6.621094 18.171874 6.652344 24.824218.085937 0 0 11.4375-11.273437 11.441406-11.28125 13.289063-13.101562 35.382813-13.058593 48.625.105469 12.820313 12.742188 13.113282 34.332031.957032 48.003906-3.777344 4.25-7.992188 8.167969-11.984375 12.21875-6.671875 6.761719-6.617188 18.109375.089843 24.820313l45.730469 45.730469-35.046875 35.042968c-2.925781 2.929688-2.925781 7.679688 0 10.609375 2.929688 2.925781 7.679688 2.925781 10.609375 0l68.847657-68.847656c41.566406-41.566406 42.15625-93.875 38.808593-121.359375-1.117187-9.109375 1.289063-18.21875 6.777344-25.644531 0 0 8.371094-11.351563 8.375-11.355469l51.964844-70.441406c3.613281 1.792968 7.613281 2.746094 11.757812 2.746094 8.324219 0 16.003907-3.785157 21.066407-10.382813l16.695312-21.753906c8.550781-11.140625 7.511719-27.035157-2.421875-36.964844 0 0-44.464844-44.464844-44.496094-44.5zm-270.289062 480.203125c-5.558594 5.554688-12.945313 8.613281-20.804688 8.613281s-15.246093-3.058593-20.800781-8.613281l-123.808594-123.808594c-11.46875-11.472656-11.46875-30.136718 0-41.605468l13.574219-13.574219 165.414063 165.414062zm24.179687-24.183594-165.410156-165.414062 7.984375-7.984375 165.414063 165.414062zm103.78125-103.777344s-45.710937-45.707031-45.730468-45.730468c-1-1-1.003907-2.679688-.015626-3.683594 3.613282-3.617188 7.179688-7.28125 10.769532-10.917969 18.789062-19.046875 19.265625-51.476562.148437-70.476562-18.710937-18.597657-50.945312-18.660157-69.730469-.144531l-11.445312 11.285156c-.996094.980468-2.691406.957031-3.679688-.015625l-45.730468-45.730469 7.984375-7.988281 34.371093 34.371093c2.914063 2.914063 7.636719 2.929688 10.570313.035157 23.445313-23.121094 62.472656-22.972657 85.757813.3125 23.28125 23.28125 23.390624 62.339843.308593 85.757812-2.863281 2.902344-2.839843 7.691407.039063 10.566407l34.367187 34.371093zm85.5625-293.582031 42.601563 42.601563-47.300781 64.121094-59.417969-59.421876zm91.785156 13.671875s-16.660156 21.710938-16.695312 21.753906c-4.183594 5.449219-12.46875 5.980469-17.316406 1.132813 0 0-51.601563-51.601563-51.730469-51.730469-4.859375-4.851562-4.285156-13.152344 1.132813-17.3125 0 0 21.738281-16.679687 21.757812-16.695312 5.15625-3.957032 12.628906-3.464844 17.222656 1.128906l44.5 44.496094c4.625 4.628906 5.113282 12.035156 1.128906 17.226562zm0 0"/></svg>