<svg height="511pt" viewBox="0 -82 511.99967 511" width="511pt" xmlns="http://www.w3.org/2000/svg"><path d="m200.328125 229.746094s-62.355469 110.398437-136.386719 110.398437c-65.59375 0-65.664062-95.550781-42.515625-148.179687 5.007813-11.382813 5.007813-24.394532 0-35.78125-23.148437-52.628906-23.078125-148.179688 42.515625-148.179688 74.03125 0 136.386719 110.402344 136.386719 110.402344zm0 0" fill="#1fd7c3"/><path d="m51.4375 191.964844c5.007812-11.382813 5.007812-24.394532 0-35.777344-21.347656-48.539062-22.949219-133.582031 28.382812-146.511719-5.21875-1.074219-10.519531-1.671875-15.878906-1.671875-65.59375 0-65.664062 95.550782-42.515625 148.179688 5.007813 11.386718 5.007813 24.398437 0 35.78125-23.148437 52.628906-23.078125 148.179687 42.515625 148.179687 5.359375 0 10.660156-.59375 15.878906-1.667969-51.332031-12.933593-49.730468-97.972656-28.382812-146.511718zm0 0" fill="#00bbc9"/><path d="m311.671875 229.746094s62.355469 110.398437 136.386719 110.398437c65.589844 0 65.660156-95.550781 42.511718-148.179687-5.007812-11.382813-5.007812-24.394532 0-35.78125 23.148438-52.628906 23.078126-148.179688-42.511718-148.179688-74.03125 0-136.386719 110.398438-136.386719 110.398438zm0 0" fill="#1fd7c3"/><path d="m300.347656 102.835938h-88.699218c-15.375 0-27.835938 12.460937-27.835938 27.832031v86.8125c0 15.375 12.460938 27.835937 27.835938 27.835937h88.699218c15.375 0 27.835938-12.460937 27.835938-27.835937v-86.8125c0-15.371094-12.460938-27.832031-27.835938-27.832031zm0 0" fill="#00bbc9"/><path d="m497.234375 26.585938c-11.136719-17.0625-28.140625-26.082032-49.175781-26.082032-15.589844 0-31.75 4.5-48.027344 13.378906-3.636719 1.984376-4.976562 6.539063-2.992188 10.179688 1.980469 3.636719 6.539063 4.976562 10.175782 2.992188 14.050781-7.660157 27.789062-11.546876 40.84375-11.546876 15.945312 0 28.261718 6.488282 36.609375 19.277344 18.855469 28.894532 14.179687 83.945313-.964844 118.378906-5.84375 13.289063-5.84375 28.53125 0 41.820313 15.144531 34.4375 19.820313 89.488281.964844 118.378906-8.347657 12.792969-20.664063 19.277344-36.609375 19.277344-53.738282 0-102.742188-65.039063-120.847656-92.199219 3.882812-4.523437 6.527343-9.921875 7.734374-15.75.773438-3.746094.742188-7.503906.742188-11.300781 17.101562 7.449219 41.132812 16.21875 70.832031 22.738281 3.996094.878906 8.058594-1.722656 8.9375-5.71875.890625-4.046875-1.671875-8.046875-5.71875-8.9375-32.265625-7.082031-57.507812-16.898437-74.050781-24.523437v-45.75c16.542969-7.625 41.785156-17.441407 74.050781-24.523438 4.046875-.890625 6.609375-4.890625 5.71875-8.9375-.886719-4.046875-4.886719-6.609375-8.9375-5.722656-29.699219 6.523437-53.730469 15.292969-70.832031 22.742187 0-3.234374.0625-6.488281-.449219-9.691406-.996093-6.257812-3.804687-12.449218-8.027343-17.363281 11.207031-16.867187 31.066406-43.632813 56.035156-64.203125 3.195312-2.636719 3.652344-7.363281 1.019531-10.5625-2.636719-3.195312-7.363281-3.65625-10.5625-1.019531-26.03125 21.445312-46.652344 49.015625-58.472656 66.707031-4.527344-2.109375-9.566407-3.296875-14.878907-3.296875h-88.699218c-5.316406 0-10.355469 1.1875-14.882813 3.296875-9.566406-14.300781-25.734375-36.308594-46.113281-55.730469-29.507812-28.132812-58.683594-42.394531-86.714844-42.394531-21.035156 0-38.039062 9.019531-49.175781 26.082031-21.890625 33.539063-17.292969 93.769531-.203125 132.621094 4.15625 9.449219 4.15625 20.289063 0 29.738281-17.089844 38.851563-21.6875 99.082032.203125 132.621094 11.136719 17.066406 28.140625 26.082031 49.175781 26.082031 18.050782 0 36.78125-6.011719 55.683594-17.867187 3.511719-2.199219 4.570312-6.832032 2.367188-10.339844-2.199219-3.511719-6.832032-4.574219-10.339844-2.371094-16.476563 10.335938-32.527344 15.574219-47.710938 15.574219-15.945312 0-28.261718-6.484375-36.609375-19.277344-18.855469-28.894531-14.179687-83.945312.964844-118.378906 5.84375-13.289063 5.84375-28.53125 0-41.824219-15.148437-34.433594-19.820313-89.484375-.964844-118.378906 8.347657-12.789062 20.664063-19.277344 36.609375-19.277344 53.738282 0 102.742188 65.042969 120.84375 92.203125-3.882812 4.523438-6.527344 9.925781-7.730468 15.75-.777344 3.710938-.742188 7.527344-.742188 11.300781-17.101562-7.449218-41.132812-16.222656-70.832031-22.742187-4.050781-.890625-8.046875 1.671875-8.9375 5.722656-.886719 4.042969 1.671875 8.046875 5.71875 8.933594 32.269531 7.085937 57.507812 16.902344 74.050781 24.527344v45.746093c-16.542969 7.628907-41.78125 17.445313-74.050781 24.527344-4.046875.890625-6.605469 4.890625-5.71875 8.9375.875 3.976563 4.96875 6.589844 8.9375 5.71875 29.699219-6.519531 53.730469-15.289062 70.835937-22.738281 0 3.804687-.035156 7.550781.742188 11.300781 1.203125 5.828125 3.847656 11.230469 7.730468 15.75-10.097656 15.191406-27.765624 39.210938-50.027343 59.054688-3.09375 2.757812-3.367188 7.5-.609375 10.59375 2.757812 3.09375 7.5 3.367187 10.59375.609375 23.089844-20.582031 41.382812-45.261719 52.027344-61.179688 4.523437 2.109375 9.5625 3.296875 14.878906 3.296875h88.699218c5.3125 0 10.351563-1.1875 14.878907-3.296875 9.566406 14.300781 25.738281 36.308594 46.113281 55.730469 29.507812 28.132812 58.683594 42.394531 86.714844 42.394531 21.035156 0 38.039062-9.019531 49.175781-26.082031 21.890625-33.539062 17.292969-93.769531.203125-132.621094-4.15625-9.449218-4.15625-20.289062 0-29.738281 17.089844-38.847656 21.6875-99.078125-.203125-132.617187zm-285.585937 211.226562c-10.949219 0-20.332032-9.210938-20.332032-20.332031 0 0 0-86.769531 0-86.8125 0-11.042969 9.300782-20.328125 20.332032-20.328125h88.699218c10.878906 0 20.332032 9.3125 20.332032 20.332031v86.808594c0 11.039062-9.316407 20.332031-20.332032 20.332031 0 0-88.695312 0-88.699218 0zm0 0"/></svg>