<svg height="512pt" viewBox="-7 0 512 512" width="512pt" xmlns="http://www.w3.org/2000/svg"><path d="m94.632812 113.546875c48.648438-52.070313 130.234376-64.96875 196.925782-48.472656 52.257812 12.929687 99.121094 45.699219 153.703125 51.320312 2.402343.25 3.683593.378907 3.683593.378907l1.652344 33.886718s-1.582031.203125-4.554687.582032c-50.808594 6.527343-99.921875-13.628907-148.65625-24.390626-45.523438-10.050781-89.597657-4.296874-131.148438 17.140626-9.355469 4.828124-37.65625 25.957031-37.300781 26.546874zm0 0" fill="#ffe76c"/><path d="m488.480469 110.582031c5.65625-11.953125.867187-26.238281-10.851563-32.363281-12.109375-6.328125-27.046875-1.597656-33.304687 10.546875-29.101563 56.492187-99.246094 209.0625-298.570313 327.859375l130.433594 25.875 117.816406-25.875c-16.566406-32.070312-17.226562-70.035156-1.785156-102.664062zm0 0" fill="#ffb44d"/><path d="m75.039062 32.105469h60.871094v410.390625h-60.871094zm0 0" fill="#ffb44d"/><path d="m75.039062 32.105469h30v410.390625h-30zm0 0" fill="#e7a25d"/><path d="m135.910156 7.5h-60.871094c-13.585937 0-24.601562 11.015625-24.601562 24.605469 0 13.585937 11.015625 24.601562 24.601562 24.601562h60.871094c13.585938 0 24.605469-11.015625 24.605469-24.601562 0-13.589844-11.019531-24.605469-24.605469-24.605469zm0 0" fill="#ffe76c"/><path d="m80.4375 32.105469c0-13.589844 11.015625-24.605469 24.601562-24.605469h-30c-13.585937 0-24.601562 11.015625-24.601562 24.605469 0 13.585937 11.015625 24.601562 24.601562 24.601562h30c-13.585937 0-24.601562-11.015625-24.601562-24.601562zm0 0" fill="#ffb44d"/><path d="m394.003906 416.625h-318.964844c-37.292968 0-67.527343 30.234375-67.527343 67.527344 0 11.238281 9.109375 20.347656 20.347656 20.347656h413.324219c11.238281 0 20.347656-9.109375 20.347656-20.347656 0-37.292969-30.234375-67.527344-67.527344-67.527344zm0 0" fill="#ffe76c"/><path d="m37.511719 484.152344c0-37.292969 30.234375-67.527344 67.527343-67.527344h-30c-37.292968 0-67.527343 30.234375-67.527343 67.527344 0 11.238281 9.109375 20.347656 20.347656 20.347656h30c-11.238281 0-20.347656-9.109375-20.347656-20.347656zm0 0" fill="#ffb44d"/><path d="m143.839844 443.429688c-4.140625 0-7.5 3.359374-7.5 7.5v16.410156c0 4.144531 3.359375 7.5 7.5 7.5 4.144531 0 7.5-3.355469 7.5-7.5v-16.410156c0-4.140626-3.355469-7.5-7.5-7.5zm0 0"/><path d="m325.179688 443.429688c-4.144532 0-7.5 3.359374-7.5 7.5v16.410156c0 4.144531 3.355468 7.5 7.5 7.5 4.140624 0 7.5-3.355469 7.5-7.5v-16.410156c0-4.140626-3.359376-7.5-7.5-7.5zm0 0"/><path d="m261.824219 460.550781c-3.117188-2.726562-7.855469-2.40625-10.582031.710938-4.078126 4.664062-10.175782 7.335937-16.730469 7.335937-6.558594 0-12.65625-2.671875-16.734375-7.335937-2.726563-3.117188-7.460938-3.4375-10.582032-.710938-3.117187 2.726563-3.4375 7.464844-.710937 10.582031 6.925781 7.921876 17.140625 12.464844 28.027344 12.464844 10.882812 0 21.097656-4.542968 28.023437-12.460937 2.726563-3.121094 2.40625-7.859375-.710937-10.585938zm0 0"/><path d="m481.089844 71.570312c-15.613282-8.160156-35.394532-1.867187-43.441406 13.757813-.925782 1.800781-9.679688 20.699219-10.476563 20.527344-23.535156-5.152344-46.398437-14.875-68.5625-24.308594-20.980469-8.929687-42.675781-18.164063-65.265625-23.75-18.667969-4.617187-38.121094-6.960937-57.824219-6.960937-33.066406 0-64.644531 6.585937-92.121093 19.117187v-6.636719c14.09375-3.386718 24.601562-16.09375 24.601562-31.210937.003906-17.703125-14.398438-32.105469-32.101562-32.105469h-60.871094c-17.703125 0-32.101563 14.402344-32.101563 32.105469 0 15.117187 10.507813 27.820312 24.601563 31.207031v55.910156c0 4.140625 3.359375 7.5 7.5 7.5 4.144531 0 7.5-3.359375 7.5-7.5v-55.015625h45.871094v344.917969h-45.871094v-259.902344c0-4.140625-3.355469-7.5-7.5-7.5-4.140625 0-7.5 3.359375-7.5 7.5v260.277344c-37.863282 3.777344-67.527344 35.8125-67.527344 74.652344 0 15.355468 12.492188 27.847656 27.847656 27.847656h413.324219c15.355469 0 27.847656-12.492188 27.847656-27.847656 0-39.769532-31.109375-72.394532-70.269531-74.859375-9.921875-21.269531-12.699219-45.382813-7.789062-68.390625.863281-4.050782-1.722657-8.039063-5.773438-8.898438-4.050781-.867187-8.035156 1.71875-8.898438 5.769532-5.09375 23.875-2.921874 48.792968 6.050782 71.351562h-210.183594c23.066406-14.75 45.40625-30.660156 66.832031-47.703125 25.339844-20.152344 49.167969-41.738281 71.707031-64.960937 50.96875-52.511719 93.089844-113.226563 126.871094-178.050782 4.535156-8.703125 8.917969-17.484375 13.414063-26.210937 4.292969-8.332031 14.859375-11.671875 23.160156-7.332031 8.183594 4.273437 11.496094 14.160156 7.546875 22.507812l-93.539062 197.628906c-1.773438 3.742188-.175782 8.214844 3.570312 9.988282 3.742188 1.769531 8.214844.171874 9.984375-3.570313l93.542969-197.632813c7.410156-15.648437 1.191406-34.195312-14.15625-42.21875zm-170.515625 66.128907c6.398437 1.613281 12.804687 3.320312 19.117187 5.019531v110.535156c-6.0625 7.097656-12.429687 14.265625-19.117187 21.476563zm34.117187 9.035156c6.328125 1.675781 12.703125 3.308594 19.117188 4.828125v58.449219c-5.960938 8.195312-12.320313 16.570312-19.117188 25.082031zm34.117188 8.117187c6.441406 1.289063 12.917968 2.394532 19.417968 3.25-5.832031 9.671876-12.285156 19.871094-19.417968 30.476563zm-143.289063-89.015624c41.796875 0 79.257813 13.355468 117.21875 29.511718 21.59375 9.191406 43.832031 18.660156 67.25 24.257813-4.003906 7.535156-8.46875 15.691406-13.457031 24.378906-34.804688-3.582031-68.066406-15.25-101.972656-23.1875-47.8125-11.195313-97.953125-6.148437-141.773438 16.527344-4.402344 2.269531-12.09375 7.464843-19.386718 12.667969v-63.410157c26.910156-13.585937 58.652343-20.746093 92.121093-20.746093zm-61.414062 82.605468c6.304687-3.0625 12.683593-5.742187 19.117187-8.066406v236.542969c-6.21875 4.375-12.589844 8.722656-19.117187 13.035156zm34.117187-12.773437c6.328125-1.695313 12.699219-3.058594 19.117188-4.046875v219.867187c-6.195313 4.894531-12.566406 9.765625-19.117188 14.609375zm34.117188-5.695313c4-.269531 8.007812-.421875 12.03125-.421875 2.351562 0 4.714844.0625 7.085937.160157v193.164062c-6.167969 5.5-12.535156 10.992188-19.117187 16.46875zm-184.414063-97.867187c0-9.433594 7.671875-17.105469 17.101563-17.105469h60.871094c9.429687 0 17.105468 7.671875 17.105468 17.105469 0 9.429687-7.675781 17.101562-17.105468 17.101562h-60.871094c-9.429688 0-17.101563-7.671875-17.101563-17.101562zm85.472657 136.453125c5.125-3.824219 10.78125-7.882813 15.707031-11.242188v242.324219c-5.058594 3.1875-10.21875 6.347656-15.457031 9.484375h-.25zm310.621093 315.59375c0 7.085937-5.761719 12.847656-12.84375 12.847656h-413.328125c-7.085937 0-12.847656-5.761719-12.847656-12.847656 0-33.097656 26.925781-60.023438 60.023438-60.027344h.003906 318.964844.003906c33.097656.003906 60.023437 26.929688 60.023437 60.027344zm-177.5625-175.03125v-178.21875c6.355469.761718 12.738281 1.832031 19.117188 3.234375v156.285156c-6.125 6.21875-12.496094 12.457031-19.117188 18.699219zm0 0"/></svg>