<svg height="512pt" viewBox="-71 0 512 512" width="512pt" xmlns="http://www.w3.org/2000/svg"><path d="m338.9375 448.972656c-.75 2.382813-1.511719 4.710938-2.285156 6.984375-9.785156 29.027344-37.046875 48.542969-67.675782 48.542969h-167.347656c-30.632812 0-57.890625-19.515625-67.679687-48.542969-.769531-2.277343-1.53125-4.601562-2.285157-6.984375l153.636719-71.296875zm0 0" fill="#dd9882"/><path d="m63.949219 455.957031c-.769531-2.277343-1.53125-4.601562-2.285157-6.984375l138.636719-64.335937-15-6.960938-153.636719 71.296875c.75 2.382813 1.515626 4.710938 2.285157 6.984375 9.785156 29.027344 37.046875 48.542969 67.675781 48.542969h30c-30.628906 0-57.890625-19.515625-67.675781-48.542969zm0 0" fill="#d86f42"/><path d="m362.152344 261.445312c-11.007813-65.265624-114.605469-88.324218-114.605469-159.769531l-62.246094-47.089843-62.246093 47.089843c0 71.445313-103.601563 94.503907-114.605469 159.769531l38.484375 84.324219h272.828125zm0 0" fill="#dd9882"/><path d="m153.054688 101.675781 47.246093-35.742187-15-11.34375-62.246093 47.085937c0 71.445313-103.601563 94.507813-114.605469 159.769531l38.484375 84.324219h30l-38.484375-84.324219c11.003906-65.261718 114.605469-88.324218 114.605469-159.769531zm0 0" fill="#d86f42"/><path d="m362.613281 300.515625c-1.523437 42.691406-6.515625 78.9375-13.246093 109.390625h-328.132813c-6.730469-30.453125-11.722656-66.699219-13.246094-109.390625h93.902344c18.117187 0 33.628906-12.394531 37.730469-30.152344 4.929687-21.351562 23.714844-36.265625 45.679687-36.265625 21.964844 0 40.75 14.914063 45.679688 36.265625 4.105469 17.757813 19.613281 30.152344 37.730469 30.152344zm0 0" fill="#4a5660"/><path d="m7.988281 300.515625c1.523438 42.691406 6.515625 78.9375 13.246094 109.390625h30c-6.730469-30.453125-11.722656-66.699219-13.246094-109.390625zm0 0" fill="#3d4851"/><path d="m247.550781 7.5h-124.5c-9.058593 0-16.402343 7.34375-16.402343 16.402344v61.371094c0 9.058593 7.34375 16.402343 16.402343 16.402343h124.5c9.058594 0 16.402344-7.347656 16.402344-16.402343v-61.371094c0-9.058594-7.34375-16.402344-16.402344-16.402344zm0 0" fill="#4a5660"/><path d="m136.648438 85.273438v-61.371094c0-9.058594 7.34375-16.402344 16.402343-16.402344h-30c-9.058593 0-16.402343 7.34375-16.402343 16.402344v61.371094c0 9.058593 7.34375 16.402343 16.402343 16.402343h30c-9.058593 0-16.402343-7.34375-16.402343-16.402343zm0 0" fill="#3d4851"/><path d="m363.101562 272.84375c0 9.511719-.164062 18.730469-.488281 27.667969h-93.898437c-18.121094 0-33.628906-12.394531-37.730469-30.148438-4.933594-21.351562-23.714844-36.265625-45.683594-36.265625-21.964843 0-40.746093 14.914063-45.679687 36.265625-4.101563 17.753907-19.613282 30.148438-37.730469 30.148438h-93.902344c-.320312-8.9375-.488281-18.15625-.488281-27.667969 0-3.945312.324219-7.738281.949219-11.398438h93.136719c4.328124-18.585937 14.914062-35.425781 29.839843-47.4375 15.199219-12.238281 34.332031-18.980468 53.875-18.980468s38.679688 6.738281 53.875 18.980468c14.925781 12.019532 25.519531 28.859376 29.839844 47.4375h93.136719c.625 3.664063.949218 7.453126.949218 11.398438zm0 0" fill="#ffb44d"/><path d="m38.449219 261.445312h-30c-.625 3.664063-.949219 7.453126-.949219 11.398438 0 9.511719.167969 18.730469.488281 27.667969h30c-.320312-8.9375-.488281-18.15625-.488281-27.667969 0-3.945312.324219-7.734375.949219-11.398438zm0 0" fill="#e7a25d"/><path d="m349.367188 409.90625c-3.152344 14.269531-6.6875 27.269531-10.429688 39.066406h-307.273438c-3.742187-11.796875-7.277343-24.796875-10.429687-39.066406zm0 0" fill="#ffb44d"/><path d="m21.234375 409.90625c3.152344 14.269531 6.691406 27.269531 10.429687 39.066406h30c-3.742187-11.796875-7.277343-24.796875-10.429687-39.066406zm0 0" fill="#e7a25d"/><path d="m92.703125 342.128906v15.402344c0 4.140625 3.355469 7.5 7.5 7.5 4.140625 0 7.5-3.359375 7.5-7.5v-15.402344c0-4.140625-3.359375-7.5-7.5-7.5-4.144531 0-7.5 3.359375-7.5 7.5zm0 0"/><path d="m270.402344 365.03125c4.140625 0 7.5-3.359375 7.5-7.5v-15.402344c0-4.140625-3.359375-7.5-7.5-7.5-4.144532 0-7.5 3.359375-7.5 7.5v15.402344c0 4.140625 3.355468 7.5 7.5 7.5zm0 0"/><path d="m185.300781 373.25c10.351563 0 20.0625-4.320312 26.652344-11.855469 2.726563-3.117187 2.40625-7.855469-.710937-10.582031-3.121094-2.726562-7.855469-2.410156-10.585938.710938-3.734375 4.277343-9.332031 6.730468-15.355469 6.730468-6.023437 0-11.617187-2.453125-15.355469-6.730468-2.726562-3.121094-7.464843-3.4375-10.585937-.710938-3.117187 2.726562-3.433594 7.464844-.710937 10.582031 6.589843 7.535157 16.300781 11.855469 26.652343 11.855469zm0 0"/><path d="m49.742188 210.929688c3.0625-2.789063 3.28125-7.53125.492187-10.59375-2.792969-3.0625-7.535156-3.28125-10.597656-.488282-16.589844 15.128906-34.152344 34.125-38.585938 60.355469-.695312 4.09375-1.050781 8.34375-1.050781 12.640625 0 62.5 6.671875 126.066406 26.84375 185.507812 10.816406 32.089844 40.871094 53.648438 74.78125 53.648438h167.351562c33.910157 0 63.964844-21.558594 74.78125-53.636719 20.152344-59.476562 26.84375-122.984375 26.84375-185.519531 0-4.292969-.355468-8.542969-1.054687-12.667969-5.644531-33.386719-32.800781-56.027343-59.066406-77.921875-26.757813-22.308594-52.125-43.453125-55.132813-74.390625 9.363282-3.242187 16.105469-12.140625 16.105469-22.589843v-61.371094c0-13.179688-10.722656-23.902344-23.902344-23.902344h-124.5c-13.179687 0-23.902343 10.722656-23.902343 23.902344v61.371094c0 10.449218 6.742187 19.347656 16.101562 22.589843-2.765625 28.472657-24.566406 48.878907-52.503906 72.203125-3.179688 2.65625-3.605469 7.386719-.953125 10.566406 2.65625 3.179688 7.386719 3.605469 10.566406.949219 24.324219-20.308593 54.230469-45.273437 57.835937-82.40625h110.199219c3.472657 37.078125 32.425781 61.214844 60.480469 84.601563 22.566406 18.8125 44.015625 36.695312 51.71875 60.167968h-77.824219c-2.707031-8.941406-6.765625-17.433593-11.980469-25.167968-17.207031-25.527344-46.683593-41.246094-77.488281-41.246094-21.25 0-42.054687 7.328125-58.582031 20.632812-14.648438 11.792969-25.464844 27.882813-30.886719 45.78125h-77.8125c5.777344-17.519531 19.054688-31.464843 31.722657-43.015624zm64.40625-187.027344c0-4.910156 3.996093-8.902344 8.902343-8.902344h124.5c4.910157 0 8.902344 3.992188 8.902344 8.902344v61.371094c0 4.910156-3.992187 8.902343-8.902344 8.902343 0 0 0 0-.003906 0h-124.492187-.003907c-4.90625 0-8.902343-3.996093-8.902343-8.902343zm31.695312 252.039062c6.199219-18.917968 17.378906-34.34375 39.457031-34.34375 19.941407 0 33.839844 14.1875 38.871094 32.417969 5.457031 19.777344 24.015625 34 44.542969 34h86.085937c-1.5625 33.519531-5.417969 65.210937-11.492187 94.390625h-316.011719c-6.074219-29.183594-9.933594-60.871094-11.492187-94.390625h86.085937c19.828125 0 37.785156-13.261719 43.953125-32.074219zm123.132812 221.058594h-167.351562c-26.421875 0-49.953125-16.15625-59.507812-40.527344h220.828124c4.144532 0 7.5-3.355468 7.5-7.5 0-4.140625-3.355468-7.5-7.5-7.5h-225.75c-2.355468-7.78125-4.539062-15.832031-6.527343-24.066406h309.269531c-1.992188 8.234375-4.175781 16.285156-6.527344 24.066406h-40.460937c-4.140625 0-7.5 3.359375-7.5 7.5 0 4.144532 3.359375 7.5 7.5 7.5h35.535156c-9.546875 24.367188-33.078125 40.527344-59.507813 40.527344zm-167.390624-228.054688c3.488281 0 6.515624-2.402343 7.304687-5.800781 3.949219-16.957031 13.621094-32.335937 27.238281-43.296875 13.820313-11.125 31.433594-17.320312 49.171875-17.320312 35.726563 0 68.316407 25.792968 76.410157 60.617187.789062 3.394531 3.816406 5.800781 7.304687 5.800781h86.464844c.082031 1.289063.035156 17.449219-.136719 24.066407h-86.628906c-14.601563 0-27.113282-10.007813-30.421875-24.335938-5.726563-24.777343-27.515625-42.078125-52.988281-42.078125-25.476563 0-47.265626 17.300782-52.988282 42.078125-3.3125 14.328125-15.824218 24.335938-30.425781 24.335938h-86.628906c-.171875-6.621094-.21875-22.777344-.136719-24.066407zm0 0"/></svg>