<svg height="512pt" viewBox="-19 0 512 512" width="512pt" xmlns="http://www.w3.org/2000/svg"><g fill="#ffdebb"><path d="m295.863281 264.53125v41.910156l-64.027343 129.855469c-.050782.03125-.101563.070313-.152344.101563l-68.039063 45.820312-78.070312-67.910156-24.84375-90.1875 28.96875-19.738282v-39.851562l103.082031-18.917969zm0 0"/><path d="m295.863281 186.511719v40.183593l-103.082031 18.917969-103.082031-18.917969v-40.183593l103.082031-18.917969zm0 0"/><path d="m295.863281 106.800781v41.875l-103.082031 18.917969-103.082031-18.917969v-41.875l103.078125-49.652343zm0 0"/></g><path d="m163.644531 482.21875-9.179687 6.191406c-16.160156 10.890625-34.472656 16.089844-52.578125 16.089844-30.804688 0-61.007813-15.066406-79.105469-42.851562-27.984375-42.992188-16.453125-100.472657 25.9375-129.351563l12.007812-8.175781zm0 0" fill="#ff5d29"/><path d="m295.863281 31.675781v75.125h-206.164062v-75.125c0-13.355469 10.820312-24.175781 24.175781-24.175781h157.8125c13.355469 0 24.175781 10.820312 24.175781 24.175781zm0 0" fill="#ff5d29"/><path d="m89.699219 148.675781h206.164062v37.835938h-206.164062zm0 0" fill="#00bbc9"/><path d="m89.699219 226.695312h206.164062v37.835938h-206.164062zm0 0" fill="#00bbc9"/><path d="m465.546875 264.53125v41.910156l-64.023437 129.855469c-.054688.03125-.101563.070313-.152344.101563l-68.042969 45.820312-78.070313-67.910156-24.84375-90.1875 28.96875-19.738282v-39.851562l103.082032-18.917969zm0 0" fill="#fff3e4"/><path d="m465.546875 186.511719v40.183593l-103.082031 18.917969-103.082032-18.917969v-40.183593l103.082032-18.917969zm0 0" fill="#fff3e4"/><path d="m465.546875 106.800781v41.875l-103.082031 18.917969-103.082032-18.917969v-41.875l103.078126-49.652343zm0 0" fill="#fff3e4"/><path d="m465.546875 306.441406v11.589844c0 47.714844-24.082031 92.195312-64.023437 118.269531-11.929688-13.78125-19.152344-31.757812-19.152344-51.414062 0-43.398438 35.179687-78.585938 78.578125-78.585938 1.539062-.003906 3.078125.039063 4.597656.140625zm0 0" fill="#ff7f5a"/><path d="m465.546875 31.675781v75.125h-206.164063v-75.125c0-13.355469 10.820313-24.175781 24.175782-24.175781h157.8125c13.355468 0 24.175781 10.820312 24.175781 24.175781zm0 0" fill="#ff7f5a"/><path d="m259.382812 148.675781h206.164063v37.835938h-206.164063zm0 0" fill="#1fd7c3"/><path d="m259.382812 226.695312h206.164063v37.835938h-206.164063zm0 0" fill="#1fd7c3"/><path d="m333.328125 482.21875-9.179687 6.191406c-16.160157 10.890625-34.472657 16.089844-52.578126 16.089844-30.800781 0-61.007812-15.066406-79.105468-42.851562-27.984375-42.992188-16.453125-100.472657 25.941406-129.351563l12.003906-8.175781zm0 0" fill="#ff7f5a"/><path d="m306.835938 66.996094c4.144531 0 7.5-3.355469 7.5-7.5v-10.070313c0-4.140625-3.355469-7.5-7.5-7.5-4.140626 0-7.5 3.359375-7.5 7.5v10.070313c0 4.144531 3.359374 7.5 7.5 7.5zm0 0"/><path d="m418.109375 66.996094c4.140625 0 7.5-3.355469 7.5-7.5v-10.070313c0-4.140625-3.359375-7.5-7.5-7.5-4.144531 0-7.5 3.359375-7.5 7.5v10.070313c0 4.144531 3.355469 7.5 7.5 7.5zm0 0"/><path d="m362.472656 72.371094c7.515625 0 14.578125-3.148438 19.378906-8.640625 2.726563-3.117188 2.40625-7.855469-.710937-10.582031-3.117187-2.726563-7.855469-2.410157-10.582031.710937-1.953125 2.230469-4.898438 3.511719-8.085938 3.511719s-6.132812-1.28125-8.085937-3.511719c-2.726563-3.121094-7.464844-3.4375-10.582031-.710937-3.117188 2.726562-3.4375 7.464843-.710938 10.582031 4.800781 5.492187 11.863281 8.640625 19.378906 8.640625zm0 0"/><path d="m473.058594 31.675781c0-17.464843-14.210938-31.675781-31.679688-31.675781h-157.8125c-2.023437 0-4.003906.199219-5.921875.5625-1.957031-.371094-3.953125-.5625-5.949219-.5625h-157.8125c-17.46875 0-31.675781 14.210938-31.675781 31.675781v268.742188l-37.699219 25.679687c-22.136718 15.078125-37.226562 37.847656-42.496093 64.105469-5.265625 26.265625-.117188 53.089844 14.492187 75.539063 18.867188 28.964843 50.789063 46.257812 85.390625 46.257812 20.277344 0 39.910157-6.007812 56.773438-17.371094l32.507812-21.90625c19.222657 24.738282 48.683594 39.277344 80.402344 39.277344 20.277344 0 39.910156-6.007812 56.773437-17.371094 0 0 77.253907-52.035156 77.300782-52.066406.003906-.003906.007812-.003906.007812-.007812 42.203125-27.5625 67.398438-74.109376 67.398438-124.523438zm-15 187.519531h-191.167969v-25.183593h191.167969zm-360.851563-25.183593h154.683594v25.183593h-154.683594zm0-37.835938h154.683594v22.835938h-154.683594zm169.683594 22.835938v-22.835938h191.167969v22.835938zm191.167969-37.835938h-191.167969v-26.875h191.167969zm-206.167969 0h-154.683594v-26.878906h154.683594zm-154.683594 93.019531h154.683594v22.835938h-154.683594zm169.683594 0h191.167969v22.835938h-191.167969zm191.167969-202.519531v67.625h-191.167969v-67.625c0-6.589843 4.074219-12.753906 10.160156-15.351562 2.050781-.871094 4.289063-1.324219 6.515625-1.324219h157.8125c9.195313 0 16.679688 7.480469 16.679688 16.675781zm-360.851563 0c0-9.195312 7.480469-16.675781 16.675781-16.675781h142.738282c-.558594.902344-1.054688 1.839844-1.519532 2.796875-2.097656 4.304687-3.210937 9.089844-3.210937 13.878906v67.621094h-154.683594zm68.574219 440.066407s-62.414062-95.882813-62.484375-95.992188c-2.214844-3.394531-6.992187-4.398438-10.378906-2.191406-3.417969 2.222656-4.410157 6.972656-2.191407 10.375l62.613282 96.191406-3.058594 2.066406c-14.375 9.6875-31.109375 14.808594-48.386719 14.808594-29.511719 0-56.734375-14.746094-72.820312-39.441406-12.457031-19.136719-16.84375-42.011719-12.355469-64.402344 4.492188-22.394531 17.359375-41.804688 36.230469-54.660156l5.679687-3.867188 15.367188 23.609375c2.226562 3.421875 6.945312 4.425781 10.375 2.191407 3.472656-2.257813 4.457031-6.90625 2.195312-10.375l-15.539062-23.871094 22.902344-15.601563c2.050781-1.398437 3.277343-3.71875 3.277343-6.199219v-32.351562h154.683594v28.386719s-37.6875 25.675781-37.699219 25.683593c-43.023437 29.308594-56.976562 88.429688-31.480468 133.886719.046874.085938.089843.175781.140624.261719zm169.683594 0-18.042969-27.71875c-2.257813-3.472657-6.90625-4.453126-10.375-2.195313-3.472656 2.261719-4.457031 6.90625-2.195313 10.378906l18.175782 27.917969-3.0625 2.0625c-14.375 9.691406-31.105469 14.8125-48.386719 14.8125-29.351563 0-56.5-15.289062-72.816406-39.441406-25.449219-37.671875-14.644531-91.121094 21.71875-117.515625 2.570312-1.867188 5.210937-3.625 7.832031-5.410157l59.808594 91.871094c2.257812 3.472656 6.902344 4.453125 10.375 2.195313 3.40625-2.21875 4.417968-6.960938 2.195312-10.378907l-59.976562-92.136718s22.898437-15.601563 22.898437-15.601563c2.023438-1.378906 3.277344-3.753906 3.277344-6.199219v-32.351562h191.167969v26.816406c-27.300782.917969-53.570313 15.671875-68.730469 38.367188-18.191406 27.230468-19.101563 63.492187-2.371094 91.640625 1.160157 1.953125 2.394531 3.863281 3.707031 5.71875zm67.605468-45.613282c-.96875.707032-9.261718-17.878906-9.773437-19.472656-9.269531-28.808594 1.753906-61.421875 26.03125-79.292969 11.195313-8.242187 24.859375-12.90625 38.726563-13.492187v4.160156c.003906 43.050781-20.429688 82.964844-54.984376 108.097656zm0 0"/></svg>