<svg height="512pt" viewBox="-90 0 512 512" width="512pt" xmlns="http://www.w3.org/2000/svg"><path d="m10.148438 140.554688c0 146.257812 61.34375 158.023437 61.34375 261.964843 0 29.101563-6.070313 44.1875-9.832032 66.21875-3.195312 18.6875 11.175782 35.761719 30.132813 35.761719h149.628906c18.957031 0 33.328125-17.078125 30.136719-35.761719-3.761719-22.027343-9.835938-37.117187-9.835938-66.21875 0-103.941406 61.347656-115.707031 61.347656-261.964843l-156.460937-38.089844zm0 0" fill="#ffb44d"/><path d="m276.378906 174.875h-219.539062c-5.953125 0-10.589844 5.195312-9.890625 11.109375 5.082031 43.148437 17.210937 69.851563 29.03125 95.875 14.667969 32.296875 29.832031 65.6875 29.832031 120.660156 0 24.277344-3.679688 40.824219-6.929688 55.425781-.007812.042969-.019531.082032-.027343.125-1.382813 6.214844 3.351562 12.109376 9.71875 12.109376h116.066406c6.371094 0 11.105469-5.894532 9.722656-12.109376-.007812-.042968-.019531-.085937-.027343-.128906-3.25-14.597656-6.929688-31.148437-6.929688-55.421875 0-54.972656 15.167969-88.363281 29.835938-120.660156 11.816406-26.023437 23.945312-52.722656 29.03125-95.875.691406-5.914063-3.941407-11.109375-9.894532-11.109375zm0 0" fill="#ffe76c"/><g fill="#ffb44d"><path d="m203.871094 378.496094c0 10.289062-8.34375 18.632812-18.632813 18.632812-10.289062 0-18.628906-8.34375-18.628906-18.632812 0-10.289063 8.339844-18.632813 18.628906-18.632813 10.289063 0 18.632813 8.34375 18.632813 18.632813zm0 0"/><path d="m166.792969 322.261719c0 8.277343-6.710938 14.988281-14.992188 14.988281-8.277343 0-14.988281-6.710938-14.988281-14.988281 0-8.28125 6.710938-14.992188 14.988281-14.992188 8.28125 0 14.992188 6.710938 14.992188 14.992188zm0 0"/><path d="m223.273438 260.492188c0 13.152343-10.664063 23.816406-23.816407 23.816406-13.152343 0-23.816406-10.664063-23.816406-23.816406 0-13.15625 10.664063-23.816407 23.816406-23.816407 13.152344 0 23.816407 10.660157 23.816407 23.816407zm0 0"/></g><path d="m323.070312 140.554688c10.132813-31.828126-9.292968-65.476563-41.925781-72.613282-7.136719-32.628906-40.785156-52.058594-72.613281-41.921875-22.496094-24.691406-61.351562-24.691406-83.847656 0-31.824219-10.136719-65.476563 9.292969-72.609375 41.921875-32.632813 7.136719-52.058594 40.785156-41.925781 72.613282zm0 0" fill="#fff3e4"/><path d="m166.609375 7.5c-15.339844 0-30.675781 6.171875-41.925781 18.519531-31.824219-10.136719-65.476563 9.289063-72.609375 41.921875-32.632813 7.136719-52.058594 40.785156-41.925781 72.613282h37.550781c10.496093-81.664063 118.910156-133.054688 118.910156-133.054688zm0 0" fill="#ffdebb"/><path d="m103.023438 77.3125c-4.140626 0-7.5 3.359375-7.5 7.5v11.507812c0 4.144532 3.359374 7.5 7.5 7.5 4.140624 0 7.5-3.355468 7.5-7.5v-11.507812c0-4.140625-3.359376-7.5-7.5-7.5zm0 0"/><path d="m230.195312 77.3125c-4.144531 0-7.5 3.359375-7.5 7.5v11.507812c0 4.144532 3.355469 7.5 7.5 7.5 4.140626 0 7.5-3.355468 7.5-7.5v-11.507812c0-4.140625-3.359374-7.5-7.5-7.5zm0 0"/><path d="m187.238281 89.875c-3.117187-2.726562-7.855469-2.410156-10.582031.710938-2.433594 2.78125-6.09375 4.378906-10.046875 4.378906s-7.613281-1.597656-10.046875-4.378906c-2.726562-3.121094-7.464844-3.4375-10.582031-.710938-3.121094 2.726562-3.4375 7.464844-.710938 10.582031 5.28125 6.042969 13.058594 9.507813 21.339844 9.507813s16.058594-3.464844 21.339844-9.507813c2.726562-3.117187 2.40625-7.855469-.710938-10.582031zm0 0"/><path d="m330.566406 141.625c5-16.847656 2.875-35.136719-5.925781-50.386719-8.226563-14.246093-21.667969-24.789062-37.34375-29.449219-8.011719-26.898437-33.171875-45.964843-61.527344-45.964843-5.039062 0-10.0625.601562-14.988281 1.785156-11.871094-11.242187-27.722656-17.609375-44.171875-17.609375-16.453125 0-32.300781 6.363281-44.175781 17.609375-4.921875-1.1875-9.945313-1.785156-14.988282-1.785156-28.355468 0-53.515624 19.066406-61.527343 45.960937-15.671875 4.660156-29.113281 15.203125-37.339844 29.453125-8.804687 15.246094-10.925781 33.539063-5.925781 50.382813.164062 80.273437 18.796875 121.316406 35.242187 157.539062 11.9375 26.289063 23.210938 51.117188 25.609375 88.113282.265625 4.132812 3.832032 7.257812 7.96875 7 4.132813-.265626 7.265625-3.835938 7-7.96875-2.574218-39.730469-14.398437-65.773438-26.917968-93.34375-16.125-35.507813-32.777344-72.191407-33.851563-144.90625h297.8125c-1.074219 72.714843-17.730469 109.390624-33.855469 144.894531-14.109375 31.066406-27.433594 60.402343-27.433594 109.570312 0 21.328125 3.195313 35.703125 6.289063 49.601563 1.265625 5.679687 2.570313 11.554687 3.652344 17.878906 2.371093 13.886719-8.664063 27-22.742188 27h-149.632812c-14.097657 0-25.113281-13.117188-22.742188-27 1.082031-6.320312 2.386719-12.191406 3.648438-17.871094 2.316406-10.417968 4.710937-21.1875 5.746093-34.824218.3125-4.128907-2.78125-7.730469-6.910156-8.042969-4.136718-.316407-7.734375 2.777343-8.046875 6.910156-.953125 12.5625-3.125 22.34375-5.429687 32.699219-1.304688 5.859375-2.648438 11.917968-3.792969 18.605468-3.917969 22.917969 14.300781 44.523438 37.527344 44.523438h149.628906c23.253906 0 41.441406-21.617188 37.53125-44.527344-1.144531-6.691406-2.492187-12.75-3.796875-18.609375-3.050781-13.710937-5.933594-26.664062-5.933594-46.34375 0-45.917969 12.09375-72.542969 26.09375-103.367187 16.449219-36.21875 35.085938-77.257813 35.25-157.527344zm-314.621094-8.570312c-2.34375-11.667969-.378906-23.917969 5.625-34.316407 6.90625-11.964843 18.609376-20.519531 32.105469-23.46875 2.859375-.628906 5.097657-2.863281 5.722657-5.726562 4.90625-22.4375 25.113281-38.722657 48.046874-38.722657 5.050782 0 10.085938.789063 14.964844 2.34375 2.792969.890626 5.84375.070313 7.820313-2.097656 9.304687-10.210937 22.5625-16.066406 36.378906-16.066406 13.8125 0 27.074219 5.855469 36.378906 16.070312 1.972657 2.164063 5.027344 2.984376 7.820313 2.09375 4.875-1.554687 9.910156-2.339843 14.960937-2.339843 22.933594 0 43.140625 16.285156 48.046875 38.71875.628906 2.863281 2.863282 5.097656 5.726563 5.726562 13.496093 2.949219 25.199219 11.503907 32.105469 23.46875 6.003906 10.398438 7.964843 22.648438 5.625 34.316407zm0 0"/><path d="m241.65625 456.308594c-3.164062-14.222656-6.75-30.34375-6.75-53.789063 0-53.34375 14.824219-85.988281 29.164062-117.558593 5.253907-11.566407 10.6875-23.53125 15.53125-37.074219 1.394532-3.902344-.636718-8.195313-4.535156-9.589844-3.902344-1.394531-8.191406.636719-9.585937 4.539063-4.636719 12.957031-9.941407 24.632812-15.070313 35.929687-14.996094 33.019531-30.503906 67.164063-30.503906 123.757813 0 25.09375 3.773438 42.066406 7.109375 57.046874 0 0 .027344.128907.027344.128907.339843 1.539062-.839844 2.980469-2.402344 2.980469h-116.066406c-1.574219 0-2.738281-1.457032-2.398438-2.980469l.027344-.128907c3.335937-14.976562 7.109375-31.949218 7.109375-57.046874 0-56.597657-15.507812-90.742188-30.507812-123.765626-11.535157-25.398437-23.460938-51.660156-28.410157-93.652343-.167969-1.449219 1-2.730469 2.445313-2.730469h219.542968c1.449219.003906 2.609376 1.289062 2.441407 2.734375-1.234375 10.460937-2.914063 20.214844-5.136719 29.820313-.9375 4.035156 1.578125 8.0625 5.613281 8.996093 4.035157.933594 8.066407-1.578125 9-5.613281 2.351563-10.148438 4.121094-20.433594 5.417969-31.449219 1.207031-10.21875-7.0625-19.484375-17.339844-19.484375 0 0-219.457031 0-219.539062 0-10.285156 0-18.542969 9.269532-17.339844 19.484375 5.21875 44.308594 17.636719 71.652344 29.652344 98.101563 14.335937 31.566406 29.164062 64.210937 29.164062 117.558594 0 23.449218-3.589844 39.570312-6.75 53.785156 0 0-.03125.132812-.03125.132812-2.34375 10.742188 6.035156 21.242188 17.042969 21.242188h116.066406c10.988281 0 19.425781-10.519532 17.039063-21.242188zm0 0"/><path d="m185.238281 404.628906c14.410157 0 26.132813-11.722656 26.132813-26.132812s-11.722656-26.132813-26.132813-26.132813c-14.40625 0-26.128906 11.726563-26.128906 26.132813s11.722656 26.132812 26.128906 26.132812zm0-37.265625c6.140625 0 11.132813 4.996094 11.132813 11.132813 0 6.136718-4.992188 11.132812-11.132813 11.132812-6.136719 0-11.128906-4.996094-11.128906-11.132812 0-6.136719 4.992187-11.132813 11.128906-11.132813zm0 0"/><path d="m174.292969 322.261719c0-12.402344-10.089844-22.492188-22.492188-22.492188-12.398437 0-22.488281 10.089844-22.488281 22.492188 0 12.398437 10.089844 22.488281 22.488281 22.488281 12.402344 0 22.492188-10.089844 22.492188-22.488281zm-22.492188 7.488281c-4.128906 0-7.488281-3.359375-7.488281-7.488281 0-4.132813 3.359375-7.492188 7.488281-7.492188 4.132813 0 7.492188 3.359375 7.492188 7.492188 0 4.128906-3.359375 7.488281-7.492188 7.488281zm0 0"/><path d="m230.773438 260.492188c0-17.269532-14.046876-31.316407-31.316407-31.316407-17.265625 0-31.316406 14.046875-31.316406 31.316407 0 17.265624 14.050781 31.316406 31.316406 31.316406 17.269531 0 31.316407-14.050782 31.316407-31.316406zm-31.316407 16.316406c-8.996093 0-16.316406-7.320313-16.316406-16.316406 0-9 7.320313-16.316407 16.316406-16.316407 8.996094 0 16.316407 7.316407 16.316407 16.316407 0 8.996093-7.320313 16.316406-16.316407 16.316406zm0 0"/></svg>