<svg height="512pt" viewBox="-33 0 512 512.00093" width="512pt" xmlns="http://www.w3.org/2000/svg"><path d="m53.339844 7.46875h-24.882813c-11.574219 0-20.957031 9.382812-20.957031 20.941406v458.765625c0 12.519531 12.867188 20.910157 24.328125 15.871094l184.578125-81.15625c4.441406-1.957031 9.515625-1.957031 13.957031 0l184.582031 81.152344c11.457032 5.042969 24.324219-3.347657 24.324219-15.871094v-458.761719c0-11.558594-9.382812-20.941406-20.953125-20.941406h-24.886718l-170.042969 26.992188zm0 0" fill="#ff7f5a"/><path d="m393.429688 7.46875v436.046875l-170.042969-74.769531-170.046875 74.769531v-436.046875zm0 0" fill="#fff3e4"/><path d="m243.089844 300.890625-14.773438-123.5h-9.863281l-14.769531 123.5c-.730469 6.101563 4.035156 11.46875 10.179687 11.46875h19.042969c6.148438 0 10.914062-5.367187 10.183594-11.46875zm0 0" fill="#00bbc9"/><path d="m225.027344 235.511719c77.460937 113.167969 164.679687 24.441406 110.523437-19.324219 43.96875-35.535156-5.25-89.953125-66.773437-48.613281 47.246094-63.609375-8.984375-116.382813-45.390625-71.332031-36.40625-45.050782-92.640625 7.722656-45.390625 71.332031-61.527344-41.335938-110.746094 13.078125-66.773438 48.613281-54.160156 43.765625 33.0625 132.492188 110.523438 19.324219.371094-.542969.984375-.871094 1.640625-.871094s1.269531.328125 1.640625.871094zm0 0" fill="#1fd7c3"/><path d="m159.09375 207.390625c4.144531 0 7.503906-3.359375 7.503906-7.503906v-11.632813c0-4.144531-3.359375-7.503906-7.503906-7.503906-4.140625 0-7.5 3.359375-7.5 7.503906v11.632813c0 4.144531 3.359375 7.503906 7.5 7.503906zm0 0"/><path d="m287.675781 207.390625c4.140625 0 7.5-3.359375 7.5-7.503906v-11.632813c0-4.144531-3.359375-7.503906-7.5-7.503906-4.144531 0-7.5 3.359375-7.5 7.503906v11.632813c0 4.144531 3.355469 7.503906 7.5 7.503906zm0 0"/><path d="m223.386719 213.601562c8.347656 0 16.191406-3.496093 21.515625-9.585937 2.722656-3.121094 2.40625-7.859375-.714844-10.585937-3.117188-2.726563-7.855469-2.40625-10.582031.710937-2.476563 2.835937-6.199219 4.457031-10.21875 4.457031-4.023438 0-7.746094-1.625-10.222657-4.457031-2.726562-3.117187-7.464843-3.4375-10.582031-.710937-3.121093 2.730468-3.4375 7.464843-.710937 10.585937 5.324218 6.089844 13.164062 9.585937 21.515625 9.585937zm0 0"/><path d="m439.269531 357.476562c4.144531 0 7.5-3.359374 7.5-7.5v-321.53125c0-15.683593-12.761719-28.445312-28.453125-28.445312h-389.863281c-15.6875 0-28.453125 12.761719-28.453125 28.445312v458.761719c0 17.4375 18.933594 29.738281 34.847656 22.738281l184.582032-81.15625c2.515624-1.109374 5.398437-1.109374 7.914062 0 0 0 184.441406 81.09375 184.582031 81.15625 16.171875 7.109376 34.847657-5.128906 34.847657-22.738281v-107.226562c0-4.144531-3.359376-7.503907-7.503907-7.503907-4.140625 0-7.5 3.359376-7.5 7.503907v107.226562c0 7.003907-7.390625 11.828125-13.804687 9.007813l-184.578125-81.15625c-6.355469-2.800782-13.648438-2.800782-19.996094-.003906 0 0-184.097656 80.945312-184.582031 81.160156-6.429688 2.824218-13.804688-2.023438-13.804688-9.003906v-458.765626c0-7.414062 6.035156-13.441406 13.449219-13.441406h17.386719v56.933594c0 4.144531 3.359375 7.5 7.5 7.5 4.144531 0 7.5-3.355469 7.5-7.5v-56.933594h325.089844v417.050782l-159.523438-70.144532c-1.925781-.84375-4.117188-.84375-6.039062 0l-159.527344 70.144532v-330.113282c0-4.140625-3.355469-7.5-7.5-7.5-4.140625 0-7.5 3.359375-7.5 7.5v341.605469c0 5.320313 5.65625 9.003906 10.519531 6.867187l167.023437-73.441406s166.753907 73.324219 167.027344 73.441406c4.890625 2.152344 10.519532-1.539062 10.519532-6.867187v-428.542969h17.382812c7.417969 0 13.453125 6.027344 13.453125 13.441406v321.53125c.003906 4.140626 3.363281 7.5 7.503906 7.5zm0 0"/><path d="m89.519531 263.644531c7.328125 20.722657 28.222657 34.644531 52 34.644531 22.644531 0 42.375-11.550781 57.980469-25.550781 0 0-3.261719 27.28125-3.265625 27.292969-1.246094 10.40625 7.160156 19.863281 17.628906 19.863281h19.042969c10.480469 0 18.875-9.464843 17.628906-19.863281l-3.261718-27.292969c15.601562 13.996094 35.332031 25.546875 57.984374 25.550781 23.773438 0 44.667969-13.917968 51.992188-34.636718 5.914062-16.71875 1.90625-33.929688-10.671875-47.402344 12.097656-12.71875 16.289063-28.152344 11.207031-42.523438-6.113281-17.292968-24.066406-28.464843-45.734375-28.464843-7.867187 0-16.015625 1.464843-24.203125 4.3125 8.289063-19.539063 8.792969-38.9375.878906-54.671875-7.230468-14.375-20.328124-22.957032-35.042968-22.957032-10.695313 0-21.226563 4.660157-30.300782 13.273438-9.070312-8.617188-19.601562-13.273438-30.296874-13.273438-14.714844 0-27.816407 8.582032-35.046876 22.957032-7.910156 15.734375-7.40625 35.132812.878907 54.671875-8.1875-2.851563-16.332031-4.3125-24.199219-4.3125-21.671875 0-39.625 11.171875-45.738281 28.460937-5.078125 14.371094-.886719 29.808594 11.210937 42.523438-12.574218 13.472656-16.578125 30.683594-10.671875 47.398437zm145.4375 40.316407c-.503906.566406-1.234375.933593-2.050781.933593 0 0-19.027344 0-19.042969 0-1.570312 0-2.929687-1.449219-2.730469-3.082031l5.632813-47.109375c1.699219-2.070313 6.113281-7.832031 6.621094-8.519531.5.683594 4.921875 6.453125 6.621093 8.519531 0 0 5.632813 47.109375 5.632813 47.109375.097656.8125-.179687 1.582031-.683594 2.148438zm-119.019531-93.574219c-11.867188-9.589844-16.535156-21.128907-12.8125-31.660157 3.964844-11.214843 16.367188-18.464843 31.59375-18.464843 12.359375 0 25.878906 4.695312 39.089844 13.570312 6.832031 4.589844 15.101562-4.109375 10.207031-10.699219-24.066406-32.398437-15.707031-55.253906-12.570313-61.488281 4.625-9.203125 12.71875-14.695312 21.640626-14.695312 8.460937 0 17.148437 4.984375 24.464843 14.039062 1.425781 1.765625 3.570313 2.789063 5.835938 2.789063s4.410156-1.023438 5.832031-2.789063c7.320312-9.054687 16.007812-14.039062 24.464844-14.039062 8.921875 0 17.011718 5.492187 21.640625 14.695312 3.136719 6.234375 11.496093 29.09375-12.570313 61.488281-4.875 6.570313 3.347656 15.308594 10.207032 10.699219 13.210937-8.875 26.730468-13.566406 39.089843-13.566406 15.226563 0 27.625 7.246094 31.589844 18.460937 3.726563 10.535157-.941406 22.074219-12.804687 31.660157-3.667969 2.960937-3.667969 8.703125 0 11.667969 12.460937 10.070312 16.933593 23.410156 12.269531 36.597656-4.335938 12.261718-17.71875 24.636718-37.851563 24.632812-12.523437 0-35.953125-5.144531-62.261718-36.414062-.023438-.027344-.039063-.058594-.0625-.085938-3.988282-4.742187-7.929688-9.949218-11.714844-15.472656-3.714844-5.433594-11.949219-5.429688-15.664063-.003906-3.652343 5.335937-7.527343 10.546875-11.710937 15.476562-.023438.027344-.039063.058594-.0625.082032-26.308594 31.277343-49.738282 36.417968-62.261719 36.417968-20.128906 0-33.515625-12.375-37.851563-24.640625-4.664062-13.183593-.191406-26.519531 12.269532-36.589843 3.667968-2.960938 3.671875-8.703126.003906-11.667969zm0 0"/></svg>