<svg height="512pt" viewBox="-45 0 511 512" width="512pt" xmlns="http://www.w3.org/2000/svg"><path d="m190.03125 91.363281c0 46.316407-37.546875 83.863281-83.863281 83.863281-46.316407 0-83.863281-37.546874-83.863281-83.863281 0-46.316406 37.546874-83.863281 83.863281-83.863281 46.316406 0 83.863281 37.546875 83.863281 83.863281zm0 0" fill="#ffb44d"/><path d="m371.738281 200.71875c0 46.316406-37.546875 83.863281-83.863281 83.863281s-83.863281-37.546875-83.863281-83.863281 37.546875-83.863281 83.863281-83.863281 83.863281 37.546875 83.863281 83.863281zm0 0" fill="#ffb44d"/><path d="m287.875 249.859375c-27.097656 0-49.140625-22.042969-49.140625-49.140625s22.042969-49.144531 49.140625-49.144531 49.144531 22.046875 49.144531 49.144531-22.046875 49.140625-49.144531 49.140625zm0 0" fill="#ffe76c"/><path d="m378.972656 357.035156-167.609375 68.765625-167.609375-68.765625 8.359375-68.882812 159.25-26.695313 159.246094 26.695313zm0 0" fill="#4a5660"/><path d="m83.753906 357.035156 8.359375-68.882812 139.25-23.34375-20-3.351563-159.25 26.695313-8.359375 68.882812 167.609375 68.765625 20-8.207031zm0 0" fill="#3d4851"/><path d="m368.566406 504.5h-314.410156c-15.046875 0-26.703125-13.152344-24.886719-28.09375l14.480469-119.371094h335.222656l14.484375 119.371094c1.816407 14.941406-9.839843 28.09375-24.890625 28.09375zm0 0" fill="#1fd7c3"/><path d="m69.269531 476.40625 14.484375-119.371094h-40l-14.484375 119.371094c-1.816406 14.941406 9.839844 28.09375 24.890625 28.09375h40c-15.050781 0-26.707031-13.152344-24.890625-28.09375zm0 0" fill="#00bbc9"/><path d="m144.898438 251.039062v105.992188c0 14.332031 11.617187 25.945312 25.945312 25.945312h81.039062c14.332032 0 25.945313-11.613281 25.945313-25.945312v-105.992188zm0 0" fill="#ffe76c"/><path d="m179.617188 251.039062h63.492187v97.21875h-63.492187zm0 0" fill="#4a5660"/><path d="m106.164062 140.507812c-27.09375 0-49.140624-22.046874-49.140624-49.144531 0-27.097656 22.042968-49.144531 49.140624-49.144531 27.101563 0 49.144532 22.046875 49.144532 49.144531 0 27.097657-22.042969 49.144531-49.144532 49.144531zm0 0" fill="#ffe76c"/><path d="m204.011719 200.71875c0 46.316406 37.546875 83.863281 83.863281 83.863281s83.863281-37.546875 83.863281-83.863281c0-6.921875-.855469-13.644531-2.4375-20.082031h-162.851562c-1.582031 6.4375-2.4375 13.160156-2.4375 20.082031zm0 0" fill="#e7a25d"/><path d="m238.734375 200.71875c0 27.097656 22.042969 49.140625 49.140625 49.140625s49.144531-22.042969 49.144531-49.140625c0-7.152344-1.546875-13.945312-4.304687-20.082031h-89.671875c-2.761719 6.136719-4.308594 12.929687-4.308594 20.082031zm0 0" fill="#ffb44d"/><path d="m394.820312 210.636719h-366.914062c-10.996094 0-19.90625 8.914062-19.90625 19.90625v37.699219c0 10.996093 8.910156 19.90625 19.90625 19.90625h366.914062c10.992188 0 19.90625-8.910157 19.90625-19.90625v-37.699219c0-10.992188-8.914062-19.90625-19.90625-19.90625zm0 0" fill="#1fd7c3"/><path d="m48 268.242188v-37.695313c0-10.996094 8.910156-19.90625 19.90625-19.90625h-40c-10.996094 0-19.90625 8.910156-19.90625 19.90625v37.695313c0 10.996093 8.910156 19.90625 19.90625 19.90625h40c-10.996094 0-19.90625-8.910157-19.90625-19.90625zm0 0" fill="#00bbc9"/><path d="m124.929688 260.539062c4.140624 0 7.5-3.355468 7.5-7.5v-15.640624c0-4.140626-3.359376-7.5-7.5-7.5-4.140626 0-7.5 3.359374-7.5 7.5v15.640624c0 4.144532 3.359374 7.5 7.5 7.5zm0 0"/><path d="m297.796875 260.539062c4.140625 0 7.5-3.355468 7.5-7.5v-15.640624c0-4.140626-3.359375-7.5-7.5-7.5-4.144531 0-7.5 3.359374-7.5 7.5v15.640624c0 4.144532 3.355469 7.5 7.5 7.5zm0 0"/><path d="m211.363281 268.890625c10.480469 0 20.3125-4.375 26.980469-12 2.726562-3.121094 2.40625-7.859375-.710938-10.585937-3.117187-2.726563-7.855468-2.40625-10.582031.710937-3.820312 4.371094-9.539062 6.875-15.6875 6.875-6.148437 0-11.867187-2.503906-15.6875-6.875-2.726562-3.117187-7.460937-3.4375-10.582031-.710937-3.117188 2.726562-3.4375 7.464843-.710938 10.582031 6.667969 7.628906 16.5 12.003906 26.980469 12.003906zm0 0"/><path d="m46.902344 31.582031c-3.167969-2.671875-7.898438-2.273437-10.570313.894531-13.882812 16.449219-21.527343 37.363282-21.527343 58.886719 0 50.378907 40.984374 91.363281 91.359374 91.363281 50.378907 0 91.367188-40.984374 91.367188-91.363281 0-50.378906-40.984375-91.363281-91.363281-91.363281-15.742188 0-31.289063 4.09375-44.960938 11.835938-3.605469 2.042968-4.871093 6.617187-2.828125 10.222656 2.042969 3.605468 6.617188 4.871094 10.222656 2.832031 11.417969-6.46875 24.410157-9.890625 37.566407-9.890625 42.105469 0 76.363281 34.257812 76.363281 76.363281s-34.257812 76.363281-76.363281 76.363281c-42.109375 0-76.363281-34.257812-76.363281-76.363281 0-17.988281 6.386718-35.46875 17.992187-49.214843 2.671875-3.164063 2.269531-7.894532-.894531-10.566407zm0 0"/><path d="m106.164062 148.007812c31.234376 0 56.644532-25.410156 56.644532-56.644531s-25.410156-56.644531-56.644532-56.644531c-31.230468 0-56.640624 25.410156-56.640624 56.644531s25.410156 56.644531 56.640624 56.644531zm0-98.285156c22.964844 0 41.644532 18.679688 41.644532 41.640625 0 22.960938-18.679688 41.644531-41.644532 41.644531-22.960937 0-41.640624-18.683593-41.640624-41.644531 0-22.960937 18.679687-41.640625 41.640624-41.640625zm0 0"/><path d="m.5 230.546875v37.695313c0 15.113281 12.292969 27.40625 27.40625 27.40625h15.742188s-21.8125 179.75-21.824219 179.851562c-2.320313 19.109375 13.113281 36.5 32.332031 36.5h314.410156c19.261719 0 34.660156-17.382812 32.335938-36.496094l-4-32.972656c-.5-4.113281-4.230469-7.042969-8.347656-6.542969-4.113282.5-7.042969 4.238281-6.542969 8.351563 0 0 3.996093 32.929687 4 32.972656 1.253906 10.324219-7.042969 19.6875-17.445313 19.6875 0 0-314.1875 0-314.410156 0-10.398438 0-18.695312-9.382812-17.441406-19.691406l13.683594-112.773438s87.847656 0 87.847656.003906c2.632812 14.96875 17.859375 25.941407 32.597656 25.941407h81.039062c14.828126 0 28.679688-10.945313 32.421876-25.234375.0625-.234375.121093-.472656.175781-.707032h87.847656l6.042969 49.800782c.5 4.109375 4.238281 7.042968 8.351562 6.539062 4.109375-.496094 7.039063-4.234375 6.539063-8.347656l-14.183594-116.878906h15.742187c15.113282 0 27.40625-12.296875 27.40625-27.40625v-37.699219c0-15.113281-12.292968-27.40625-27.40625-27.40625h-15.621093c.023437-.816406.039062-1.621094.039062-2.421875 0-50.375-40.984375-91.363281-91.363281-91.363281s-91.363281 40.988281-91.363281 91.363281c0 .800781.015625 1.605469.039062 2.421875h-168.644531c-15.113281 0-27.40625 12.292969-27.40625 27.40625zm58.257812 65.101563h78.640626v53.886718h-85.179688zm112.085938 79.828124c-9.984375 0-18.445312-8.472656-18.445312-18.445312v-61.382812h19.71875v52.609374c0 4.140626 3.359374 7.5 7.5 7.5h63.488281c4.144531 0 7.5-3.359374 7.5-7.5v-52.609374h19.722656v61.382812c0 10.039062-8.414063 18.445312-18.445313 18.445312 0 0-80.996093 0-81.039062 0zm16.273438-79.828124h48.488281v45.109374h-48.488281zm183.390624 53.886718h-85.179687v-53.886718h78.640625zm-158.996093-148.816406c0-42.109375 34.257812-76.363281 76.363281-76.363281s76.363281 34.253906 76.363281 76.363281c0 .804688-.015625 1.609375-.042969 2.417969h-19.738281c.035157-.804688.0625-1.613281.0625-2.417969 0-31.234375-25.410156-56.644531-56.644531-56.644531s-56.644531 25.410156-56.644531 56.644531c0 .804688.027343 1.613281.0625 2.417969h-19.738281c-.027344-.808594-.042969-1.613281-.042969-2.417969zm34.722656 0c0-22.960938 18.679687-41.644531 41.640625-41.644531 22.964844 0 41.644531 18.683593 41.644531 41.644531 0 .804688-.023437 1.613281-.070312 2.417969h-83.144531c-.046876-.804688-.070313-1.613281-.070313-2.417969zm-218.328125 79.929688c-6.839844 0-12.40625-5.5625-12.40625-12.40625v-37.695313c0-6.84375 5.566406-12.40625 12.40625-12.40625h366.914062c6.839844 0 12.40625 5.5625 12.40625 12.40625v37.695313c0 6.84375-5.566406 12.40625-12.40625 12.40625zm0 0"/></svg>