<svg height="512pt" viewBox="-6 0 512 512.00063" width="512pt" xmlns="http://www.w3.org/2000/svg"><path d="m314.402344 7.480469 56.699218 234.542969-56.699218 231.148437-50.757813 27.738281c-8.785156 4.8125-19.429687 4.8125-28.21875 0l-44.550781-24.34375-59.800781-236.238281 59.800781-232.847656zm0 0" fill="#fff3e4"/><path d="m40.738281 40.109375c-17.636719-2.246094-33.238281 11.5-33.238281 29.273437 0 17.777344 15.601562 31.519532 33.238281 29.277344l45.695313-5.816406v-46.921875zm0 0" fill="#dd9882"/><path d="m458.335938 40.109375c17.632812-2.246094 33.234374 11.5 33.234374 29.273437 0 17.777344-15.601562 31.519532-33.234374 29.277344l-45.695313-5.816406v-46.921875zm0 0" fill="#dd9882"/><path d="m41.269531 98.59375 45.164063-5.746094v-46.925781l-45.164063-5.746094zm0 0" fill="#d86f42"/><path d="m190.875 7.480469v469.085937l-92.636719-50.625c-16.621093-9.078125-26.964843-26.515625-26.964843-45.457031v-344.601563c0-15.6875 12.714843-28.402343 28.402343-28.402343zm0 0" fill="#1fd7c3"/><path d="m101.277344 35.882812c0-15.6875 12.710937-28.402343 28.398437-28.402343h-30c-15.6875 0-28.402343 12.714843-28.402343 28.402343v344.601563c0 18.941406 10.34375 36.378906 26.964843 45.457031l3.039063 1.660156zm0 0" fill="#00bbc9"/><path d="m457.800781 40.175781-45.160156 5.746094v46.925781l45.160156 5.746094zm0 0" fill="#d86f42"/><path d="m427.796875 35.882812v344.601563c0 18.941406-10.34375 36.378906-26.964844 45.457031l-86.429687 47.230469v-465.691406h84.996094c15.683593 0 28.398437 12.714843 28.398437 28.402343zm0 0" fill="#ff7f5a"/><path d="m141.414062 239.046875v-20.925781c0-4.140625-3.359374-7.5-7.5-7.5-4.144531 0-7.5 3.359375-7.5 7.5v20.925781c0 4.144531 3.355469 7.5 7.5 7.5 4.140626 0 7.5-3.355469 7.5-7.5zm0 0"/><path d="m357.660156 218.121094v20.925781c0 4.144531 3.355469 7.5 7.5 7.5 4.140625 0 7.5-3.355469 7.5-7.5v-20.925781c0-4.140625-3.359375-7.5-7.5-7.5-4.144531 0-7.5 3.359375-7.5 7.5zm0 0"/><path d="m273.46875 234.054688c-3.117188-2.726563-7.855469-2.40625-10.582031.710937-3.246094 3.710937-8.113281 5.839844-13.351563 5.839844-5.238281 0-10.105468-2.128907-13.351562-5.839844-2.722656-3.117187-7.460938-3.4375-10.582032-.710937-3.121093 2.726562-3.4375 7.464843-.710937 10.585937 6.09375 6.96875 15.078125 10.96875 24.644531 10.96875s18.550782-4 24.644532-10.96875c2.726562-3.121094 2.410156-7.859375-.710938-10.585937zm0 0"/><path d="m420.296875 299.515625c0 4.144531 3.359375 7.5 7.503906 7.5 4.140625 0 7.5-3.355469 7.5-7.5v-196.207031l22.085938 2.8125c11.261719 1.433594 22.6875-2.453125 30.746093-10.445313 7.054688-6.996093 10.9375-16.324219 10.941407-26.269531 0-21.828125-20.066407-39.464844-41.6875-36.71875l-22.097657 2.8125c-.21875-19.609375-16.230468-35.5-35.890624-35.5h-299.722657c-19.660156 0-35.675781 15.890625-35.894531 35.5l-22.097656-2.8125c-21.796875-2.769531-41.683594 14.734375-41.683594 36.714844 0 21.832031 20.0625 39.46875 41.683594 36.71875l22.089844-2.8125v33.195312c0 4.144532 3.359374 7.5 7.5 7.5 4.144531 0 7.5-3.355468 7.5-7.5v-100.601562c0-11.527344 9.378906-20.902344 20.902343-20.902344h83.699219v448.941406l-81.539062-44.5625c-14.226563-7.769531-23.0625-22.664062-23.0625-38.871094v-214c0-4.144531-3.355469-7.5-7.5-7.5-4.140626 0-7.5 3.355469-7.5 7.5v214c0 21.695313 11.828124 41.632813 30.867187 52.035157 0 0 137.15625 74.953125 137.183594 74.964843 10.945312 5.984376 24.476562 5.996094 35.417969.003907l137.1875-74.96875c19.039062-10.402344 30.871093-30.339844 30.871093-52.035157v-50.988281c0-4.144531-3.359375-7.5-7.5-7.5-4.144531 0-7.503906 3.355469-7.503906 7.5v50.988281c0 16.207032-8.835937 31.101563-23.058594 38.871094l-75.332031 41.167969v-445.546875h77.492188c11.523437 0 20.898437 9.375 20.898437 20.902344zm-380.503906-208.277344c-12.96875 1.648438-24.792969-8.753906-24.792969-21.835937 0-12.992188 11.925781-23.46875 24.792969-21.832032l23.980469 3.050782v37.566406zm220.253906 403.113281c-6.496094 3.546876-14.53125 3.550782-21.023437-.003906l-40.648438-22.210937v-457.136719h108.527344v453.742188s-46.855469 25.609374-46.855469 25.609374zm199.234375-446.78125c12.96875-1.648437 24.789062 8.75 24.789062 21.832032 0 13.054687-11.839843 23.484375-24.789062 21.835937l-23.980469-3.050781v-37.566406zm0 0"/></svg>