<svg height="512pt" viewBox="-18 0 512 512.002" width="512pt" xmlns="http://www.w3.org/2000/svg"><path d="m290.613281 403.503906 24.65625 66.203125-24.65625 34.792969h-104.738281l-27.222656-38.847656 27.222656-62.148438 52.367188-28.054687zm0 0" fill="#fff3e4"/><path d="m362.226562 504.5h-71.613281v-100.996094l24.65625 13.207032s40.207031 31.710937 46.957031 87.789062zm0 0" fill="#00bbc9"/><path d="m185.875 403.503906v100.996094h-71.613281c6.75-56.078125 46.957031-87.789062 46.957031-87.789062zm0 0" fill="#00bbc9"/><path d="m24.816406 233.246094c0-57.007813 22.199219-110.605469 62.511719-150.914063 40.308594-40.3125 93.90625-62.511719 150.914063-62.511719 57.011718 0 110.609374 22.199219 150.917968 62.511719 40.3125 40.3125 62.511719 93.90625 62.511719 150.914063zm0 0" fill="#ff7f5a"/><path d="m463.660156 247.335938c0 23.167968-18.785156 41.953124-41.953125 41.953124-23.171875 0-41.953125-18.785156-41.953125-41.953124 0-23.171876 18.78125-41.953126 41.953125-41.953126 23.167969 0 41.953125 18.78125 41.953125 41.953126zm0 0" fill="#ffcabd"/><path d="m421.707031 233.246094c0 101.324218-82.140625 183.464844-183.464843 183.464844-101.320313 0-183.460938-82.140626-183.460938-183.464844 0-101.320313 82.140625-183.460938 183.460938-183.460938 101.324218 0 183.464843 82.140625 183.464843 183.460938zm0 0" fill="#ffdcce"/><path d="m84.78125 233.246094c0-96.269532 74.15625-175.214844 168.460938-182.847656-4.945313-.398438-9.945313-.613282-15-.613282-91.867188 0-167.960938 67.523438-181.363282 155.648438-.683594-.035156-1.382812-.050782-2.097656-.050782-23.167969 0-41.953125 18.78125-41.953125 41.953126 0 23.167968 18.785156 41.949218 41.953125 41.949218 3.089844 0 5.882812-.34375 8.414062-.976562 23.382813 74.417968 92.910157 128.402344 175.046876 128.402344 5.054687 0 10.054687-.214844 15-.617188-94.304688-7.628906-168.460938-86.574219-168.460938-182.847656zm0 0" fill="#ffcabd"/><path d="m417.285156 75.253906-179.042968 20.8125-179.039063-20.8125c11.128906-38.515625 46.597656-67.753906 90.070313-67.753906h177.941406c43.472656 0 78.941406 29.238281 90.070312 67.753906zm0 0" fill="#1fd7c3"/><path d="m89.203125 75.253906c11.128906-38.515625 46.597656-67.753906 90.070313-67.753906h-30c-43.472657 0-78.941407 29.238281-90.070313 67.753906l179.039063 20.8125 15-1.742187zm0 0" fill="#00bbc9"/><path d="m419.054688 119.703125-180.8125 23.316406-180.804688-23.316406c-3.109375-15.402344-2.257812-30.523437 1.765625-44.449219h358.082031c4.023438 13.925782 4.875 29.046875 1.769532 44.449219zm0 0" fill="#4a5660"/><path d="m87.4375 119.703125c-3.109375-15.402344-2.257812-30.523437 1.765625-44.449219h-30c-4.023437 13.925782-4.875 29.050782-1.765625 44.449219l180.804688 23.316406 15-1.933593zm0 0" fill="#3d4851"/><path d="m342.128906 274.871094h-24.292968c-4.144532 0-7.5-3.355469-7.5-7.5 0-4.140625 3.355468-7.5 7.5-7.5h24.292968c4.140625 0 7.5 3.359375 7.5 7.5 0 4.144531-3.359375 7.5-7.5 7.5zm0 0" fill="#ff8997"/><path d="m158.652344 274.871094h-24.292969c-4.140625 0-7.5-3.355469-7.5-7.5 0-4.140625 3.359375-7.5 7.5-7.5h24.292969c4.144531 0 7.5 3.359375 7.5 7.5 0 4.144531-3.355469 7.5-7.5 7.5zm0 0" fill="#ff8997"/><path d="m266.136719 56.109375h-55.785157c-11.421874 0-20.679687 9.257813-20.679687 20.675781v66.234375h97.144531v-66.230469c0-11.421874-9.257812-20.679687-20.679687-20.679687zm0 0" fill="#ffe76c"/><path d="m219.636719 86.074219h37.210937v56.945312h-37.210937zm0 0" fill="#4a5660"/><path d="m225.285156 431.953125s-64.066406 57.011719-64.066406-15.242187c0-72.25 64.066406-15.242188 64.066406-15.242188zm0 0" fill="#1fd7c3"/><path d="m251.203125 431.953125s64.066406 57.011719 64.066406-15.242187c0-72.25-64.066406-15.242188-64.066406-15.242188zm0 0" fill="#1fd7c3"/><path d="m251.203125 431.953125s9.324219 8.289063 20.855469 14.542969c7.117187-7.898438 11.457031-18.34375 11.457031-29.785156 0-11.441407-4.339844-21.886719-11.457031-29.785157-11.53125 6.25-20.855469 14.542969-20.855469 14.542969zm0 0" fill="#00bbc9"/><path d="m192.972656 416.710938c0 11.441406 4.339844 21.886718 11.457032 29.785156 11.53125-6.25 20.855468-14.542969 20.855468-14.542969v-30.484375s-9.324218-8.289062-20.855468-14.542969c-7.117188 7.898438-11.457032 18.34375-11.457032 29.785157zm0 0" fill="#00bbc9"/><path d="m238.964844 397.160156h-1.441406c-10.796876 0-19.550782 8.753906-19.550782 19.550782 0 10.796874 8.753906 19.550781 19.550782 19.550781h1.441406c10.796875 0 19.550781-8.753907 19.550781-19.550781 0-10.796876-8.753906-19.550782-19.550781-19.550782zm0 0" fill="#1fd7c3"/><path d="m445.679688 119.707031h-414.871094c-12.871094 0-23.304688 10.4375-23.304688 23.308594s10.433594 23.304687 23.304688 23.304687h414.871094c12.871093 0 23.308593-10.433593 23.308593-23.304687s-10.4375-23.308594-23.308593-23.308594zm0 0" fill="#1fd7c3"/><path d="m37.5 143.015625c0-12.871094 10.4375-23.304687 23.308594-23.304687h-30c-12.871094 0-23.308594 10.433593-23.308594 23.304687s10.4375 23.308594 23.308594 23.308594h30c-12.871094 0-23.308594-10.4375-23.308594-23.308594zm0 0" fill="#00bbc9"/><path d="m329.980469 248.65625c4.140625 0 7.5-3.359375 7.5-7.5v-17.839844c0-4.140625-3.359375-7.5-7.5-7.5s-7.5 3.359375-7.5 7.5v17.839844c0 4.140625 3.359375 7.5 7.5 7.5zm0 0"/><path d="m146.507812 248.65625c4.140626 0 7.5-3.359375 7.5-7.5v-17.839844c0-4.140625-3.359374-7.5-7.5-7.5-4.144531 0-7.5 3.359375-7.5 7.5v17.839844c0 4.140625 3.355469 7.5 7.5 7.5zm0 0"/><path d="m259.589844 253.460938c-3.121094-2.730469-7.859375-2.410157-10.585938.710937-2.605468 2.980469-6.527344 4.691406-10.761718 4.691406-4.230469 0-8.152344-1.710937-10.757813-4.691406-2.726563-3.121094-7.464844-3.441406-10.585937-.710937-3.117188 2.722656-3.433594 7.460937-.710938 10.582031 5.457031 6.242187 13.496094 9.820312 22.054688 9.820312 8.5625 0 16.601562-3.578125 22.058593-9.824219 2.722657-3.117187 2.40625-7.855468-.710937-10.578124zm0 0"/><path d="m362.226562 512c4.445313 0 7.976563-3.984375 7.445313-8.398438-3.902344-32.421874-19.605469-63.410156-42.726563-86.378906-1.722656-1.710937-3.101562-3.023437-4.230468-4.042968-.085938-2.953126-.277344-5.730469-.582032-8.34375 45.589844-22.324219 79.75-61.632813 96.191407-108.179688 1.125.078125 2.253906.128906 3.382812.128906 27.269531 0 49.453125-22.183594 49.453125-49.449218 0-12.765626-4.859375-24.414063-12.828125-33.195313-1.179687-13.847656-3.648437-27.511719-7.363281-40.78125 14.476562-2.519531 25.519531-15.164063 25.519531-30.34375 0-16.988281-13.820312-30.808594-30.808593-30.808594h-17.867188c1.484375-13.164062.371094-26.257812-3.324219-39.039062-5.929687-20.527344-18.546875-39.054688-35.523437-52.171875-17.78125-13.734375-39.132813-20.996094-61.75-20.996094h-177.941406c-12.210938 0-24.15625 2.152344-35.5 6.398438-3.878907 1.449218-5.847657 5.773437-4.394532 9.652343 1.449219 3.878907 5.769532 5.847657 9.652344 4.394531 9.65625-3.613281 19.832031-5.445312 30.242188-5.445312h177.941406c19.265625 0 37.449218 6.179688 52.578125 17.867188 11.78125 9.101562 21.09375 21.253906 26.878906 34.886718h-113.847656c-3.523438-10.378906-12.9375-18.058594-24.25-19.03125-.808594-.070312-1.625-.113281-2.4375-.113281h-55.785157c-11.933593 0-22.851562 7.855469-26.6875 19.148437h-113.867187c5.367187-12.746093 13.730469-24.015624 24.542969-32.992187 3.1875-2.644531 3.625-7.371094.980468-10.558594-2.644531-3.1875-7.375-3.628906-10.5625-.980469-15.773437 13.089844-27.101562 30.363282-32.757812 49.945313-3.695312 12.78125-4.804688 25.875-3.324219 39.039063h-17.867187c-16.988282 0-30.808594 13.820312-30.808594 30.804687 0 15.183594 11.042969 27.828125 25.519531 30.34375-3.710937 13.269531-6.179687 26.933594-7.359375 40.78125-7.96875 8.78125-12.832031 20.429687-12.832031 33.195313 0 27.269531 22.183594 49.453124 49.453125 49.453124 1.128906 0 2.257812-.050781 3.382812-.128906 16.441407 46.542969 50.601563 85.851563 96.191407 108.175782-.304688 2.625-.5 5.410156-.582031 8.371093-9.667969 8.628907-40.894532 40.035157-46.957032 90.398438-.535156 4.414062 3.003906 8.398437 7.445313 8.398437 0-.003906 247.597656-.003906 247.964843-.003906zm-96.089843-448.390625c7.050781 0 13.179687 6.121094 13.179687 13.179687v35.417969h-14.964844v-26.132812c0-4.140625-3.359374-7.5-7.5-7.5h-37.210937c-4.144531 0-7.5 3.359375-7.5 7.5v26.136719h-14.96875s0-35.410157 0-35.421876c0-7.042968 6.132813-13.179687 13.179687-13.179687zm-16.789063 48.597656h-22.210937v-18.632812h22.210937zm-184.320312-29.453125h117.144531v29.457032h-118.386719c-1.304687-9.914063-.886718-19.777344 1.242188-29.457032zm-34.21875 76.070313c-8.714844 0-15.808594-7.09375-15.808594-15.808594 0-8.71875 7.09375-15.808594 15.808594-15.808594h320.332031c4.144531 0 7.5-3.355469 7.5-7.5 0-4.140625-3.355469-7.5-7.5-7.5h-56.824219v-29.453125h117.144532c2.132812 9.679688 2.550781 19.542969 1.242187 29.457032h-31.5625c-4.140625 0-7.5 3.355468-7.5 7.5 0 4.140624 3.359375 7.5 7.5 7.5h64.539063c8.714843 0 15.808593 7.089843 15.808593 15.804687s-7.09375 15.808594-15.808593 15.808594zm411.039062 43.324219c-3.253906-1.453126-6.660156-2.539063-10.171875-3.257813-.496093-.101563-5.683593-.722656-5.703125-.828125-1.5-8.050781-3.53125-15.992188-6.066406-23.800781-.046875-.144531-.089844-.292969-.136719-.4375h15.746094c2.769531 9.246093 4.886719 18.714843 6.332031 28.324219zm-397.039062-3.253907c-3.507813.714844-6.917969 1.804688-10.167969 3.253907 1.449219-9.609376 3.5625-19.078126 6.332031-28.324219h15.746094c-.046875.148437-.089844.300781-.140625.449219-2.53125 7.804687-4.5625 15.742187-6.0625 23.789062-.164063.015625-4.214844.515625-5.707031.832031zm8.699218 82.871094c-18.410156-.671875-33.179687-15.859375-33.179687-34.429687 0-9.9375 4.230469-18.902344 10.980469-25.199219 4.710937-4.390625 10.664062-7.433594 16.992187-8.644531-.328125 3.191406-.578125 6.394531-.746093 9.609374-1.09375 19.675782.960937 39.609376 5.953124 58.664063zm130.574219 105.910156c7.609375.574219 14.679688 4.40625 21.066407 8.320313 3.199218 1.960937 9.367187 6.398437 9.40625 6.425781-.460938.738281-.871094 1.503906-1.257813 2.28125-4.125 8.289063-3.648437 18.441406 1.253906 26.296875-8.921875 6.71875-20.113281 14.808594-31.8125 14.808594-.027343 0-.054687.003906-.082031.003906-3.445312 0-13.9375 0-13.9375-29.101562 0-8.257813.125-19.976563 6.4375-26.28125 2.347656-2.347657 5.722656-2.996094 8.925781-2.753907zm48.960938 17.902344c1.925781-.8125 3.867187-.917969 5.921875-.917969 6.488281 0 12.050781 5.554688 12.050781 12.050782 0 6.523437-5.527344 12.050781-12.050781 12.050781h-1.441406c-6.5 0-12.023438-5.503907-12.046876-12.007813 0-.015625 0-.027344 0-.042968 0-.015626 0-.03125 0-.046876.003907-4.882812 3.210938-9.25 7.566407-11.085937zm29.199219-3.398437c7.917968-5.925782 16.484374-11.605469 26.242187-13.878907 2.574219-.601562 5.4375-.980469 8.0625-.46875 6.757813 1.320313 9.066406 9.03125 10.140625 14.902344.839844 4.605469 1.085938 9.304687 1.085938 13.976563 0 11.242187-1.035157 31.296874-17.074219 28.832031-9.601563-1.472657-21.300781-8.945313-28.757813-14.550781 2.648438-4.25 4.074219-9.277344 4.074219-14.28125 0-4.960938-1.425781-10.046876-4.082031-14.300782.097656-.074218.207031-.152344.308594-.230468zm-107.199219 31.097656c.019531.09375.039062.183594.058593.273437 2.375 12.539063 9.480469 24.90625 23.277344 26.957031v36.492188h-55.363281c5.703125-29.855469 21.308594-51.691406 32.027344-63.722656zm38.332031 25.933594c13.191406-3.679688 26.007812-12.824219 32.582031-18.054688 2.203125 1.046875 4.570313 1.800781 7.050781 2.21875 3.480469.589844 7.003907.65625 10.476563 0 2.476563-.417969 4.84375-1.171875 7.046875-2.21875 6.574219 5.226562 19.390625 14.375 32.582031 18.050781v37.792969h-89.734375v-37.789062zm160.101562 37.789062h-55.363281v-36.492188c.089844-.015624.179688-.035156.273438-.046874 2.347656-.371094 4.652343-1.0625 6.804687-2.070313 9.390625-4.410156 14.179688-14.621094 16.097656-24.320313.050782-.261718.105469-.527343.15625-.792968 10.71875 12.035156 26.324219 33.871094 32.03125 63.722656zm-34.96875-107.121094c-.953124-2.292968-2.070312-4.367187-3.351562-6.230468-4.96875-7.222657-12.34375-11.039063-21.324219-11.039063-16.203125 0-30.945312 10.070313-43.257812 19.621094-.011719.011719-.027344.023437-.042969.035156-2.214844-1.054687-4.59375-1.8125-7.097656-2.230469-3.398438-.566406-6.984375-.507812-10.386719 0-2.492187.417969-4.875 1.175782-7.089844 2.230469-.019531-.019531-.042969-.035156-.0625-.050781-12.34375-9.847656-26.832031-19.605469-43.238281-19.605469-8.980469 0-16.355469 3.816406-21.324219 11.039063-1.28125 1.863281-2.398437 3.9375-3.351562 6.230468-56.554688-29.03125-93.304688-86.726562-95.585938-150.347656-.796875-22.28125 2.65625-44.71875 10.179688-65.707031h331.339843c.503907 1.410156.992188 2.828125 1.464844 4.253906 6.417969 19.492187 9.425782 40.457031 8.722656 61.113281-.003906.113282-.003906.226563-.007812.339844-2.28125 63.621094-39.03125 121.316406-95.585938 150.347656zm104.472657-108.113281c2.300781-8.785156 3.945312-17.726563 4.972656-26.761719 1.550781-13.667968 1.605469-27.71875.246094-41.507812 5.824219 1.113281 11.265625 3.773437 15.796875 7.585937.019531.019531.039062.035157.058594.050781 7.554687 6.4375 12.105468 16.175782 12.105468 26.203126 0 18.570312-14.769531 33.757812-33.179687 34.429687zm0 0"/></svg>