<svg height="512pt" viewBox="-59 0 512 512.00017" width="512pt" xmlns="http://www.w3.org/2000/svg"><path d="m235.074219 325.644531 31.070312 79.667969-31.070312 72.398438-27.160157-11.78125c-6.507812-2.824219-13.886718-2.824219-20.390624 0l-27.160157 11.78125-27.765625-72.398438 27.761719-79.667969zm0 0" fill="#fff3e4"/><path d="m160.359375 325.644531-27.761719 79.667969 1.890625 4.9375c9.789063 3.75 20.265625 5.730469 31.03125 5.730469 8.339844 0 16.621094-1.203125 24.625-3.574219 2.457031-.726562 5.007813-1.097656 7.574219-1.097656s5.113281.371094 7.570312 1.097656c8.003907 2.375 16.289063 3.574219 24.625 3.574219 12.148438 0 23.933594-2.519531 34.769532-7.265625l1.460937-3.402344-31.070312-79.667969zm0 0" fill="#ffdebb"/><path d="m309.777344 325.644531v168.203125c0 7.675782-7.863282 12.839844-14.914063 9.785156l-59.789062-25.921874v-152.066407zm0 0" fill="#ff7f5a"/><path d="m160.359375 325.644531v152.066407l-59.789063 25.921874c-7.050781 3.054688-14.914062-2.113281-14.914062-9.789062v-168.199219zm0 0" fill="#1fd7c3"/><path d="m235.074219 415.8125c20.769531-1.214844 40.230469-9.75 55.261719-24.367188 3.703124-3.601562 8.339843-6.035156 13.410156-7.039062 2.035156-.402344 4.046875-.878906 6.03125-1.421875v-57.339844h-74.703125zm0 0" fill="#ff5d29"/><path d="m85.65625 382.984375c1.984375.542969 3.996094 1.019531 6.03125 1.421875 5.070312 1.003906 9.707031 3.4375 13.414062 7.039062 15.027344 14.617188 34.488282 23.152344 55.257813 24.367188v-90.167969h-74.703125zm0 0" fill="#00bbc9"/><path d="m376.367188 148.148438c-6.636719-8.722657-10.605469-19.179688-11.417969-30.109376-1.523438-20.4375-13.960938-38.457031-32.53125-47.125-9.929688-4.636718-18.300781-12.054687-24.101563-21.355468-10.84375-17.386719-30.234375-27.5625-50.703125-26.609375-10.949219.511719-21.808593-2.167969-31.265625-7.707031-17.683594-10.355469-39.578125-10.355469-57.261718 0-9.457032 5.539062-20.316407 8.21875-31.265626 7.707031-20.46875-.953125-39.859374 9.222656-50.703124 26.609375-5.796876 9.300781-14.171876 16.71875-24.101563 21.355468-18.570313 8.667969-31.007813 26.6875-32.53125 47.125-.8125 10.929688-4.777344 21.386719-11.417969 30.109376-12.410156 16.304687-15.050781 38.042968-6.902344 56.84375 4.359376 10.058593 5.707032 21.160156 3.882813 31.96875-3.414063 20.203124 4.351563 40.679687 20.304687 53.539062 8.53125 6.878906 14.886719 16.085938 18.292969 26.503906 6.367188 19.476563 22.757813 33.996094 42.863281 37.96875 10.75 2.125 20.65625 7.324219 28.511719 14.964844 14.691407 14.289062 35.949219 19.527344 55.597657 13.703125 10.507812-3.113281 21.691406-3.113281 32.199218 0 19.648438 5.824219 40.910156.585937 55.597656-13.703125 7.859376-7.640625 17.761719-12.839844 28.515626-14.964844 20.101562-3.972656 36.492187-18.492187 42.859374-37.96875 3.40625-10.417968 9.761719-19.625 18.292969-26.503906 15.953125-12.859375 23.71875-33.335938 20.304688-53.539062-1.824219-10.808594-.476563-21.914063 3.882812-31.96875 8.148438-18.800782 5.511719-40.539063-6.902343-56.84375zm0 0" fill="#ffb44d"/><path d="m343.003906 196.726562c0 80.238282-65.046875 145.289063-145.285156 145.289063-80.242188 0-145.289062-65.050781-145.289062-145.289063 0-80.238281 65.046874-145.285156 145.289062-145.285156 80.238281 0 145.285156 65.046875 145.285156 145.285156zm0 0" fill="#ffe76c"/><path d="m282.191406 211.902344c-5.585937-5.585938-11.433594-9.308594-19.71875-11.695313-4.9375-1.425781-11.960937-2.5625-19.632812-3.472656 7.65625-.90625 14.671875-2.046875 19.636718-3.476563 8.292969-2.390624 14.128907-6.121093 19.714844-11.707031 13.804688-13.800781 12.25-30.464843 1.914063-40.804687-10.167969-10.164063-20.777344-7.289063-24.804688-5.601563 1.6875-4.027343 4.546875-14.652343-5.617187-24.820312-10.335938-10.335938-26.992188-11.875-40.789063 1.929687-5.585937 5.585938-9.308593 11.433594-11.695312 19.722656-1.425781 4.9375-2.566407 11.957032-3.472657 19.628907-.90625-7.65625-2.046874-14.675781-3.480468-19.640625-2.386719-8.285156-6.117188-14.125-11.703125-19.710938-13.800781-13.804687-30.46875-12.25-40.804688-1.914062-10.164062 10.164062-7.289062 20.773437-5.605469 24.804687-4.023437-1.6875-14.652343-4.550781-24.816406 5.613281-10.339844 10.339844-11.875 26.992188 1.925782 40.792969 5.585937 5.585938 11.433593 9.308594 19.722656 11.699219 4.9375 1.421875 11.953125 2.5625 19.621094 3.46875-7.652344.90625-14.667969 2.046875-19.628907 3.476562-8.289062 2.394532-14.128906 6.121094-19.714843 11.707032-13.800782 13.800781-12.25 30.464844-1.910157 40.804687 10.164063 10.164063 20.773438 7.289063 24.800781 5.601563-1.683593 4.027344-4.546874 14.652344 5.617188 24.820312 10.335938 10.335938 26.992188 11.875 40.789062-1.925781 5.585938-5.585937 9.3125-11.433594 11.699219-19.722656 1.421875-4.9375 2.5625-11.957031 3.46875-19.625.90625 7.652343 2.046875 14.667969 3.476563 19.632812 2.394531 8.289063 6.121094 14.128907 11.707031 19.714844 13.800781 13.800781 30.464844 12.25 40.808594 1.914063 10.164062-10.167969 7.285156-20.777344 5.601562-24.804688 4.027344 1.6875 14.652344 4.546875 24.816407-5.617188 10.339843-10.339843 11.878906-26.992187-1.925782-40.792968zm0 0" fill="#ffb44d"/><path d="m125.222656 79.566406c21.738282-13.476562 46.804688-20.597656 72.496094-20.597656 75.972656 0 137.785156 61.808594 137.785156 137.785156 0 31.445313-10.320312 61.054688-29.839844 85.628906-2.578124 3.242188-2.039062 7.960938 1.207032 10.539063 3.101562 2.464844 7.9375 2.0625 10.539062-1.207031 21.652344-27.257813 33.09375-60.09375 33.09375-94.960938 0-84.25-68.539062-152.789062-152.785156-152.789062-28.488281 0-56.289062 7.902344-80.402344 22.855468-3.519531 2.183594-4.605468 6.804688-2.421875 10.324219 2.183594 3.523438 6.808594 4.605469 10.328125 2.421875zm0 0"/><path d="m197.71875 349.539062c35.839844 0 70.6875-12.667968 98.121094-35.679687 3.175781-2.660156 3.589844-7.394531.929687-10.566406-2.664062-3.171875-7.394531-3.589844-10.566406-.925781-24.738281 20.746093-56.160156 32.171874-88.484375 32.171874-75.976562 0-137.785156-61.808593-137.785156-137.785156 0-38.28125 15.332031-73.855468 43.175781-100.164062 3.011719-2.84375 3.148437-7.59375.300781-10.601563-2.84375-3.011719-7.59375-3.148437-10.605468-.300781-30.871094 29.171875-47.875 68.613281-47.875 111.066406 0 84.246094 68.539062 152.785156 152.789062 152.785156zm0 0"/><path d="m107.941406 186.882812c4.203125 4.203126 8.515625 7.410157 13.347656 9.867188-4.832031 2.457031-9.144531 5.667969-13.347656 9.875-7.925781 7.921875-12.148437 17.246094-12.207031 26.957031-.058594 9.078125 3.597656 17.761719 10.292969 24.460938 6.039062 6.039062 13.265625 9.3125 20.9375 9.492187.136718 6.164063 2.269531 13.710938 9.480468 20.925782 6.632813 6.632812 15.238282 10.285156 24.230469 10.285156 9.785157 0 19.179688-4.222656 27.167969-12.210938 4.203125-4.203125 7.414062-8.515625 9.871094-13.347656 2.457031 4.828125 5.667968 9.140625 9.875 13.347656 7.984375 7.984375 17.378906 12.207032 27.167968 12.207032 8.996094 0 17.605469-3.65625 24.246094-10.292969 7.207032-7.207031 9.332032-14.753907 9.464844-20.917969 7.679688-.1875 14.914062-3.460938 20.953125-9.503906 6.695313-6.695313 10.347656-15.378906 10.289063-24.453125-.066407-9.707031-4.289063-19.023438-12.210938-26.945313-4.203125-4.203125-8.519531-7.414062-13.351562-9.867187 4.828124-2.457031 9.140624-5.667969 13.351562-9.875 7.921875-7.925781 12.140625-17.246094 12.203125-26.960938.058594-9.074219-3.597656-17.757812-10.292969-24.453125-6.039062-6.039062-13.265625-9.3125-20.9375-9.496094-.136718-6.164062-2.265625-13.710937-9.484375-20.925781-6.632812-6.632812-15.234375-10.285156-24.222656-10.285156-9.789063 0-19.1875 4.222656-27.175781 12.214844-4.203125 4.203125-7.410156 8.515625-9.867188 13.347656-2.457031-4.828125-5.667968-9.140625-9.875-13.347656-7.984375-7.984375-17.378906-12.207031-27.167968-12.207031-8.996094 0-17.609376 3.65625-24.246094 10.292968-7.207032 7.207032-9.332032 14.753906-9.464844 20.917969-7.683594.183594-14.914062 3.460937-20.957031 9.5-6.695313 6.695313-10.347657 15.378906-10.285157 24.453125.066407 9.703125 4.289063 19.023438 12.214844 26.945312zm8.675782-40.792968c3.398437-3.394532 7.113281-5.117188 11.039062-5.117188 2.535156 0 4.582031.699219 5.578125 1.113282 6.070313 2.542968 12.351563-3.746094 9.816406-9.808594-1.386719-3.324219-2.71875-9.898438 3.988281-16.605469 8.972657-8.972656 21.753907-6.535156 30.199219 1.914063 5.039063 5.035156 7.875 9.8125 9.800781 16.484374 1.1875 4.117188 2.277344 10.320313 3.238282 18.441407 1.015625 8.570312 13.882812 8.585937 14.898437 0 .960938-8.136719 2.046875-14.339844 3.226563-18.433594 1.929687-6.6875 4.765625-11.464844 9.792968-16.496094 8.328126-8.328125 21.105469-11.007812 30.183594-1.929687 6.726563 6.726562 5.394532 13.296875 4.003906 16.613281-2.542968 6.070313 3.75 12.355469 9.8125 9.820313 1-.417969 3.0625-1.121094 5.589844-1.121094 3.917969 0 7.625 1.71875 11.015625 5.109375 6.523438 6.523437 9.9375 18.347656-1.910156 30.199219-5.042969 5.039062-9.820313 7.878906-16.492187 9.800781-4.117188 1.1875-10.324219 2.277343-18.441407 3.238281-8.566406 1.011719-8.582031 13.882812 0 14.898438 8.140625.960937 14.34375 2.046874 18.433594 3.226562 6.691406 1.929688 11.472656 4.765625 16.5 9.792969 11.847656 11.851562 8.441406 23.667969 1.921875 30.1875-4.410156 4.410156-10.664062 6.492187-16.613281 4-6.066407-2.539063-12.351563 3.761719-9.816407 9.8125 1.390626 3.324219 2.71875 9.898437-3.984374 16.605469-9.039063 9.042968-21.808594 6.484374-30.203126-1.910157-5.035156-5.035156-7.875-9.8125-9.800781-16.488281-1.1875-4.117188-2.277343-10.320312-3.238281-18.4375-1.011719-8.558594-13.878906-8.585938-14.894531.003906-.960938 8.132813-2.046875 14.335938-3.226563 18.425782-1.929687 6.6875-4.765625 11.46875-9.796875 16.496093-8.3125 8.316407-21.125 10.984375-30.183593 1.925781-6.71875-6.71875-5.390626-13.296874-4-16.617187 2.527343-6.050781-3.757813-12.347656-9.816407-9.816406-1 .417969-3.0625 1.125-5.59375 1.125-3.914062 0-7.617187-1.71875-11.007812-5.109375-6.523438-6.523438-9.9375-18.351563 1.914062-30.199219 5.03125-5.035156 9.8125-7.875 16.484375-9.800781 4.117188-1.1875 10.320313-2.277344 18.4375-3.238282 8.550782-1.011718 8.574219-13.882812 0-14.898437-8.140625-.960937-14.335937-2.046875-18.425781-3.226563-6.6875-1.925781-11.464844-4.765624-16.496094-9.792968-8.34375-8.339844-11.015625-21.105469-1.933593-30.1875zm0 0"/><path d="m13.097656 143.628906c-14.039062 18.441406-17.03125 43.109375-7.816406 64.375 3.792969 8.742188 4.957031 18.332032 3.371094 27.730469-3.863282 22.855469 4.949218 46.085937 22.992187 60.632813 7.421875 5.980468 12.910157 13.929687 15.871094 22.992187 5.191406 15.882813 16.316406 28.882813 30.640625 36.582031v137.929688c0 12.789062 13.675781 21.75 25.402344 16.667968l86.953125-37.703124c4.578125-1.988282 9.832031-1.992188 14.417969 0 0 0 86.867187 37.667968 86.953124 37.707031 11.78125 5.105469 25.398438-3.863281 25.398438-16.671875v-137.929688c14.324219-7.699218 25.445312-20.695312 30.640625-36.582031 2.960937-9.0625 8.449219-17.011719 15.871094-22.992187 18.042969-14.546876 26.855469-37.777344 22.992187-60.632813-1.585937-9.394531-.421875-18.988281 3.367188-27.730469 9.21875-21.265625 6.222656-45.929687-7.816406-64.371094-5.773438-7.585937-9.199219-16.617187-9.90625-26.125-1.722657-23.109374-15.835938-43.558593-36.835938-53.363281-8.636719-4.035156-15.867188-10.441406-20.910156-18.527343-11.796875-18.914063-32.140625-30.203126-54.425782-30.203126-10.78125 0-20.589843-1.035156-30.117187-6.617187-9.824219-5.753906-21.039063-8.796875-32.421875-8.796875-11.386719 0-22.601562 3.042969-32.425781 8.796875-9.519531 5.574219-19.34375 6.617187-30.117188 6.617187-22.28125 0-42.628906 11.289063-54.421875 30.203126-5.042968 8.085937-12.277344 14.492187-20.914062 18.523437-21 9.808594-35.113282 30.257813-36.835938 53.367187-.707031 9.503907-4.132812 18.539063-9.90625 26.121094zm84.492188 353.148438c-2.070313.898437-4.433594-.648438-4.433594-2.90625v-132.15625c.085938.019531 2.007812.46875 2.894531.644531 9.351563 1.84375 17.902344 6.335937 24.738281 12.980469 8.796876 8.558594 20.03125 14.511718 32.070313 16.914062v80.558594s-55.175781 23.921875-55.269531 23.964844zm100.128906-40.441406c-4.5625 0-9 .921874-13.179688 2.738281l-16.679687 7.234375v-72.847656c5.375-.195313 10.738281-1.074219 15.890625-2.601563 9.042969-2.683594 18.890625-2.683594 27.9375 0 5.152344 1.527344 10.515625 2.40625 15.886719 2.601563v72.847656l-16.671875-7.234375c-4.1875-1.816407-8.625-2.738281-13.183594-2.738281zm104.558594-94.621094v132.15625c0 2.171875-2.320313 3.824218-4.429688 2.90625l-55.273437-23.964844v-80.558594c9.65625-1.929687 18.707031-6.0625 26.542969-12.132812 2.875-2.226563 5.394531-4.835938 8.171874-7.171875 5.988282-5.039063 13.074219-8.558594 20.730469-10.296875 1.328125-.300782 4.167969-.914063 4.257813-.9375zm-264.3125-243.09375c1.320312-17.707032 12.132812-33.375 28.222656-40.886719 11.273438-5.261719 20.710938-13.621094 27.296875-24.179687 9.4375-15.136719 26.0625-23.925782 43.988281-23.085938 12.371094.578125 24.726563-2.472656 35.40625-8.726562 7.527344-4.410157 16.117188-6.742188 24.839844-6.742188s17.3125 2.332031 24.839844 6.742188c10.628906 6.226562 23.09375 9.304687 35.402344 8.726562 17.933593-.835938 34.550781 7.949219 43.992187 23.085938 6.582031 10.554687 16.019531 18.917968 27.292969 24.179687 16.089844 7.511719 26.902344 23.179687 28.222656 40.886719.921875 12.40625 5.394531 24.199218 12.929688 34.097656 10.757812 14.128906 13.050781 33.023438 5.988281 49.316406-4.945313 11.414063-6.46875 23.933594-4.394531 36.199219 2.957031 17.507813-3.792969 35.308594-17.617188 46.453125-9.6875 7.804688-16.847656 18.183594-20.714844 30.007812-5.441406 16.640626-20.011718 29.550782-37.1875 32.945313-12.203125 2.414063-23.367187 8.273437-32.285156 16.949219-13.257812 12.894531-31.84375 16.417968-49.363281 11.578125-11.414063-3.15625-23.605469-3.089844-34.980469.210937-.121094.035156-.242188.0625-.359375.097656-16.78125 4.964844-35.695313.308594-48.238281-11.886718-8.851563-8.613282-20.171875-14.550782-32.285156-16.949219-3.386719-.667969-6.722657-1.714844-9.890626-3.082031-12.804687-5.515625-22.867187-16.3125-27.296874-29.859375-3.867188-11.828125-11.027344-22.203125-20.714844-30.011719-13.824219-11.144531-20.574219-28.941406-17.617188-46.453125 2.074219-12.265625.554688-24.78125-4.394531-36.195313-7.0625-16.292968-4.769531-35.191406 5.988281-49.320312 7.535156-9.898438 12.007813-21.691406 12.929688-34.097656zm0 0"/></svg>