<svg height="512pt" viewBox="0 -9 512.001 512" width="512pt" xmlns="http://www.w3.org/2000/svg"><path d="m442.578125 121.542969h-373.15625c-20.5 0-37.117187 16.621093-37.117187 37.121093v290.976563c0 20.5 16.617187 37.117187 37.117187 37.117187h373.152344c20.5 0 37.121093-16.617187 37.121093-37.117187v-290.976563c0-20.5-16.617187-37.121093-37.117187-37.121093zm0 0" fill="#dd9882"/><path d="m62.304688 449.640625v-290.976563c0-20.5 16.617187-37.121093 37.117187-37.121093h-30c-20.5 0-37.117187 16.621093-37.117187 37.121093v290.976563c0 20.5 16.617187 37.121094 37.117187 37.121094h30c-20.5 0-37.117187-16.621094-37.117187-37.121094zm0 0" fill="#d86f42"/><path d="m479.695312 34.128906h-472.195312v49.605469h472.195312c13.699219 0 24.804688-11.105469 24.804688-24.804687 0-13.695313-11.105469-24.800782-24.804688-24.800782zm0 0" fill="#4a5660"/><path d="m110.074219 34.140625v49.59375h53.285156v-49.59375l-.003906-.011719h-53.28125zm0 0" fill="#3d4851"/><path d="m106.714844 7.5c-14.710938 0-26.640625 11.929688-26.640625 26.640625v87.402344c0 14.714843 11.929687 26.640625 26.640625 26.640625 14.714844 0 26.640625-11.925782 26.640625-26.640625v-87.402344c.003906-14.714844-11.925781-26.640625-26.640625-26.640625zm0 0" fill="#ffe76c"/><path d="m408.644531 34.140625v49.59375h53.28125v-49.605469h-53.28125zm0 0" fill="#3d4851"/><path d="m405.285156 7.5c14.710938 0 26.640625 11.929688 26.640625 26.640625v87.402344c0 14.714843-11.929687 26.640625-26.640625 26.640625-14.714844 0-26.640625-11.925782-26.640625-26.640625v-87.402344c-.003906-14.714844 11.925781-26.640625 26.640625-26.640625zm0 0" fill="#ffe76c"/><g fill="#ffb44d"><path d="m124.839844 200.636719c0 10.011719-8.113282 18.125-18.125 18.125-10.007813 0-18.121094-8.113281-18.121094-18.125 0-10.007813 8.113281-18.121094 18.121094-18.121094 10.011718 0 18.125 8.113281 18.125 18.121094zm0 0"/><path d="m423.40625 200.636719c0 10.011719-8.113281 18.125-18.121094 18.125-10.011718 0-18.125-8.113281-18.125-18.125 0-10.007813 8.113282-18.121094 18.125-18.121094 10.007813 0 18.121094 8.113281 18.121094 18.121094zm0 0"/><path d="m124.839844 427.667969c0 10.007812-8.113282 18.121093-18.125 18.121093-10.007813 0-18.121094-8.113281-18.121094-18.121093 0-10.007813 8.113281-18.125 18.121094-18.125 10.011718 0 18.125 8.117187 18.125 18.125zm0 0"/><path d="m423.40625 427.667969c0 10.007812-8.113281 18.121093-18.121094 18.121093-10.011718 0-18.125-8.113281-18.125-18.121093 0-10.007813 8.113282-18.125 18.125-18.125 10.007813 0 18.121094 8.117187 18.121094 18.125zm0 0"/></g><path d="m242.113281 357.09375-5.929687 49.59375c-.734375 6.136719 4.058594 11.539062 10.238281 11.539062h19.152344c6.183593 0 10.976562-5.402343 10.242187-11.539062l-5.929687-49.59375-13.886719-35.792969zm0 0" fill="#1fd7c3"/><path d="m269.886719 357.09375-13.886719-35.792969-13.886719 35.792969-3.878906 32.453125c6.082031-5.246094 12.015625-11.222656 17.773437-17.914063 5.988282 6.949219 11.929688 12.835938 17.753907 17.84375zm0 0" fill="#00bbc9"/><path d="m257.652344 340.929688c77.910156 113.828124 165.636718 24.585937 111.164062-19.4375 44.226563-35.738282-5.277344-90.472657-67.160156-48.894532 47.523438-63.976562-9.039062-117.058594-45.65625-71.746094-36.617188-45.3125-93.175781 7.769532-45.652344 71.746094-61.882812-41.578125-111.386718 13.15625-67.164062 48.894532-54.472656 44.023437 33.253906 133.261718 111.167968 19.4375.371094-.546876.992188-.875 1.652344-.875.65625 0 1.273438.328124 1.648438.875zm0 0" fill="#1fd7c3"/><path d="m106.714844 175.015625c-14.125 0-25.621094 11.492187-25.621094 25.621094 0 14.128906 11.496094 25.625 25.621094 25.625 14.128906 0 25.625-11.496094 25.625-25.625 0-14.128907-11.496094-25.621094-25.625-25.621094zm0 36.246094c-5.855469 0-10.621094-4.765625-10.621094-10.625 0-5.855469 4.765625-10.621094 10.621094-10.621094 5.859375 0 10.625 4.765625 10.625 10.621094 0 5.859375-4.765625 10.625-10.625 10.625zm0 0"/><path d="m405.285156 175.015625c-14.128906 0-25.625 11.492187-25.625 25.621094 0 14.128906 11.496094 25.625 25.625 25.625 14.125 0 25.621094-11.496094 25.621094-25.625 0-14.128907-11.496094-25.621094-25.621094-25.621094zm0 36.246094c-5.859375 0-10.625-4.765625-10.625-10.625 0-5.855469 4.765625-10.621094 10.625-10.621094 5.855469 0 10.621094 4.765625 10.621094 10.621094 0 5.859375-4.765625 10.625-10.621094 10.625zm0 0"/><path d="m106.714844 453.289062c14.128906 0 25.625-11.492187 25.625-25.621093 0-14.128907-11.496094-25.625-25.625-25.625-14.125 0-25.621094 11.496093-25.621094 25.625 0 14.128906 11.496094 25.621093 25.621094 25.621093zm0-36.246093c5.859375 0 10.625 4.765625 10.625 10.625 0 5.855469-4.765625 10.621093-10.625 10.621093-5.855469 0-10.621094-4.765624-10.621094-10.621093 0-5.859375 4.765625-10.625 10.621094-10.625zm0 0"/><path d="m405.285156 402.042969c-14.128906 0-25.625 11.496093-25.625 25.625 0 14.128906 11.496094 25.621093 25.625 25.621093 14.125 0 25.621094-11.492187 25.621094-25.621093 0-14.128907-11.496094-25.625-25.621094-25.625zm0 36.246093c-5.859375 0-10.625-4.765624-10.625-10.621093 0-5.859375 4.765625-10.625 10.625-10.625 5.855469 0 10.621094 4.765625 10.621094 10.625 0 5.855469-4.765625 10.621093-10.621094 10.621093zm0 0"/><path d="m191.335938 312.566406c4.144531 0 7.5-3.359375 7.5-7.5v-11.703125c0-4.140625-3.355469-7.5-7.5-7.5-4.140626 0-7.5 3.359375-7.5 7.5v11.703125c0 4.140625 3.359374 7.5 7.5 7.5zm0 0"/><path d="m320.664062 312.566406c4.140626 0 7.5-3.359375 7.5-7.5v-11.703125c0-4.140625-3.359374-7.5-7.5-7.5-4.144531 0-7.5 3.359375-7.5 7.5v11.703125c0 4.140625 3.355469 7.5 7.5 7.5zm0 0"/><path d="m256 318.8125c8.386719 0 16.261719-3.507812 21.605469-9.625 2.726562-3.117188 2.410156-7.855469-.710938-10.582031-3.117187-2.726563-7.855469-2.410157-10.582031.710937-2.5 2.855469-6.257812 4.496094-10.3125 4.496094-4.058594 0-7.816406-1.640625-10.3125-4.496094-2.726562-3.117187-7.464844-3.4375-10.585938-.710937-3.117187 2.726562-3.4375 7.464843-.707031 10.582031 5.347657 6.117188 13.222657 9.625 21.605469 9.625zm0 0"/><path d="m32.304688 256.847656c-4.144532 0-7.5 3.359375-7.5 7.5v185.292969c0 24.605469 20.015624 44.621094 44.617187 44.621094h373.152344c24.605469 0 44.621093-20.015625 44.621093-44.621094v-61.480469c0-4.144531-3.359374-7.5-7.5-7.5-4.140624 0-7.5 3.355469-7.5 7.5v61.480469c0 16.332031-13.289062 29.621094-29.621093 29.621094h-373.152344c-16.332031 0-29.617187-13.289063-29.617187-29.621094v-185.292969c0-4.140625-3.359376-7.5-7.5-7.5zm0 0"/><path d="m479.695312 26.628906h-41.113281c-3.433593-15.222656-17.054687-26.628906-33.296875-26.628906-16.246094 0-29.867187 11.40625-33.300781 26.628906h-231.96875c-3.433594-15.222656-17.054687-26.628906-33.300781-26.628906-16.242188 0-29.863282 11.40625-33.296875 26.628906h-65.917969c-4.140625 0-7.5 3.359375-7.5 7.5v49.609375c0 4.140625 3.359375 7.5 7.5 7.5h65.074219v22.804688h-3.148438c-24.605469 0-44.621093 20.015625-44.621093 44.621093v75.683594c0 4.144532 3.359374 7.5 7.5 7.5 4.140624 0 7.5-3.355468 7.5-7.5v-75.683594c0-16.332031 13.289062-29.621093 29.621093-29.621093h3.980469c.820312 3.660156 2.265625 7.183593 4.234375 10.375 6.128906 9.910156 17.414063 16.269531 29.078125 16.269531 15.488281 0 29.914062-11.53125 33.308594-26.640625h231.945312c.046875.207031.101563.414063.15625.621094 3.683594 15.03125 17.667969 26.019531 33.15625 26.019531 14.894532 0 28.65625-10.351562 32.789063-24.636719.191406-.664062.371093-1.332031.523437-2.007812h3.980469c16.332031 0 29.617187 13.289062 29.617187 29.621093v199.496094c0 4.140625 3.359376 7.5 7.5 7.5 4.144532 0 7.5-3.359375 7.5-7.5v-199.496094c0-24.605468-20.015624-44.621093-44.617187-44.621093h-3.152344v-22.804688h40.269531c17.816407 0 32.304688-14.492187 32.304688-32.304687s-14.492188-32.304688-32.304688-32.304688zm-338.835937 64.605469h230.28125v22.808594h-230.28125zm230.28125-15h-230.28125v-34.605469h230.28125zm-356.140625 0v-34.605469h57.574219v34.609375h-57.574219zm86.042969 63.546875c-7.683594-2.5-13.46875-9.875-13.46875-18.238281v-87.328125c0-.027344 0-.054688 0-.082032.003906-10.550781 8.589843-19.132812 19.140625-19.132812 10.550781 0 19.136718 8.582031 19.140625 19.132812v.082032 87.328125c.003906 12.46875-12.890625 22.117187-24.8125 18.238281zm298.5625.015625c-7.726563-2.46875-13.464844-9.800781-13.464844-18.253906v-87.328125c0-.027344 0-.054688 0-.082032.007813-10.550781 8.589844-19.132812 19.140625-19.132812 10.554688 0 19.136719 8.582031 19.144531 19.132812v.082032 87.328125c0 12.492187-12.902343 22.066406-24.820312 18.253906zm80.089843-63.5625h-40.269531v-34.605469h40.269531c9.542969 0 17.304688 7.761719 17.304688 17.304688 0 9.539062-7.761719 17.300781-17.304688 17.300781zm0 0"/><path d="m120.855469 278.765625c-5.105469 14.449219-.882813 29.972656 11.292969 42.757813-12.65625 13.539062-16.691407 30.847656-10.75 47.65625 7.363281 20.824218 28.363281 34.8125 52.257812 34.8125 22.804688 0 42.675781-11.65625 58.375-25.761719 0 0-3.296875 27.5625-3.296875 27.566406-1.25 10.445313 7.175781 19.929687 17.6875 19.929687h19.152344c10.519531 0 18.9375-9.488281 17.691406-19.929687l-3.296875-27.566406c15.699219 14.105469 35.566406 25.761719 58.382812 25.765625 23.890626 0 44.890626-13.988282 52.25-34.808594 5.945313-16.8125 1.90625-34.121094-10.75-47.664062 12.171876-12.785157 16.398438-28.308594 11.289063-42.753907-6.144531-17.375-24.183594-28.601562-45.957031-28.601562-7.941406 0-16.164063 1.480469-24.421875 4.367187 8.367187-19.671875 8.886719-39.203125.921875-55.042968-7.265625-14.445313-20.425782-23.066407-35.207032-23.066407-10.757812 0-21.351562 4.691407-30.476562 13.367188-9.125-8.675781-19.714844-13.367188-30.472656-13.367188-14.785156 0-27.949219 8.621094-35.210938 23.066407-7.964844 15.839843-7.441406 35.371093.925782 55.042968-8.261719-2.882812-16.484376-4.367187-24.421876-4.367187-21.78125 0-39.820312 11.222656-45.964843 28.597656zm146.816406 131.007813c-.515625.578124-1.265625.953124-2.097656.953124h-19.152344c-1.667969 0-2.988281-1.5-2.792969-3.148437l5.667969-47.394531c1.710937-2.085938 6.21875-7.96875 6.703125-8.625.480469.652344 4.988281 6.539062 6.699219 8.625l5.671875 47.394531c.097656.828125-.183594 1.613281-.699219 2.195313zm-61.507813-130.949219c6.808594 4.574219 15.101563-4.101563 10.203126-10.699219-24.222657-32.609375-15.808594-55.621094-12.652344-61.894531 4.664062-9.273438 12.816406-14.808594 21.8125-14.808594 8.519531 0 17.269531 5.023437 24.636718 14.140625 2.96875 3.671875 8.707032 3.664062 11.671876 0 7.367187-9.117188 16.117187-14.140625 24.640624-14.140625 8.992188 0 17.140626 5.535156 21.804688 14.808594 3.15625 6.273437 11.574219 29.285156-12.644531 61.890625-4.90625 6.605468 3.402343 15.265625 10.203125 10.699218 13.296875-8.933593 26.902344-13.65625 39.34375-13.65625 15.332031 0 27.820312 7.300782 31.8125 18.601563 3.753906 10.613281-.945313 22.238281-12.894532 31.890625-3.667968 2.964844-3.664062 8.707031 0 11.667969 12.550782 10.144531 17.054688 23.578125 12.359376 36.859375-4.367188 12.351562-17.84375 24.808594-38.117188 24.808594-12.601562 0-36.183594-5.175782-62.660156-36.648438-.023438-.023438-.035156-.054688-.058594-.078125-4.011719-4.773437-7.980469-10.011719-11.785156-15.574219-3.722656-5.4375-11.960938-5.425781-15.679688 0-3.808594 5.5625-7.769531 10.800782-11.785156 15.570313-.019531.027343-.039062.058593-.058594.085937-26.476562 31.472656-50.058594 36.644532-62.660156 36.644532-20.269531 0-33.746094-12.460938-38.113281-24.816407-4.695313-13.277343-.191407-26.710937 12.355469-36.851562 3.664062-2.960938 3.660156-8.707031 0-11.667969-11.949219-9.65625-16.652344-21.28125-12.898438-31.890625 3.996094-11.300781 16.484375-18.601563 31.816406-18.601563 12.445313.003907 26.046875 4.722657 39.347656 13.660157zm0 0"/></svg>