<svg height="512pt" viewBox="-109 0 512 512" width="512pt" xmlns="http://www.w3.org/2000/svg"><path d="m234.140625 51.019531c-5.660156-24.65625-31.96875-38.464843-55.476563-29.117187-16.46875-19.203125-46.183593-19.203125-62.652343 0-23.507813-9.347656-49.820313 4.460937-55.476563 29.117187-25.164062 2.644531-42.042968 27.097657-35.59375 51.5625l122.351563 15.417969 122.34375-15.417969c6.449219-24.464843-10.335938-48.917969-35.496094-51.5625zm0 0" fill="#fff3e4"/><path d="m60.53125 51.019531c-25.160156 2.644531-42.039062 27.097657-35.589844 51.5625l38.152344 4.808594c4.339844-72.871094 52.914062-85.488281 52.914062-85.488281-23.507812-9.351563-49.816406 4.457031-55.476562 29.117187zm0 0" fill="#ffdebb"/><path d="m248.148438 481.828125c-12.007813-19.535156-35.050782-32.835937-35.050782-32.835937l-65.785156-23.128907-65.789062 23.128907s-23.039063 13.300781-35.050782 32.835937c-6.089844 9.914063 1.050782 22.671875 12.6875 22.671875h176.304688c11.632812 0 18.777344-12.757812 12.683594-22.671875zm0 0" fill="#5bd6fd"/><path d="m213.097656 402.734375c131.574219-63.730469 45.230469-198.386719 56.539063-238.476563 11.304687-40.089843 0-61.675781 0-61.675781h-244.648438s-11.304687 21.585938 0 61.675781c11.308594 40.089844-75.039062 174.746094 56.535157 238.476563zm0 0" fill="#5bd6fd"/><path d="m249.828125 307.425781c-2.363281 14.886719-8.863281 35.628907-36.234375 53.78125-5.457031 3.617188-11.882812 5.550781-18.433594 5.550781h-95.699218c-6.546876 0-12.972657-1.929687-18.429688-5.550781-27.375-18.152343-33.871094-38.894531-36.234375-53.78125-4.171875-26.273437 2.4375-55.835937 8.5625-82.179687l93.953125-43.34375 93.953125 43.339844c6.125 26.347656 12.734375 55.910156 8.5625 82.183593zm0 0" fill="#dd9882"/><path d="m74.796875 307.425781c-4.171875-26.273437 2.4375-55.835937 8.5625-82.183593l78.953125-36.421876-15-6.917968-93.953125 43.339844c-6.125 26.347656-12.734375 55.910156-8.5625 82.183593 2.363281 14.886719 8.859375 35.628907 36.234375 53.78125 5.457031 3.617188 11.882812 5.550781 18.429688 5.550781h30c-6.546876 0-12.972657-1.933593-18.429688-5.550781-27.375-18.152343-33.871094-38.894531-36.234375-53.78125zm0 0" fill="#d86f42"/><path d="m213.097656 402.734375h-131.574218c-12.769532 0-23.125 10.355469-23.125 23.128906 0 12.773438 10.355468 23.128907 23.125 23.128907h131.574218c12.773438 0 23.128906-10.355469 23.128906-23.128907 0-12.773437-10.355468-23.128906-23.128906-23.128906zm0 0" fill="#00acfb"/><path d="m241.265625 225.242188h-187.90625c.175781-.738282.339844-1.476563.515625-2.21875 6.339844-27.199219 11.335938-48.679688 5.746094-68.53125l-.050782-.183594c-2.230468-7.90625 3.710938-15.75 11.921876-15.75h151.535156c8.265625 0 14.238281 7.894531 12.007812 15.851562l-.03125.082032c-5.59375 19.847656-.597656 41.332031 5.746094 68.53125.175781.742187.339844 1.480468.515625 2.21875zm0 0" fill="#fff3e4"/><path d="m89.621094 154.492188-.050782-.183594c-2.230468-7.90625 3.710938-15.75 11.921876-15.75h-30c-8.210938 0-14.152344 7.84375-11.921876 15.75l.050782.183594c5.589844 19.847656.59375 41.332031-5.746094 68.53125-.175781.742187-.339844 1.480468-.515625 2.21875h30c.175781-.738282.339844-1.476563.515625-2.21875 6.339844-27.199219 11.335938-48.683594 5.746094-68.53125zm0 0" fill="#ffdebb"/><path d="m43.808594 277.390625c-4.136719-.132813-7.613282 3.097656-7.753906 7.238281-.300782 8.699219.125 16.542969 1.308593 23.972656 2.488281 15.675782 9.289063 38.828126 39.496094 58.859376 6.710937 4.445312 14.519531 6.796874 22.574219 6.796874h95.699218c8.058594 0 15.863282-2.351562 22.578126-6.796874 30.203124-20.03125 37.007812-43.183594 39.496093-58.855469 4.511719-28.394531-2.792969-59.800781-8.660156-85.042969-5.011719-21.554688-12.535156-44.679688-6.414063-66.804688.035157-.105468.066407-.214843.097657-.320312 3.507812-12.5625-6.199219-25.375-19.226563-25.375 0 0-151.410156 0-151.539062 0-12.972656 0-22.675782 12.765625-19.148438 25.265625l.058594.199219c6.230469 22.140625-1.328125 45.429687-6.347656 67.019531-2.355469 10.132813-4.625 20.074219-6.449219 30.308594-.726563 4.078125 1.988281 7.972656 6.066406 8.699219 4.078125.730468 7.972657-1.988282 8.699219-6.0625 1.417969-7.949219 3.132812-15.804688 4.953125-23.746094h175.976563c5.261718 22.867187 10.847656 50.019531 7.117187 73.503906-2.21875 13.96875-7.96875 32.128906-32.96875 48.707031-4.246094 2.8125-9.1875 4.300781-14.289063 4.300781h-95.699218c-5.101563 0-10.039063-1.488281-14.285156-4.300781-25-16.578125-30.753907-34.738281-32.972657-48.707031-1.027343-6.472656-1.398437-13.375-1.132812-21.105469.144531-4.136719-3.097657-7.609375-7.234375-7.753906zm18.960937-59.648437c5.757813-24.988282 9.652344-45.371094 4.042969-65.269532l-.054688-.203125c-.875-3.097656 1.519532-6.210937 4.707032-6.210937h151.535156c3.195312 0 5.585938 3.054687 4.832031 6.15625-.027343.082031-.050781.160156-.074219.246094-5.609374 19.90625-1.71875 40.289062 4.039063 65.285156h-169.027344zm0 0"/><path d="m91.433594 51.046875c-4.144532 0-7.5 3.355469-7.5 7.5v10.105469c0 4.144531 3.355468 7.5 7.5 7.5 4.140625 0 7.5-3.355469 7.5-7.5v-10.105469c0-4.144531-3.359375-7.5-7.5-7.5zm0 0"/><path d="m203.132812 51.046875c-4.140624 0-7.5 3.355469-7.5 7.5v10.105469c0 4.144531 3.359376 7.5 7.5 7.5 4.144532 0 7.5-3.355469 7.5-7.5v-10.105469c0-4.144531-3.355468-7.5-7.5-7.5zm0 0"/><path d="m166.003906 62.304688c-3.117187-2.730469-7.855468-2.410157-10.582031.707031-1.964844 2.246093-4.929687 3.535156-8.140625 3.535156-3.207031 0-6.171875-1.289063-8.136719-3.535156-2.722656-3.117188-7.464843-3.4375-10.582031-.707031-3.121094 2.722656-3.4375 7.460937-.710938 10.582031 4.8125 5.503906 11.894532 8.664062 19.429688 8.664062 7.539062 0 14.621094-3.160156 19.433594-8.664062 2.726562-3.121094 2.40625-7.859375-.710938-10.582031zm0 0"/><path d="m276.046875 344.359375c3.855469 1.511719 8.207031-.382813 9.722656-4.238281 16.863281-42.921875 6.011719-89.519532-2.707031-126.957032-4.722656-20.273437-8.800781-37.785156-6.238281-46.871093 9.792969-34.730469 3.535156-56.917969.644531-64.398438 2.6875-13.03125-.03125-26.59375-7.625-37.59375-7.085938-10.265625-17.769531-17.347656-29.835938-19.929687-6.699218-19.613282-24.992187-32.910156-46.125-32.910156-4.449218 0-8.847656.609374-13.128906 1.8125-9-8.488282-20.933594-13.273438-33.445312-13.273438-12.515625 0-24.445313 4.785156-33.449219 13.277344-4.28125-1.207032-8.679687-1.816406-13.128906-1.816406-21.128907 0-39.425781 13.296874-46.121094 32.914062-12.101563 2.585938-22.816406 9.6875-29.925781 19.984375-7.601563 11.011719-10.320313 24.585937-7.613282 37.613281-2.90625 7.554688-9.085937 29.714844.671876 64.320313 2.5625 9.085937-1.515626 26.597656-6.234376 46.871093-6.816406 29.257813-15.296874 65.671876-9.671874 101.082032 3.113281 19.601562 10.386718 37.164062 21.613281 52.191406 9.945312 13.316406 23.277343 25.003906 39.722656 34.902344-7.464844 5.589844-12.300781 14.503906-12.300781 24.523437 0 10.703125 5.523437 20.136719 13.863281 25.613281-7.949219 6.210938-17.855469 15.332032-24.675781 26.425782-9.035156 14.699218 1.902344 34.097656 19.074218 34.097656h176.304688c17.195312 0 28.09375-19.425781 19.078125-34.097656-6.820313-11.09375-16.726563-20.214844-24.675781-26.425782 8.339844-5.476562 13.863281-14.910156 13.863281-25.613281 0-10.019531-4.839844-18.933593-12.304687-24.523437 16.414062-9.878906 29.726562-21.546875 39.667968-34.832032 2.480469-3.320312 1.804688-8.019531-1.511718-10.5-3.320313-2.484374-8.019532-1.804687-10.5 1.511719-11.101563 14.835938-27.152344 27.519531-47.71875 37.714844h-128.101563c-88.527344-43.863281-70.382813-121.726563-57.121094-178.667969 5.40625-23.210937 9.675781-41.542968 6.066407-54.34375-7.566407-26.832031-4.28125-44.648437-2.035157-52.140625h234.273438c2.253906 7.535157 5.527343 25.339844-2.03125 52.140625-3.609375 12.800782.660156 31.132813 6.066406 54.34375 8.246094 35.414063 18.511719 79.488282 3.355469 118.070313-1.515625 3.851562.382812 8.207031 4.238281 9.722656zm-34.316406 141.398437c2.992187 4.863282-.648438 11.242188-6.292969 11.242188h-176.304688c-5.691406 0-9.269531-6.410156-6.296874-11.242188 9.078124-14.769531 25.554687-25.957031 30.777343-29.265624h127.347657c5.222656 3.296874 21.652343 14.429687 30.769531 29.265624zm-28.660157-75.523437c8.617188 0 15.628907 7.011719 15.628907 15.628906 0 8.617188-7.011719 15.628907-15.628907 15.628907h-131.574218c-8.617188 0-15.628906-7.011719-15.628906-15.628907 0-8.617187 7.011718-15.628906 15.628906-15.628906zm-181.886718-315.152344c-.703125-7.800781 1.324218-15.652343 5.84375-22.203125 5.605468-8.121094 14.449218-13.367187 24.261718-14.402344 3.1875-.332031 5.808594-2.65625 6.527344-5.78125 3.542969-15.445312 17.078125-26.234374 32.914063-26.234374 4.257812 0 8.457031.8125 12.480469 2.410156 2.976562 1.1875 6.378906.347656 8.464843-2.085938 6.421875-7.488281 15.765625-11.785156 25.632813-11.785156 9.867187 0 19.210937 4.296875 25.632812 11.785156 2.085938 2.433594 5.488282 3.273438 8.464844 2.085938 4.023438-1.597656 8.222656-2.410156 12.480469-2.410156 15.832031 0 29.371093 10.789062 32.914062 26.234374.71875 3.125 3.339844 5.449219 6.527344 5.78125 9.78125 1.03125 18.589844 6.257813 24.171875 14.34375 4.527344 6.558594 6.554688 14.433594 5.839844 22.261719zm0 0"/></svg>