<svg height="512pt" viewBox="0 -45 512.001 512" width="512pt" xmlns="http://www.w3.org/2000/svg"><path d="m27.265625 67.496094h457.472656v287.6875h-457.472656zm0 0" fill="#1fd7c3"/><path d="m27.265625 67.496094h457.472656v60.890625h-457.472656zm0 0" fill="#00bbc9"/><path d="m256 324.289062-76.246094-225.902343h152.492188zm0 0" fill="#ffb44d"/><path d="m103.507812 324.289062-76.242187-225.902343h152.488281zm0 0" fill="#ffe76c"/><path d="m408.492188 324.289062 76.242187-225.902343h-152.488281zm0 0" fill="#ffe76c"/><path d="m484.734375 98.386719h-152.488281l10.125 30h132.238281zm0 0" fill="#ffb44d"/><path d="m189.878906 128.386719h132.242188l10.125-30h-152.492188zm0 0" fill="#e7a25d"/><path d="m37.390625 128.386719h132.238281l10.125-30h-152.488281zm0 0" fill="#ffb44d"/><path d="m484.734375 7.5h-457.46875c-10.917969 0-19.765625 8.847656-19.765625 19.765625v51.355469c0 10.917968 8.847656 19.765625 19.765625 19.765625h457.472656c10.914063 0 19.761719-8.847657 19.761719-19.765625v-51.355469c0-10.917969-8.847656-19.765625-19.765625-19.765625zm0 0" fill="#fff3e4"/><path d="m484.734375 324.289062h-457.46875c-10.917969 0-19.765625 8.851563-19.765625 19.765626v51.359374c0 10.914063 8.847656 19.761719 19.765625 19.761719h457.472656c10.914063 0 19.761719-8.847656 19.761719-19.761719v-51.359374c0-10.917969-8.847656-19.765626-19.765625-19.765626zm0 0" fill="#fff3e4"/><path d="m180.28125 59.453125v-15.058594c0-4.144531-3.355469-7.5-7.5-7.5-4.140625 0-7.5 3.355469-7.5 7.5v15.058594c0 4.144531 3.359375 7.5 7.5 7.5 4.144531 0 7.5-3.355469 7.5-7.5zm0 0"/><path d="m339.21875 66.953125c4.140625 0 7.5-3.355469 7.5-7.5v-15.058594c0-4.144531-3.359375-7.5-7.5-7.5s-7.5 3.355469-7.5 7.5v15.058594c0 4.144531 3.355469 7.5 7.5 7.5zm0 0"/><path d="m256 74.996094c10.167969 0 19.714844-4.25 26.1875-11.652344 2.726562-3.121094 2.40625-7.855469-.710938-10.582031-3.121093-2.726563-7.859374-2.410157-10.582031.710937-3.625 4.144532-9.054687 6.523438-14.894531 6.523438s-11.269531-2.378906-14.894531-6.523438c-2.722657-3.121094-7.460938-3.4375-10.582031-.710937-3.117188 2.726562-3.4375 7.460937-.710938 10.582031 6.472656 7.402344 16.019531 11.652344 26.1875 11.652344zm0 0"/><path d="m484.734375 0h-376.824219c-4.140625 0-7.5 3.359375-7.5 7.5 0 4.144531 3.359375 7.5 7.5 7.5h376.824219c6.761719 0 12.265625 5.503906 12.265625 12.265625v51.359375c0 6.761719-5.5 12.261719-12.265625 12.261719h-457.46875c-6.761719 0-12.265625-5.5-12.265625-12.261719v-51.359375c0-6.761719 5.5-12.265625 12.265625-12.265625h50.644531c4.144532 0 7.5-3.359375 7.5-7.5s-3.355468-7.5-7.5-7.5h-50.644531c-15.035156 0-27.265625 12.230469-27.265625 27.265625v51.355469c0 12.433594 8.367188 22.941406 19.765625 26.207031v213.019531c-11.398437 3.265625-19.765625 13.773438-19.765625 26.207032v51.355468c0 15.035156 12.230469 27.265625 27.265625 27.265625h370.644531c4.144532 0 7.5-3.359375 7.5-7.5s-3.355468-7.5-7.5-7.5h-370.644531c-6.761719 0-12.265625-5.5-12.265625-12.265625v-51.355468c0-6.761719 5.5-12.265626 12.265625-12.265626h457.472656c6.761719 0 12.261719 5.5 12.261719 12.265626v51.355468c0 6.761719-5.5 12.265625-12.261719 12.265625h-56.828125c-4.140625 0-7.5 3.359375-7.5 7.5s3.359375 7.5 7.5 7.5h56.828125c15.03125 0 27.261719-12.230469 27.261719-27.265625v-51.355468c0-12.433594-8.367188-22.941407-19.761719-26.207032v-213.019531c11.394531-3.265625 19.761719-13.773437 19.761719-26.203125v-51.359375c0-15.035156-12.230469-27.265625-27.265625-27.265625zm-10.445313 105.886719-65.800781 194.949219-65.796875-194.949219zm-76.246093 210.902343h-131.597657l65.800782-194.949218zm-76.242188-210.902343-65.800781 194.949219-65.800781-194.949219zm-76.246093 210.902343h-131.597657l65.796875-194.949218zm-76.246094-210.902343-65.796875 194.949219-65.800781-194.949219zm-134.542969 38.175781 58.296875 172.726562h-58.296875zm384.171875 172.726562 58.300781-172.726562v172.726562zm0 0"/></svg>