<svg height="512pt" viewBox="-11 0 512 512" width="512pt" xmlns="http://www.w3.org/2000/svg"><path d="m159.714844 418.257812h-31.867188c-27.90625 0-54.886718-10.066406-75.976562-28.347656-21.085938-18.277344-34.882813-43.554687-38.84375-71.179687-.066406-.46875-.121094-.9375-.164063-1.40625l-4.628906-51.542969c-3.269531-24.339844 4.054687-48.886719 20.160156-67.460938 16.269531-18.773437 39.851563-29.539062 64.691407-29.539062h66.628906v53.597656h-66.628906c-9.425782 0-18.015626 3.921875-24.191407 11.046875-6.175781 7.121094-8.835937 16.183594-7.5 25.515625.066407.464844.125.9375.164063 1.40625l4.621094 51.410156c2.25 14.609376 9.621093 27.960938 20.800781 37.652344 11.34375 9.832032 25.855469 15.246094 40.871093 15.246094h31.863282zm0 0" fill="#ffe76c"/><path d="m363.191406 504.5h-133.867187l-22.183594-191.265625 39.753906-191.269531 49.359375-7.269532 49.367188 7.269532 39.53125 194.457031zm0 0" fill="#d86f42"/><path d="m143.78125 137.15625-8.140625 69.628906 18.316406 40.519532-27.792969 40.515624-8.339843 71.328126 11.238281 40.515624-17.785156 40.515626c1.898437 13.746093 6.941406 26.976562 14.894531 38.601562 5.515625 8.039062 12.824219 14.472656 21.203125 18.894531 8.382812 4.414063 17.824219 6.824219 27.578125 6.824219h54.371094l17.570312-382.535156zm0 0" fill="#dd9882"/><path d="m463.453125 399.664062 11.238281-40.511718-8.34375-71.339844-27.789062-40.507812 18.3125-40.503907-8.144532-69.640625-103.105468-15.195312 17.570312 382.535156h54.367188c19.511718 0 37.761718-9.628906 48.785156-25.71875 7.953125-11.628906 13.007812-24.871094 14.90625-38.625l-.011719.027344zm0 0" fill="#dd9882"/><path d="m126.164062 287.820312h340.183594l-9.480468-81.035156h-321.226563zm0 0" fill="#ffb44d"/><path d="m111.019531 417.347656c-.898437 7.648438-.78125 15.316406.257813 22.835938h369.96875c.566406-4.082032.867187-8.207032.867187-12.347656 0-3.488282-.207031-6.988282-.617187-10.488282l-6.804688-58.199218h-356.867187zm0 0" fill="#ffb44d"/><g fill="#ffe76c"><path d="m312.894531 247.304688c0 9.183593-7.445312 16.628906-16.628906 16.628906-9.1875 0-16.632813-7.445313-16.632813-16.628906 0-9.1875 7.445313-16.632813 16.632813-16.632813 9.183594 0 16.628906 7.445313 16.628906 16.632813zm0 0"/><path d="m312.894531 400.648438c0 9.1875-7.445312 16.632812-16.628906 16.632812-9.1875 0-16.632813-7.445312-16.632813-16.632812 0-9.183594 7.445313-16.628907 16.632813-16.628907 9.183594 0 16.628906 7.445313 16.628906 16.628907zm0 0"/><path d="m186.953125 400.648438c0 9.1875-7.445313 16.632812-16.632813 16.632812-9.183593 0-16.628906-7.445312-16.628906-16.632812 0-9.183594 7.445313-16.628907 16.628906-16.628907 9.1875 0 16.632813 7.445313 16.632813 16.628907zm0 0"/><path d="m438.835938 400.648438c0 9.1875-7.445313 16.632812-16.628907 16.632812-9.1875 0-16.632812-7.445312-16.632812-16.632812 0-9.183594 7.445312-16.628907 16.632812-16.628907 9.183594 0 16.628907 7.445313 16.628907 16.628907zm0 0"/><path d="m203.582031 247.304688c0 9.183593-7.445312 16.628906-16.628906 16.628906s-16.632813-7.445313-16.632813-16.628906c0-9.1875 7.449219-16.632813 16.632813-16.632813s16.628906 7.445313 16.628906 16.632813zm0 0"/><path d="m422.203125 247.304688c0 9.183593-7.445313 16.628906-16.628906 16.628906-9.1875 0-16.632813-7.445313-16.632813-16.628906 0-9.1875 7.445313-16.632813 16.632813-16.632813 9.183593 0 16.628906 7.445313 16.628906 16.632813zm0 0"/></g><path d="m448.730469 137.164062c9.875-31.015624-9.058594-63.808593-40.855469-70.761718-6.957031-31.800782-39.746094-50.730469-70.761719-40.855469-21.921875-24.0625-59.789062-24.0625-81.710937 0-31.015625-9.878906-63.808594 9.054687-70.761719 40.855469-31.796875 6.953125-50.730469 39.746094-40.855469 70.761718zm0 0" fill="#fff3e4"/><path d="m184.640625 66.402344c-31.800781 6.953125-50.730469 39.746094-40.855469 70.761718h42.097656c-8.277343-86.46875 69.519532-111.617187 69.519532-111.617187-31.015625-9.878906-63.808594 9.054687-70.761719 40.855469zm0 0" fill="#ffdebb"/><path d="m228.859375 94.449219c4.144531 0 7.5-3.359375 7.5-7.5v-12.203125c0-4.140625-3.355469-7.5-7.5-7.5-4.140625 0-7.5 3.359375-7.5 7.5v12.203125c0 4.140625 3.359375 7.5 7.5 7.5zm0 0"/><path d="m363.691406 94.449219c4.140625 0 7.5-3.359375 7.5-7.5v-12.203125c0-4.140625-3.359375-7.5-7.5-7.5-4.144531 0-7.5 3.359375-7.5 7.5v12.203125c0 4.140625 3.355469 7.5 7.5 7.5zm0 0"/><path d="m296.277344 100.960938c8.648437 0 16.769531-3.617188 22.285156-9.925782 2.726562-3.121094 2.40625-7.859375-.710938-10.585937-3.121093-2.722657-7.855468-2.40625-10.582031.710937-2.667969 3.050782-6.671875 4.800782-10.992187 4.800782-4.324219 0-8.328125-1.75-10.992188-4.800782-2.726562-3.117187-7.464844-3.433594-10.585937-.710937-3.117188 2.726562-3.433594 7.464843-.710938 10.585937 5.515625 6.308594 13.636719 9.925782 22.289063 9.925782zm0 0"/><path d="m296.28125 223.171875c-13.304688 0-24.128906 10.824219-24.128906 24.132813 0 13.304687 10.824218 24.128906 24.128906 24.128906 13.308594 0 24.132812-10.824219 24.132812-24.128906 0-13.308594-10.824218-24.132813-24.132812-24.132813zm0 33.261719c-5.035156 0-9.128906-4.09375-9.128906-9.128906 0-5.035157 4.09375-9.132813 9.128906-9.132813s9.132812 4.097656 9.132812 9.132813c0 5.035156-4.097656 9.128906-9.132812 9.128906zm0 0"/><path d="m296.28125 376.519531c-13.304688 0-24.128906 10.824219-24.128906 24.128907 0 13.308593 10.824218 24.132812 24.128906 24.132812 13.308594 0 24.132812-10.824219 24.132812-24.132812 0-13.304688-10.824218-24.128907-24.132812-24.128907zm0 33.261719c-5.035156 0-9.128906-4.097656-9.128906-9.132812 0-5.035157 4.09375-9.128907 9.128906-9.128907s9.132812 4.09375 9.132812 9.128907c0 5.035156-4.097656 9.132812-9.132812 9.132812zm0 0"/><path d="m170.339844 376.519531c-13.304688 0-24.128906 10.824219-24.128906 24.128907 0 13.308593 10.824218 24.132812 24.128906 24.132812 13.308594 0 24.132812-10.824219 24.132812-24.132812 0-13.304688-10.824218-24.128907-24.132812-24.128907zm0 33.261719c-5.035156 0-9.128906-4.097656-9.128906-9.132812 0-5.035157 4.09375-9.128907 9.128906-9.128907s9.132812 4.09375 9.132812 9.128907c0 5.035156-4.097656 9.132812-9.132812 9.132812zm0 0"/><path d="m422.226562 376.519531c-13.308593 0-24.132812 10.824219-24.132812 24.128907 0 13.308593 10.824219 24.132812 24.132812 24.132812 13.304688 0 24.128907-10.824219 24.128907-24.132812 0-13.304688-10.824219-24.128907-24.128907-24.128907zm0 33.261719c-5.035156 0-9.132812-4.097656-9.132812-9.132812 0-5.035157 4.097656-9.128907 9.132812-9.128907 5.03125 0 9.128907 4.09375 9.128907 9.128907 0 5.035156-4.097657 9.132812-9.128907 9.132812zm0 0"/><path d="m186.972656 223.171875c-13.308594 0-24.132812 10.824219-24.132812 24.132813 0 13.304687 10.824218 24.128906 24.132812 24.128906 13.304688 0 24.128906-10.824219 24.128906-24.128906 0-13.308594-10.824218-24.132813-24.128906-24.132813zm0 33.261719c-5.035156 0-9.132812-4.09375-9.132812-9.128906 0-5.035157 4.097656-9.132813 9.132812-9.132813s9.128906 4.097656 9.128906 9.132813c0 5.035156-4.09375 9.128906-9.128906 9.128906zm0 0"/><path d="m405.59375 223.171875c-13.304688 0-24.132812 10.824219-24.132812 24.132813 0 13.304687 10.828124 24.128906 24.132812 24.128906s24.132812-10.824219 24.132812-24.128906c0-13.308594-10.828124-24.132813-24.132812-24.132813zm0 33.261719c-5.035156 0-9.132812-4.09375-9.132812-9.128906 0-5.035157 4.097656-9.132813 9.132812-9.132813s9.132812 4.097656 9.132812 9.132813c0 5.035156-4.097656 9.128906-9.132812 9.128906zm0 0"/><path d="m46.980469 395.578125c16.058593 13.921875 35.324219 23.382813 56.066406 27.632813-.277344 5.980468-.007813 12.007812.820313 18 5.027343 36.335937 31.472656 70.789062 71.109374 70.789062h242.601563c48.941406 0 76.542969-51.445312 71.386719-95.519531l-32.59375-278.679688c4.714844-16.34375 2.597656-34.027343-5.925782-48.792969-8.023437-13.898437-21.125-24.1875-36.402343-28.757812-7.863281-26.238281-32.429688-44.828125-60.109375-44.828125-4.894532 0-9.773438.578125-14.554688 1.71875-11.59375-10.945313-27.054687-17.140625-43.101562-17.140625s-31.507813 6.195312-43.101563 17.140625c-4.78125-1.144531-9.660156-1.71875-14.554687-1.71875-27.679688 0-52.246094 18.589844-60.113282 44.828125-15.277343 4.570312-28.375 14.859375-36.398437 28.757812-8.523437 14.761719-10.640625 32.433594-5.933594 48.769532l-2.746093 23.503906h-40.324219c-21.597657 0-42.660157 7.574219-59.304688 21.328125-3.191406 2.640625-3.640625 7.367187-1 10.558594 2.636719 3.191406 7.363281 3.644531 10.558594 1.003906 13.960937-11.535156 31.628906-17.890625 49.746094-17.890625h38.570312l-4.515625 38.597656s-34 0-34.054687 0c-24.960938 0-41.117188 22.742188-38.996094 46.140625l4.617187 51.410157c.015626.15625.035157.3125.058594.46875 2.519532 16.359374 10.792969 31.339843 23.300782 42.175781 7.824218 6.785156 17.050781 11.726562 26.988281 14.5l-4.519531 38.640625c-17.648438-3.875-34.03125-12.078125-47.75-23.972656-19.1875-16.632813-34.105469-41.957032-36.449219-67.589844l-4.632813-51.539063c-.011718-.109375-.023437-.21875-.035156-.328125-2.300781-17.117187 1.214844-34.757812 9.898438-49.671875 2.082031-3.582031.871093-8.171875-2.710938-10.257812-3.578125-2.082031-8.167969-.871094-10.253906 2.710937-10.324219 17.734375-14.519532 38.699219-11.824219 59.050782 0 0 4.617187 51.375 4.617187 51.382812 2.65625 29.570312 19.398438 58.363281 41.566407 77.578125zm71.105469 37.105469c-.292969-4.84375-.160157-9.6875.402343-14.464844l6.03125-51.570312h343.515625l6.035156 51.570312c.558594 4.796875.707032 9.644531.414063 14.464844zm228.007812-137.363282 2.589844 56.328126h-104.8125l2.585937-56.328126zm17.605469 56.328126-2.585938-56.328126h98.582031l6.585938 56.328126zm-229.085938-71.328126 7.71875-66.035156h307.882813l7.722656 66.035156zm313.847657-81.035156h-91.761719l-2.507813-54.621094h87.878906zm-109.285157-54.621094 2.507813 54.621094h-90.8125l2.507812-54.621094zm-103.320312 54.621094h-91.769531l6.390624-54.621094h87.886719zm-102.996094 96.035156h98.585937l-2.589843 56.328126h-102.582031zm18.039063 195.726563c-16.351563-8.613281-26.203126-25.902344-30.53125-43.363281h104.078124l-2.265624 49.316406h-47.203126c-8.359374 0-16.6875-2.0625-24.078124-5.953125zm86.296874 5.953125 2.265626-49.316406h113.632812l2.265625 49.316406zm222.980469-22.457031c-9.632812 14.0625-25.554687 22.457031-42.597656 22.457031h-47.203125l-2.265625-49.316406h104.082031c-2.375 9.578125-6.460937 18.738281-12.015625 26.859375zm-305.078125-378.035157c6.707032-11.613281 18.0625-19.914062 31.164063-22.78125 2.863281-.625 5.097656-2.863281 5.722656-5.722656 4.765625-21.777344 24.378906-37.582031 46.636719-37.582031 4.902344 0 9.789062.761719 14.527344 2.269531 2.789062.890625 5.84375.070313 7.816406-2.09375 9.03125-9.914062 21.902344-15.597656 35.3125-15.597656s26.28125 5.683594 35.308594 15.597656c1.976562 2.164063 5.027343 2.984375 7.820312 2.09375 4.738281-1.507812 9.625-2.269531 14.523438-2.269531 22.261718 0 41.875 15.804687 46.636718 37.582031.628906 2.859375 2.863282 5.097656 5.726563 5.722656 13.097656 2.867188 24.457031 11.167969 31.160156 22.78125 5.800781 10.046876 7.714844 21.875 5.492187 33.15625h-293.335937c-2.226563-11.28125-.3125-23.109374 5.488281-33.15625zm-63.1875 247.234376c-9.765625-8.464844-16.246094-20.140626-18.265625-32.898438 0 0-4.597656-51.167969-4.597656-51.171875-1.359375-14.980469 7.460937-29.792969 24.058594-29.792969h32.300781l-14.5625 124.558594c-6.941406-2.261719-13.386719-5.886719-18.933594-10.695312zm0 0"/></svg>