<svg height="512pt" viewBox="-55 0 512 512" width="512pt" xmlns="http://www.w3.org/2000/svg"><path d="m226.648438 183.1875c0 37.792969-30.636719 68.429688-68.429688 68.429688-37.789062 0-68.425781-30.636719-68.425781-68.429688s30.636719-68.425781 68.425781-68.425781c37.792969 0 68.429688 30.632812 68.429688 68.425781zm0 0" fill="#ffb44d"/><path d="m158.21875 222.019531c-21.410156 0-38.832031-17.417969-38.832031-38.832031 0-21.410156 17.421875-38.832031 38.832031-38.832031 21.414062 0 38.832031 17.421875 38.832031 38.832031 0 21.414062-17.417969 38.832031-38.832031 38.832031zm0 0" fill="#ffe76c"/><path d="m353.070312 75.929688c0 37.789062-30.636718 68.425781-68.429687 68.425781-37.789063 0-68.425781-30.636719-68.425781-68.425781 0-37.792969 30.636718-68.429688 68.425781-68.429688 37.792969 0 68.429687 30.636719 68.429687 68.429688zm0 0" fill="#ffb44d"/><path d="m284.640625 114.761719c-21.410156 0-38.832031-17.421875-38.832031-38.832031 0-21.414063 17.421875-38.832032 38.832031-38.832032 21.414063 0 38.832031 17.417969 38.832031 38.832032 0 21.410156-17.417968 38.832031-38.832031 38.832031zm0 0" fill="#ffe76c"/><path d="m63.695312 276.117188 136.910157 20.792968 136.976562-20.792968c3.878907-5.328126 6.78125-10.832032 8.90625-16.28125 9.226563-23.660157.164063-50.539063-21.289062-64.121094-15.210938-9.625-34.609375-9.625-49.820313 0-15.210937 9.628906-34.609375 9.628906-49.820312 0-15.210938-9.625-34.609375-9.625-49.820313 0-15.210937 9.628906-34.609375 9.628906-49.820312 0-15.210938-9.625-34.609375-9.625-49.820313 0l-.015625.011718c-21.007812 13.292969-30.367187 39.460938-21.777343 62.789063 2.167968 5.878906 5.203124 11.847656 9.390624 17.601563zm0 0" fill="#1fd7c3"/><path d="m93.695312 276.117188c-4.1875-5.757813-7.222656-11.722657-9.390624-17.601563-8.589844-23.328125.769531-49.496094 21.777343-62.789063l.015625-.011718c3.148438-1.992188 6.480469-3.546875 9.910156-4.714844-13.152343-4.476562-27.847656-2.921875-39.910156 4.714844l-.015625.011718c-21.007812 13.292969-30.367187 39.460938-21.777343 62.789063 2.167968 5.878906 5.203124 11.847656 9.390624 17.601563l136.910157 20.792968 15.003906-2.277344zm0 0" fill="#00bbc9"/><path d="m393.6875 407.839844c-1.636719-36.917969-23.269531-72.769532-56.105469-90.132813l-136.941406-20.792969-136.945313 20.792969c-32.835937 17.363281-54.464843 53.214844-56.105468 90.132813-.414063 9.367187.589844 18.363281 2.777344 26.929687 10.550781 41.28125 48.382812 69.730469 90.988281 69.730469h198.570312c42.605469 0 80.4375-28.449219 90.984375-69.730469 2.191406-8.566406 3.195313-17.5625 2.777344-26.929687zm0 0" fill="#1fd7c3"/><path d="m40.367188 434.769531c-2.1875-8.566406-3.191407-17.5625-2.777344-26.929687 1.636718-36.917969 23.269531-72.769532 56.105468-90.132813l121.945313-18.515625-15-2.28125-136.945313 20.796875c-32.835937 17.363281-54.464843 53.214844-56.105468 90.132813-.414063 9.367187.589844 18.363281 2.777344 26.929687 10.550781 41.28125 48.382812 69.730469 90.988281 69.730469h30c-42.605469 0-80.4375-28.449219-90.988281-69.730469zm0 0" fill="#00bbc9"/><path d="m337.582031 276.117188h-273.886719c-11.484374 0-20.792968 9.308593-20.792968 20.792968 0 11.488282 9.308594 20.796875 20.792968 20.796875h273.886719c11.484375 0 20.796875-9.308593 20.796875-20.796875 0-11.480468-9.3125-20.792968-20.796875-20.792968zm0 0" fill="#ffe76c"/><path d="m72.902344 296.914062c0-11.484374 9.308594-20.796874 20.792968-20.796874h-30c-11.484374 0-20.792968 9.3125-20.792968 20.796874 0 11.484376 9.308594 20.792969 20.792968 20.792969h30c-11.484374 0-20.792968-9.308593-20.792968-20.792969zm0 0" fill="#ffb44d"/><path d="m208.714844 75.929688c0 41.867187 34.058594 75.925781 75.925781 75.925781s75.929687-34.058594 75.929687-75.925781c0-41.867188-34.0625-75.929688-75.929687-75.929688s-75.925781 34.0625-75.925781 75.929688zm136.855468 0c0 33.59375-27.332031 60.925781-60.929687 60.925781-33.59375 0-60.925781-27.332031-60.925781-60.925781 0-33.597657 27.332031-60.929688 60.925781-60.929688 33.597656 0 60.929687 27.332031 60.929687 60.929688zm0 0"/><path d="m238.308594 75.929688c0 25.546874 20.785156 46.332031 46.332031 46.332031s46.332031-20.785157 46.332031-46.332031c0-25.546876-20.78125-46.332032-46.332031-46.332032-25.546875 0-46.332031 20.785156-46.332031 46.332032zm77.664062 0c0 17.273437-14.054687 31.332031-31.332031 31.332031s-31.332031-14.058594-31.332031-31.332031c0-17.277344 14.058594-31.332032 31.332031-31.332032 17.277344 0 31.332031 14.054688 31.332031 31.332032zm0 0"/><path d="m114.683594 411.832031c4.144531 0 7.5-3.355469 7.5-7.5v-15.554687c0-4.144532-3.355469-7.5-7.5-7.5-4.140625 0-7.5 3.355468-7.5 7.5v15.554687c0 4.144531 3.359375 7.5 7.5 7.5zm0 0"/><path d="m286.59375 411.832031c4.144531 0 7.5-3.355469 7.5-7.5v-15.554687c0-4.144532-3.355469-7.5-7.5-7.5-4.140625 0-7.5 3.355468-7.5 7.5v15.554687c0 4.144531 3.359375 7.5 7.5 7.5zm0 0"/><path d="m200.640625 420.136719c10.429687 0 20.222656-4.355469 26.863281-11.949219 2.722656-3.121094 2.40625-7.855469-.710937-10.582031-3.121094-2.726563-7.859375-2.410157-10.585938.710937-3.789062 4.332032-9.464843 6.820313-15.566406 6.820313-6.105469 0-11.777344-2.488281-15.570313-6.820313-2.722656-3.121094-7.460937-3.4375-10.582031-.710937-3.117187 2.726562-3.4375 7.460937-.710937 10.582031 6.640625 7.59375 16.429687 11.949219 26.863281 11.949219zm0 0"/><path d="m3.101562 436.625c11.339844 44.378906 51.742188 75.375 98.253907 75.375h198.570312c46.507813 0 86.914063-30.996094 98.253907-75.371094 2.425781-9.507812 3.4375-19.304687 3.003906-29.121094-1.542969-34.78125-19.402344-67.78125-46.65625-87.945312 6.886718-5.167969 11.351562-13.398438 11.351562-22.648438 0-11.359374-6.730468-21.171874-16.410156-25.667968 1.503906-2.8125 2.851562-5.710938 4.007812-8.683594 10.476563-26.875.269532-57.652344-24.269531-73.183594-17.566406-11.117187-40.269531-11.117187-57.839843 0-11.375 7.199219-25.71875 7.929688-37.714844 2.226563.316406-2.816407.496094-5.628907.496094-8.414063 0-41.867187-34.0625-75.929687-75.929688-75.929687s-75.925781 34.0625-75.925781 75.929687c0 .378906.019531.773438.027343 1.15625-3.546874 1.296875-6.988281 2.976563-10.25 5.042969-24.066406 15.230469-34.5 45.394531-24.800781 71.722656 1.285157 3.492188 2.804688 6.875 4.546875 10.132813-9.683594 4.5-16.414062 14.308594-16.414062 25.667968 0 9.253907 4.464844 17.484376 11.351562 22.648438-27.253906 20.164062-45.113281 53.164062-46.6562498 87.949219-.4375002 9.8125.5742188 19.609375 3.0039058 29.113281zm124.121094-248.84375c-.222656-1.515625-.335937-3.050781-.335937-4.59375 0-17.277344 14.054687-31.332031 31.332031-31.332031 16.929688 0 30.765625 13.496093 31.316406 30.292969-4.6875.984374-9.222656 2.589843-13.503906 4.78125-1.46875.75-2.910156 1.5625-4.304688 2.449218-12.648437 8.003906-28.980468 8.027344-41.65625.082032-.929687-.585938-1.878906-1.152344-2.847656-1.679688zm30.996094-65.519531c33.597656 0 60.929688 27.332031 60.929688 60.925781 0 .355469-.003907.710938-.011719 1.066406-4.699219-1.710937-9.621094-2.75-14.640625-3.109375-1.070313-24.601562-21.417969-44.289062-46.277344-44.289062-25.191406 0-45.734375 20.210937-46.304688 45.265625-3.554687-.726563-7.191406-1.105469-10.863281-1.105469-1.242187 0-2.484375.042969-3.726562.128906 1.082031-32.652343 27.984375-58.882812 60.894531-58.882812zm-143.132812 285.910156c1.523437-34.382813 21.285156-66.738281 50.511718-82.964844h205.132813c4.140625 0 7.5-3.355469 7.5-7.5 0-4.140625-3.359375-7.5-7.5-7.5h-207.035157c-7.328124 0-13.292968-5.964843-13.292968-13.292969 0-7.332031 5.964844-13.296874 13.292968-13.296874h39.035157c4.140625 0 7.5-3.355469 7.5-7.5 0-4.140626-3.359375-7.5-7.5-7.5h-35.082031c-2.542969-3.960938-4.65625-8.214844-6.304688-12.691407-7.269531-19.734375.617188-42.386719 18.765625-53.871093 12.566406-7.957032 29.230469-7.953126 41.796875 0 17.367188 10.992187 40.503906 11.199218 57.839844 0 .015625-.007813.027344-.015626.039062-.023438 12.417969-8.019531 29.246094-7.863281 41.703125-.011719.011719.007813.023438.011719.03125.015625.007813.007813.015625.011719.027344.019532 17.566406 11.117187 40.273437 11.117187 57.839844 0 12.699219-8.035157 29.105469-8.035157 41.800781 0 18.488281 11.699218 26.191406 34.855468 18.3125 55.058593-1.566406 4.019531-3.535156 7.875-5.867188 11.503907h-200.902343c-4.140625 0-7.5 3.359374-7.5 7.5 0 4.144531 3.359375 7.5 7.5 7.5h204.855469c7.328124 0 13.292968 5.964843 13.292968 13.296874 0 7.328126-5.964844 13.292969-13.292968 13.292969h-36.855469c-4.140625 0-7.5 3.359375-7.5 7.5 0 4.144531 3.359375 7.5 7.5 7.5h34.953125c29.226562 16.226563 48.988281 48.582031 50.511718 82.964844.371094 8.34375-.484374 16.667969-2.550781 24.742187-9.640625 37.730469-44.070312 64.085938-83.71875 64.085938h-198.570312c-39.652344 0-74.078125-26.355469-83.71875-64.085938-2.066407-8.074218-2.921875-16.398437-2.550781-24.742187zm0 0"/></svg>