<svg height="511pt" viewBox="-33 1 511 511.999" width="511pt" xmlns="http://www.w3.org/2000/svg"><path d="m346.964844 484.667969c-9.570313-21.648438-32.441406-30.96875-32.441406-30.96875l-91.101563-19.640625-91.101563 19.640625s-22.871093 9.320312-32.441406 30.96875c-4.128906 9.335937 2.808594 19.832031 13.019532 19.832031h221.046874c10.210938 0 17.148438-10.496094 13.019532-19.832031zm0 0" fill="#1fd7c3"/><path d="m139.878906 484.667969c9.570313-21.648438 32.441406-30.96875 32.441406-30.96875l71.101563-15.332031-20-4.308594-91.101563 19.640625s-22.871093 9.320312-32.441406 30.96875c-4.128906 9.335937 2.808594 19.832031 13.019532 19.832031h40c-10.207032 0-17.148438-10.496094-13.019532-19.832031zm0 0" fill="#00bbc9"/><path d="m165.859375 358.585938s10.488281 73.441406-33.539063 95.113281h182.203126c-44.027344-21.675781-33.535157-95.113281-33.535157-95.113281l-57.566406-22.679688zm0 0" fill="#a5b0bc"/><path d="m205.859375 358.585938 37.5625-14.800782-20-7.878906-57.5625 22.679688s10.488281 73.4375-33.539063 95.113281h40c44.027344-21.675781 33.539063-95.113281 33.539063-95.113281zm0 0" fill="#8597a5"/><path d="m40.839844 73.179688c0 184.730468 125.019531 229.886718 125.019531 229.886718l57.5625 32.839844 57.5625-32.84375s125.019531-45.15625 125.019531-229.882812l-182.582031-32.839844zm0 0" fill="#a5b0bc"/><path d="m205.859375 303.0625s-125.019531-45.15625-125.019531-229.882812l162.582031-29.242188-20-3.597656-182.582031 32.839844c0 184.730468 125.019531 229.886718 125.019531 229.886718l57.5625 32.839844 20-11.410156zm0 0" fill="#8597a5"/><path d="m406.003906 7.5h-365.164062c-18.136719 0-32.839844 14.703125-32.839844 32.839844 0 18.136718 14.703125 32.839844 32.839844 32.839844h365.164062c18.136719 0 32.839844-14.703126 32.839844-32.839844 0-18.136719-14.703125-32.839844-32.839844-32.839844zm0 0" fill="#1fd7c3"/><path d="m48 40.339844c0-18.136719 14.703125-32.839844 32.839844-32.839844h-40c-18.136719 0-32.839844 14.703125-32.839844 32.839844 0 18.136718 14.703125 32.839844 32.839844 32.839844h40c-18.136719 0-32.839844-14.703126-32.839844-32.839844zm0 0" fill="#00bbc9"/><path d="m280.984375 303.066406h-115.125c-15.332031 0-27.761719 12.425782-27.761719 27.757813s12.429688 27.761719 27.761719 27.761719h115.125c15.332031 0 27.761719-12.429688 27.761719-27.761719s-12.429688-27.757813-27.761719-27.757813zm0 0" fill="#1fd7c3"/><path d="m178.097656 330.824219c0-15.332031 12.429688-27.757813 27.761719-27.757813h-40c-15.332031 0-27.761719 12.425782-27.761719 27.757813s12.429688 27.761719 27.761719 27.761719h40c-15.332031 0-27.761719-12.429688-27.761719-27.761719zm0 0" fill="#00bbc9"/><g fill="#1fd7c3"><path d="m239.171875 125.867188c0 8.699218-7.050781 15.75-15.75 15.75-8.695313 0-15.746094-7.050782-15.746094-15.75 0-8.695313 7.050781-15.746094 15.746094-15.746094 8.699219 0 15.75 7.050781 15.75 15.746094zm0 0"/><path d="m124.773438 125.867188c0 8.699218-7.050782 15.75-15.746094 15.75-8.699219 0-15.75-7.050782-15.75-15.75 0-8.695313 7.050781-15.746094 15.75-15.746094 8.695312 0 15.746094 7.050781 15.746094 15.746094zm0 0"/><path d="m353.566406 125.867188c0 8.699218-7.050781 15.75-15.746094 15.75-8.699218 0-15.75-7.050782-15.75-15.75 0-8.695313 7.050782-15.746094 15.75-15.746094 8.695313 0 15.746094 7.050781 15.746094 15.746094zm0 0"/></g><path d="m40.839844 15h57.535156c4.140625 0 7.5-3.359375 7.5-7.5s-3.359375-7.5-7.5-7.5h-57.535156c-22.246094 0-40.339844 18.097656-40.339844 40.339844 0 19.703125 14.203125 36.144531 32.90625 39.640625.675781 40.398437 7.378906 77.300781 19.976562 109.761719 10.703126 27.59375 25.648438 52.050781 44.417969 72.699218 17.863281 19.652344 35.691407 32.03125 48.234375 39.238282-9.308594 6.355468-15.4375 17.046874-15.4375 29.144531 0 17.097656 12.234375 31.386719 28.40625 34.585937 1.265625 16.828125 2.003906 65.664063-29.867187 81.492188-3.179688 1.363281-25.984375 11.8125-36.117188 34.730468-6.234375 14.097657 4.558594 30.367188 19.878907 30.367188h221.046874c15.332032 0 26.101563-16.296875 19.878907-30.367188-10.132813-22.917968-32.9375-33.367187-36.121094-34.730468-31.777344-15.785156-31.097656-64.660156-29.855469-81.496094 16.167969-3.203125 28.398438-17.488281 28.398438-34.582031 0-12.097657-6.125-22.789063-15.4375-29.144531 12.542968-7.207032 30.367187-19.585938 48.234375-39.238282 18.773437-20.648437 33.714843-45.105468 44.417969-72.699218 12.597656-32.464844 19.300781-69.363282 19.976562-109.761719 18.703125-3.5 32.90625-19.9375 32.90625-39.640625 0-22.242188-18.097656-40.339844-40.339844-40.339844h-277.628906c-4.140625 0-7.5 3.359375-7.5 7.5s3.359375 7.5 7.5 7.5h277.628906c13.972656 0 25.339844 11.367188 25.339844 25.339844s-11.367188 25.339844-25.339844 25.339844h-365.164062c-13.972656 0-25.339844-11.367188-25.339844-25.339844s11.367188-25.339844 25.339844-25.339844zm251.96875 431.199219h-26.433594c-4.140625 0-7.5 3.359375-7.5 7.5 0 4.144531 3.359375 7.5 7.5 7.5h46.542969c4.488281 2.136719 20.125 10.527343 27.1875 26.5 1.929687 4.367187-1.476563 9.300781-6.160157 9.300781h-221.046874c-4.707032 0-8.078126-4.960938-6.160157-9.300781 7.007813-15.847657 22.730469-24.34375 27.207031-26.5h102.429688c4.140625 0 7.5-3.355469 7.5-7.5 0-4.140625-3.359375-7.5-7.5-7.5h-82.335938c21.078126-24.332031 21.222657-62.980469 20.078126-80.113281h98.609374c-1.140624 17.132812-1 55.78125 20.082032 80.113281zm-11.824219-95.113281h-115.125c-11.171875 0-20.261719-9.089844-20.261719-20.261719s9.089844-20.261719 20.261719-20.261719h115.128906c11.167969 0 20.257813 9.089844 20.257813 20.261719s-9.089844 20.261719-20.261719 20.261719zm98.707031-167.316407c-9.941406 25.8125-23.796875 48.675781-41.179687 67.960938-22.878907 25.378906-47.816407 39.445312-58.902344 43.835937h-112.332031c-5.695313-2.339844-31.996094-14.195312-58.378906-43.214844-17.523438-19.277343-31.496094-42.167968-41.53125-68.03125-11.855469-30.554687-18.222657-65.390624-18.957032-103.640624h350.023438c-.726563 38.023437-7.023438 72.667968-18.742188 103.089843zm0 0"/><path d="m146.015625 227.769531c4.140625 0 7.5-3.355469 7.5-7.5v-14.007812c0-4.140625-3.359375-7.5-7.5-7.5-4.144531 0-7.5 3.359375-7.5 7.5v14.007812c0 4.144531 3.355469 7.5 7.5 7.5zm0 0"/><path d="m300.832031 227.769531c4.140625 0 7.5-3.355469 7.5-7.5v-14.007812c0-4.140625-3.359375-7.5-7.5-7.5-4.144531 0-7.5 3.359375-7.5 7.5v14.007812c0 4.144531 3.355469 7.5 7.5 7.5zm0 0"/><path d="m223.421875 235.25c9.609375 0 18.632813-4.015625 24.753906-11.019531 2.726563-3.117188 2.40625-7.855469-.710937-10.582031-3.121094-2.726563-7.855469-2.410157-10.582032.710937-3.273437 3.742187-8.179687 5.886719-13.460937 5.886719s-10.1875-2.144532-13.457031-5.886719c-2.726563-3.121094-7.464844-3.4375-10.582032-.710937-3.121093 2.726562-3.4375 7.464843-.710937 10.582031 6.117187 7.003906 15.140625 11.019531 24.75 11.019531zm0 0"/><path d="m223.421875 149.117188c12.820313 0 23.25-10.429688 23.25-23.246094 0-12.820313-10.429687-23.25-23.25-23.25s-23.246094 10.429687-23.246094 23.25c0 12.816406 10.425781 23.246094 23.246094 23.246094zm0-31.496094c4.546875 0 8.25 3.699218 8.25 8.25 0 4.546875-3.703125 8.246094-8.25 8.246094s-8.246094-3.699219-8.246094-8.246094c0-4.550782 3.699219-8.25 8.246094-8.25zm0 0"/><path d="m109.027344 149.117188c12.816406 0 23.246094-10.429688 23.246094-23.246094 0-12.820313-10.429688-23.25-23.246094-23.25-12.820313 0-23.25 10.429687-23.25 23.25 0 12.816406 10.429687 23.246094 23.25 23.246094zm0-31.496094c4.546875 0 8.246094 3.699218 8.246094 8.25 0 4.546875-3.699219 8.246094-8.246094 8.246094-4.550782 0-8.25-3.699219-8.25-8.246094 0-4.550782 3.699218-8.25 8.25-8.25zm0 0"/><path d="m337.820312 149.117188c12.816407 0 23.246094-10.429688 23.246094-23.246094 0-12.820313-10.429687-23.25-23.246094-23.25-12.820312 0-23.25 10.429687-23.25 23.25 0 12.816406 10.429688 23.246094 23.25 23.246094zm0-31.496094c4.546876 0 8.246094 3.699218 8.246094 8.25 0 4.546875-3.699218 8.246094-8.246094 8.246094-4.550781 0-8.25-3.699219-8.25-8.246094 0-4.550782 3.699219-8.25 8.25-8.25zm0 0"/></svg>