<svg height="512pt" viewBox="0 -17 512 512" width="512pt" xmlns="http://www.w3.org/2000/svg"><path d="m289.175781 74.769531h-18.445312v-21.347656c0-3.667969-2.972657-6.640625-6.636719-6.640625h-16.1875c-3.664062 0-6.636719 2.972656-6.636719 6.640625v21.347656h-18.445312c-3.667969 0-6.640625 2.972657-6.640625 6.640625v16.183594c0 3.667969 2.972656 6.640625 6.640625 6.640625h18.445312v73.160156h29.460938v-73.160156h18.445312c3.667969 0 6.640625-2.972656 6.640625-6.640625v-16.183594c0-3.667968-2.972656-6.640625-6.640625-6.640625zm0 0" fill="#1fd7c3"/><path d="m270.730469 126.910156c-4.820313-1.136718-9.765625-1.730468-14.730469-1.730468s-9.910156.59375-14.730469 1.730468v50.484375h29.460938zm0 0" fill="#00bbc9"/><path d="m407.277344 226.007812-132.800782-71.1875c-5.683593-3.046874-12.03125-4.640624-18.476562-4.640624s-12.792969 1.59375-18.476562 4.640624l-132.800782 71.1875-23.855468 141.359376 23.855468 104.0625h69.070313l82.207031-10.554688 82.207031 10.554688h69.070313l23.855468-104.0625zm0 0" fill="#dadadc"/><path d="m89.285156 35.488281h-18.441406v-21.347656c0-3.667969-2.972656-6.640625-6.640625-6.640625h-16.183594c-3.667969 0-6.640625 2.972656-6.640625 6.640625v21.347656h-18.445312c-3.664063 0-6.636719 2.972657-6.636719 6.640625v16.183594c0 3.664062 2.972656 6.636719 6.636719 6.636719h18.445312v73.164062h29.464844v-73.164062h18.441406c3.667969 0 6.640625-2.96875 6.640625-6.636719v-16.183594c0-3.667968-2.972656-6.640625-6.640625-6.640625zm0 0" fill="#1fd7c3"/><path d="m422.714844 35.488281h18.441406v-21.347656c0-3.667969 2.972656-6.640625 6.640625-6.640625h16.183594c3.667969 0 6.640625 2.972656 6.640625 6.640625v21.347656h18.445312c3.664063 0 6.636719 2.972657 6.636719 6.640625v16.183594c0 3.664062-2.972656 6.636719-6.636719 6.636719h-18.445312v73.164062h-29.464844v-73.164062h-18.441406c-3.667969 0-6.640625-2.96875-6.640625-6.636719v-16.183594c0-3.667968 2.972656-6.640625 6.640625-6.640625zm0 0" fill="#1fd7c3"/><path d="m70.84375 91.347656c-4.714844-1.539062-9.679688-2.347656-14.734375-2.347656-5.050781 0-10.015625.808594-14.730469 2.347656v46.765625h29.460938v-46.765625zm0 0" fill="#00bbc9"/><path d="m93.808594 140.304688-22.679688-20.519532c-8.523437-7.714844-21.507812-7.714844-30.035156 0l-22.679688 20.519532c-6.949218 6.289062-10.914062 15.222656-10.914062 24.59375v306.53125h97.222656v-306.53125c0-9.371094-3.964844-18.304688-10.914062-24.59375zm0 0" fill="#a5b0bc"/><path d="m470.617188 91.347656c-4.710938-1.542968-9.675782-2.347656-14.730469-2.347656-5.054688 0-10.019531.804688-14.730469 2.347656v46.765625h29.460938zm0 0" fill="#00bbc9"/><path d="m418.191406 140.304688 22.679688-20.519532c8.523437-7.714844 21.507812-7.714844 30.035156 0l22.679688 20.519532c6.949218 6.289062 10.914062 15.222656 10.914062 24.59375v306.53125h-97.222656v-306.53125c0-9.371094 3.964844-18.304688 10.914062-24.59375zm0 0" fill="#a5b0bc"/><path d="m318.882812 303.039062-30.070312-27.117187c-9-8.117187-20.691406-12.613281-32.8125-12.613281s-23.8125 4.492187-32.8125 12.613281l-30.066406 27.117187c-12.304688 11.097657-19.328125 26.890626-19.328125 43.457032v124.933594h34.371093l47.835938-10.554688 47.835938 10.554688h34.371093v-124.933594c0-16.566406-7.023437-32.359375-19.324219-43.457032zm0 0" fill="#1fd7c3"/><g fill="#4a5660"><path d="m208.164062 471.429688v-124.933594c0-6.824219 2.90625-13.363282 7.976563-17.933594l30.066406-27.121094c2.691407-2.425781 6.167969-3.761718 9.792969-3.761718s7.101562 1.335937 9.792969 3.765624l30.066406 27.117188c5.070313 4.570312 7.976563 11.109375 7.976563 17.933594v124.933594zm0 0"/><path d="m71.382812 192.554688-11-11.511719c-2.328124-2.433594-6.214843-2.433594-8.539062 0l-11.003906 11.511719c-3.335938 3.492187-5.195313 8.128906-5.195313 12.957031v43.710937c0 4.535156 3.675781 8.210938 8.210938 8.210938h24.511719c4.535156 0 8.210937-3.675782 8.210937-8.210938v-43.710937c0-4.828125-1.859375-9.464844-5.195313-12.957031zm0 0"/><path d="m440.617188 192.554688 11-11.511719c2.328124-2.433594 6.214843-2.433594 8.539062 0l11.003906 11.511719c3.335938 3.492187 5.195313 8.128906 5.195313 12.957031v43.710937c0 4.535156-3.675781 8.210938-8.210938 8.210938h-24.515625c-4.53125 0-8.207031-3.675782-8.207031-8.210938v-43.710937c0-4.828125 1.859375-9.464844 5.195313-12.957031zm0 0"/></g><path d="m189.585938 209.289062c-4.144532 0-7.5 3.359376-7.5 7.5v12.019532c0 4.140625 3.355468 7.5 7.5 7.5 4.140624 0 7.5-3.359375 7.5-7.5v-12.019532c0-4.140624-3.359376-7.5-7.5-7.5zm0 0"/><path d="m322.414062 209.289062c-4.140624 0-7.5 3.359376-7.5 7.5v12.019532c0 4.140625 3.359376 7.5 7.5 7.5 4.144532 0 7.5-3.359375 7.5-7.5v-12.019532c0-4.140624-3.355468-7.5-7.5-7.5zm0 0"/><path d="m277.328125 222.328125c-3.117187-2.726563-7.855469-2.410156-10.582031.707031-2.605469 2.980469-6.523438 4.691406-10.746094 4.691406-4.226562 0-8.140625-1.710937-10.746094-4.691406-2.726562-3.117187-7.464844-3.433594-10.582031-.707031-3.121094 2.726563-3.4375 7.460937-.710937 10.582031 5.453124 6.238282 13.484374 9.816406 22.039062 9.816406 8.550781 0 16.585938-3.578124 22.039062-9.816406 2.726563-3.121094 2.40625-7.855468-.710937-10.582031zm0 0"/><path d="m65.804688 175.863281c-5.214844-5.453125-14.171876-5.457031-19.386719 0l-11.003907 11.511719c-4.6875 4.90625-7.269531 11.347656-7.269531 18.136719v43.710937c0 8.664063 7.046875 15.710938 15.707031 15.710938h24.515626c8.664062 0 15.710937-7.046875 15.710937-15.710938v-43.710937c0-6.789063-2.582031-13.230469-7.273437-18.136719 0 0-10.996094-11.503906-11-11.511719zm3.273437 73.359375c0 .390625-.316406.710938-.710937.710938h-24.511719c-.394531 0-.710938-.320313-.710938-.710938v-43.710937c0-2.910157 1.105469-5.667969 3.117188-7.773438l9.851562-10.304687 9.851563 10.304687c2.007812 2.105469 3.113281 4.863281 3.113281 7.773438zm0 0"/><path d="m465.582031 175.863281c-5.210937-5.453125-14.175781-5.449219-19.386719 0l-11 11.511719c-4.691406 4.90625-7.273437 11.347656-7.273437 18.136719v43.710937c0 8.664063 7.046875 15.710938 15.710937 15.710938h24.515626c8.660156 0 15.707031-7.046875 15.707031-15.710938v-43.710937c0-6.789063-2.582031-13.230469-7.269531-18.136719-.003907 0-10.992188-11.496094-11.003907-11.511719zm3.273438 73.359375c0 .390625-.316407.710938-.707031.710938h-24.515626c-.394531 0-.710937-.320313-.710937-.710938v-43.710937c0-2.910157 1.105469-5.667969 3.117187-7.773438l9.851563-10.304687 9.847656 10.304687c2.011719 2.105469 3.117188 4.863281 3.117188 7.773438zm0 0"/><path d="m504.5 478.929688c4.140625 0 7.5-3.359376 7.5-7.5v-306.53125c0-11.46875-4.878906-22.457032-13.382812-30.152344l-20.496094-18.550782v-43.746093h10.945312c7.792969 0 14.136719-6.339844 14.136719-14.136719v-16.183594c0-7.796875-6.34375-14.140625-14.136719-14.140625h-10.945312v-13.847656c0-7.796875-6.34375-14.140625-14.140625-14.140625h-16.183594c-7.796875 0-14.140625 6.34375-14.140625 14.140625v13.847656h-10.941406c-7.796875 0-14.140625 6.34375-14.140625 14.140625v16.183594c0 7.796875 6.34375 14.136719 14.140625 14.136719h10.941406v43.746093l-20.496094 18.550782c-8.503906 7.695312-13.382812 18.683594-13.382812 30.152344v48.578124l-121.546875-65.152343v-36.589844h10.945312c7.796875 0 14.140625-6.34375 14.140625-14.140625v-16.183594c0-7.796875-6.34375-14.140625-14.140625-14.140625h-10.945312v-13.847656c0-7.796875-6.34375-14.140625-14.136719-14.140625h-16.1875c-7.792969 0-14.136719 6.34375-14.136719 14.140625v13.847656h-10.945312c-7.796875 0-14.140625 6.34375-14.140625 14.140625v16.183594c0 7.796875 6.34375 14.140625 14.140625 14.140625h10.945312v36.589844l-121.546875 65.152343v-48.578124c0-11.46875-4.878906-22.457032-13.382812-30.152344l-20.496094-18.546875v-43.75h10.941406c7.796875 0 14.140625-6.339844 14.140625-14.136719v-16.183594c0-7.796875-6.34375-14.140625-14.140625-14.140625h-10.941406v-13.847656c0-7.796875-6.34375-14.140625-14.140625-14.140625h-16.183594c-7.796875 0-14.140625 6.34375-14.140625 14.140625v13.847656h-10.945312c-7.792969 0-14.136719 6.34375-14.136719 14.140625v16.183594c0 7.796875 6.34375 14.136719 14.136719 14.136719h10.945312v43.75l-20.496094 18.546875c-8.503906 7.695312-13.382812 18.683594-13.382812 30.152344v306.53125c0 4.140624 3.359375 7.5 7.5 7.5zm-80.925781-421.480469v-14.460938h17.582031c4.144531 0 7.5-3.355469 7.5-7.5v-20.488281h14.460938v20.488281c0 4.144531 3.359374 7.5 7.5 7.5h17.585937v14.460938h-17.582031c-4.144532 0-7.5 3.359375-7.5 7.5v42.417969c-4.746094-1.1875-9.714844-1.1875-14.460938 0v-42.417969c0-4.140625-3.359375-7.5-7.5-7.5zm-199.886719 39.285156v-14.464844h17.582031c4.140625 0 7.5-3.355469 7.5-7.5v-20.488281h14.460938v20.492188c0 4.140624 3.359375 7.5 7.5 7.5h17.582031v14.460937h-17.582031c-4.140625 0-7.5 3.355469-7.5 7.5v39.011719c-2.386719-.375-4.8125-.566406-7.230469-.566406-2.414062 0-4.84375.191406-7.230469.566406v-39.011719c0-4.144531-3.359375-7.5-7.5-7.5zm-199.890625-39.285156v-14.460938h17.582031c4.144532 0 7.5-3.355469 7.5-7.5v-20.488281h14.464844v20.488281c0 4.144531 3.355469 7.5 7.5 7.5h17.582031v14.460938h-17.582031c-4.144531 0-7.5 3.359375-7.5 7.5v42.417969c-4.746094-1.1875-9.71875-1.1875-14.464844 0v-42.417969c0-4.140625-3.355468-7.5-7.5-7.5zm191.867187 406.480469v-117.433594c0-4.707032 2.003907-9.214844 5.5-12.363282 0 0 30.042969-27.097656 30.066407-27.121093 2.585937-2.328125 6.792969-2.476563 9.539062 0l30.066407 27.121093c3.496093 3.148438 5.5 7.65625 5.5 12.363282v117.433594zm95.671876 0v-117.433594c0-8.945313-3.8125-17.511719-10.453126-23.503906 0 0-30.042968-27.097657-30.066406-27.117188-8.308594-7.492188-21.328125-7.488281-29.632812 0l-30.066406 27.117188c-6.644532 5.992187-10.453126 14.558593-10.453126 23.503906v117.433594h-19.371093v-117.433594c0-14.421875 6.140625-28.230469 16.851562-37.886719 0 0 30.050781-27.105469 30.066407-27.121094 15.589843-14.0625 40-14.050781 55.578124 0l30.070313 27.121094c10.707031 9.65625 16.847656 23.464844 16.847656 37.886719v117.433594zm185.664062 0h-82.222656v-156.046876c0-4.140624-3.355469-7.5-7.5-7.5-4.140625 0-7.5 3.359376-7.5 7.5v156.046876h-54.070313v-117.433594c0-18.660156-7.945312-36.527344-21.804687-49.027344 0 0-30.058594-27.109375-30.0625-27.117188-21.222656-19.136718-54.472656-19.125-75.675782 0l-30.066406 27.117188c-13.855468 12.5-21.804687 30.367188-21.804687 49.027344v117.433594h-54.070313v-46.710938c0-4.144531-3.355468-7.5-7.5-7.5-4.140625 0-7.5 3.355469-7.5 7.5v46.710938h-82.222656v-299.03125c0-7.238282 3.078125-14.175782 8.445312-19.03125l22.679688-20.519532c.035156-.035156.074219-.0625.113281-.09375.027344-.023437.054688-.039062.082031-.0625 5.554688-4.828125 14.03125-4.855468 19.582032 0 .066406.058594.136718.109375.203125.160156l22.671875 20.515626c5.367187 4.855468 8.445312 11.792968 8.445312 19.03125v222.320312c0 4.140625 3.359375 7.5 7.5 7.5s7.5-3.359375 7.5-7.5v-156.722656s128.832032-69.058594 128.84375-69.066406c9.152344-4.902344 20.707032-4.910157 29.867188 0l128.84375 69.066406v47.386718c0 4.140626 3.359375 7.5 7.5 7.5 4.144531 0 7.5-3.359374 7.5-7.5v-112.984374c0-7.238282 3.078125-14.175782 8.449218-19.03125l22.675782-20.519532c.035156-.03125.070312-.054687.101562-.082031s.066406-.046875.09375-.074219c5.550782-4.835937 14.039063-4.851562 19.585938 0 .0625.058594.136718.109375.203125.164063l22.667969 20.511719c5.371093 4.855468 8.449218 11.792968 8.449218 19.03125v299.03125zm0 0"/></svg>