<svg height="511pt" viewBox="-148 0 511 511.99995" width="511pt" xmlns="http://www.w3.org/2000/svg"><g fill="#ffdebb"><path d="m197.679688 458.015625c-12.960938 12.34375-38.203126 31.875-78.132813 44.707031-7.636719 2.449219-15.878906 2.449219-23.515625 0-1.242188-.398437-2.476562-.804687-3.691406-1.214844l44.871094-76.808593 66.710937-34.773438c1.425781 14.222657 2.636719 28.550781 3.585937 42.855469.625 9.445312-2.96875 18.695312-9.828124 25.234375zm0 0"/><path d="m157.375 124.925781-49.585938 79.289063-76.285156 46.582031c5.335938-29.488281 10.78125-56.007813 15.570313-77.878906l27.199219-47.992188 50.269531-29.476562 29.039062 14.527343s1.410157 5.304688 3.792969 14.949219zm0 0"/><path d="m179.671875 227.253906-73.640625 106.953125-94.953125 61.640625c2.28125-23.992187 5.175781-47.765625 8.421875-70.738281l74.785156-100.09375 74.785156-49.480469c3.324219 15.261719 6.9375 32.683594 10.601563 51.71875zm0 0"/><path d="m197.332031 334.207031-62.667969 94.320313-85.011718 53.359375c-14.355469-8.589844-24.816406-17.261719-31.757813-23.871094-1.152343-1.097656-2.207031-2.28125-3.164062-3.515625l91.300781-120.292969 83.128906-54.132812c2.875 17.390625 5.652344 35.527343 8.171875 54.132812zm0 0"/></g><path d="m124.542969 95.449219-77.46875 77.46875c8.5-38.8125 14.921875-62.941407 14.921875-62.941407l45.792968-22.898437zm0 0" fill="#00bbc9"/><path d="m169.070312 175.539062-149.570312 149.570313c3.683594-26.0625 7.804688-51.109375 12.003906-74.3125l125.871094-125.871094c2.796875 11.378907 6.9375 28.78125 11.695312 50.613281zm0 0" fill="#00bbc9"/><path d="m189.160156 280.074219-174.429687 174.429687c-4.777344-6.144531-7.175781-13.859375-6.660157-21.722656.816407-12.324219 1.832032-24.660156 3.007813-36.933594l168.59375-168.59375c3.175781 16.503906 6.390625 34.234375 9.488281 52.820313zm0 0" fill="#00bbc9"/><path d="m203.921875 389.925781-111.582031 111.582031c-16.902344-5.742187-31.070313-12.652343-42.6875-19.621093l147.679687-147.679688c2.476563 18.21875 4.71875 36.882813 6.589844 55.71875zm0 0" fill="#00bbc9"/><path d="m92.617188 7.441406-36.136719 18.414063-16.445313 34.164062c3.117188 15.859375 8.183594 32.066407 16.445313 43.523438l51.308593-16.464844 44.796876-79.636719zm0 0" fill="#fff3e4"/><path d="m107.789062 87.078125 2.230469 22.898437h43.5625c15.429688-14.882812 22.019531-44.707031 24.816407-68.378906zm0 0" fill="#fff3e4"/><path d="m92.617188 7.441406-52.582032 52.578125c-2.289062-11.695312-3.523437-23.183593-4.179687-32.421875-.765625-10.890625 7.824219-20.15625 18.734375-20.15625zm0 0" fill="#1fd7c3"/><path d="m179.722656 27.597656c-.300781 4.253906-.726562 8.988282-1.324218 13.996094l-68.378907 68.378906h-48.023437c-1.980469-1.910156-3.824219-4.070312-5.515625-6.429687l96.105469-96.101563h8.398437c10.914063 0 19.503906 9.265625 18.738281 20.15625zm0 0" fill="#1fd7c3"/><path d="m39.746094 171.378906c-18.804688 85.902344-33.347656 173.160156-39.160156 260.96875-.6367192 9.652344 2.277343 19.164063 8.226562 26.824219 18.714844 24.140625 52.996094 39.949219 81.136719 49.507813 10.492187 3.566406 21.199219 4.675781 31.890625 1.246093 40.261718-12.9375 66.28125-32.382812 81.019531-46.417969 8.488281-8.09375 12.910156-19.453124 12.132813-31.160156-6.914063-104.21875-25.363282-207.832031-50.335938-309.15625-1.179688-4.785156-2.117188-8.488281-2.769531-11.03125 12.082031-13.882812 20.136719-37.261718 23.960937-69.617187.5625-4.730469 1.019532-9.558594 1.359375-14.355469 1.054688-15-11.171875-28.1875-26.21875-28.1875 0 0-106.335937 0-106.398437 0-15.0625 0-27.273438 13.1875-26.21875 28.191406.84375 11.835938 2.289062 23.050782 4.304687 33.335938 3.921875 19.964844 9.882813 35.597656 17.734375 46.484375 1.046875 1.460937 2.148438 2.84375 3.285156 4.148437-2.171874 8.460938-7.488281 29.71875-13.949218 59.21875zm109.324218-48.699218-105.746093 105.746093c3.324219-17.257812 6.875-34.558593 10.609375-51.695312l59.191406-59.191407h34.648438c.367187 1.449219.804687 3.171876 1.296874 5.140626zm-81.265624-5.140626h24.101562l-31.808594 31.8125c3.417969-14.714843 6.148438-25.683593 7.707032-31.8125zm-41.226563 211.160157 96.1875-96.1875c2.929687-2.929688 2.929687-7.679688 0-10.609375-2.929687-2.929688-7.679687-2.929688-10.609375 0l-81.921875 81.921875c2.5-16.242188 5.257813-32.753907 8.238281-49.324219l114.75-114.75c2.167969 9.121094 4.78125 20.4375 7.640625 33.445312l-27.691406 27.695313c-2.894531 2.890625-2.894531 7.71875 0 10.609375 2.871094 2.871094 7.746094 2.859375 10.605469 0l20.851562-20.847656c2.378906 11.292968 4.699219 22.726562 6.921875 34.171875l-150.855469 150.859375c1.679688-15.265625 3.648438-30.988282 5.882813-46.984375zm154.542969-51.136719-164.546875 164.546875c-.863281-2.8125-1.214844-5.78125-1.019531-8.773437.730468-10.972657 1.648437-22.410157 2.734374-34.03125l156.648438-156.644532c2.171875 11.699219 4.242188 23.382813 6.183594 34.902344zm-30.738282-175.027344h-22.253906l39.058594-39.058594c-3.910156 17.640626-9.597656 30.902344-16.804688 39.058594zm-60.730468 347.53125c.199218-2.164062-.492188-4.414062-2.097656-6.019531-2.878907-2.882813-7.738282-2.871094-10.609376 0l-28.394531 28.394531c-10.21875-6.546875-17.988281-12.914062-23.3125-17.777344l158.855469-158.855468c1.933594 12.230468 3.707031 24.207031 5.300781 35.789062l-91.4375 91.4375c-2.929687 2.929688-2.929687 7.679688 0 10.609375 2.929688 2.929688 7.679688 2.929688 10.609375 0l83.308594-83.3125c1.589844 12.539063 3.003906 24.875 4.226562 36.863281l-105.730468 105.734376c-9.957032-3.609376-19.480469-7.84375-28.445313-12.644532 0 0 25.613281-25.617187 25.628907-25.628906 1.238281-1.242188 1.945312-2.890625 2.097656-4.589844zm102.855468 2.578125c-13.601562 12.953125-37.699218 30.925781-75.253906 42.996094-3.183594 1.019531-6.511718 1.523437-9.855468 1.476563l90.550781-90.546876c.804687 9.117188 1.496093 18.074219 2.070312 26.769532.480469 7.257812-2.257812 14.292968-7.511719 19.304687zm-23.320312-434.027343c2.078125 2.230468 3.28125 5.277343 3.050781 8.515624-.257812 3.691407-.59375 7.40625-.996093 11.070313l-64.332032 64.332031h-38.75l87.53125-87.53125h5.292969c3.234375 0 6.148437 1.40625 8.203125 3.613282zm-111.261719 72.9375c-3.941406-7.679688-7.195312-17.390626-9.726562-29.027344l47.523437-47.523438h38.75zm-11.539062-72.9375c2.058593-2.210938 4.976562-3.613282 8.203125-3.613282h19.914062l-29.421875 29.421875c-.738281-5.558593-1.320312-11.335937-1.746093-17.292969-.230469-3.242187.976562-6.289062 3.050781-8.515624zm0 0"/></svg>