<svg height="512pt" viewBox="0 -5 512.00121 512" width="512pt" xmlns="http://www.w3.org/2000/svg"><path d="m11.929688 333.390625c-5.96875-5.96875-5.96875-15.648437 0-21.617187 5.972656-5.96875 15.648437-5.96875 21.617187 0 17.753906 17.753906 46.640625 17.753906 64.398437 0l11.640626-11.644532c5.972656-5.96875 15.648437-5.96875 21.617187 0s5.96875 15.648438 0 21.617188l-11.644531 11.644531c-29.671875 29.671875-77.953125 29.671875-107.628906 0zm0 0" fill="#ffe76c"/><path d="m131.203125 300.128906c-5.96875-5.96875-15.644531-5.96875-21.617187 0l-11.640626 11.644532c-8.964843 8.964843-20.765624 13.394531-32.539062 13.308593 1.949219 2.960938 4.210938 5.757813 6.753906 8.300781l18.191406 18.191407c10.679688-3.632813 20.710938-9.683594 29.207032-18.183594l11.644531-11.644531c5.96875-5.96875 5.96875-15.648438 0-21.617188zm0 0" fill="#ffb44d"/><path d="m148.355469 344.917969-112.644531 112.644531c-4.523438 4.523438-4.523438 11.855469 0 16.378906l16.769531 16.769532c4.519531 4.519531 11.851562 4.519531 16.375 0l112.644531-112.644532zm0 0" fill="#4a5660"/><path d="m479.882812 216.539062 24.535157-191.527343c1.296875-10.109375-7.3125-18.714844-17.421875-17.421875l-191.527344 24.535156c-12.828125 1.640625-18.175781 17.304688-9.03125 26.449219l10.316406 10.320312-.015625-.011719 53.371094 93.015626 93.015625 53.371093-.011719-.015625 10.316407 10.316406c9.148437 9.148438 24.8125 3.800782 26.453124-9.03125zm0 0" fill="#ff7f5a"/><path d="m423.574219 195.722656-143.230469 28.03125-110.445312-28.03125 57.601562-57.601562 71.929688-26.902344 66.546874 26.902344zm0 0" fill="#fff3e4"/><path d="m405.058594 253.335938-57.601563 57.601562-124.40625 25.574219-137.035156-25.574219c-6.996094-10.917969-5.722656-25.609375 3.824219-35.15625l22.445312-22.445312 171.289063-30.214844zm0 0" fill="#fff3e4"/><path d="m181.503906 378.066406-35.867187 35.863282-33.144531-33.144532 35.867187-35.863281zm0 0" fill="#3d4851"/><path d="m289.855469 368.539062-53.628907 53.628907c-11.023437 11.023437-28.894531 11.023437-39.917968 0l-53.628906-53.628907 80.375-32.027343zm0 0" fill="#fff3e4"/><path d="m299.429688 111.21875-2.023438.761719 90.6875 90.6875 35.480469-6.945313-57.597657-57.601562zm0 0" fill="#ffdebb"/><g fill="#1fd7c3"><path d="m365.976562 138.121094h-138.476562l69.238281-69.238282zm0 0"/><path d="m443.125 215.269531-38.066406 38.066407h-292.773438l57.613282-57.613282h253.675781zm0 0"/><path d="m347.457031 310.9375-57.601562 57.601562h-147.179688l-52.835937-52.839843c-1.476563-1.476563-2.753906-3.070313-3.824219-4.761719zm0 0"/></g><path d="m421.910156 236.484375 21.214844-21.214844-19.550781-19.546875h-42.425781zm0 0" fill="#00bbc9"/><path d="m275.523438 90.097656 48.023437 48.023438h42.429687l-69.238281-69.238282zm0 0" fill="#00bbc9"/><path d="m364.800781 53.007812-7.566406 7.5625c-2.929687 2.929688-2.929687 7.679688 0 10.609376 1.464844 1.464843 3.386719 2.199218 5.304687 2.199218 1.917969 0 3.839844-.734375 5.304688-2.199218l7.5625-7.5625c2.929688-2.929688 2.929688-7.679688 0-10.609376-2.929688-2.929687-7.679688-2.929687-10.605469 0zm0 0"/><path d="m451.429688 154.765625 7.5625-7.566406c2.929687-2.929688 2.929687-7.679688 0-10.605469-2.929688-2.929688-7.679688-2.929688-10.609376 0l-7.5625 7.5625c-2.929687 2.929688-2.929687 7.679688 0 10.609375 2.890626 2.890625 7.71875 2.886719 10.609376 0zm0 0"/><path d="m395.046875 89.339844c-4.128906-.273438-7.710937 2.851562-7.988281 6.984375-.507813 7.59375 2.382812 15.132812 7.933594 20.683593 5.398437 5.402344 13.035156 8.441407 20.683593 7.933594 4.132813-.277344 7.261719-3.855468 6.984375-7.988281-.28125-4.132813-3.84375-7.25-7.988281-6.980469-3.273437.21875-6.582031-1.082031-9.074219-3.570312-2.488281-2.492188-3.789062-5.796875-3.570312-9.074219.277344-4.132813-2.847656-7.707031-6.980469-7.988281zm0 0"/><path d="m486 .183594-44.953125 5.757812c-4.109375.527344-7.015625 4.285156-6.488281 8.394532.527344 4.109374 4.28125 7.011718 8.394531 6.488281 0 0 44.832031-5.742188 44.953125-5.757813 5.160156-.660156 9.6875 3.878906 9.027344 9.027344 0 0-24.472656 191.054688-24.53125 191.527344-.835938 6.523437-9.050782 9.335937-13.707032 4.679687 0 0-166.710937-166.710937-166.996093-166.996093-4.679688-4.679688-1.84375-12.871094 4.679687-13.707032l116.570313-14.929687c4.105469-.527344 7.011719-4.285157 6.484375-8.394531-.523438-4.109376-4.28125-7.011719-8.390625-6.488282 0 0-116.472657 14.917969-116.570313 14.929688-18.628906 2.386718-26.671875 25.910156-13.382812 39.199218l5 5-201.597656 201.597657c-11.765626 11.765625-13.808594 30.457031-4.855469 44.476562-4.402344 1.726563-9.117188 2.625-13.949219 2.625-10.164062 0-19.710938-3.945312-26.878906-11.113281-8.777344-8.777344-23.457032-8.765625-32.222656 0-8.785157 8.785156-8.777344 23.453125 0 32.226562 15.761718 15.761719 36.75 24.441407 59.101562 24.445313 16.660156 0 33.003906-5.019531 46.707031-14.230469l10.660157 10.65625-92.691407 92.695313c-7.4375 7.4375-7.4375 19.542969 0 26.984375 0 0 16.757813 16.757812 16.769531 16.769531 7.359376 7.355469 19.636719 7.347656 26.984376 0l92.691406-92.691406s24.140625 24.136719 24.152344 24.148437c13.761718 13.761719 36.785156 13.746094 50.527343 0l201.597657-201.597656s4.996093 4.996094 5 5c13.324218 13.324219 36.816406 5.203125 39.199218-13.378906 0 0 24.507813-191.335938 24.53125-191.53125 1.890625-14.765625-11.066406-27.695313-25.816406-25.8125zm-189.304688 79.339844 51.128907 51.128906h-102.253907zm-66.128906 66.132812h132.261719l42.597656 42.597656h-217.457031zm-164.882812 202.511719c-18.339844 0-35.5625-7.121094-48.488282-20.050781-3.007812-3.003907-3-8.007813 0-11.003907 3.003907-3.007812 8-3.007812 11.007813 0 10 10 23.3125 15.503907 37.484375 15.503907 8.597656 0 16.9375-2.039063 24.445312-5.9375l11.414063 11.410156c-10.710937 6.542968-23.171875 10.078125-35.863281 10.078125zm-2.175782 137.269531c-1.511718 1.511719-4.140624 1.625-5.765624 0l-16.769532-16.769531c-1.589844-1.589844-1.589844-4.175781 0-5.765625l92.691406-92.695313 22.539063 22.539063s-92.644531 92.640625-92.695313 92.691406zm167.371094-68.539062c-7.992187 7.996093-21.324218 7.984374-29.308594 0l-40.824218-40.824219h110.957031s-40.792969 40.792969-40.824219 40.824219zm113.429688-113.429688h-159.355469c-4.144531 0-7.5 3.359375-7.5 7.5 0 4.144531 3.355469 7.503906 7.5 7.503906h144.351563l-42.597657 42.597656h-140.964843l-42.597657-42.597656h51.800781c4.144532 0 7.503907-3.359375 7.503907-7.503906 0-4.140625-3.359375-7.5-7.503907-7.5h-64.429687c-3.003906-7.546875-1.316406-16.445312 4.585937-22.351562l20.246094-20.246094h271.558594zm57.601562-57.601562h-271.558594l42.613282-42.609376h247.460937l12.046875 12.046876zm0 0"/></svg>