<svg height="511pt" viewBox="-2 0 511 511.99843" width="511pt" xmlns="http://www.w3.org/2000/svg"><path d="m366.304688 19.722656 24.171874 253.277344-24.171874 185.984375-55.085938-21.890625c-3.449219-1.371094-7.378906-.558594-10 2.070312l-33.09375 33.082032c-1.917969 1.921875-4.589844 2.910156-7.308594 2.691406l-17.683594-1.410156c-2.140624-.171875-4.28125.398437-6.039062 1.628906l-16.640625 11.570312c-2.441406 1.703126-5.550781 2.132813-8.363281 1.152344l-11.460938-3.992187-23.171875-208.886719 23.171875-168.152344 11.960938 4.570313c3.089844 1.179687 6.570312.628906 9.140625-1.441407l26.601562-21.410156c5.121094-4.121094 4.460938-12.109375-1.269531-15.339844l-24.160156-13.59375c-5.851563-3.289062-6.390625-11.488281-1.03125-15.519531l1.609375-1.210937c1.191406-.898438 2.589843-1.488282 4.0625-1.738282l55.542969-9.203124c2.101562-.339844 4.011718-1.398438 5.421874-2.988282l10.410157-11.710937c2.21875-2.492188 5.601562-3.601563 8.871093-2.910157l19.839844 4.210938c4.683594.988281 7.84375 5.359375 7.3125 10.109375l-3.851562 34.644531c-.660156 5.929688 4.371094 10.9375 10.300781 10.25l7.820313-.902344c4.082031-.46875 7.371093-3.570312 8.082031-7.621093l7.308593-41.390625c.25-1.429688.839844-2.78125 1.703126-3.929688zm0 0" fill="#fff3e4"/><path d="m499.015625 218.867188-9.921875 12.761718c-1.03125 1.320313-1.679688 2.878906-1.890625 4.53125l-5.152344 40.382813c-.367187 2.898437-2.089843 5.46875-4.648437 6.910156l-14.960938 8.460937c-2.652344 1.488282-4.402344 4.199219-4.679687 7.230469l-9.320313 101.597657c-.222656 2.410156-1.382812 4.648437-3.222656 6.21875l-22.921875 19.523437c-.988281.839844-1.789063 1.878906-2.347656 3.050781l-9.980469 20.789063c-.84375 1.761719-2.230469 3.210937-3.953125 4.152343l-17.800781 9.640626c-2.417969 1.308593-5.289063 1.480468-7.851563.460937l-14.058593-5.59375v-439.261719c.429687-.589844.929687-1.121094 1.5-1.59375l10.191406-8.5c3.1875-2.660156 7.757812-2.867187 11.1875-.527344l26.863281 18.339844c4.652344 3.179688 5.429687 9.730469 1.652344 13.910156-5.0625 5.589844-1.703125 14.5625 5.789062 15.453126l22.5 2.679687c1.390625.167969 2.722657.640625 3.902344 1.398437l40.742187 26.003907c3.039063 1.941406 4.679688 5.46875 4.210938 9.039062l-3.859375 29.355469c-.269531 2.078125-1.242187 4-2.75 5.457031l-19.34375 18.691407c-4.378906 4.230468-3.558594 11.472656 1.652344 14.621093l19.628906 11.902344c2.183594 1.332031 3.730469 3.492187 4.273437 5.992187l6.320313 29.25c.578125 2.691407-.0625 5.5-1.75 7.671876zm0 0" fill="#ff7f5a"/><path d="m200.628906 106.847656v377.039063l-4.007812-1.390625c-2.132813-.738282-4.460938-.679688-6.550782.171875l-52.046874 21.171875c-2.738282 1.109375-5.859376.851562-8.378907-.710938l-28.113281-17.359375c-1.46875-.910156-3.160156-1.390625-4.890625-1.390625h-37.75c-3.183594 0-6.140625-1.621094-7.84375-4.300781l-5.1875-8.152344c-3.191406-5.019531-.910156-11.710937 4.679687-13.730469l15.640626-5.648437c5.238281-1.890625 7.648437-7.933594 5.148437-12.914063l-1.257813-2.488281c-1.359374-2.710937-3.949218-4.589843-6.960937-5.03125l-38.902344-5.667969c-3-.441406-5.613281-2.320312-6.960937-5.042968l-4.5-8.988282c-2-4.003906-.871094-8.851562 2.6875-11.550781l9.734375-7.402343c4.789062-3.640626 4.910156-10.8125.226562-14.609376l-14.007812-11.382812c-4.671875-3.800781-4.5625-10.960938.226562-14.601562l8.441407-6.441407c2.160156-1.640625 4.921874-2.257812 7.570312-1.6875l70.167969 14.960938c.988281.210937 2 .257812 3.007812.148437l37.222657-4.328125c2.972656-.351562 5.59375-2.101562 7.050781-4.710937l8.523437-15.3125c3.109375-5.582032-.210937-12.550782-6.5-13.660156l-17.472656-3.089844c-.679688-.121094-1.339844-.3125-1.96875-.582032l-43.65625-18.25c-5.578125-2.332031-7.480469-9.300781-3.847656-14.140624l12.621094-16.832032c.949218-1.269531 2.21875-2.28125 3.679687-2.921875l12.019531-5.308593c8.511719-3.761719 6.832032-16.300782-2.371094-17.683594l-18.960937-2.867188c-1.960937-.292968-3.78125-1.210937-5.179687-2.613281l-24.480469-24.480469c-2.300781-2.300781-3.230469-5.609375-2.460938-8.761718l5.398438-22.269532c.882812-3.652344 3.871093-6.410156 7.570312-6.992187l41.625-6.570313c8.96875-1.417968 10.789063-13.539062 2.621094-17.53125l-14.984375-7.308594c-1.316406-.652343-2.46875-1.601562-3.359375-2.78125l-13.011719-17.363281c-2.308594-3.078125-2.488281-7.257812-.429687-10.519531l11.59375-18.421875c1.386719-2.210937 3.648437-3.730469 6.21875-4.191406l63.023437-11.378907c3.511719-.640624 7.074219.789063 9.164063 3.667969l11.128906 15.300781c1.0625 1.460938 2.519531 2.570313 4.199219 3.222657zm0 0" fill="#1fd7c3"/><path d="m166.777344 206.40625v-16.464844c0-4.144531-3.359375-7.503906-7.5-7.503906-4.144532 0-7.503906 3.359375-7.503906 7.503906v16.464844c0 4.140625 3.359374 7.5 7.503906 7.5 4.140625 0 7.5-3.355469 7.5-7.5zm0 0"/><path d="m400.050781 189.941406v16.464844c0 4.140625 3.359375 7.5 7.5 7.5 4.144531 0 7.5-3.359375 7.5-7.5v-16.464844c0-4.144531-3.355469-7.503906-7.5-7.503906-4.140625 0-7.5 3.359375-7.5 7.503906zm0 0"/><path d="m283.414062 221.894531c10.574219 0 20.496094-4.414062 27.222657-12.109375 2.726562-3.121094 2.410156-7.859375-.707031-10.585937-3.121094-2.726563-7.859376-2.40625-10.585938.710937-3.878906 4.4375-9.683594 6.984375-15.929688 6.984375-6.246093 0-12.050781-2.546875-15.929687-6.984375-2.726563-3.117187-7.464844-3.4375-10.582031-.710937-3.121094 2.726562-3.4375 7.464843-.710938 10.585937 6.726563 7.695313 16.648438 12.109375 27.222656 12.109375zm0 0"/><path d="m63.324219 440.535156 1.25 2.46875c.480469.953125 0 2.132813-.996094 2.488282 0 0-15.625 5.644531-15.640625 5.652343-9.9375 3.589844-14.117188 15.910157-8.460938 24.816407l5.183594 8.136718c3.09375 4.875 8.390625 7.785156 14.175782 7.785156h37.753906c.332031 0 .65625.089844.949218.269532 0 0 28.089844 17.347656 28.105469 17.355468 4.503907 2.785157 10.25 3.269532 15.15625 1.28125l52.042969-21.171874c.402344-.164063.851562-.175782 1.265625-.03125 0 0 15.457031 5.375 15.460937 5.375 5.03125 1.75 10.734376.976562 15.109376-2.074219l16.65625-11.578125c.328124-.230469.734374-.335938 1.148437-.304688l17.671875 1.410156c4.917969.394532 9.734375-1.375 13.21875-4.859374l33.105469-33.09375c.5-.503907 1.253906-.65625 1.917969-.394532 0 0 69.132812 27.476563 69.136718 27.480469 4.429688 1.761719 9.832032 1.535156 14.199219-.832031l17.828125-9.65625c3.136719-1.714844 5.597656-4.308594 7.113281-7.484375l9.984375-20.800781c.105469-.21875.253906-.410157.449219-.578126l22.929687-19.523437c3.351563-2.863281 5.417969-6.855469 5.820313-11.242187l3.589844-39.164063c.378906-4.125-2.660157-7.773437-6.785157-8.152344-4.125-.382812-7.773437 2.65625-8.152343 6.78125l-3.59375 39.167969c-.042969.460938-.269531.894531-.613281 1.191406l-22.910157 19.511719c-1.804687 1.53125-3.242187 3.394531-4.261719 5.523437l-9.988281 20.808594c-.152343.328125-.429687.609375-.753906.785156l-17.800781 9.640626c-.464844.25-1.011719.285156-1.507813.085937l-9.328125-3.710937v-431.003907l8.992188-7.5c.609375-.507812 1.496094-.546875 2.160156-.097656 0 0 26.8125 18.308594 26.855469 18.339844.855469.585937 1.054687 1.875.324219 2.6875-8.964844 9.917969-2.78125 26.359375 10.464843 27.929687l22.476563 2.679688c.28125.035156.535156.121094.777344.277344l40.742187 26c.582031.371093.898437 1.054687.808594 1.742187l-3.863281 29.367187c-.050782.390626-.230469.75-.523438 1.03125 0 0-19.332031 18.679688-19.339844 18.6875-7.800781 7.539063-6.292968 20.832032 2.972656 26.429688l19.613282 11.890625c.433594.265625.742187.691406.847656 1.171875l6.316406 29.25c.113282.523438-.007812 1.0625-.335937 1.484375l-9.917969 12.75c-1.855469 2.378906-3.035156 5.214844-3.414062 8.199219l-5.152344 40.378906c-.070313.558594-.402344 1.050781-.902344 1.332031l-14.941406 8.453125c-4.800782 2.695313-7.96875 7.585938-8.476563 13.082032l-2.972656 32.433593c-.378906 4.125 2.65625 7.777344 6.78125 8.15625 4.121094.378907 7.777344-2.660156 8.15625-6.785156l2.976563-32.429687c.050781-.582032.382812-1.097657.902343-1.390626l14.949219-8.453124c4.597656-2.585938 7.742188-7.257813 8.410156-12.496094l5.152344-40.386719c.039062-.316406.160156-.605469.371094-.875l9.914062-12.753906c3.066406-3.933594 4.21875-8.984375 3.164063-13.863281l-6.320313-29.253907c-.964844-4.472656-3.769531-8.414062-7.710937-10.820312 0 0-19.640625-11.90625-19.640625-11.90625-.980469-.59375-1.140625-2.015625-.316406-2.808594l19.339843-18.691406c2.722657-2.632813 4.492188-6.144531 4.972657-9.875l3.863281-29.351563c.847656-6.4375-2.140625-12.851562-7.613281-16.34375l-40.714844-25.984375c-2.132813-1.375-4.503906-2.226562-7.078125-2.542969 0 0-22.464844-2.675781-22.503907-2.679687-1.378906-.167969-2.085937-1.894531-1.109374-2.972656 6.722656-7.429688 5.273437-19.488281-2.984376-25.136719l-26.867187-18.339844c-6.171875-4.214844-14.488281-3.816406-20.222656.964844l-10.160157 8.476562c-3.0625 2.523438-5.089843 6.109376-5.8125 10l-7.3125 41.402344c-.136718.773438-.773437 1.375-1.550781 1.464844l-7.828125.898438c-.699218.082031-1.1875-.230469-1.464844-.507813-.28125-.277344-.59375-.753906-.515624-1.460937l3.847656-34.640626c.964844-8.625-4.714844-16.484374-13.207032-18.28125l-19.847656-4.210937c-5.882812-1.242187-12.019531.773437-16.027344 5.265625l-10.417968 11.71875c-.265625.300781-.625.5-1.03125.566406l-55.578125 9.207032c-8.644531 1.46875-16.175781 9.984374-15.585938 18.878906.378907 5.675781 3.566407 10.734375 8.527344 13.523437 0 0 24.125 13.570313 24.15625 13.589844 1.066406.597656 1.246094 2.160156.25 2.960937l-26.605469 21.414063c-.488281.394531-1.164062.5-1.757812.273437l-11.960938-4.570312-14.820312-5.667969c-.34375-.132812-.636719-.351562-.84375-.636719l-11.125-15.292968c-3.761719-5.1875-10.269532-7.796875-16.5625-6.648438l-63.015625 11.378906c-4.640625.832032-8.742188 3.59375-11.246094 7.578126l-11.585937 18.410156c-3.691407 5.84375-3.382813 13.492187.769531 19.027344l13.023437 17.375c1.585938 2.105468 3.671875 3.832031 6.058594 5.007812 0 0 14.824219 7.234375 14.980469 7.308594 1.578125.769531 1.207031 3.113281-.496094 3.382812l-41.617187 6.570313c-6.726563 1.054687-12.105469 6.015625-13.699219 12.632812l-5.394531 22.257813c-1.402344 5.738281.257812 11.660156 4.441406 15.84375l24.480468 24.480468c2.523438 2.527344 5.859376 4.207032 9.363282 4.726563 0 0 18.789062 2.84375 18.96875 2.871094 1.765625.265625 2.058594 2.691406.453125 3.402343l-12.003907 5.300782c-2.640624 1.160156-4.945312 2.992187-6.667968 5.292968 0 0-12.601563 16.804688-12.621094 16.828126-6.472656 8.636718-2.964844 21.417968 6.957031 25.5625l43.597657 18.226562c1.140624.492188 2.359374.851562 3.613281 1.070312 0 0 17.4375 3.085938 17.472656 3.09375 1.203125.210938 1.84375 1.5625 1.25 2.625l-8.511719 15.296876c-.285156.511718-.800781.855468-1.371094.921874l-37.171874 4.324219c-.214844.023438-.425782.015625-.628907-.027343l-70.152343-14.960938c-4.792969-1.027344-9.777344.082031-13.699219 3.058594 0 0-8.414063 6.421875-8.425781 6.433594-8.523438 6.503906-8.726563 19.636718-.421876 26.394531 0 0 14 11.375 14.011719 11.382812.871094.707031.890625 2.109375-.042969 2.816407l-9.722656 7.394531c-6.429687 4.878906-8.476562 13.660156-4.863281 20.886719l4.488281 8.96875c2.441406 4.914062 7.148438 8.328124 12.597656 9.125l38.898438 5.671874c.578125.085938 1.082031.449219 1.355469.996094zm-39.425781-22.484375-4.5-8.988281c-.382813-.769531-.167969-1.703125.523437-2.230469l9.730469-7.398437c4.128906-3.136719 6.542968-7.910156 6.625-13.097656.082031-5.1875-2.179688-10.035157-6.207032-13.304688l-14.007812-11.378906c-.5625-.457032-.671875-1.027344-.664062-1.425782.007812-.394531.132812-.953124.710937-1.394531l8.425781-6.429687c.421875-.316406.953125-.4375 1.472656-.328125l70.171876 14.964843c1.769531.375 3.582031.464844 5.433593.261719l37.234375-4.332031c5.339844-.628906 10.09375-3.804688 12.726563-8.511719l8.519531-15.304687c2.636719-4.734375 2.824219-10.484375.5-15.378906-2.328125-4.894532-6.910156-8.378907-12.246094-9.320313l-17.480468-3.09375c-.125-.019531-.234376-.050781-.375-.109375l-43.65625-18.253906c-.664063-.277344-.929688-.792969-1.03125-1.179688-.105469-.382812-.140626-.964844.292968-1.539062l12.625-16.839844c.175782-.234375.414063-.425781.703125-.550781l12.023438-5.3125c6.902343-3.046875 10.863281-10.121094 9.859375-17.59375-1.003906-7.472657-6.6875-13.246094-14.136719-14.363281l-18.988281-2.875c-.363282-.054688-.707032-.230469-.972656-.496094l-24.480469-24.480469c-.449219-.445313-.625-1.074219-.476563-1.6875l5.402344-22.28125c.167969-.703125.734375-1.230469 1.449219-1.339844l41.625-6.570312c7.390625-1.171875 12.878906-6.707031 13.984375-14.101563 1.105468-7.394531-2.519532-14.296875-9.246094-17.582031l-14.957031-7.296875c-.273438-.136719-.5-.324219-.671875-.550781l-13.011719-17.363281c-.449219-.597657-.484375-1.386719-.082031-2.027344l11.589844-18.421875c.265624-.417969.699218-.710938 1.207031-.800781l63.035156-11.382813c.667969-.121094 1.351563.152344 1.75.703125l11.128906 15.296875c1.902344 2.621094 4.519531 4.628906 7.589844 5.816406l10.03125 3.835938v264.570312c0 4.144531 3.355469 7.503907 7.5 7.503907 4.140625 0 7.5-3.359376 7.5-7.503907v-258.835937l1.785156.683594c5.558594 2.125 11.886719 1.125 16.519531-2.605469l26.597657-21.410157c4.347656-3.496093 6.667969-8.902343 6.210937-14.460937-.460937-5.5625-3.636718-10.519531-8.503906-13.261719l-24.164062-13.589844c-1.113282-.628906-1.21875-2.21875-.199219-2.988281l1.628906-1.226562c.214844-.160157.492187-.273438.761719-.320313l55.519531-9.195312c3.785156-.613282 7.277344-2.539063 9.824219-5.410156l10.402344-11.703126c.429687-.480468 1.089843-.695312 1.71875-.566406l19.84375 4.210938c.90625.191406 1.511718 1.027344 1.410156 1.945312 0 0-3.847656 34.605469-3.851563 34.640625-1.171875 10.554688 8.070313 19.761719 18.613281 18.53125l7.820313-.898437c3.277344-.378906 6.289063-1.71875 8.734375-3.734375v371.550781l-44.816406-17.808594c-6.246094-2.480468-13.34375-1.011718-18.070313 3.734375l-33.09375 33.085938c-.371093.371093-.878906.554687-1.410156.515625l-17.683594-1.410156c-3.878906-.308594-7.761719.742187-10.917969 2.949218l-16.648437 11.574219c-.464844.328125-1.0625.410156-1.605469.222656l-6.425781-2.238281v-71.976562c0-4.140626-3.359375-7.5-7.5-7.5-4.144531 0-7.5 3.359374-7.5 7.5v67.90625c-2.003906.054687-4 .464843-5.886719 1.230468l-52.035156 21.167969c-.53125.214844-1.132812.164063-1.625-.136719l-28.105469-17.359375c-2.65625-1.644531-5.710937-2.511719-8.835937-2.511719h-37.753906c-.621094 0-1.183594-.308593-1.515626-.832031l-5.183593-8.140625c-.382813-.605468-.3125-1.175781-.183594-1.550781.125-.371094.417969-.863281 1.082031-1.105469l15.636719-5.648437c4.515625-1.628907 8.121094-5.117188 9.898437-9.570313 1.777344-4.457031 1.5625-9.472656-.601562-13.78125l-1.25-2.46875c-2.457031-4.898437-7.160156-8.296875-12.582031-9.089844l-38.894531-5.667968c-.578126-.085938-1.078126-.441406-1.34375-.976563zm0 0"/></svg>