<svg height="511pt" viewBox="-30 0 511 511.9989" width="511pt" xmlns="http://www.w3.org/2000/svg"><path d="m198.792969 7.324219h-53.613281l-26.808594 77.710937 26.808594 93.753906h53.613281l26.804687-93.753906zm0 0" fill="#1fd7c3"/><path d="m252.402344 7.324219h53.613281l26.804687 77.710937-26.804687 93.753906h-53.613281l-26.804688-93.753906zm0 0" fill="#ffb44d"/><path d="m137.359375 96.960938c-5.183594 0-10.269531.421874-15.226563 1.222656l23.046876 80.605468h53.609374l23.378907-81.757812c-14.324219.511719-28.191407 4.210938-40.691407 10.757812-13.496093-7.070312-28.585937-10.828124-44.117187-10.828124zm0 0" fill="#00bbc9"/><path d="m229.027344 97.027344 23.375 81.761718h53.613281l23.046875-80.605468c-4.960938-.800782-10.042969-1.222656-15.226562-1.222656-15.53125 0-30.625 3.757812-44.121094 10.828124-12.496094-6.546874-26.367188-10.25-40.6875-10.761718zm0 0" fill="#e7a25d"/><path d="m198.792969 7.324219h53.609375v171.464843h-53.609375zm0 0" fill="#ffe76c"/><path d="m105.417969 7.324219c-7.652344 0-13.851563 6.203125-13.851563 13.851562v157.613281h53.609375v-171.464843zm0 0" fill="#5bd6fd"/><path d="m345.777344 7.324219h-39.761719v171.464843h53.613281v-157.613281c0-7.648437-6.203125-13.851562-13.851562-13.851562zm0 0" fill="#ff7f5a"/><path d="m359.628906 108.722656c-13.59375-7.492187-29.203125-11.761718-45.792968-11.761718-2.621094 0-5.230469.117187-7.820313.328124v81.5h53.613281zm0 0" fill="#ff5d29"/><path d="m252.402344 100.808594c-8.625-2.527344-17.636719-3.847656-26.804688-3.847656-9.171875 0-18.183594 1.320312-26.808594 3.847656v77.980468h53.613282zm0 0" fill="#ffb44d"/><path d="m145.179688 97.289062c-2.59375-.210937-5.199219-.328124-7.824219-.328124-16.585938 0-32.195313 4.269531-45.789063 11.761718v70.066406h53.609375v-81.5zm0 0" fill="#00acfb"/><path d="m202.535156 192.160156c0 35.996094-29.183594 65.175782-65.179687 65.175782-35.996094 0-65.175781-29.179688-65.175781-65.175782s29.179687-65.175781 65.175781-65.175781c35.996093 0 65.179687 29.179687 65.179687 65.175781zm0 0" fill="#ffb44d"/><path d="m173.746094 192.160156c0 20.097656-16.292969 36.386719-36.390625 36.386719-20.09375 0-36.386719-16.289063-36.386719-36.386719s16.292969-36.386718 36.386719-36.386718c20.097656 0 36.390625 16.289062 36.390625 36.386718zm0 0" fill="#ffe76c"/><path d="m379.015625 192.160156c0 35.996094-29.183594 65.175782-65.179687 65.175782-35.996094 0-65.175782-29.179688-65.175782-65.175782s29.179688-65.175781 65.175782-65.175781c35.996093 0 65.179687 29.179687 65.179687 65.175781zm0 0" fill="#ffb44d"/><path d="m350.222656 192.160156c0 20.097656-16.289062 36.386719-36.386718 36.386719-20.097657 0-36.386719-16.289063-36.386719-36.386719s16.289062-36.386718 36.386719-36.386718c20.097656 0 36.386718 16.289062 36.386718 36.386718zm0 0" fill="#ffe76c"/><path d="m290.773438 192.160156c0 35.996094-29.179688 65.175782-65.175782 65.175782s-65.179687-29.179688-65.179687-65.175782 29.183593-65.175781 65.179687-65.175781 65.175782 29.179687 65.175782 65.175781zm0 0" fill="#ffe76c"/><path d="m261.984375 192.160156c0 20.097656-16.289063 36.386719-36.386719 36.386719s-36.386718-16.289063-36.386718-36.386719 16.289062-36.386718 36.386718-36.386718 36.386719 16.289062 36.386719 36.386718zm0 0" fill="#ffb44d"/><g fill="#4a5660"><path d="m423.132812 290.09375h-54.144531v40.109375h54.144531c11.078126 0 20.054688-8.980469 20.054688-20.054687 0-11.078126-8.976562-20.054688-20.054688-20.054688zm0 0"/><path d="m374.582031 478.996094-11.859375-61.738282-27.828125 4.691407-22.863281 41.261719 23.910156 32.628906c4.070313 5.554687 10.542969 8.835937 17.425782 8.835937 13.566406 0 23.773437-12.355469 21.214843-25.679687zm0 0"/><path d="m28.058594 290.09375h54.148437v40.109375h-54.148437c-11.074219 0-20.054688-8.980469-20.054688-20.054687 0-11.078126 8.980469-20.054688 20.054688-20.054688zm0 0"/><path d="m76.613281 478.996094 11.859375-61.738282 27.828125 4.691407 22.859375 41.261719-23.910156 32.628906c-4.066406 5.554687-10.539062 8.835937-17.425781 8.835937-13.5625 0-23.773438-12.355469-21.210938-25.679687zm0 0"/></g><path d="m368.820312 448.996094-6.097656-31.738282-27.828125 4.695313-22.863281 41.257813 14.808594 20.210937c15.554687-9.492187 29.679687-21.105469 41.980468-34.425781zm0 0" fill="#3d4851"/><path d="m88.472656 417.257812-6.097656 31.738282c12.300781 13.320312 26.421875 24.933594 41.980469 34.421875l14.808593-20.207031-22.863281-41.261719zm0 0" fill="#3d4851"/><path d="m30.625 316.851562c0 4.488282.164062 8.9375.464844 13.351563h51.117187v-40.109375h-49.761719c-1.199218 8.792969-1.820312 17.714844-1.820312 26.757812zm0 0" fill="#3d4851"/><path d="m368.988281 330.203125h51.113281c.300782-4.414063.46875-8.863281.46875-13.351563 0-9.039062-.621093-17.964843-1.820312-26.757812h-49.761719zm0 0" fill="#3d4851"/><path d="m73.839844 240.28125c-11.632813 23.011719-18.195313 49.023438-18.195313 76.570312 0 93.863282 76.089844 169.953126 169.953125 169.953126 93.863282 0 169.953125-76.089844 169.953125-169.953126 0-27.546874-6.5625-53.558593-18.195312-76.570312l-151.757813-24.417969zm0 0" fill="#4a5660"/><path d="m67.246094 270.300781h316.699218c1.707032 0 3.390626-.085937 5.058594-.242187-2.964844-10.363282-6.871094-20.324219-11.648437-29.777344l-151.757813-24.417969-151.757812 24.417969c-4.78125 9.453125-8.6875 19.414062-11.648438 29.777344 1.664063.15625 3.351563.242187 5.054688.242187zm0 0" fill="#3d4851"/><path d="m383.945312 191.445312h-316.699218c-13.484375 0-24.417969 10.929688-24.417969 24.417969 0 13.484375 10.933594 24.417969 24.417969 24.417969h316.699218c13.488282 0 24.417969-10.933594 24.417969-24.417969 0-13.488281-10.929687-24.417969-24.417969-24.417969zm0 0" fill="#4a5660"/><path d="m137.746094 301.886719v14.539062c0 4.144531 3.359375 7.507813 7.503906 7.507813s7.503906-3.363282 7.503906-7.507813v-14.539062c0-4.148438-3.359375-7.507813-7.503906-7.507813s-7.503906 3.359375-7.503906 7.507813zm0 0"/><path d="m298.4375 301.886719v14.539062c0 4.144531 3.363281 7.507813 7.507812 7.507813 4.144532 0 7.503907-3.363282 7.503907-7.507813v-14.539062c0-4.148438-3.359375-7.507813-7.503907-7.507813-4.144531 0-7.507812 3.359375-7.507812 7.507813zm0 0"/><path d="m239.777344 310.476562c-3.449219 3.941407-8.617188 6.207032-14.179688 6.207032-5.566406 0-10.730468-2.265625-14.179687-6.207032-2.730469-3.121093-7.472657-3.441406-10.589844-.714843-3.121094 2.730469-3.441406 7.472656-.714844 10.59375 6.300781 7.207031 15.589844 11.339843 25.484375 11.339843 9.894532 0 19.183594-4.132812 25.480469-11.339843 2.726563-3.121094 2.410156-7.863281-.710937-10.59375-3.121094-2.726563-7.863282-2.40625-10.589844.714843zm0 0"/><path d="m383.945312 199.128906c9.328126 0 16.914063 7.589844 16.914063 16.914063s-7.585937 16.914062-16.914063 16.914062h-249.460937c-4.144531 0-7.503906 3.359375-7.503906 7.503907 0 4.144531 3.359375 7.507812 7.503906 7.507812h238.183594c6.476562 13.738281 10.917969 28.105469 13.304687 42.949219 2.03125 12.632812 2.5625 25.3125 1.628906 38.066406-.832031 11.378906-2.839843 22.617187-6.023437 33.539063-1.15625 3.980468 1.128906 8.144531 5.109375 9.304687.699219.203125 1.40625.300781 2.101562.300781 3.253907 0 6.25-2.128906 7.203126-5.410156 2.746093-9.425781 4.671874-19.070312 5.820312-28.832031h21.320312c15.195313 0 27.558594-12.363281 27.558594-27.558594 0-15.199219-12.363281-27.5625-27.558594-27.5625h-23.375c-2.355468-12.054687-5.964843-23.808594-10.828124-35.191406 15.242187-2.402344 26.9375-15.625 26.9375-31.53125 0-16.898438-13.195313-30.761719-29.820313-31.847657-1.777344-15.761718-8.65625-30.023437-18.917969-41.113281v-121.726562c.003906-11.773438-9.578125-21.355469-21.351562-21.355469h-240.359375c-11.777344 0-21.359375 9.582031-21.359375 21.355469v121.726562c-10.261719 11.089844-17.136719 25.355469-18.914063 41.113281-16.625 1.085938-29.824219 14.953126-29.824219 31.847657 0 15.90625 11.699219 29.132812 26.941407 31.53125-4.863281 11.382812-8.472657 23.136719-10.828125 35.195312h-23.375c-15.195313 0-27.558594 12.363281-27.558594 27.558594s12.363281 27.558594 27.558594 27.558594h21.308594c3.527343 29.980469 14.546874 57.695312 31.144531 81.214843 0 0-11.25 58.554688-11.273438 58.664063-5.671875 29.527344 34.21875 47.050781 52.066407 22.691406l20-27.292969c25.089843 13.597657 53.804687 21.328126 84.292968 21.328126 29.613282 0 58.519532-7.328126 84.320313-21.285157 0 0 19.960937 27.238281 19.96875 27.25 17.902343 24.433594 57.742187 6.847657 52.066406-22.695312l-11.257813-58.589844c5.328126-7.5625 10.101563-15.542969 14.214844-23.90625 1.832032-3.71875.296875-8.21875-3.421875-10.046875-3.71875-1.832031-8.214843-.296875-10.046875 3.417969-13.246094 26.925781-34.007812 49.941406-59.390625 65.933593-25.855469 16.292969-55.734375 24.90625-86.453125 24.90625-85.324218 0-155.492187-66.121093-161.960937-149.8125-2.128907-27.5625 2.925781-56.320312 14.886719-81.699218h25.941406c4.144531 0 7.503906-3.363282 7.503906-7.507813s-3.359375-7.503906-7.503906-7.503906h-37.21875c-9.324219 0-16.910156-7.585937-16.910156-16.914063 0-9.324218 7.585937-16.910156 16.910156-16.910156zm-25.542968 235.613282s8.804687 45.824218 8.808594 45.855468c2.769531 14.402344-16.636719 22.671875-25.214844 10.988282l-19.132813-26.109376c.457031-.300781.902344-.621093 1.359375-.925781 12.59375-8.421875 24.136719-18.464843 34.179688-29.808593zm-310.167969-111.863282h-20.175781c-6.917969 0-12.546875-5.628906-12.546875-12.550781s5.628906-12.550781 12.546875-12.550781h21.113281c-.507813 4.746094-.835937 9.527344-.964844 14.347656-.097656 3.582031-.089843 7.171875.027344 10.753906zm60.964844 168.707032c-8.550781 11.667968-27.976563 3.367187-25.21875-10.988282l8.8125-45.855468c10.433593 11.789062 22.328125 22.074218 35.539062 30.734374 0 0-19.046875 25.992188-19.132812 26.109376zm242.921875-470.230469v109.183593c-10.257813-6.382812-21.957032-10.082031-34.210938-10.757812-.242187-.011719-4.285156-.121094-4.390625-.121094v-104.648437h32.257813c3.5 0 6.34375 2.847656 6.34375 6.34375zm-53.613282 99.941406c-8.941406 1.914063-17.53125 5.578125-25.125 10.671875-1.207031.808594-3.628906 2.597656-3.667968 2.625-3.097656-2.371094-6.375-4.484375-9.804688-6.328125v-113.253906h38.597656zm-72.910156 27.152344c-21.222656 0-39.195312 15.4375-43.089844 35.671875h-13.976562c.007812-.058594.015625-.117188.023438-.171875 3.578124-24.269531 22.425781-43.726563 46.335937-48.269531 6.953125-1.324219 14.359375-1.347657 21.410156 0 23.910157 4.542968 42.753907 23.996093 46.335938 48.265624.007812.058594.015625.117188.023437.175782h-13.976562c-3.894532-20.234375-21.867188-35.671875-43.085938-35.671875zm19.300782-26.199219c-4.980469-1.375-10.09375-2.195312-15.308594-2.472656-2.660156-.144532-5.328125-.167969-7.988282 0-5.210937.277344-10.328124 1.097656-15.304687 2.472656v-107.238281h38.601563zm-53.613282 6.015625c-3.433594 1.84375-6.710937 3.957031-9.804687 6.328125-.039063-.03125-.082031-.054688-.121094-.085938-5.917969-4.511718-12.53125-8.105468-19.535156-10.613281-2.980469-1.070312-6.042969-1.9375-9.140625-2.597656v-106.285156h38.601562zm-92.214844-106.910156c0-3.496094 2.847657-6.34375 6.347657-6.34375h32.253906v104.648437c-.105469 0-4.144531.109375-4.386719.121094-12.253906.675781-23.957031 4.375-34.214844 10.753906zm32.878907 113.570312c4.015625-.378906 8.253906-.3125 12.335937.175781 9.222656 1.105469 18.167969 4.496094 25.808594 9.777344.101562.074219.207031.144532.308594.214844-3 3.511719-5.644532 7.296875-7.914063 11.289062-7.304687-5.113281-16.046875-7.9375-25.128906-7.9375-21.222656 0-39.195313 15.441407-43.089844 35.671876h-13.980469c3.769532-26.113282 25.21875-46.699219 51.660157-49.191407zm5.40625 28.53125c7 0 13.699219 2.539063 18.917969 7.074219.089843.078125-.519532 1.734375-.574219 1.933594-1.070313 3.78125-1.863281 7.722656-2.308594 11.65625h-43.703125c3.578125-11.90625 14.703125-20.664063 27.667969-20.664063zm60.574219 20.664063c3.578124-11.90625 14.703124-20.664063 27.667968-20.664063s24.089844 8.757813 27.667969 20.664063zm99.871093 0c-.085937-.777344-.832031-5.371094-.851562-5.480469-.527344-2.734375-1.191407-5.445313-2.03125-8.109375 5.222656-4.535156 11.921875-7.074219 18.917969-7.074219 12.964843 0 24.089843 8.753907 27.667968 20.660157h-43.703125zm59.125 0c-3.894531-20.234375-21.867187-35.671875-43.089843-35.671875-9.082032 0-17.828126 2.824219-25.128907 7.933593-2.269531-3.988281-4.914062-7.773437-7.914062-11.289062.101562-.070312.207031-.140625.308593-.214844 11.03125-7.621094 24.792969-11.214844 38.144532-9.953125 26.441406 2.492188 47.890625 23.078125 51.660156 49.195313zm66.207031 113.660156c6.921876 0 12.550782 5.628906 12.550782 12.546875 0 6.921875-5.628906 12.550781-12.550782 12.550781h-20.171874c.058593-1.871094.265624-25.097656-.941407-25.097656zm0 0"/></svg>