<svg height="511pt" viewBox="-58 0 511 511.99917" width="511pt" xmlns="http://www.w3.org/2000/svg"><g fill="#fff3e4"><path d="m291.714844 43.722656-23.011719-36.328125c-31.546875-.507812-63.257813 11.253907-87.277344 35.277344l-3.652343 3.652344.484374 52.382812 52.382813.488281 3.65625-3.65625c9.4375-9.441406 22.011719-13.902343 34.398437-13.378906zm0 0"/><path d="m352.113281 42.667969-44.484375 16.96875-8.382812 35.902343c8.464844 8.464844 12.921875 19.433594 13.378906 30.546876l35.269531 25.355468 39.496094-25.359375c-.476563-30.261719-12.238281-60.375-35.277344-83.414062zm0 0"/><path d="m370.894531 189.066406-36.011719-24.613281-64.21875 24.613281-62.984374 62.984375 32.882812 19.988281 72.863281-19.992187 38.6875-38.691406c7.4375-7.4375 13.699219-15.613281 18.78125-24.289063zm0 0"/><path d="m220.199219 292.402344-75.5 22.628906-62.980469 62.980469 28.917969 28.914062 76.824219-28.914062 62.980468-62.980469zm0 0"/><path d="m96.183594 421.378906-77.441406 19.613282c-14.410157 14.609374-14.347657 38.148437.1875 52.679687 14.597656 14.597656 38.269531 14.597656 52.867187 0l52.683594-52.679687zm0 0"/></g><path d="m187.460938 378.011719-62.980469 62.980469h-105.738281l62.976562-62.980469zm0 0" fill="#1fd7c3"/><path d="m313.425781 252.046875-62.984375 62.984375h-105.742187l62.980469-62.980469zm0 0" fill="#1fd7c3"/><path d="m270.664062 189.066406 28.578126-28.578125c9.441406-9.441406 13.90625-22.011719 13.382812-34.402343l74.761719-.007813c.355469 21.785156-5.148438 43.644531-16.492188 62.988281zm0 0" fill="#1fd7c3"/><path d="m352.113281 42.667969-52.871093 52.871093c-8.464844-8.464843-19.429688-12.921874-30.546876-13.382812l.007813-74.761719c30.257813.472657 60.371094 12.234375 83.410156 35.273438zm0 0" fill="#1fd7c3"/><path d="m230.640625 99.191406-25.457031 25.460938c-14.597656 14.597656-38.273438 14.597656-52.871094 0s-14.597656-38.273438 0-52.871094l25.460938-25.457031zm0 0" fill="#1fd7c3"/><path d="m394.871094 126c-.527344-33.492188-13.835938-64.953125-37.472656-88.589844-7.246094-7.246094-15.339844-13.605468-24.0625-18.90625-3.542969-2.152344-8.15625-1.027344-10.308594 2.515625-2.152344 3.539063-1.027344 8.15625 2.515625 10.308594 5.566406 3.382813 10.847656 7.257813 15.761719 11.5625l-42.453126 42.457031c-6.679687-5.023437-14.429687-8.394531-22.671874-9.859375l.003906-60.171875c8.007812.664063 15.917968 2.171875 23.609375 4.503906 3.964843 1.207032 8.15625-1.035156 9.359375-5 1.203125-3.96875-1.035156-8.15625-5-9.359374-44.492188-13.492188-93.875-1.539063-127.085938 30.992187-.324218.320313-30.078125 30.070313-30.078125 30.070313-17.503906 17.5-17.503906 45.980468 0 63.480468 17.304688 17.304688 46.191407 17.289063 63.480469 0 0 0 29.097656-29.097656 29.113281-29.113281 14.777344-14.777344 39.566407-14.769531 54.335938 0 14.757812 14.757813 14.746093 39.589844 0 54.335937 0 0-280.503907 280.503907-280.515625 280.519532-.007813.007812-.015625.011718-.023438.019531-17.257812 17.5-17.160156 45.875.222656 63.257813 17.308594 17.308593 46.1875 17.292968 63.480469 0l70.46875-70.46875c2.933594-2.929688 2.933594-7.679688 0-10.609376-2.929687-2.929687-7.679687-2.929687-10.609375 0l-15.589844 15.585938h-84.515624l47.972656-47.972656h84.515625l-11.570313 11.570312c-2.929687 2.929688-2.929687 7.683594 0 10.613282 2.929688 2.929687 7.683594 2.929687 10.613282 0 0 0 189.03125-189.035157 189.03125-189.035157 24.160156-24.160156 38.03125-58.15625 37.472656-92.707031zm-288.527344 322.539062s-39.84375 39.84375-39.871094 39.875c-11.519531 11.515626-30.757812 11.5-42.257812 0-10.859375-10.859374-11.589844-28.160156-2.148438-39.875zm212.976562-329.910156c-1.464843-8.242187-4.835937-15.992187-9.859374-22.671875l42.457031-42.457031c15.988281 18.234375 25.589843 40.910156 27.578125 65.125zm-119.464843.761719c-11.519531 11.523437-30.75 11.511719-42.257813 0-11.519531-11.519531-11.507812-30.75 0-42.257813l20.152344-20.152343 42.257812 42.257812s-20.140624 20.140625-20.152343 20.152344zm30.800781-30.726563-42.277344-42.277343c19.808594-19.027344 45.402344-30.015625 72.800782-31.328125l-.007813 59.882812c-11.40625 1.167969-22.019531 5.925782-30.515625 13.722656zm73.871094 77.175782c8.675781-8.675782 14.054687-20.109375 15.328125-32.207032l59.890625-.003906c-.8125 16.820313-5.339844 33.203125-13.265625 47.976563h-77.722657zm-93.761719 93.761718 84.519531-.003906-47.976562 47.976563h-84.515625zm-26.433594 110.953126h-84.519531l47.972656-47.972657h84.515625zm162.453125-162.457032-36.492187 36.488282-84.519531.007812 47.976562-47.980469h83.074219c-3.074219 4.035157-6.429688 7.875-10.039063 11.484375zm0 0"/></svg>