<svg height="511pt" viewBox="-70 0 511 511.99824" width="511pt" xmlns="http://www.w3.org/2000/svg"><path d="m15.003906 149.96875c35.96875 8.101562 58.144532-23.816406 59.074219-25.179688l12.570313 8.445313 12.613281 8.378906c-.660157.996094-8.574219 12.65625-22.863281 23.136719-15.535157 11.398438-32.660157 22.394531-62.105469 15.757812l13.03125-14.914062zm0 0" fill="#ff8997"/><path d="m142.179688 191.96875c-51.078126 0-92.484376-41.40625-92.484376-92.484375 0-7.984375 1.03125-15.980469 3.074219-23.710937 11.910157-45.011719 49.054688-66.128907 89.441407-68.117188 37.777343-1.863281 78.382812 13.019531 103.839843 40.722656 26.464844 28.8125 38.828125 68.78125 41.296875 106.859375 1.59375 24.644531.246094 49.472657-3.113281 73.90625-.265625 1.914063-4.050781 31.636719-5.726563 31.636719l-67.382812 24.652344zm0 0" fill="#00bbc9"/><path d="m303.277344 382.636719h-24.769532l-92.40625-28.175781-92.402343 28.175781h-24.769531c-33.652344 0-60.929688 27.28125-60.929688 60.929687 0 33.652344 27.277344 60.933594 60.929688 60.933594h234.347656c33.648437 0 60.929687-27.28125 60.929687-60.933594 0-33.648437-27.28125-60.929687-60.929687-60.929687zm0 0" fill="#00bbc9"/><path d="m38 443.570312c0-33.652343 27.277344-60.929687 60.929688-60.929687h24.769531l77.402343-23.605469-15-4.574218-92.402343 28.179687h-24.769531c-33.652344 0-60.929688 27.277344-60.929688 60.929687 0 33.648438 27.277344 60.929688 60.929688 60.929688h30c-33.652344 0-60.929688-27.28125-60.929688-60.929688zm0 0" fill="#00aaa7"/><path d="m135.363281 135.492188h-16.917969c-4.140624 0-7.5-3.359376-7.5-7.5 0-4.144532 3.359376-7.5 7.5-7.5h16.917969c4.140625 0 7.5 3.355468 7.5 7.5 0 4.140624-3.359375 7.5-7.5 7.5zm0 0" fill="#ff8997"/><path d="m142.179688 191.96875s-.683594 45.667969-48.480469 68.8125l66.285156 24.652344 48.910156-24.652344c-.003906 0 21.132813-68.8125-66.714843-68.8125zm0 0" fill="#ffe76c"/><path d="m123.699219 260.78125c39.964843-19.351562 46.988281-54.445312 48.21875-65.429688-8.171875-2.136718-17.96875-3.382812-29.738281-3.382812 0 0-.683594 45.667969-48.480469 68.8125l66.28125 24.652344 12.738281-6.417969zm0 0" fill="#ffb44d"/><path d="m278.507812 260.777344h-184.808593c-33.648438 0-60.929688 27.28125-60.929688 60.929687 0 33.652344 27.28125 60.929688 60.929688 60.929688h184.808593c33.648438 0 60.929688-27.277344 60.929688-60.929688 0-33.648437-27.28125-60.929687-60.929688-60.929687zm0 0" fill="#1fd7c3"/><path d="m62.769531 321.707031c0-33.648437 27.28125-60.929687 60.929688-60.929687h-30c-33.648438 0-60.929688 27.28125-60.929688 60.929687 0 33.652344 27.28125 60.929688 60.929688 60.929688h30c-33.648438.003906-60.929688-27.277344-60.929688-60.929688zm0 0" fill="#00bbc9"/><path d="m119.808594 111.984375c4.140625 0 7.5-3.355469 7.5-7.5v-15.625c0-4.140625-3.359375-7.5-7.5-7.5s-7.5 3.359375-7.5 7.5v15.625c0 4.144531 3.359375 7.5 7.5 7.5zm0 0"/><path d="m118.445312 135.492188h16.917969c4.144531 0 7.5-3.359376 7.5-7.5 0-4.144532-3.355469-7.5-7.5-7.5h-16.917969c-4.140624 0-7.5 3.355468-7.5 7.5 0 4.140624 3.359376 7.5 7.5 7.5zm0 0"/><path d="m318.835938 376.945312c17.019531-12.460937 28.101562-32.574218 28.101562-55.238281 0-34.464843-25.621094-63.046875-58.8125-67.738281.277344-1.546875 3.539062-23.800781 3.539062-23.800781 3.628907-26.40625 4.695313-51.777344 3.167969-75.414063-1.738281-26.8125-8.910156-65.785156-33.214843-99.160156-2.4375-3.347656-7.128907-4.085938-10.476563-1.648438-3.347656 2.441407-4.085937 7.132813-1.648437 10.480469 17.308593 23.769531 28.09375 56.195313 30.367187 91.296875 1.464844 22.632813.4375 46.992188-3.054687 72.382813 0 0-3.078126 21.433593-3.808594 25.171875h-54.996094c.003906-.023438.003906-.046875.007812-.070313.007813-.058593.015626-.121093.023438-.179687 1.828125-14.964844-.726562-31.0625-9.84375-43.394532-15.117188-20.4375-42.164062-25.164062-66.007812-25.164062-46.859376 0-84.984376-38.125-84.984376-84.984375 0-7.367187.953126-14.703125 2.824219-21.792969 5.191407-19.613281 15.65625-35.085937 31.113281-45.980468 14-9.867188 31.789063-15.59375 51.449219-16.566407 31.476563-1.550781 64.28125 9.15625 87.746094 28.644531 3.1875 2.644532 7.914063 2.207032 10.5625-.980468 2.644531-3.183594 2.207031-7.914063-.976563-10.558594-26.277343-21.824219-62.9375-33.820312-98.070312-32.085938-48.742188 2.40625-84.75 29.953126-96.324219 73.695313-2.203125 8.34375-3.320312 16.964844-3.320312 25.625 0 13.347656 2.632812 26.085937 7.398437 37.734375-10.398437 6.144531-21.503906 8.011719-32.945312 5.433594-6.738282-1.515625-11.816406 6.535156-7.539063 11.960937l8.46875 10.734375s-8.929687 10.21875-8.9375 10.226563c-3.613281 4.132812-1.472656 11.019531 4 12.25 6.449219 1.453125 12.722657 2.191406 18.644531 2.191406 18.941407 0 32.625-7.335937 44.648438-15.710937 15.683594 13.902343 35.75 22.957031 57.835938 24.804687-2.382813 12.578125-10.988282 38.582031-41.929688 54.214844-36.875.988281-66.574219 31.273437-66.574219 68.382812 0 22.664063 11.082031 42.773438 28.101563 55.234375-30.257813 7.066406-52.871094 34.246094-52.871094 66.625 0 37.734375 30.695312 68.433594 68.429688 68.433594h234.347656c37.730468 0 68.429687-30.699219 68.429687-68.433594 0-32.378906-22.613281-59.554687-52.871093-66.621094zm-287.550782-201.929687c-.726562 0-1.457031-.011719-2.199218-.042969l3.886718-4.445312c2.375-2.71875 2.476563-6.742188.238282-9.578125l-1.859376-2.359375c8.636719-.707032 16.984376-3.351563 24.941407-7.894532 2.667969 4.46875 5.679687 8.71875 9.015625 12.726563-9.894532 6.667969-20.09375 11.59375-34.023438 11.59375zm117.636719 24.621094c1.984375.089843 3.964844.214843 5.941406.398437 13.355469 1.226563 27.53125 4.570313 37.460938 14.195313 10.207031 9.902343 12.667969 25.34375 10.535156 38.898437-.007813.050782-.011719.101563-.019531.148438h-83.9375c21.820312-18.757813 28.171875-41.894532 30.019531-53.640625zm154.355469 297.363281h-234.347656c-29.460938 0-53.429688-23.96875-53.429688-53.429688 0-29.460937 23.96875-53.429687 53.429688-53.429687h66.429687c4.144531 0 7.5-3.359375 7.5-7.5 0-4.144531-3.355469-7.5-7.5-7.5h-41.660156c-29.460938 0-53.429688-23.96875-53.429688-53.433594 0-29.460937 23.96875-53.429687 53.429688-53.429687h184.808593c29.460938 0 53.429688 23.96875 53.429688 53.429687 0 29.460938-23.96875 53.429688-53.429688 53.429688h-113.148437c-4.140625 0-7.5 3.359375-7.5 7.5 0 4.144531 3.359375 7.5 7.5 7.5h137.917969c29.460937 0 53.429687 23.96875 53.429687 53.429687 0 29.460938-23.96875 53.433594-53.429687 53.433594zm0 0"/></svg>