<svg height="512pt" viewBox="-25 0 512 512.001" width="512pt" xmlns="http://www.w3.org/2000/svg"><path d="m239.902344 7.5h-18.402344c-7.027344 0-12.425781 6.234375-11.417969 13.191406l4.917969 33.917969h31.40625l4.914062-33.917969c1.007813-6.957031-4.386718-13.191406-11.417968-13.191406zm0 0" fill="#00bbc9"/><path d="m160.871094 406.148438c0-45.175782 28.851562-83.882813 69.832031-100.078126 40.976563 16.195313 69.828125 54.898438 69.828125 100.078126 0 42.089843-25.039062 78.558593-61.597656 96.445312-5.199219 2.542969-11.265625 2.542969-16.464844 0-36.554688-17.886719-61.597656-54.355469-61.597656-96.445312zm0 0" fill="#00bbc9"/><path d="m57.160156 355.421875c0-45.175781 28.851563-83.882813 69.828125-100.078125 40.980469 16.195312 69.828125 54.898438 69.828125 100.078125 0 42.089844-25.039062 78.558594-61.59375 96.445313-5.199218 2.542968-11.269531 2.542968-16.464844 0-36.558593-17.886719-61.597656-54.355469-61.597656-96.445313zm0 0" fill="#1fd7c3"/><path d="m404.242188 355.421875c0-45.175781-28.847657-83.882813-69.828126-100.078125-40.976562 16.195312-69.828124 54.898438-69.828124 100.078125 0 42.089844 25.039062 78.558594 61.597656 96.445313 5.199218 2.542968 11.265625 2.542968 16.464844 0 36.554687-17.886719 61.59375-54.355469 61.59375-96.445313zm0 0" fill="#1fd7c3"/><path d="m160.871094 281.34375c0-45.179688 28.851562-83.882812 69.832031-100.078125 40.976563 16.195313 69.828125 54.898437 69.828125 100.078125 0 42.085938-25.039062 78.558594-61.597656 96.441406-5.199219 2.542969-11.265625 2.542969-16.464844 0-36.554688-17.886718-61.597656-54.355468-61.597656-96.441406zm0 0" fill="#00aaa7"/><path d="m46.382812 217.507812c28.269532-40.316406 76.113282-58.289062 119.796876-49.214843 23.417968 37.980469 22.820312 89.082031-5.449219 129.398437-26.199219 37.359375-69.203125 55.53125-110.132813 50.773438-6.203125-.722656-11.636718-4.53125-14.425781-10.117188-18.421875-36.859375-15.988281-83.484375 10.210937-120.839844zm0 0" fill="#00bbc9"/><path d="m415.019531 217.507812c-28.269531-40.316406-76.109375-58.289062-119.796875-49.214843-23.414062 37.980469-22.820312 89.082031 5.453125 129.398437 26.195313 37.359375 69.199219 55.53125 110.128907 50.773438 6.207031-.722656 11.636718-4.53125 14.429687-10.117188 18.417969-36.859375 15.984375-83.484375-10.214844-120.839844zm0 0" fill="#00bbc9"/><path d="m435.042969 238.363281c-103.480469-1.933593-139.820313-70.070312-139.820313-70.070312 0 36.566406-23.027344 68.265625-56.671875 83.878906-4.976562 2.3125-10.71875 2.3125-15.695312 0-33.648438-15.617187-56.675781-47.3125-56.675781-83.878906 0 0-36.335938 68.136719-139.816407 70.070312-11.085937.207031-19.871093-9.335937-18.773437-20.367187 15.816406-158.929688 179.011718-167.425782 215.78125-167.308594 4.886718.011719 9.773437.011719 14.660156 0 36.773438-.117188 199.964844 8.378906 215.785156 167.308594 1.097656 11.03125-7.691406 20.578125-18.773437 20.367187zm0 0" fill="#1fd7c3"/><g fill="#444f5c"><path d="m145.148438 129.3125c-4.140626 0-7.5-3.359375-7.5-7.5v-15.484375c0-4.140625 3.359374-7.5 7.5-7.5 4.140624 0 7.5 3.359375 7.5 7.5v15.484375c0 4.144531-3.359376 7.5-7.5 7.5zm0 0"/><path d="m316.253906 129.3125c-4.140625 0-7.5-3.359375-7.5-7.5v-15.484375c0-4.140625 3.359375-7.5 7.5-7.5 4.144532 0 7.5 3.359375 7.5 7.5v15.484375c0 4.144531-3.355468 7.5-7.5 7.5zm0 0"/><path d="m230.703125 137.578125c-10.394531 0-20.148437-4.339844-26.765625-11.90625-2.722656-3.117187-2.40625-7.855469.710938-10.582031 3.121093-2.726563 7.859374-2.410156 10.585937.710937 3.761719 4.308594 9.402344 6.777344 15.46875 6.777344s11.703125-2.472656 15.46875-6.777344c2.726563-3.121093 7.464844-3.4375 10.582031-.710937 3.117188 2.726562 3.4375 7.464844.710938 10.582031-6.613282 7.566406-16.367188 11.90625-26.761719 11.90625zm0 0"/></g><path d="m152.648438 121.8125v-15.484375c0-4.140625-3.359376-7.5-7.5-7.5-4.144532 0-7.5 3.359375-7.5 7.5v15.484375c0 4.144531 3.355468 7.5 7.5 7.5 4.140624 0 7.5-3.355469 7.5-7.5zm0 0"/><path d="m323.753906 121.8125v-15.484375c0-4.140625-3.359375-7.5-7.5-7.5s-7.5 3.359375-7.5 7.5v15.484375c0 4.144531 3.359375 7.5 7.5 7.5s7.5-3.355469 7.5-7.5zm0 0"/><path d="m230.699219 137.578125c10.394531 0 20.148437-4.339844 26.765625-11.90625 2.722656-3.117187 2.40625-7.855469-.714844-10.582031-3.117188-2.726563-7.855469-2.410156-10.582031.710937-3.765625 4.308594-9.402344 6.777344-15.46875 6.777344-6.066407 0-11.703125-2.472656-15.46875-6.777344-2.726563-3.121093-7.464844-3.4375-10.582031-.710937-3.121094 2.726562-3.4375 7.464844-.710938 10.582031 6.613281 7.566406 16.367188 11.90625 26.761719 11.90625zm0 0"/><path d="m424.503906 120.171875c-17.042968-21.792969-39.773437-39.382813-67.566406-52.277344-37.59375-17.4375-76.601562-22.730469-101.375-24.195312 0 0 3.175781-21.914063 3.179688-21.929688 1.640624-11.320312-7.417969-21.769531-18.839844-21.769531 0 0-18.390625 0-18.402344 0-11.433594 0-20.480469 10.453125-18.839844 21.769531l3.179688 21.933594c-38.675782 2.308594-113.066406 14.050781-161.398438 67.507813-2.777344 3.070312-2.539062 7.816406.53125 10.59375 3.074219 2.777343 7.816406 2.539062 10.59375-.535157 48.246094-53.355469 125.59375-61.894531 158.949219-62.953125.054687 0 .109375.003906.167969 0 10.53125-.332031 21.089844-.332031 31.621094-.011718.023437.003906.050781.003906.074218.003906 22.332032.675781 64.230469 4.632812 104.246094 23.195312 57.089844 26.484375 89.296875 72.65625 95.726562 137.238282 1.167969 11.730468-10.855468 12.277343-19.152343 11.832031-.039063 0-.078125-.011719-.117188-.011719-33.515625-1.839844-62.726562-11.003906-87.027343-27.269531-.039063-.027344-.078126-.050781-.113282-.074219-14.59375-9.792969-29.644531-22.8125-38.109375-38.472656-2.226562-4.085938-7.605469-5.113282-11.265625-2.304688-2.882812 2.214844-2.777344 5.792969-2.914062 9.085938-.632813 15.3125-5.746094 30.140625-14.894532 43.09375-8.0625 11.414062-18.960937 20.980468-31.761718 27.929687-1.835938.996094-3.710938 1.9375-5.605469 2.820313-2.792969 1.292968-6.023437 1.351562-8.867187.203125-2.109376-.851563-4.09375-2.011719-6.128907-3.027344-27.175781-14.757813-46.714843-42.75-46.714843-74.253906 0-3.433594-2.335938-6.417969-5.664063-7.261719-3.335937-.84375-6.808594.691406-8.441406 3.710938-8.460938 15.621093-23.59375 28.671874-38.113281 38.476562-.035157.023438-.070313.042969-.101563.066406-28.023437 18.679688-61.730469 26.957032-95.140625 27.582032-6.523438.121093-11.8125-5.640626-11.167969-12.125 2.800781-28.152344 10.652344-53.140626 23.335938-74.257813 2.132812-3.550781.984375-8.160156-2.566407-10.292969-3.550781-2.132812-8.160156-.980468-10.292968 2.570313-13.832032 23.035156-22.378906 50.117187-25.402344 80.496093-1.410156 14.160157 9.332031 27.214844 23.511719 28.503907-10.988281 31.855469-9.019531 66.238281 5.820312 95.9375 3.929688 7.867187 11.484375 13.171875 20.210938 14.207031.183593 43.59375 25.355469 82.914062 65.792969 102.699219 7.140624 3.492187 15.820312 3.539062 23.054687 0 7.847656-3.839844 15.128906-8.460938 21.78125-13.722657 10.238281 27.796876 31.191406 50.902344 58.875 64.445313 3.570313 1.75 7.558594 2.671875 11.527344 2.671875 3.972656 0 7.960937-.921875 11.53125-2.671875 27.683593-13.542969 48.636719-36.648437 58.875-64.445313 6.652343 5.261719 13.933593 9.882813 21.78125 13.722657 3.664062 1.789062 7.59375 2.6875 11.527343 2.6875 3.933594 0 7.863282-.898438 11.527344-2.6875 15.527344-7.597657 29.4375-18.613281 40.226563-31.847657 2.617187-3.210937 2.136719-7.9375-1.074219-10.554687-3.210938-2.613281-7.9375-2.132813-10.554688 1.078125-9.425781 11.566406-21.59375 21.199219-35.1875 27.851562-3.136718 1.53125-6.738281 1.53125-9.875 0-24.441406-11.960937-43.871093-33.410156-52.46875-59.324218-2.316406-6.984375-3.835937-14.253906-4.5-21.582032-.023437-.242187-.03125-.484374-.054687-.726562 14.539063-13.871094 25.238281-31.15625 30.921875-50.257812.117188.136718.242188.265624.359375.402343 11.433594 12.914063 25.46875 23.539063 41.042969 30.957031 16.148437 7.6875 33.832031 11.914063 51.957031 12.089844-.160156 12.386719-2.648437 24.460938-7.410156 35.914063-1.589844 3.828125.222656 8.214843 4.046875 9.804687 3.824218 1.59375 8.210937-.222656 9.804687-4.046875 5.621094-13.527343 8.5-27.8125 8.5625-42.457031 8.726563-1.035156 16.277344-6.34375 20.207031-14.207031 14.839844-29.695313 16.808594-64.078125 5.824219-95.929688 6.378907-.570312 12.34375-3.523437 16.730469-8.277343 5.042969-5.464844 7.515625-12.84375 6.777344-20.234376-3.789063-38.0625-16.160156-70.726562-36.773438-97.085937zm-201.109375-76.992187c-.824219 0-1.652343.003906-2.472656.011718l-3.417969-23.574218c-.347656-2.410157 1.574219-4.617188 3.996094-4.617188h18.402344c2.433594 0 4.34375 2.21875 3.996094 4.617188l-3.417969 23.574218c-.011719 0-.027344 0-.039063 0-.8125-.007812-1.621094-.003906-2.433594-.003906-4.871093 0-9.742187-.023438-14.613281-.007812zm68.226563 254.472656c-.0625.359375-.113282.71875-.175782 1.078125-3.921874 21.515625-15.40625 41.460937-31.734374 56.101562-7.222657 6.472657-15.363282 11.953125-24.074219 16.214844-3.0625 1.5-6.8125 1.5-9.871094 0-8.71875-4.265625-16.851563-9.738281-24.074219-16.214844-14.335937-12.851562-24.609375-29.296875-29.683594-47.234375-.007812-.023437-.011718-.042968-.019531-.066406-.898437-3.164062-1.640625-6.5625-2.207031-9.878906 2.832031-4.40625 7.726562-13.785156 7.75-13.835938 6.832031-14.144531 11.03125-29.363281 12.382812-44.878906 7.339844 6.914062 15.828126 12.9375 25.304688 17.832031 4.75 2.453125 9.914062 4.425781 15.316406 4.585938 5.664063.164062 10.730469-2.042969 15.664063-4.59375 9.46875-4.894531 17.953125-10.914063 25.289062-17.824219 0 .015625.003907.03125.003907.050781 1.347656 15.476563 5.546874 30.6875 12.375 44.820313 1.144531 2.371094 6.3125 11.605468 7.753906 13.84375zm-248.746094 37.34375c-13.863281-27.75-14.917969-60.222656-3.046875-89.761719.242187-.019531.472656-.042969.710937-.0625 22.203126-1.757813 44.238282-6.835937 64.59375-15.964844.03125-.015625.0625-.027343.09375-.042969 20.964844-9.480468 40.46875-23.179687 55.621094-40.769531 2.597656 11.882813 7.484375 23.117188 14.332032 33.253907 1.402343 23.882812-5.195313 48.027343-18.148438 68.097656-17.394531 26.960937-46.007812 46.074218-77.84375 50.792968-8.933594 1.324219-18.59375 1.539063-27.726562.476563-3.707032-.429687-6.914063-2.683594-8.585938-6.019531zm89.046875 110.132812c-3.058594 1.5-6.8125 1.5-9.871094 0-35.003906-17.125-56.898437-50.929687-57.386719-88.4375.039063 0 .078126 0 .117188-.003906 5.523438-.058594 11.046875-.488281 16.515625-1.300781 29.234375-4.339844 56.6875-19.566407 76.277344-41.640625.152343-.167969.304687-.332032.453125-.5 5.679687 19.097656 16.378906 36.378906 30.914062 50.25-.175781 2.140625-.40625 4.273437-.726562 6.398437-3.222656 21.339844-13.847656 41.304688-29.304688 56.300781-7.777344 7.546876-16.851562 13.976563-26.988281 18.933594zm103.714844 50.726563c-3.058594 1.496093-6.8125 1.496093-9.871094 0-26.109375-12.773438-45.351563-35.207031-53.339844-61.972657.164063-.171874 1.042969-1.128906 1.328125-1.4375 13.886719-14.953124 23.40625-32.976562 27.789063-52.375.402343-1.769531.777343-3.550781 1.089843-5.339843 2.523438 1.777343 5.128907 3.464843 7.808594 5.058593 2.84375 1.691407 5.757813 3.277344 8.730469 4.734376 7.203125 3.527343 15.855469 3.523437 23.058594 0 .011719-.007813.027343-.015626.039062-.019532 5.746094-2.8125 11.269531-6.089844 16.5-9.773437.058594.332031.769531 3.9375 1.101563 5.402343 4.382812 19.359376 13.894531 37.351563 27.75 52.285157.449218.488281.894531.984375 1.355468 1.464843-7.988281 26.765626-27.234374 49.199219-53.339843 61.972657zm182.886719-160.859375c-2.90625 5.8125-8.976563 6.222656-14.714844 6.542968-.0625.003907-.125 0-.191406.003907-36.175782 1.972656-72.011719-15.183594-94.476563-44.96875-14.109375-18.710938-22.28125-41.746094-23.0625-65.171875-.109375-3.25-.050781-6.507813.140625-9.753906 6.847656-10.140626 11.734375-21.375 14.335938-33.257813 2.949218 3.429687 6.511718 7.203125 10.683593 11.121094 17.203125 16.15625 38.113281 28.128906 60.40625 35.71875 15.910157 5.417969 32.492188 8.546875 49.21875 9.941406.238281.019531.46875.042969.707031.0625 11.871094 29.539063 10.820313 62.007813-3.046874 89.761719zm0 0"/></svg>