<svg height="512pt" viewBox="0 0 512.00213 512" width="512pt" xmlns="http://www.w3.org/2000/svg"><path d="m247.082031 247.082031c-69.929687 69.929688-92.890625 37.136719-194.449219 173.953125-7.515624 10.125-5.121093 24.472656 5.289063 31.585938l1.804687 1.234375c4.058594 2.769531 8.914063 4.050781 13.824219 3.832031 9.601563-.433594 30.085938 2.957031 62.855469 29.109375 47.667969 38.039063 102.210938 6.609375 126.703125-17.882813 26.832031-21.898437 63.597656-72.996093 30.554687-124.253906-11.324218-17.566406-17.332031-31.527344-20.332031-42.289062-4.921875-17.625 11.410157-33.957032 29.039063-29.039063 10.761718 3 24.71875 9.007813 42.289062 20.332031 51.257813 33.042969 102.355469-3.722656 124.253906-30.554687 24.492188-24.488281 55.921876-79.03125 17.882813-126.703125-26.152344-32.769531-29.546875-53.253906-29.113281-62.855469.222656-4.90625-1.058594-9.765625-3.828125-13.820312l-1.234375-1.808594c-7.113282-10.410156-21.460938-12.804687-31.585938-5.289063-136.820312 101.558594-104.027344 124.519532-173.953125 194.449219zm0 0" fill="#ff7f5a"/><path d="m52.632812 421.035156c-7.515624 10.125-5.125 24.472656 5.289063 31.585938l1.804687 1.234375c4.058594 2.769531 8.914063 4.050781 13.824219 3.832031 9.339844-.421875 28.976563 2.785156 60.203125 27.027344.558594-1.53125 1.070313-3.082032 1.488282-4.675782 8.511718-2.226562 16.144531-6.515624 22.230468-12.597656 8.953125-8.953125 13.882813-21 13.886719-33.929687-.003906-5.011719-.742187-9.824219-2.148437-14.320313 1.414062-4.515625 2.144531-9.320312 2.144531-14.277344 0-22.8125-14.792969-40.976562-36.117188-46.523437-2.011719-7.671875-5.710937-14.617187-10.875-20.367187-19.324219 17.796874-42.207031 43.234374-71.730469 83.011718zm0 0" fill="#ff5d29"/><path d="m108.386719 403.210938c18.65625-23.746094 55.929687-66.789063 111.941406-92.324219 7.5625-3.449219 16.488281-1.726563 22.246094 4.273437 20.632812 21.496094 60.816406 75.480469 4.0625 133.148438-53.347657 54.203125-108.769531 8.160156-136.519531-18.960938-7.15625-6.996094-7.917969-18.261718-1.730469-26.136718zm0 0" fill="#5bd6fd"/><path d="m421.035156 52.632812c-39.777344 29.523438-65.214844 52.40625-83.011718 71.734376 5.746093 5.160156 12.695312 8.859374 20.367187 10.871093 5.546875 21.324219 23.707031 36.117188 46.519531 36.117188 4.957032.003906 9.765625-.730469 14.28125-2.144531 4.5 1.40625 9.316406 2.148437 14.328125 2.148437 12.925781-.003906 24.972657-4.9375 33.921875-13.890625 6.082032-6.082031 10.371094-13.714844 12.597656-22.226562 1.59375-.417969 3.144532-.929688 4.671876-1.488282-24.242188-31.226562-27.445313-50.863281-27.027344-60.203125.222656-4.910156-1.058594-9.765625-3.828125-13.824219l-1.234375-1.804687c-7.113282-10.410156-21.460938-12.804687-31.585938-5.289063zm0 0" fill="#ff5d29"/><path d="m403.210938 108.386719c-23.746094 18.65625-66.789063 55.929687-92.324219 111.941406-3.449219 7.566406-1.726563 16.492187 4.269531 22.246094 21.496094 20.632812 75.484375 60.820312 133.152344 4.0625 54.203125-53.34375 8.160156-108.765625-18.960938-136.515625-7-7.160156-18.265625-7.921875-26.136718-1.734375zm0 0" fill="#5bd6fd"/><path d="m429.347656 110.121094c-7-7.160156-18.265625-7.921875-26.136718-1.734375-10.808594 8.492187-25.617188 20.855469-40.949219 37.070312 7.964843 15.683594 23.699219 25.902344 42.648437 25.902344 4.960938 0 9.765625-.734375 14.285156-2.148437 4.5 1.40625 9.3125 2.148437 14.328126 2.148437 12.019531-.003906 23.28125-4.277344 32-12.082031-9.167969-19.957032-24.441407-37.148438-36.175782-49.15625zm0 0" fill="#00acfb"/><path d="m108.386719 403.210938c-6.1875 7.875-5.425781 19.136718 1.734375 26.136718 12.007812 11.734375 29.195312 27.007813 49.15625 36.175782 7.804687-8.71875 12.078125-19.980469 12.078125-32.011719 0-5.011719-.742188-9.824219-2.148438-14.320313 1.414063-4.515625 2.148438-9.320312 2.148438-14.277344 0-18.953124-10.214844-34.6875-25.898438-42.652343-16.21875 15.332031-28.578125 30.140625-37.070312 40.949219zm0 0" fill="#00acfb"/><path d="m386.640625 121.273438c0-5.253907 1-9.753907 3.773437-14.769532 1.652344-2.992187 4.417969-6.828125 7.597657-10.863281-4.023438 3.175781-7.859375 5.9375-10.867188 7.597656-5.019531 2.773438-9.519531 3.765625-14.773437 3.765625-12.976563 0-20.082032-8.5625-20.082032-18.285156.003907-9.558594 6.339844-13.195312 9.027344-14.296875-2.6875-1.097656-9.027344-4.75-9.027344-14.308594 0-9.71875 7.105469-18.269531 20.085938-18.269531 5.25 0 9.75 1 14.769531 3.773438 2.988281 1.652343 6.824219 4.417968 10.859375 7.597656-3.171875-4.027344-5.9375-7.863282-7.597656-10.871094-2.773438-5.019531-3.765625-9.515625-3.765625-14.769531 0-12.976563 8.566406-20.082031 18.285156-20.082031 9.558594 0 13.195313 6.339843 14.296875 9.027343 1.097656-2.6875 4.75-9.027343 14.304688-9.027343 9.722656 0 18.273437 7.105468 18.273437 20.082031 0 5.253906-1 9.753906-3.773437 14.773437-1.652344 2.988282-4.414063 6.824219-7.59375 10.855469 4.023437-3.171875 7.859375-5.933594 10.863281-7.59375 5.023437-2.773437 9.519531-3.765625 14.769531-3.765625 12.980469 0 20.085938 8.566406 20.085938 18.285156 0 9.558594-6.339844 13.191406-9.027344 14.292969 2.6875 1.101563 9.027344 4.753906 9.027344 14.308594 0 9.722656-7.105469 18.273437-20.082032 18.273437-5.25 0-9.753906-1-14.773437-3.773437-2.988281-1.652344-6.824219-4.414063-10.855469-7.59375 3.171875 4.023437 5.933594 7.855469 7.59375 10.863281 2.773438 5.023438 3.765625 9.519531 3.769532 14.773438 0 12.972656-8.566407 20.082031-18.289063 20.082031-9.558594 0-13.191406-6.339844-14.292969-9.027344-1.101562 2.6875-4.75 9.027344-14.308594 9.027344-9.722656 0-18.273437-7.105469-18.273437-20.082031zm0 0" fill="#1fd7c3"/><path d="m121.273438 386.640625c-5.253907 0-9.753907 1-14.773438 3.773437-2.988281 1.652344-6.828125 4.417969-10.859375 7.597657 3.171875-4.023438 5.933594-7.859375 7.597656-10.867188 2.773438-5.019531 3.765625-9.519531 3.765625-14.769531 0-12.976562-8.566406-20.082031-18.285156-20.082031-9.558594 0-13.195312 6.339843-14.296875 9.023437-1.097656-2.683594-4.75-9.023437-14.308594-9.027344-9.71875 0-18.273437 7.109376-18.269531 20.085938 0 5.25.996094 9.75 3.773438 14.769531 1.652343 2.992188 4.414062 6.828125 7.597656 10.859375-4.027344-3.171875-7.863282-5.933594-10.871094-7.597656-5.019531-2.773438-9.515625-3.761719-14.769531-3.761719-12.976563-.003906-20.082031 8.5625-20.082031 18.285157 0 9.554687 6.339843 13.191406 9.023437 14.292968-2.683594 1.101563-9.023437 4.75-9.023437 14.308594 0 9.71875 7.105468 18.273438 20.082031 18.269531 5.253906 0 9.75-.996093 14.773437-3.773437 2.988282-1.648438 6.824219-4.414063 10.855469-7.59375-3.171875 4.023437-5.933594 7.859375-7.59375 10.863281-2.773437 5.023437-3.765625 9.519531-3.765625 14.773437 0 12.976563 8.5625 20.082032 18.285156 20.082032 9.558594 0 13.191406-6.339844 14.292969-9.023438 1.101563 2.683594 4.753906 9.023438 14.308594 9.023438 9.722656 0 18.273437-7.105469 18.273437-20.082032 0-5.25-1-9.75-3.773437-14.769531-1.652344-2.992187-4.414063-6.828125-7.59375-10.859375 4.023437 3.171875 7.855469 5.933594 10.863281 7.597656 5.023438 2.773438 9.519531 3.765626 14.773438 3.765626 12.972656 0 20.082031-8.566407 20.082031-18.285157 0-9.558593-6.339844-13.195312-9.027344-14.296875 2.6875-1.097656 9.027344-4.75 9.027344-14.308594 0-9.722656-7.109375-18.273437-20.082031-18.273437zm0 0" fill="#1fd7c3"/><path d="m478.644531 111.964844c9.144531-4.054688 15.019531-12.597656 15.019531-23.222656 0-6.390626-2.03125-11.015626-4.578124-14.308594 2.546874-3.289063 4.578124-7.910156 4.578124-14.296875-.003906-14.941407-11.605468-25.785157-27.585937-25.785157-2.621094 0-5.070313.214844-7.429687.660157.449218-2.355469.664062-4.804688.664062-7.425781-.003906-14.757813-10.433594-27.585938-25.773438-27.585938-6.390624 0-11.019531 2.03125-14.308593 4.578125-3.289063-2.546875-7.910157-4.57421875-14.292969-4.57421875-15.378906 0-25.789062 12.83593775-25.785156 27.58203175 0 2.621093.210937 5.074218.65625 7.429687-2.355469-.449219-4.808594-.664063-7.429688-.664063-15.980468 0-27.582031 10.839844-27.582031 25.773438 0 6.390625 2.03125 11.019531 4.578125 14.308594-2.546875 3.289062-4.574219 7.914062-4.578125 14.296875 0 5.269531 1.449219 10.023437 4.019531 13.980469-32.109375 30.816406-45.347656 53.023437-58.15625 74.53125-11.867187 19.925781-23.074218 38.746093-48.875 64.542968-25.796875 25.800782-44.617187 37.007813-64.542968 48.875-7.277344 4.335938-14.804688 8.820313-22.640626 14.035156-3.449218 2.296876-4.382812 6.953126-2.089843 10.402344 2.296875 3.445313 6.953125 4.378906 10.402343 2.085938 7.523438-5.007813 14.882813-9.394532 22.003907-13.632813 19.839843-11.816406 40.355469-24.035156 67.476562-51.15625 27.121094-27.125 39.339844-47.636719 51.152344-67.476562 13.035156-21.886719 25.378906-42.605469 56.960937-72.640625 1.503907.617187 3.085938 1.101562 4.738282 1.46875 2.449218.542968 4.953125.777344 7.457031.761718 2.5-.015624 4.847656-.226562 7.109375-.652343-.226562 1.179687-.554688 4.40625-.578125 4.804687-33.667969 29.890625-58.960937 63.03125-75.164063 98.566406-4.761718 10.445313-2.390624 22.808594 5.902344 30.769532 30.066406 28.859375 57.546875 35.242187 75.964844 35.242187 4.777344 0 9.640625-2.136719 9.476562-7.738281-.117187-4.140625-3.582031-7.410156-7.707031-7.289062-29.628906.835937-54.902343-19.09375-67.347656-31.035157-3.699219-3.554687-4.761719-9.070312-2.640625-13.726562 14.265625-31.292969 36.074219-60.722657 64.898438-87.621094 1.0625 1.941406 2.335937 3.667969 3.765624 5.183594 4.757813 5.121093 11.589844 7.851562 18.539063 7.851562 6.390625 0 11.015625-2.027343 14.308594-4.574219 3.289062 2.546876 7.910156 4.578126 14.292969 4.578126 5.253906 0 10.492187-1.515626 14.792968-4.5625 25.289063 36.859374 23.535156 68.65625-5.257812 96.996093-9.46875 9.320313-19.320313 16.316407-29.273438 20.789063-3.777344 1.695312-5.464844 6.136718-3.765625 9.914062s6.136719 5.464844 9.917969 3.765625c11.582031-5.203125 22.898438-13.203125 33.640625-23.777343 20.648437-20.320313 29.722656-43.039063 26.964844-67.519532-1.898438-16.902344-9.585938-34.675781-22.851563-52.878906.894532-2.636719 1.449219-5.5625 1.585938-8.78125.121094-2.992188-.070313-6.015625-.625-8.960938.621094.121094 1.25.21875 1.890625.304688.640625.089844 2.046875.222656 2.105469.226562 4.777343 8.5 10.917968 17.46875 18.292968 26.710938 34.824219 43.640625 5.496094 93.902344-17.320312 116.722656-.179688.175782-.351563.363282-.507813.558594-20.40625 25.003906-67.457031 59.242188-114.382812 28.992188-16.117188-10.390626-31.035157-17.542969-44.335938-21.25-22.878906-6.382813-44.648437 15.449218-38.28125 38.277343 3.710938 13.296875 10.859375 28.214844 21.253907 44.335938 30.25 46.925781-3.992188 93.980469-28.992188 114.382812-.195312.160157-.382812.328125-.5625.507813-22.820312 22.816406-73.082031 52.148437-116.71875 17.324218-9.246094-7.378906-18.210938-13.515624-26.710938-18.296874-.007812-.058594-.292968-2.730469-.53125-3.996094 2.355469.445312 4.808594.660156 7.429688.660156 3.496094 0 7.003906-.496094 10.320312-1.625 21.242188 15.480469 41.859376 23.335938 61.328126 23.335938 21.265624 0 41.140624-9.234376 59.0625-27.445313 26.507812-26.929687 36.246093-56.246094 28.941406-87.125-5.746094-24.304687-21.082032-44.128906-32.9375-56.480469-7.871094-8.199218-20.433594-10.617187-30.769532-5.902344-35.535156 16.203126-68.679687 41.496094-98.566406 75.164063-1.65625.097656-3.253906.28125-4.804687.578125.445312-2.359375.65625-4.808594.65625-7.429688 0-4.03125-.699219-8.136718-2.234375-11.875 9.542968-10.03125 18.671875-18.65625 27.796875-26.273437 3.179687-2.65625 3.605469-7.386719.949219-10.566406-2.65625-3.179688-7.382813-3.605469-10.5625-.949219-9.152344 7.636719-18.277344 16.226562-27.75 26.101562-3.957032-2.570312-8.710938-4.019531-13.984376-4.019531-6.382812 0-11.003906 2.027344-14.292968 4.574219-3.289063-2.546875-7.917969-4.574219-14.308594-4.578125-6.972656 0-13.410156 2.632813-18.121094 7.410156-5.003906 5.074219-7.652344 12.050781-7.652344 20.175781 0 2.621094.214844 5.070313.664063 7.425782-2.359375-.445313-4.808594-.65625-7.433594-.65625-15.980469 0-27.57812475 10.84375-27.57812475 25.785156 0 6.382812 2.02734375 11.003906 4.57421875 14.292969-2.546875 3.292969-4.578125 7.917969-4.578125 14.308593 0 6.972657 2.632812 13.40625 7.410156 18.121094 5.074219 5.003906 12.050782 7.652344 20.175782 7.652344 2.621093 0 5.066406-.214844 7.425781-.664062-.445313 2.359374-.660157 4.808593-.660157 7.429687 0 15.980469 10.84375 27.582031 25.789063 27.585937 6.382813 0 11.003906-2.03125 14.292969-4.578124 3.292968 2.546874 7.917968 4.578124 14.308594 4.578124 10.621093 0 19.167968-5.875 23.21875-15.019531 6.332031 3.894531 12.949218 8.578125 19.777343 14.027344 16.0625 12.816406 34.316407 19.332031 53.730469 19.332031 8.140625 0 16.484375-1.148437 24.960938-3.453125 29.011718-7.894531 49.851562-26.238281 57.722656-34.054687 8.574218-7.046875 28.921875-25.929688 39.699218-54 10.652344-27.75 7.929688-55.375-7.875-79.890625-9.574218-14.855469-16.109374-28.394531-19.414062-40.238281-3.289062-11.789063 8.039062-23.085938 19.804688-19.800782 11.84375 3.304688 25.382812 9.835938 40.238281 19.410156 24.515625 15.804688 52.140625 18.527344 79.890625 7.875 28.070312-10.777343 46.953125-31.125 54-39.699218 7.816406-7.871094 26.160156-28.710938 34.054687-57.722656 7.804688-28.679688 2.3125-55.890626-15.878906-78.691407-5.453125-6.828125-10.132813-13.441406-14.027344-19.773437zm-59.417969 12.972656c-2.847656 0-5.695312 1.523438-6.9375 4.558594-1.378906 3.371094-4.910156 4.597656-8.320312 4.328125-11.609375-.917969-11.152344-16.128907-6.980469-23.6875 2.257813-4.085938 6.207031-7.332031 7.972657-11.636719 1.101562-2.683594.566406-5.839844-1.515626-8.019531-2.640624-2.761719-7.054687-3.09375-10.066406-.71875-5.183594 4.085937-8.21875 6.019531-9.851562 6.921875-3.636719 2.007812-6.867188 2.828125-11.144532 2.828125-6.445312 0-12.585937-3.765625-12.582031-10.78125 0-3.691407 1.46875-6.167969 4.371094-7.359375 6.085937-2.496094 6.070313-11.394532-.003906-13.878906-2.898438-1.1875-4.367188-3.667969-4.367188-7.367188 0-5.207031 3.304688-10.773438 12.582031-10.773438 8.339844 0 14.726563 4.824219 20.984376 9.757813 6.769531 5.339844 15.898437-3.726563 10.535156-10.53125-4.972656-6.308594-9.75-12.617187-9.75-20.996094 0-6.421875 3.617187-12.582031 10.785156-12.582031 3.691406 0 6.164062 1.472656 7.355469 4.371094 2.492187 6.078125 11.386719 6.078125 13.878906 0 1.1875-2.902344 3.667969-4.371094 7.367187-4.371094 7.03125 0 10.769532 6.011719 10.773438 12.574219 0 8.335937-4.832031 14.746093-9.757812 20.992187-5.292969 6.710938 3.734374 15.890625 10.535156 10.535156 6.300781-4.96875 12.621094-9.75 20.992187-9.75 9.273438 0 12.582031 5.574219 12.582031 10.785157 0 3.691406-1.472656 6.164062-4.371093 7.355469-6.074219 2.492187-6.0625 11.394531 0 13.878906 2.898437 1.1875 4.371093 3.667968 4.371093 7.367187 0 7.730469-7.335937 11.089844-14.136718 10.734375-7.5625-.398437-13.726563-5.222656-19.429688-9.71875-2.941406-2.316406-7.308594-2.054687-9.949218.585938-2.6875 2.6875-2.9375 6.960937-.585938 9.945312 2.472656 3.136719 4.984375 6.34375 6.917969 9.847656 4.417969 7.992188 4.171875 24.210938-8.46875 23.703126-2.933594-.117188-5.683594-1.523438-6.839844-4.347657-1.25-3.035156-4.097656-4.550781-6.945313-4.550781zm-195.777343 192.785156c4.621093-2.109375 10.207031-1.023437 13.722656 2.640625 10.5625 11.003907 24.199219 28.53125 29.164063 49.542969 6.039062 25.527344-2.386719 50.140625-25.035157 73.152344-15 15.242187-31.273437 22.96875-48.371093 22.96875-15.105469 0-31.429688-5.957032-48.625-17.714844 2.53125-3.574219 4.101562-7.863281 4.472656-12.625.445312-5.800781-.886719-11.800781-4.488282-16.453125 2.546876-3.292969 4.574219-7.917969 4.574219-14.3125 0-9.167969-4.960937-17.882813-13.035156-22.300781 26.898437-28.828125 56.328125-50.632813 87.621094-64.898438zm-134.707031 160.941406c-3.703126 0-6.179688-1.472656-7.371094-4.375-2.496094-6.082031-11.390625-6.066406-13.878906 0-1.191407 2.902344-3.664063 4.375-7.351563 4.375-5.214844-.003906-10.789063-3.308593-10.789063-12.585937 0-8.335937 4.824219-14.742187 9.75-20.992187 2.351563-2.984376 2.101563-7.257813-.585937-9.945313-2.691406-2.691406-6.964844-2.941406-9.949219-.585937-5.191406 4.09375-8.214844 6.023437-9.835937 6.917968-5.886719 3.253906-15.496094 4.730469-20.789063-.492187-3.957031-3.902344-4.414062-12.414063 1.429688-14.808594 6.074218-2.492187 6.066406-11.390625 0-13.878906-2.898438-1.191407-4.371094-3.664063-4.371094-7.355469 0-5.210938 3.304688-10.78125 12.582031-10.785156 8.328125 0 14.753907 4.832031 20.996094 9.75 6.769531 5.335937 15.890625-3.738282 10.53125-10.53125-4.09375-5.195313-6.023437-8.21875-6.917969-9.84375-2.015625-3.648438-2.839844-6.875-2.839844-11.144532 0-6.449218 3.621094-12.582031 10.773438-12.582031 3.703125 0 6.179688 1.46875 7.367188 4.367188 2.488281 6.082031 11.390624 6.078125 13.878906.003906 1.191406-2.898437 3.664062-4.371094 7.355468-4.371094 6.855469 0 10.785157 6.296875 10.785157 12.582031 0 4.277344-.820313 7.507813-2.832031 11.144532-.898438 1.632812-2.832032 4.667968-6.921876 9.851562-5.070312 6.433594 3.039063 15.421875 9.960938 10.945313 7.128906-4.613281 12.507812-10.171875 21.5625-10.171875 6.84375 0 13.3125 4.722656 12.511719 12.101562-.386719 3.601563-2.503907 4.867188-5.304688 6.542969-2.523437 1.507813-3.980469 4.523437-3.589843 7.441406.429687 3.191407 3.050781 4.917969 5.613281 6.441407 6.066406 3.601562 3.355469 13.34375-2.128907 16.140624-5.578124 2.84375-12.980468 1.574219-18.246093-1.335937-1.632813-.902344-4.667969-2.835937-9.847657-6.921875-2.988281-2.351562-7.261718-2.101562-9.949218.585938-2.6875 2.691406-2.9375 6.964843-.585938 9.949218 4.605469 5.839844 9.90625 12.640625 9.777344 20.5625-.101562 6.359375-3.71875 13.003906-10.789062 13.003906zm0 0"/></svg>