<svg height="511pt" viewBox="0 -21 511.99991 511" width="511pt" xmlns="http://www.w3.org/2000/svg"><path d="m80.949219 321.757812-44.507813 48.878907 6.527344 29.429687 30.019531 3.847656 44.507813-48.875zm0 0" fill="#ffe76c"/><path d="m300.175781 106.914062 11.074219-92.109374c.464844-3.882813 3.761719-6.804688 7.671875-6.804688h6.0625c3.910156 0 7.207031 2.921875 7.671875 6.804688l11.074219 92.109374-21.777344 17.105469zm0 0" fill="#ffe76c"/><path d="m279.773438 178.691406 14.5-53.054687h55.359374l14.5 53.054687zm0 0" fill="#00bbc9"/><path d="m186.042969 140.960938-23.121094-89.847657c-.972656-3.785156 1.035156-7.703125 4.679687-9.125l5.648438-2.199219c3.644531-1.421874 7.773438.105469 9.621094 3.554688l43.757812 81.804688-14.085937 23.84375zm0 0" fill="#ffe76c"/><path d="m193.089844 215.246094-5.75-54.695313 51.582031-20.097656 32.769531 44.167969zm0 0" fill="#00bbc9"/><path d="m90.039062 204.730469-49.785156-78.285157c-2.097656-3.300781-1.398437-7.648437 1.625-10.125l4.691406-3.839843c3.027344-2.480469 7.425782-2.304688 10.25.402343l66.917969 64.253907-6.011719 27.03125zm0 0" fill="#ffe76c"/><path d="m119.722656 273.1875-22.386718-50.230469 42.832031-35.070312 44.824219 31.863281zm0 0" fill="#00bbc9"/><path d="m423.53125 117.605469 46.144531-80.484375c1.945313-3.390625 6.121094-4.796875 9.71875-3.269532l5.582031 2.367188c3.601563 1.523438 5.496094 5.5 4.410157 9.257812l-25.753907 89.125-26.726562 7.25zm0 0" fill="#ffe76c"/><path d="m376.734375 175.726562 34.054687-43.1875 50.96875 21.609376-7.359374 54.5zm0 0" fill="#00bbc9"/><path d="m350.660156 160.914062c-128.0625 1.359376-211.949218 75.3125-260.839844 139.765626l16.71875 27.914062 31.554688 14.175781c8.457031-8.019531 19.664062-12.488281 31.316406-12.488281 19.269532 0 36.554688 12.097656 42.890625 30.292969 20.433594 58.707031 76.269531 100.84375 141.945313 100.84375 83.058594 0 150.378906-67.394531 150.257812-150.484375-.121094-83.722656-70.128906-150.90625-153.84375-150.019532zm0 0" fill="#1fd7c3"/><path d="m123.464844 381.597656c-5.230469.023438-10.484375-1.703125-14.609375-5.296875l-48.269531-42.09375c-9.261719-8.074219-10.222657-22.125-2.148438-31.382812 8.074219-9.257813 22.125-10.21875 31.382812-2.148438 0 0 48.1875 42.019531 48.273438 42.09375 15.167969 13.226563 5.355469 38.734375-14.628906 38.828125zm0 0" fill="#ffb44d"/><path d="m303.78125 76.914062-3.605469 30 21.777344 17.105469 21.777344-17.105469-3.605469-30zm0 0" fill="#ffb44d"/><path d="m343.730469 106.914062h-43.554688c-9.449219 0-17.105469 7.660157-17.105469 17.105469 0 9.449219 7.65625 17.105469 17.105469 17.105469h43.554688c9.449219 0 17.105469-7.65625 17.105469-17.105469 0-9.445312-7.65625-17.105469-17.105469-17.105469zm0 0" fill="#1fd7c3"/><path d="m226.628906 125.148438-14.253906-26.644532-33.863281 13.195313 7.53125 29.261719 26.503906 8.03125zm0 0" fill="#ffb44d"/><path d="m226.628906 125.148438-40.585937 15.8125c-8.800781 3.429687-13.15625 13.34375-9.726563 22.148437 3.429688 8.800781 13.34375 13.160156 22.148438 9.730469l40.582031-15.8125c8.804687-3.429688 13.160156-13.347656 9.730469-22.148438-3.429688-8.804687-13.347656-13.160156-22.148438-9.730468zm0 0" fill="#1fd7c3"/><path d="m73.824219 179.230469 16.214843 25.5 27.6875-.5625 6.011719-27.03125-21.796875-20.925781zm0 0" fill="#ffb44d"/><path d="m123.738281 177.136719-33.699219 27.59375c-7.308593 5.984375-8.382812 16.761719-2.398437 24.070312 5.984375 7.3125 16.761719 8.382813 24.070313 2.398438l33.703124-27.589844c7.308594-5.988281 8.382813-16.761719 2.398438-24.074219-5.984375-7.308594-16.765625-8.382812-24.074219-2.398437zm0 0" fill="#1fd7c3"/><path d="m472.019531 105.574219-33.457031-14.183594-15.03125 26.214844 13.375 24.246093 26.726562-7.246093zm0 0" fill="#ffb44d"/><path d="m463.632812 134.605469-40.101562-17c-8.699219-3.6875-18.738281.375-22.425781 9.070312-3.6875 8.699219.375 18.738281 9.074219 22.425781l40.097656 17c8.699218 3.6875 18.738281-.375 22.425781-9.074218 3.6875-8.695313-.375-18.734375-9.070313-22.421875zm0 0" fill="#1fd7c3"/><path d="m61.335938 434.007812c-4.15625 0-8.328126-1.492187-11.644532-4.511718l-36.542968-33.277344c-7.066407-6.433594-7.578126-17.375-1.144532-24.4375 6.429688-7.066406 17.371094-7.578125 24.4375-1.144531 0 0 36.5 33.234375 36.546875 33.277343 11.371094 10.355469 3.765625 30.09375-11.652343 30.09375zm0 0" fill="#ffb44d"/><path d="m275.4375 310.488281v14.695313c0 4.140625 3.359375 7.5 7.5 7.5s7.5-3.359375 7.5-7.5v-14.695313c0-4.140625-3.359375-7.5-7.5-7.5s-7.5 3.359375-7.5 7.5zm0 0"/><path d="m437.8125 310.488281v14.695313c0 4.140625 3.359375 7.5 7.5 7.5 4.144531 0 7.5-3.359375 7.5-7.5v-14.695313c0-4.140625-3.355469-7.5-7.5-7.5-4.140625 0-7.5 3.359375-7.5 7.5zm0 0"/><path d="m378.519531 319.226562c-3.503906 4.003907-8.75 6.300782-14.394531 6.300782s-10.890625-2.296875-14.390625-6.300782c-2.726563-3.121093-7.464844-3.4375-10.585937-.710937-3.117188 2.726563-3.4375 7.464844-.707032 10.582031 6.347656 7.265625 15.710938 11.429688 25.683594 11.429688s19.335938-4.164063 25.6875-11.429688c2.726562-3.117187 2.40625-7.855468-.710938-10.582031-3.121093-2.726563-7.859374-2.410156-10.582031.710937zm0 0"/><path d="m463.386719 198.09375 3.402343-25.195312c5.65625-2.46875 10.304688-7.015626 12.816407-12.941407 4.234375-9.988281 1.25-21.933593-7.195313-28.738281l24.175782-83.65625c2.136718-7.398438-1.59375-15.246094-8.6875-18.25 0 0-5.578126-2.363281-5.582032-2.367188-7-2.96875-15.367187-.152343-19.152344 6.445313l-43.3125 75.542969c-.992187-.121094-1.988281-.191406-2.996093-.191406-16.835938 0-28.964844 17.414062-23.050781 33.214843l-11.257813 14.277344c-5.730469-1.089844-11.542969-1.855469-17.417969-2.316406l-3.550781-12.992188c4.179687-4.414062 6.75-10.363281 6.75-16.90625 0-11.21875-7.550781-20.703125-17.835937-23.648437l-10.394532-86.460938c-.917968-7.644531-7.417968-13.410156-15.117187-13.410156h-6.0625c-7.699219 0-14.199219 5.765625-15.121094 13.410156l-10.394531 86.457032c-10.285156 2.949218-17.839844 12.433593-17.839844 23.652343 0 6.542969 2.574219 12.492188 6.753906 16.90625l-5.964844 21.816407c-3.253906.804687-6.46875 1.667968-9.652343 2.566406l-11.085938-14.941406c2.390625-5.855469 2.453125-12.296876.144531-18.210938-3.707031-9.523438-12.710937-15.675781-22.929687-15.675781-.765625 0-1.523437.035156-2.28125.105469l-41.066406-76.777344c-2.65625-4.964844-7.800781-8.046875-13.429688-8.046875-1.898437 0-3.757812.351562-5.527343 1.039062l-5.648438 2.203125c-7.175781 2.792969-11.136719 10.523438-9.21875 17.980469l21.699219 84.335937c-8.511719 6.480469-12.105469 18.058594-8.035157 28.511719 2.359376 6.050781 6.851563 10.730469 12.433594 13.347657l2.433594 23.144531c-1.902344 1.203125-3.785156 2.414062-5.644531 3.640625l-19.4375-13.8125c.460937-6.308594-1.472657-12.453125-5.496094-17.367188-4.691406-5.730468-11.636719-9.015625-19.046875-9.015625-3.363281 0-6.671875.710938-9.726562 2.027344l-62.828126-60.320313c-5.554687-5.332031-14.234374-5.675781-20.191406-.800781l-4.691406 3.84375c-5.957031 4.875-7.335938 13.457031-3.203125 19.953125l16.46875 25.894532c2.21875 3.496093 6.855469 4.527343 10.351563 2.304687 3.496093-2.222656 4.527343-6.859375 2.304687-10.355469l-16.46875-25.894531c-.0625-.097656-.039063-.226563.050781-.296875l4.6875-3.84375c.089844-.070312.21875-.066406.304688.011719l60.820312 58.398437-20.617187 16.878906-12.925781-20.328124c-2.222657-3.496094-6.859376-4.527344-10.355469-2.304688-3.496094 2.222656-4.527344 6.859375-2.300781 10.355469l14.402343 22.652343c-2.359375 3.394532-3.835937 7.351563-4.257812 11.582032-.652344 6.539062 1.28125 12.941406 5.445312 18.027344 4.027344 4.917968 9.71875 8.03125 15.9375 8.816406l10.738281 24.085937c-7.378906 8.105469-14.179687 16.21875-20.421874 24.183594-3.988282-1.921875-8.386719-2.941406-12.878907-2.941406-8.601562 0-16.777343 3.71875-22.425781 10.199219-10.5625 12.109374-9.53125 30.421874 2.144531 41.296874l-19.78125 21.71875c-3.21875-1.480468-6.734375-2.285156-10.351562-2.285156-6.96875 0-13.652344 2.953125-18.339844 8.101563-9.207031 10.109375-8.472656 25.828125 1.636719 35.035156 0 0 36.527344 33.261719 36.546875 33.277344 12.789062 11.644531 33.375 6.480469 39.554687-9.480469 2.792969-7.210938 2.164063-14.960938-1.417968-21.261719l20.703124-22.734375.445313.386719c15.535156 13.546875 40.0625 6.578125 47.117187-12.378906 3.269532-8.78125 2.296876-18.160157-2.300781-25.683594 6.113281-3.96875 13.25-6.105469 20.667969-6.105469 16.15625 0 30.546875 10.148438 35.804688 25.253906 22.042968 63.328126 81.933593 105.878907 149.027343 105.878907 39.855469 0 77.90625-14.90625 107.144531-41.976563 3.039063-2.8125 3.222657-7.558594.40625-10.597656-2.8125-3.039062-7.558593-3.222656-10.597656-.410156-26.457031 24.496094-60.890625 37.984375-96.953125 37.984375-60.714843 0-114.914062-38.503907-134.863281-95.8125-7.351562-21.125-27.4375-35.320313-49.96875-35.320313-11.324219 0-22.175781 3.558594-31.199219 10.140625-5.265625-4.59375-38.140625-33.257812-38.140625-33.257812 39.898438-50.847657 103.546875-108.082031 195.476563-125.765625 18.164062-3.496094 36.695312-5.289063 55.191406-5.488282 38.355469-.40625 76.628906 15.132813 103.910156 42.089844 27.257813 26.929688 42.300781 62.601563 42.355469 100.441406.042969 30.234376-9.25 59.140626-26.878906 83.597657-2.421875 3.359375-1.664063 8.046875 1.695312 10.46875s8.046875 1.664062 10.472656-1.699219c19.484376-27.027344 29.757813-58.976562 29.710938-92.390625-.0625-41.871094-16.6875-81.324219-46.8125-111.089844-.59375-.585937-1.199219-1.160156-1.800781-1.738281zm-393.183594 222.050781c-2.4375 6.296875-10.378906 8.441407-15.464844 3.808594l-36.546875-33.28125c-3.996094-3.636719-4.289062-9.847656-.648437-13.84375 3.59375-3.945313 9.890625-4.242187 13.839843-.644531 0 0 36.367188 33.113281 36.546876 33.277344 3.496093 3.179687 3.464843 7.605468 2.273437 10.683593zm2.28125-26.824219c-5.339844-4.863281-23.617187-21.507812-25.453125-23.179687l19.183594-21.066406 25.953125 22.628906zm64.375-29.023437c-3.453125 9.246094-15.371094 13.066406-23.078125 6.347656l-48.273438-42.089843c-6.125-5.34375-6.765624-14.675782-1.421874-20.800782 6.242187-7.160156 15.90625-5.710937 22.394531-.03125l46.679687 40.699219c4.871094 4.25 5.683594 10.570313 3.699219 15.875zm339.320313-323.441406c.058593-.109375.167968-.117188.285156-.097657l5.582031 2.367188c.105469.042969.160156.160156.128906.269531l-23.40625 81.003907-24.53125-10.398438zm-68.171876 88.75c2.039063-4.8125 7.785157-7.132813 12.589844-5.09375 0 0 40.0625 16.980469 40.101563 16.996093 4.820312 2.042969 7.140625 7.769532 5.09375 12.59375-2.042969 4.824219-7.78125 7.097657-12.589844 5.09375 0 0-40.085937-16.992187-40.109375-17.003906-4.714844-2.09375-7.167969-7.679687-5.085938-12.585937zm-4.578124 24.375c.289062.1875 2.800781 1.597656 3.816406 2.027343l40.101562 17c1.285156.546876 2.617188.976563 3.976563 1.296876.046875.011718.089843.027343.132812.035156l-1.632812 12.089844c-15.480469-11.890626-32.8125-20.75-51.261719-26.28125zm-84.738282-138.277344c.011719-.117187.109375-.203125.226563-.203125h6.0625c.113281 0 .210937.085938.226562.199219l10.0625 83.714843h-26.644531zm-18.523437 98.710937h43.558593c5.296876 0 9.605469 4.3125 9.605469 9.605469 0 5.230469-4.394531 9.582031-9.605469 9.605469 0 0-43.546874 0-43.578124 0-5.15625-.195312-9.582032-4.230469-9.582032-9.605469 0-5.296875 4.304688-9.605469 9.601563-9.605469zm-7.269531 44.691407 2.964843-10.859375c.046875.007812 2.914063.375 4.304688.378906h43.582031c1.386719 0 4.234375-.371094 4.28125-.378906l1.414062 5.183594c-.558593.007812-1.113281.03125-1.671874.039062-6.707032.128906-13.402344.449219-20.089844.976562-11.667969.917969-23.289063 2.46875-34.785156 4.660157zm-51.117188-21.503907c1.890625 4.847657-.613281 10.542969-5.464844 12.4375 0 0-40.5625 15.804688-40.589844 15.8125-4.894531 1.851563-10.523437-.574218-12.429687-5.464843-1.921875-4.933594.527344-10.515625 5.464844-12.4375 0 0 40.253906-15.683594 40.261719-15.6875l.320312-.125c4.898438-1.90625 10.53125.574219 12.4375 5.464843zm-71.460938-88.625 5.726563-2.214843c.023437 0 .140625.003906.203125.121093l39.769531 74.347657-24.824219 9.671875-21.015624-81.65625c-.027344-.113282.03125-.226563.140624-.269532zm28.054688 144.828126-1.34375-12.765626c1.414062-.28125 2.804688-.691406 4.148438-1.214843 0 0 40.582031-15.808594 40.582031-15.808594 1.332031-.519531 2.65625-1.175781 3.875-1.917969l5.875 7.917969c-18.390625 6.246094-36.214844 14.261719-53.136719 23.789063zm-104.9375 30.246093c-3.320312-4.058593-2.703125-10.203125 1.347656-13.515625 0 0 33.671875-27.570312 33.699219-27.59375 4.054687-3.320312 10.195313-2.710937 13.515625 1.347656 3.3125 4.042969 2.691406 10.210938-1.34375 13.515626l-33.703125 27.59375c-4.023437 3.292968-10.21875 2.679687-13.515625-1.347657zm26.226562 30.597657-6.777343-15.210938c.023437-.011719.042969-.027344.070312-.042969 1.128907-.640625 2.417969-1.503906 3.5-2.390625 0 0 34.128907-27.496094 36.761719-30.578125.007812-.011719.019531-.023437.03125-.035156l12.164062 8.644531c-10.71875 7.824219-21.160156 16.414063-31.269531 25.671875-4.875 4.464844-9.789062 9.179688-14.480469 13.941407zm0 0"/></svg>