<svg height="511pt" viewBox="-76 0 511 511.99975" width="511pt" xmlns="http://www.w3.org/2000/svg"><path d="m306.273438 63.632812c-31.980469-35.554687-78.292969-56.210937-126.117188-56.210937s-94.136719 20.65625-126.117188 56.210937c-82.015624 91.1875-40.382812 227 16.292969 318.203126 21.058594 33.886718 64.804688 84.863281 90.273438 113.609374 10.601562 11.972657 29.160156 12.191407 40.125.550782 33.179687-35.207032 63.710937-73.066406 89.246093-114.160156 56.679688-91.203126 98.3125-227.015626 16.296876-318.203126zm0 0" fill="#ff7f5a"/><path d="m190.613281 495.445312c-25.46875-28.746093-69.214843-79.722656-90.269531-113.609374-56.675781-91.203126-98.308594-227.015626-16.296875-318.203126 28.621094-31.820312 68.726563-51.691406 111.113281-55.519531-4.976562-.449219-9.980468-.691406-15.003906-.691406-47.824219 0-94.136719 20.65625-126.117188 56.210937-82.015624 91.1875-40.382812 227 16.292969 318.203126 21.058594 33.886718 64.804688 84.863281 90.273438 113.609374 9.167969 10.355469 24.289062 11.910157 35.300781 4.613282-1.910156-1.269532-3.691406-2.804688-5.292969-4.613282zm0 0" fill="#ff5d29"/><path d="m304.617188 170.660156c0 68.738282-55.722657 124.460938-124.460938 124.460938s-124.460938-55.722656-124.460938-124.460938c0-68.738281 55.722657-124.460937 124.460938-124.460937s124.460938 55.722656 124.460938 124.460937zm0 0" fill="#fff3e4"/><path d="m193.347656 237.703125-9.890625-82.691406h-6.605469l-9.890624 82.691406c-.488282 4.085937 2.703124 7.679687 6.820312 7.679687h12.75c4.113281 0 7.304688-3.597656 6.816406-7.679687zm0 0" fill="#00bbc9"/><path d="m181.253906 183.011719c51.867188 75.773437 110.265625 27.28125 74.003906-2.027344 29.441407-23.789063-3.515624-60.226563-44.710937-32.546875 31.636719-42.59375-6.015625-77.929688-30.390625-47.761719-24.378906-30.167969-62.03125 5.167969-30.394531 47.761719-41.195313-27.679688-74.148438 8.757812-44.710938 32.546875-36.261719 29.308594 22.140625 77.800781 74.003907 2.027344.25-.363281.660156-.582031 1.097656-.582031.441406 0 .855468.21875 1.101562.582031zm0 0" fill="#1fd7c3"/><path d="m267.859375 269.355469c28.140625-25.042969 44.28125-60.984375 44.28125-98.613281 0-72.765626-59.199219-131.964844-131.964844-131.964844-72.761719 0-131.960937 59.199218-131.960937 131.964844 0 72.765624 59.199218 131.964843 131.960937 131.964843 21.550781 0 42.941407-5.320312 61.867188-15.382812 3.660156-1.945313 5.050781-6.488281 3.101562-10.148438-1.941406-3.65625-6.484375-5.046875-10.144531-3.101562-16.765625 8.914062-35.722656 13.625-54.824219 13.625-64.488281 0-116.957031-52.464844-116.957031-116.957031 0-64.492188 52.46875-116.957032 116.957031-116.957032 64.492188 0 116.960938 52.464844 116.960938 116.957032 0 33.351562-14.308594 65.207031-39.25 87.402343-3.097657 2.753907-3.375 7.496094-.621094 10.589844 2.753906 3.097656 7.496094 3.371094 10.59375.621094zm0 0"/><path d="m311.871094 58.699219c-33.550782-37.304688-81.550782-58.699219-131.695313-58.699219-46.742187 0-92.523437 19.050781-125.605469 52.273438-2.921874 2.933593-2.914062 7.683593.023438 10.609374 2.933594 2.921876 7.683594 2.914063 10.609375-.023437 30.285156-30.410156 72.191406-47.855469 114.972656-47.855469 45.894531 0 89.828125 19.585938 120.539063 53.730469 35.761718 39.757813 49.890625 91.277344 42 153.125-6.316406 49.511719-27.300782 104.949219-59.089844 156.097656-23.613281 38.003907-52.507812 74.957031-88.332031 112.976563-7.839844 8.320312-21.453125 8.199218-29.050781-.378906-24.453126-27.605469-68.597657-78.9375-89.515626-112.597657-29.570312-47.585937-50.050781-99.558593-57.664062-146.34375-9.429688-57.949219-.03125-107.421875 27.9375-147.039062 2.390625-3.386719 1.582031-8.066407-1.804688-10.457031-3.382812-2.386719-8.0625-1.582032-10.453124 1.804687-30.316407 42.941406-40.574219 96.136719-30.488282 158.101563 7.921875 48.695312 29.132813 102.625 59.726563 151.855468 21.5 34.59375 66.257812 86.664063 91.023437 114.625 13.351563 15.066406 37.429688 15.339844 51.207032.71875 36.515624-38.753906 66.007812-76.484375 90.15625-115.34375 32.902343-52.941406 54.644531-110.515625 61.230468-162.121094 3.949219-30.96875 2.601563-60.070312-4.003906-86.5-7.386719-29.5625-21.425781-55.992187-41.722656-78.558593zm0 0"/><path d="m239.550781 231.0625c15.570313 0 28.507813-8.128906 32.957031-20.707031 3.5-9.898438 1.066407-20.425781-6.488281-29.289063 7.550781-8.859375 9.984375-19.382812 6.484375-29.277344-4.449218-12.585937-17.386718-20.714843-32.957031-20.714843-3.96875 0-8.027344.527343-12.121094 1.554687 4.023438-12.125 3.695313-24.003906-1.285156-33.90625-5.191406-10.324218-15.03125-16.738281-25.679687-16.738281-7.136719 0-14.140626 2.808594-20.285157 8.03125-6.144531-5.226563-13.148437-8.03125-20.289062-8.03125-10.648438 0-20.488281 6.414063-25.679688 16.738281-4.980469 9.898438-5.304687 21.78125-1.28125 33.90625-4.09375-1.027344-8.152343-1.554687-12.117187-1.554687-15.578125 0-28.515625 8.128906-32.964844 20.710937-3.5 9.898438-1.0625 20.421875 6.488281 29.28125-7.550781 8.863282-9.984375 19.386719-6.484375 29.28125 4.449219 12.585938 17.386719 20.714844 32.960938 20.714844 9.03125 0 24.257812-2.789062 41.519531-17.535156 0 0-2.789063 23.339844-2.792969 23.363281-1.007812 8.421875 5.800782 16.074219 14.265625 16.074219h12.75c8.492188 0 15.273438-7.648438 14.265625-16.074219l-2.792968-23.363281c17.261718 14.742187 32.488281 17.535156 41.527343 17.535156zm-65.03125 6.898438 5.132813-42.910157c.175781-.226562.347656-.441406.523437-.671875.175781.230469.351563.441406.527344.667969l5.132813 42.914063zm19.230469-50.605469c-2.171875-2.722657-4.28125-5.574219-6.265625-8.476563-.007813-.007812-.011719-.015625-.015625-.023437-3.425781-5.058594-11.148438-5.015625-14.582031 0-1.996094 2.917969-4.113281 5.78125-6.300781 8.519531-14.675782 18.351562-31.011719 28.683594-45.777344 28.683594-9.128906 0-16.515625-4.207032-18.816406-10.710938-2.121094-6.003906.722656-12.726562 7.796874-18.445312 3.664063-2.960938 3.664063-8.710938 0-11.671875-7.078124-5.71875-9.917968-12.441407-7.796874-18.441407 2.300781-6.503906 9.6875-10.710937 18.816406-10.710937 7.78125 0 16.355468 2.996094 24.792968 8.664063 3.03125 2.039062 7.089844 1.597656 9.613282-1.046876 2.519531-2.644531 2.769531-6.71875.59375-9.652343-10.304688-13.871094-13.367188-28.292969-8.195313-38.578125 2.667969-5.308594 7.257813-8.476563 12.277344-8.476563 4.898437 0 10.03125 3.011719 14.449219 8.484375 2.960937 3.660156 8.71875 3.652344 11.671875 0 4.417969-5.472656 9.550781-8.484375 14.453125-8.484375 5.015625 0 9.605468 3.167969 12.273437 8.476563 5.171875 10.285156 2.109375 24.710937-8.191406 38.578125-2.179687 2.933593-1.929687 7.007812.59375 9.652343 2.519531 2.644532 6.578125 3.085938 9.613281 1.046876 8.433594-5.667969 17.007813-8.664063 24.792969-8.664063 9.125 0 16.511719 4.207031 18.8125 10.710937 2.121094 6-.71875 12.722657-7.796875 18.441407-3.660156 2.957031-3.648438 8.722656 0 11.671875 7.078125 5.71875 9.921875 12.445312 7.796875 18.449218-2.296875 6.503907-9.683594 10.707032-18.8125 10.707032-14.769531-.003906-31.117187-10.34375-45.796875-28.703125zm0 0"/></svg>